<?xml version="1.0" encoding="utf-8" standalone="no"?>
<!DOCTYPE svg PUBLIC "-//W3C//DTD SVG 1.1//EN"
  "http://www.w3.org/Graphics/SVG/1.1/DTD/svg11.dtd">
<svg xmlns:xlink="http://www.w3.org/1999/xlink" width="864pt" height="576pt" viewBox="0 0 864 576" xmlns="http://www.w3.org/2000/svg" version="1.1">
 <metadata>
  <rdf:RDF xmlns:dc="http://purl.org/dc/elements/1.1/" xmlns:cc="http://creativecommons.org/ns#" xmlns:rdf="http://www.w3.org/1999/02/22-rdf-syntax-ns#">
   <cc:Work>
    <dc:type rdf:resource="http://purl.org/dc/dcmitype/StillImage"/>
    <dc:date>2021-12-23T20:05:58.037589</dc:date>
    <dc:format>image/svg+xml</dc:format>
    <dc:creator>
     <cc:Agent>
      <dc:title>Matplotlib v3.5.0, https://matplotlib.org/</dc:title>
     </cc:Agent>
    </dc:creator>
   </cc:Work>
  </rdf:RDF>
 </metadata>
 <defs>
  <style type="text/css">*{stroke-linejoin: round; stroke-linecap: butt}</style>
 </defs>
 <g id="figure_1">
  <g id="patch_1">
   <path d="M 0 576 
L 864 576 
L 864 0 
L 0 0 
L 0 576 
z
" style="fill: none"/>
  </g>
  <g id="axes_1">
   <g id="patch_2">
    <path d="M 108 504 
L 777.6 504 
L 777.6 69.12 
L 108 69.12 
L 108 504 
z
" style="fill: none"/>
   </g>
   <g id="matplotlib.axis_1">
    <g id="xtick_1">
     <g id="line2d_1">
      <defs>
       <path id="me5d56698d5" d="M 0 0 
L 0 3.5 
" style="stroke: #ffffff; stroke-width: 0.8"/>
      </defs>
      <g>
       <use xlink:href="#me5d56698d5" x="196.97944" y="504" style="fill: #ffffff; stroke: #ffffff; stroke-width: 0.8"/>
      </g>
     </g>
     <g id="text_1">
      <!-- $\mathdefault{10^{2}}$ -->
      <g style="fill: #ffffff" transform="translate(186.41944 520.118125)scale(0.12 -0.12)">
       <defs>
        <path id="DejaVuSans-31" d="M 794 531 
L 1825 531 
L 1825 4091 
L 703 3866 
L 703 4441 
L 1819 4666 
L 2450 4666 
L 2450 531 
L 3481 531 
L 3481 0 
L 794 0 
L 794 531 
z
" transform="scale(0.015625)"/>
        <path id="DejaVuSans-30" d="M 2034 4250 
Q 1547 4250 1301 3770 
Q 1056 3291 1056 2328 
Q 1056 1369 1301 889 
Q 1547 409 2034 409 
Q 2525 409 2770 889 
Q 3016 1369 3016 2328 
Q 3016 3291 2770 3770 
Q 2525 4250 2034 4250 
z
M 2034 4750 
Q 2819 4750 3233 4129 
Q 3647 3509 3647 2328 
Q 3647 1150 3233 529 
Q 2819 -91 2034 -91 
Q 1250 -91 836 529 
Q 422 1150 422 2328 
Q 422 3509 836 4129 
Q 1250 4750 2034 4750 
z
" transform="scale(0.015625)"/>
        <path id="DejaVuSans-32" d="M 1228 531 
L 3431 531 
L 3431 0 
L 469 0 
L 469 531 
Q 828 903 1448 1529 
Q 2069 2156 2228 2338 
Q 2531 2678 2651 2914 
Q 2772 3150 2772 3378 
Q 2772 3750 2511 3984 
Q 2250 4219 1831 4219 
Q 1534 4219 1204 4116 
Q 875 4013 500 3803 
L 500 4441 
Q 881 4594 1212 4672 
Q 1544 4750 1819 4750 
Q 2544 4750 2975 4387 
Q 3406 4025 3406 3419 
Q 3406 3131 3298 2873 
Q 3191 2616 2906 2266 
Q 2828 2175 2409 1742 
Q 1991 1309 1228 531 
z
" transform="scale(0.015625)"/>
       </defs>
       <use xlink:href="#DejaVuSans-31" transform="translate(0 0.765625)"/>
       <use xlink:href="#DejaVuSans-30" transform="translate(63.623047 0.765625)"/>
       <use xlink:href="#DejaVuSans-32" transform="translate(128.203125 39.046875)scale(0.7)"/>
      </g>
     </g>
    </g>
    <g id="xtick_2">
     <g id="line2d_2">
      <g>
       <use xlink:href="#me5d56698d5" x="293.272213" y="504" style="fill: #ffffff; stroke: #ffffff; stroke-width: 0.8"/>
      </g>
     </g>
     <g id="text_2">
      <!-- $\mathdefault{10^{5}}$ -->
      <g style="fill: #ffffff" transform="translate(282.712213 520.118125)scale(0.12 -0.12)">
       <defs>
        <path id="DejaVuSans-35" d="M 691 4666 
L 3169 4666 
L 3169 4134 
L 1269 4134 
L 1269 2991 
Q 1406 3038 1543 3061 
Q 1681 3084 1819 3084 
Q 2600 3084 3056 2656 
Q 3513 2228 3513 1497 
Q 3513 744 3044 326 
Q 2575 -91 1722 -91 
Q 1428 -91 1123 -41 
Q 819 9 494 109 
L 494 744 
Q 775 591 1075 516 
Q 1375 441 1709 441 
Q 2250 441 2565 725 
Q 2881 1009 2881 1497 
Q 2881 1984 2565 2268 
Q 2250 2553 1709 2553 
Q 1456 2553 1204 2497 
Q 953 2441 691 2322 
L 691 4666 
z
" transform="scale(0.015625)"/>
       </defs>
       <use xlink:href="#DejaVuSans-31" transform="translate(0 0.684375)"/>
       <use xlink:href="#DejaVuSans-30" transform="translate(63.623047 0.684375)"/>
       <use xlink:href="#DejaVuSans-35" transform="translate(128.203125 38.965625)scale(0.7)"/>
      </g>
     </g>
    </g>
    <g id="xtick_3">
     <g id="line2d_3">
      <g>
       <use xlink:href="#me5d56698d5" x="389.564986" y="504" style="fill: #ffffff; stroke: #ffffff; stroke-width: 0.8"/>
      </g>
     </g>
     <g id="text_3">
      <!-- $\mathdefault{10^{8}}$ -->
      <g style="fill: #ffffff" transform="translate(379.004986 520.118125)scale(0.12 -0.12)">
       <defs>
        <path id="DejaVuSans-38" d="M 2034 2216 
Q 1584 2216 1326 1975 
Q 1069 1734 1069 1313 
Q 1069 891 1326 650 
Q 1584 409 2034 409 
Q 2484 409 2743 651 
Q 3003 894 3003 1313 
Q 3003 1734 2745 1975 
Q 2488 2216 2034 2216 
z
M 1403 2484 
Q 997 2584 770 2862 
Q 544 3141 544 3541 
Q 544 4100 942 4425 
Q 1341 4750 2034 4750 
Q 2731 4750 3128 4425 
Q 3525 4100 3525 3541 
Q 3525 3141 3298 2862 
Q 3072 2584 2669 2484 
Q 3125 2378 3379 2068 
Q 3634 1759 3634 1313 
Q 3634 634 3220 271 
Q 2806 -91 2034 -91 
Q 1263 -91 848 271 
Q 434 634 434 1313 
Q 434 1759 690 2068 
Q 947 2378 1403 2484 
z
M 1172 3481 
Q 1172 3119 1398 2916 
Q 1625 2713 2034 2713 
Q 2441 2713 2670 2916 
Q 2900 3119 2900 3481 
Q 2900 3844 2670 4047 
Q 2441 4250 2034 4250 
Q 1625 4250 1398 4047 
Q 1172 3844 1172 3481 
z
" transform="scale(0.015625)"/>
       </defs>
       <use xlink:href="#DejaVuSans-31" transform="translate(0 0.765625)"/>
       <use xlink:href="#DejaVuSans-30" transform="translate(63.623047 0.765625)"/>
       <use xlink:href="#DejaVuSans-38" transform="translate(128.203125 39.046875)scale(0.7)"/>
      </g>
     </g>
    </g>
    <g id="xtick_4">
     <g id="line2d_4">
      <g>
       <use xlink:href="#me5d56698d5" x="485.857759" y="504" style="fill: #ffffff; stroke: #ffffff; stroke-width: 0.8"/>
      </g>
     </g>
     <g id="text_4">
      <!-- $\mathdefault{10^{11}}$ -->
      <g style="fill: #ffffff" transform="translate(472.597759 520.118125)scale(0.12 -0.12)">
       <use xlink:href="#DejaVuSans-31" transform="translate(0 0.684375)"/>
       <use xlink:href="#DejaVuSans-30" transform="translate(63.623047 0.684375)"/>
       <use xlink:href="#DejaVuSans-31" transform="translate(128.203125 38.965625)scale(0.7)"/>
       <use xlink:href="#DejaVuSans-31" transform="translate(172.739258 38.965625)scale(0.7)"/>
      </g>
     </g>
    </g>
    <g id="xtick_5">
     <g id="line2d_5">
      <g>
       <use xlink:href="#me5d56698d5" x="582.150532" y="504" style="fill: #ffffff; stroke: #ffffff; stroke-width: 0.8"/>
      </g>
     </g>
     <g id="text_5">
      <!-- $\mathdefault{10^{14}}$ -->
      <g style="fill: #ffffff" transform="translate(568.890532 520.118125)scale(0.12 -0.12)">
       <defs>
        <path id="DejaVuSans-34" d="M 2419 4116 
L 825 1625 
L 2419 1625 
L 2419 4116 
z
M 2253 4666 
L 3047 4666 
L 3047 1625 
L 3713 1625 
L 3713 1100 
L 3047 1100 
L 3047 0 
L 2419 0 
L 2419 1100 
L 313 1100 
L 313 1709 
L 2253 4666 
z
" transform="scale(0.015625)"/>
       </defs>
       <use xlink:href="#DejaVuSans-31" transform="translate(0 0.684375)"/>
       <use xlink:href="#DejaVuSans-30" transform="translate(63.623047 0.684375)"/>
       <use xlink:href="#DejaVuSans-31" transform="translate(128.203125 38.965625)scale(0.7)"/>
       <use xlink:href="#DejaVuSans-34" transform="translate(172.739258 38.965625)scale(0.7)"/>
      </g>
     </g>
    </g>
    <g id="xtick_6">
     <g id="line2d_6">
      <g>
       <use xlink:href="#me5d56698d5" x="678.443304" y="504" style="fill: #ffffff; stroke: #ffffff; stroke-width: 0.8"/>
      </g>
     </g>
     <g id="text_6">
      <!-- $\mathdefault{10^{17}}$ -->
      <g style="fill: #ffffff" transform="translate(665.183304 520.118125)scale(0.12 -0.12)">
       <defs>
        <path id="DejaVuSans-37" d="M 525 4666 
L 3525 4666 
L 3525 4397 
L 1831 0 
L 1172 0 
L 2766 4134 
L 525 4134 
L 525 4666 
z
" transform="scale(0.015625)"/>
       </defs>
       <use xlink:href="#DejaVuSans-31" transform="translate(0 0.684375)"/>
       <use xlink:href="#DejaVuSans-30" transform="translate(63.623047 0.684375)"/>
       <use xlink:href="#DejaVuSans-31" transform="translate(128.203125 38.965625)scale(0.7)"/>
       <use xlink:href="#DejaVuSans-37" transform="translate(172.739258 38.965625)scale(0.7)"/>
      </g>
     </g>
    </g>
    <g id="xtick_7">
     <g id="line2d_7">
      <g>
       <use xlink:href="#me5d56698d5" x="774.736077" y="504" style="fill: #ffffff; stroke: #ffffff; stroke-width: 0.8"/>
      </g>
     </g>
     <g id="text_7">
      <!-- $\mathdefault{10^{20}}$ -->
      <g style="fill: #ffffff" transform="translate(761.476077 520.118125)scale(0.12 -0.12)">
       <use xlink:href="#DejaVuSans-31" transform="translate(0 0.765625)"/>
       <use xlink:href="#DejaVuSans-30" transform="translate(63.623047 0.765625)"/>
       <use xlink:href="#DejaVuSans-32" transform="translate(128.203125 39.046875)scale(0.7)"/>
       <use xlink:href="#DejaVuSans-30" transform="translate(172.739258 39.046875)scale(0.7)"/>
      </g>
     </g>
    </g>
    <g id="text_8">
     <!-- translation (log scale) -->
     <g style="fill: #ffffff" transform="translate(377.436563 535.731875)scale(0.12 -0.12)">
      <defs>
       <path id="DejaVuSans-74" d="M 1172 4494 
L 1172 3500 
L 2356 3500 
L 2356 3053 
L 1172 3053 
L 1172 1153 
Q 1172 725 1289 603 
Q 1406 481 1766 481 
L 2356 481 
L 2356 0 
L 1766 0 
Q 1100 0 847 248 
Q 594 497 594 1153 
L 594 3053 
L 172 3053 
L 172 3500 
L 594 3500 
L 594 4494 
L 1172 4494 
z
" transform="scale(0.015625)"/>
       <path id="DejaVuSans-72" d="M 2631 2963 
Q 2534 3019 2420 3045 
Q 2306 3072 2169 3072 
Q 1681 3072 1420 2755 
Q 1159 2438 1159 1844 
L 1159 0 
L 581 0 
L 581 3500 
L 1159 3500 
L 1159 2956 
Q 1341 3275 1631 3429 
Q 1922 3584 2338 3584 
Q 2397 3584 2469 3576 
Q 2541 3569 2628 3553 
L 2631 2963 
z
" transform="scale(0.015625)"/>
       <path id="DejaVuSans-61" d="M 2194 1759 
Q 1497 1759 1228 1600 
Q 959 1441 959 1056 
Q 959 750 1161 570 
Q 1363 391 1709 391 
Q 2188 391 2477 730 
Q 2766 1069 2766 1631 
L 2766 1759 
L 2194 1759 
z
M 3341 1997 
L 3341 0 
L 2766 0 
L 2766 531 
Q 2569 213 2275 61 
Q 1981 -91 1556 -91 
Q 1019 -91 701 211 
Q 384 513 384 1019 
Q 384 1609 779 1909 
Q 1175 2209 1959 2209 
L 2766 2209 
L 2766 2266 
Q 2766 2663 2505 2880 
Q 2244 3097 1772 3097 
Q 1472 3097 1187 3025 
Q 903 2953 641 2809 
L 641 3341 
Q 956 3463 1253 3523 
Q 1550 3584 1831 3584 
Q 2591 3584 2966 3190 
Q 3341 2797 3341 1997 
z
" transform="scale(0.015625)"/>
       <path id="DejaVuSans-6e" d="M 3513 2113 
L 3513 0 
L 2938 0 
L 2938 2094 
Q 2938 2591 2744 2837 
Q 2550 3084 2163 3084 
Q 1697 3084 1428 2787 
Q 1159 2491 1159 1978 
L 1159 0 
L 581 0 
L 581 3500 
L 1159 3500 
L 1159 2956 
Q 1366 3272 1645 3428 
Q 1925 3584 2291 3584 
Q 2894 3584 3203 3211 
Q 3513 2838 3513 2113 
z
" transform="scale(0.015625)"/>
       <path id="DejaVuSans-73" d="M 2834 3397 
L 2834 2853 
Q 2591 2978 2328 3040 
Q 2066 3103 1784 3103 
Q 1356 3103 1142 2972 
Q 928 2841 928 2578 
Q 928 2378 1081 2264 
Q 1234 2150 1697 2047 
L 1894 2003 
Q 2506 1872 2764 1633 
Q 3022 1394 3022 966 
Q 3022 478 2636 193 
Q 2250 -91 1575 -91 
Q 1294 -91 989 -36 
Q 684 19 347 128 
L 347 722 
Q 666 556 975 473 
Q 1284 391 1588 391 
Q 1994 391 2212 530 
Q 2431 669 2431 922 
Q 2431 1156 2273 1281 
Q 2116 1406 1581 1522 
L 1381 1569 
Q 847 1681 609 1914 
Q 372 2147 372 2553 
Q 372 3047 722 3315 
Q 1072 3584 1716 3584 
Q 2034 3584 2315 3537 
Q 2597 3491 2834 3397 
z
" transform="scale(0.015625)"/>
       <path id="DejaVuSans-6c" d="M 603 4863 
L 1178 4863 
L 1178 0 
L 603 0 
L 603 4863 
z
" transform="scale(0.015625)"/>
       <path id="DejaVuSans-69" d="M 603 3500 
L 1178 3500 
L 1178 0 
L 603 0 
L 603 3500 
z
M 603 4863 
L 1178 4863 
L 1178 4134 
L 603 4134 
L 603 4863 
z
" transform="scale(0.015625)"/>
       <path id="DejaVuSans-6f" d="M 1959 3097 
Q 1497 3097 1228 2736 
Q 959 2375 959 1747 
Q 959 1119 1226 758 
Q 1494 397 1959 397 
Q 2419 397 2687 759 
Q 2956 1122 2956 1747 
Q 2956 2369 2687 2733 
Q 2419 3097 1959 3097 
z
M 1959 3584 
Q 2709 3584 3137 3096 
Q 3566 2609 3566 1747 
Q 3566 888 3137 398 
Q 2709 -91 1959 -91 
Q 1206 -91 779 398 
Q 353 888 353 1747 
Q 353 2609 779 3096 
Q 1206 3584 1959 3584 
z
" transform="scale(0.015625)"/>
       <path id="DejaVuSans-20" transform="scale(0.015625)"/>
       <path id="DejaVuSans-28" d="M 1984 4856 
Q 1566 4138 1362 3434 
Q 1159 2731 1159 2009 
Q 1159 1288 1364 580 
Q 1569 -128 1984 -844 
L 1484 -844 
Q 1016 -109 783 600 
Q 550 1309 550 2009 
Q 550 2706 781 3412 
Q 1013 4119 1484 4856 
L 1984 4856 
z
" transform="scale(0.015625)"/>
       <path id="DejaVuSans-67" d="M 2906 1791 
Q 2906 2416 2648 2759 
Q 2391 3103 1925 3103 
Q 1463 3103 1205 2759 
Q 947 2416 947 1791 
Q 947 1169 1205 825 
Q 1463 481 1925 481 
Q 2391 481 2648 825 
Q 2906 1169 2906 1791 
z
M 3481 434 
Q 3481 -459 3084 -895 
Q 2688 -1331 1869 -1331 
Q 1566 -1331 1297 -1286 
Q 1028 -1241 775 -1147 
L 775 -588 
Q 1028 -725 1275 -790 
Q 1522 -856 1778 -856 
Q 2344 -856 2625 -561 
Q 2906 -266 2906 331 
L 2906 616 
Q 2728 306 2450 153 
Q 2172 0 1784 0 
Q 1141 0 747 490 
Q 353 981 353 1791 
Q 353 2603 747 3093 
Q 1141 3584 1784 3584 
Q 2172 3584 2450 3431 
Q 2728 3278 2906 2969 
L 2906 3500 
L 3481 3500 
L 3481 434 
z
" transform="scale(0.015625)"/>
       <path id="DejaVuSans-63" d="M 3122 3366 
L 3122 2828 
Q 2878 2963 2633 3030 
Q 2388 3097 2138 3097 
Q 1578 3097 1268 2742 
Q 959 2388 959 1747 
Q 959 1106 1268 751 
Q 1578 397 2138 397 
Q 2388 397 2633 464 
Q 2878 531 3122 666 
L 3122 134 
Q 2881 22 2623 -34 
Q 2366 -91 2075 -91 
Q 1284 -91 818 406 
Q 353 903 353 1747 
Q 353 2603 823 3093 
Q 1294 3584 2113 3584 
Q 2378 3584 2631 3529 
Q 2884 3475 3122 3366 
z
" transform="scale(0.015625)"/>
       <path id="DejaVuSans-65" d="M 3597 1894 
L 3597 1613 
L 953 1613 
Q 991 1019 1311 708 
Q 1631 397 2203 397 
Q 2534 397 2845 478 
Q 3156 559 3463 722 
L 3463 178 
Q 3153 47 2828 -22 
Q 2503 -91 2169 -91 
Q 1331 -91 842 396 
Q 353 884 353 1716 
Q 353 2575 817 3079 
Q 1281 3584 2069 3584 
Q 2775 3584 3186 3129 
Q 3597 2675 3597 1894 
z
M 3022 2063 
Q 3016 2534 2758 2815 
Q 2500 3097 2075 3097 
Q 1594 3097 1305 2825 
Q 1016 2553 972 2059 
L 3022 2063 
z
" transform="scale(0.015625)"/>
       <path id="DejaVuSans-29" d="M 513 4856 
L 1013 4856 
Q 1481 4119 1714 3412 
Q 1947 2706 1947 2009 
Q 1947 1309 1714 600 
Q 1481 -109 1013 -844 
L 513 -844 
Q 928 -128 1133 580 
Q 1338 1288 1338 2009 
Q 1338 2731 1133 3434 
Q 928 4138 513 4856 
z
" transform="scale(0.015625)"/>
      </defs>
      <use xlink:href="#DejaVuSans-74"/>
      <use xlink:href="#DejaVuSans-72" x="39.208984"/>
      <use xlink:href="#DejaVuSans-61" x="80.322266"/>
      <use xlink:href="#DejaVuSans-6e" x="141.601562"/>
      <use xlink:href="#DejaVuSans-73" x="204.980469"/>
      <use xlink:href="#DejaVuSans-6c" x="257.080078"/>
      <use xlink:href="#DejaVuSans-61" x="284.863281"/>
      <use xlink:href="#DejaVuSans-74" x="346.142578"/>
      <use xlink:href="#DejaVuSans-69" x="385.351562"/>
      <use xlink:href="#DejaVuSans-6f" x="413.134766"/>
      <use xlink:href="#DejaVuSans-6e" x="474.316406"/>
      <use xlink:href="#DejaVuSans-20" x="537.695312"/>
      <use xlink:href="#DejaVuSans-28" x="569.482422"/>
      <use xlink:href="#DejaVuSans-6c" x="608.496094"/>
      <use xlink:href="#DejaVuSans-6f" x="636.279297"/>
      <use xlink:href="#DejaVuSans-67" x="697.460938"/>
      <use xlink:href="#DejaVuSans-20" x="760.9375"/>
      <use xlink:href="#DejaVuSans-73" x="792.724609"/>
      <use xlink:href="#DejaVuSans-63" x="844.824219"/>
      <use xlink:href="#DejaVuSans-61" x="899.804688"/>
      <use xlink:href="#DejaVuSans-6c" x="961.083984"/>
      <use xlink:href="#DejaVuSans-65" x="988.867188"/>
      <use xlink:href="#DejaVuSans-29" x="1050.390625"/>
     </g>
    </g>
   </g>
   <g id="matplotlib.axis_2">
    <g id="ytick_1">
     <g id="line2d_8">
      <defs>
       <path id="mdd11812961" d="M 0 0 
L -3.5 0 
" style="stroke: #ffffff; stroke-width: 0.8"/>
      </defs>
      <g>
       <use xlink:href="#mdd11812961" x="108" y="466.281145" style="fill: #ffffff; stroke: #ffffff; stroke-width: 0.8"/>
      </g>
     </g>
     <g id="text_9">
      <!-- $\mathdefault{10^{-15}}$ -->
      <g style="fill: #ffffff" transform="translate(67.52 470.840207)scale(0.12 -0.12)">
       <defs>
        <path id="DejaVuSans-2212" d="M 678 2272 
L 4684 2272 
L 4684 1741 
L 678 1741 
L 678 2272 
z
" transform="scale(0.015625)"/>
       </defs>
       <use xlink:href="#DejaVuSans-31" transform="translate(0 0.684375)"/>
       <use xlink:href="#DejaVuSans-30" transform="translate(63.623047 0.684375)"/>
       <use xlink:href="#DejaVuSans-2212" transform="translate(128.203125 38.965625)scale(0.7)"/>
       <use xlink:href="#DejaVuSans-31" transform="translate(186.855469 38.965625)scale(0.7)"/>
       <use xlink:href="#DejaVuSans-35" transform="translate(231.391602 38.965625)scale(0.7)"/>
      </g>
     </g>
    </g>
    <g id="ytick_2">
     <g id="line2d_9">
      <g>
       <use xlink:href="#mdd11812961" x="108" y="415.961962" style="fill: #ffffff; stroke: #ffffff; stroke-width: 0.8"/>
      </g>
     </g>
     <g id="text_10">
      <!-- $\mathdefault{10^{-13}}$ -->
      <g style="fill: #ffffff" transform="translate(67.52 420.521024)scale(0.12 -0.12)">
       <defs>
        <path id="DejaVuSans-33" d="M 2597 2516 
Q 3050 2419 3304 2112 
Q 3559 1806 3559 1356 
Q 3559 666 3084 287 
Q 2609 -91 1734 -91 
Q 1441 -91 1130 -33 
Q 819 25 488 141 
L 488 750 
Q 750 597 1062 519 
Q 1375 441 1716 441 
Q 2309 441 2620 675 
Q 2931 909 2931 1356 
Q 2931 1769 2642 2001 
Q 2353 2234 1838 2234 
L 1294 2234 
L 1294 2753 
L 1863 2753 
Q 2328 2753 2575 2939 
Q 2822 3125 2822 3475 
Q 2822 3834 2567 4026 
Q 2313 4219 1838 4219 
Q 1578 4219 1281 4162 
Q 984 4106 628 3988 
L 628 4550 
Q 988 4650 1302 4700 
Q 1616 4750 1894 4750 
Q 2613 4750 3031 4423 
Q 3450 4097 3450 3541 
Q 3450 3153 3228 2886 
Q 3006 2619 2597 2516 
z
" transform="scale(0.015625)"/>
       </defs>
       <use xlink:href="#DejaVuSans-31" transform="translate(0 0.765625)"/>
       <use xlink:href="#DejaVuSans-30" transform="translate(63.623047 0.765625)"/>
       <use xlink:href="#DejaVuSans-2212" transform="translate(128.203125 39.046875)scale(0.7)"/>
       <use xlink:href="#DejaVuSans-31" transform="translate(186.855469 39.046875)scale(0.7)"/>
       <use xlink:href="#DejaVuSans-33" transform="translate(231.391602 39.046875)scale(0.7)"/>
      </g>
     </g>
    </g>
    <g id="ytick_3">
     <g id="line2d_10">
      <g>
       <use xlink:href="#mdd11812961" x="108" y="365.642779" style="fill: #ffffff; stroke: #ffffff; stroke-width: 0.8"/>
      </g>
     </g>
     <g id="text_11">
      <!-- $\mathdefault{10^{-11}}$ -->
      <g style="fill: #ffffff" transform="translate(67.52 370.201842)scale(0.12 -0.12)">
       <use xlink:href="#DejaVuSans-31" transform="translate(0 0.684375)"/>
       <use xlink:href="#DejaVuSans-30" transform="translate(63.623047 0.684375)"/>
       <use xlink:href="#DejaVuSans-2212" transform="translate(128.203125 38.965625)scale(0.7)"/>
       <use xlink:href="#DejaVuSans-31" transform="translate(186.855469 38.965625)scale(0.7)"/>
       <use xlink:href="#DejaVuSans-31" transform="translate(231.391602 38.965625)scale(0.7)"/>
      </g>
     </g>
    </g>
    <g id="ytick_4">
     <g id="line2d_11">
      <g>
       <use xlink:href="#mdd11812961" x="108" y="315.323596" style="fill: #ffffff; stroke: #ffffff; stroke-width: 0.8"/>
      </g>
     </g>
     <g id="text_12">
      <!-- $\mathdefault{10^{-9}}$ -->
      <g style="fill: #ffffff" transform="translate(72.8 319.882659)scale(0.12 -0.12)">
       <defs>
        <path id="DejaVuSans-39" d="M 703 97 
L 703 672 
Q 941 559 1184 500 
Q 1428 441 1663 441 
Q 2288 441 2617 861 
Q 2947 1281 2994 2138 
Q 2813 1869 2534 1725 
Q 2256 1581 1919 1581 
Q 1219 1581 811 2004 
Q 403 2428 403 3163 
Q 403 3881 828 4315 
Q 1253 4750 1959 4750 
Q 2769 4750 3195 4129 
Q 3622 3509 3622 2328 
Q 3622 1225 3098 567 
Q 2575 -91 1691 -91 
Q 1453 -91 1209 -44 
Q 966 3 703 97 
z
M 1959 2075 
Q 2384 2075 2632 2365 
Q 2881 2656 2881 3163 
Q 2881 3666 2632 3958 
Q 2384 4250 1959 4250 
Q 1534 4250 1286 3958 
Q 1038 3666 1038 3163 
Q 1038 2656 1286 2365 
Q 1534 2075 1959 2075 
z
" transform="scale(0.015625)"/>
       </defs>
       <use xlink:href="#DejaVuSans-31" transform="translate(0 0.765625)"/>
       <use xlink:href="#DejaVuSans-30" transform="translate(63.623047 0.765625)"/>
       <use xlink:href="#DejaVuSans-2212" transform="translate(128.203125 39.046875)scale(0.7)"/>
       <use xlink:href="#DejaVuSans-39" transform="translate(186.855469 39.046875)scale(0.7)"/>
      </g>
     </g>
    </g>
    <g id="ytick_5">
     <g id="line2d_12">
      <g>
       <use xlink:href="#mdd11812961" x="108" y="265.004413" style="fill: #ffffff; stroke: #ffffff; stroke-width: 0.8"/>
      </g>
     </g>
     <g id="text_13">
      <!-- $\mathdefault{10^{-7}}$ -->
      <g style="fill: #ffffff" transform="translate(72.8 269.563476)scale(0.12 -0.12)">
       <use xlink:href="#DejaVuSans-31" transform="translate(0 0.684375)"/>
       <use xlink:href="#DejaVuSans-30" transform="translate(63.623047 0.684375)"/>
       <use xlink:href="#DejaVuSans-2212" transform="translate(128.203125 38.965625)scale(0.7)"/>
       <use xlink:href="#DejaVuSans-37" transform="translate(186.855469 38.965625)scale(0.7)"/>
      </g>
     </g>
    </g>
    <g id="ytick_6">
     <g id="line2d_13">
      <g>
       <use xlink:href="#mdd11812961" x="108" y="214.68523" style="fill: #ffffff; stroke: #ffffff; stroke-width: 0.8"/>
      </g>
     </g>
     <g id="text_14">
      <!-- $\mathdefault{10^{-5}}$ -->
      <g style="fill: #ffffff" transform="translate(72.8 219.244293)scale(0.12 -0.12)">
       <use xlink:href="#DejaVuSans-31" transform="translate(0 0.684375)"/>
       <use xlink:href="#DejaVuSans-30" transform="translate(63.623047 0.684375)"/>
       <use xlink:href="#DejaVuSans-2212" transform="translate(128.203125 38.965625)scale(0.7)"/>
       <use xlink:href="#DejaVuSans-35" transform="translate(186.855469 38.965625)scale(0.7)"/>
      </g>
     </g>
    </g>
    <g id="ytick_7">
     <g id="line2d_14">
      <g>
       <use xlink:href="#mdd11812961" x="108" y="164.366047" style="fill: #ffffff; stroke: #ffffff; stroke-width: 0.8"/>
      </g>
     </g>
     <g id="text_15">
      <!-- $\mathdefault{10^{-3}}$ -->
      <g style="fill: #ffffff" transform="translate(72.8 168.92511)scale(0.12 -0.12)">
       <use xlink:href="#DejaVuSans-31" transform="translate(0 0.765625)"/>
       <use xlink:href="#DejaVuSans-30" transform="translate(63.623047 0.765625)"/>
       <use xlink:href="#DejaVuSans-2212" transform="translate(128.203125 39.046875)scale(0.7)"/>
       <use xlink:href="#DejaVuSans-33" transform="translate(186.855469 39.046875)scale(0.7)"/>
      </g>
     </g>
    </g>
    <g id="ytick_8">
     <g id="line2d_15">
      <g>
       <use xlink:href="#mdd11812961" x="108" y="114.046864" style="fill: #ffffff; stroke: #ffffff; stroke-width: 0.8"/>
      </g>
     </g>
     <g id="text_16">
      <!-- $\mathdefault{10^{-1}}$ -->
      <g style="fill: #ffffff" transform="translate(72.8 118.605927)scale(0.12 -0.12)">
       <use xlink:href="#DejaVuSans-31" transform="translate(0 0.684375)"/>
       <use xlink:href="#DejaVuSans-30" transform="translate(63.623047 0.684375)"/>
       <use xlink:href="#DejaVuSans-2212" transform="translate(128.203125 38.965625)scale(0.7)"/>
       <use xlink:href="#DejaVuSans-31" transform="translate(186.855469 38.965625)scale(0.7)"/>
      </g>
     </g>
    </g>
    <g id="text_17">
     <!-- relative error (log scale) -->
     <g style="fill: #ffffff" transform="translate(61.024375 358.722188)rotate(-90)scale(0.12 -0.12)">
      <defs>
       <path id="DejaVuSans-76" d="M 191 3500 
L 800 3500 
L 1894 563 
L 2988 3500 
L 3597 3500 
L 2284 0 
L 1503 0 
L 191 3500 
z
" transform="scale(0.015625)"/>
      </defs>
      <use xlink:href="#DejaVuSans-72"/>
      <use xlink:href="#DejaVuSans-65" x="38.863281"/>
      <use xlink:href="#DejaVuSans-6c" x="100.386719"/>
      <use xlink:href="#DejaVuSans-61" x="128.169922"/>
      <use xlink:href="#DejaVuSans-74" x="189.449219"/>
      <use xlink:href="#DejaVuSans-69" x="228.658203"/>
      <use xlink:href="#DejaVuSans-76" x="256.441406"/>
      <use xlink:href="#DejaVuSans-65" x="315.621094"/>
      <use xlink:href="#DejaVuSans-20" x="377.144531"/>
      <use xlink:href="#DejaVuSans-65" x="408.931641"/>
      <use xlink:href="#DejaVuSans-72" x="470.455078"/>
      <use xlink:href="#DejaVuSans-72" x="509.818359"/>
      <use xlink:href="#DejaVuSans-6f" x="548.681641"/>
      <use xlink:href="#DejaVuSans-72" x="609.863281"/>
      <use xlink:href="#DejaVuSans-20" x="650.976562"/>
      <use xlink:href="#DejaVuSans-28" x="682.763672"/>
      <use xlink:href="#DejaVuSans-6c" x="721.777344"/>
      <use xlink:href="#DejaVuSans-6f" x="749.560547"/>
      <use xlink:href="#DejaVuSans-67" x="810.742188"/>
      <use xlink:href="#DejaVuSans-20" x="874.21875"/>
      <use xlink:href="#DejaVuSans-73" x="906.005859"/>
      <use xlink:href="#DejaVuSans-63" x="958.105469"/>
      <use xlink:href="#DejaVuSans-61" x="1013.085938"/>
      <use xlink:href="#DejaVuSans-6c" x="1074.365234"/>
      <use xlink:href="#DejaVuSans-65" x="1102.148438"/>
      <use xlink:href="#DejaVuSans-29" x="1163.671875"/>
     </g>
    </g>
   </g>
   <g id="line2d_16">
    <path d="M 206.033589 577 
L 206.072727 476.658936 
L 215.735065 464.65476 
L 225.397403 451.499344 
L 235.05974 451.499344 
L 244.722078 451.499344 
L 254.384416 426.84286 
L 264.046753 426.84286 
L 273.709091 426.84286 
L 283.371429 404.374679 
L 293.033766 404.374679 
L 302.696104 404.374679 
L 312.358442 404.374679 
L 322.020779 404.374679 
L 331.683117 365.508381 
L 341.345455 364.902367 
L 351.007792 364.902367 
L 360.67013 364.902367 
L 370.332468 364.902367 
L 379.994805 364.902367 
L 389.657143 319.935235 
L 399.319481 319.935235 
L 408.981818 307.695842 
L 418.644156 302.207698 
L 428.306494 302.207698 
L 437.968831 302.207698 
L 447.631169 302.207698 
L 457.293506 302.207698 
L 466.955844 259.382839 
L 476.618182 259.382839 
L 486.280519 247.093159 
L 495.942857 241.624843 
L 505.605195 232.947679 
L 515.267532 225.911652 
L 524.92987 218.06567 
L 534.592208 210.627126 
L 544.254545 202.985501 
L 553.916883 202.985501 
L 563.579221 202.985501 
L 573.241558 176.809104 
L 582.903896 176.809104 
L 592.566234 176.809104 
L 602.228571 154.464408 
L 611.890909 151.94981 
L 621.553247 141.556191 
L 631.215584 141.556191 
L 640.877922 141.556191 
L 650.54026 133.631621 
L 660.202597 119.035927 
L 669.864935 108.760109 
L 679.527273 93.173154 
L 689.18961 88.887273 
L 698.851948 88.887273 
L 708.514286 88.887273 
L 718.176623 88.887273 
L 727.838961 88.887273 
L 737.501299 88.887273 
L 747.163636 88.887273 
" clip-path="url(#peae80f1485)" style="fill: none; stroke: #8dd3c7; stroke-width: 1.5; stroke-linecap: square"/>
   </g>
   <g id="line2d_17">
    <path d="M 138.436364 484.232727 
L 138.472559 577 
M 157.724844 577 
L 157.761039 484.232727 
L 157.797234 577 
M 215.692985 577 
L 215.735065 469.085144 
L 225.397403 450.457921 
L 225.446709 577 
M 254.32458 577 
L 254.384416 423.264851 
L 264.046753 435.435215 
L 273.709091 417.625653 
L 283.371429 401.43441 
L 293.033766 405.030703 
L 302.696104 392.897764 
L 312.358442 412.162799 
L 322.020779 394.630869 
L 331.683117 366.28946 
L 341.345455 368.058487 
L 351.007792 361.371661 
L 360.67013 357.72125 
L 370.332468 341.158585 
L 379.994805 337.179834 
L 389.657143 317.738624 
L 399.319481 324.01584 
L 408.981818 306.637842 
L 418.644156 298.844589 
L 428.306494 309.426016 
L 437.968831 309.215972 
L 447.631169 309.215972 
L 457.293506 276.622861 
L 466.955844 258.52665 
L 476.618182 252.09101 
L 486.280519 251.119041 
L 495.942857 249.118933 
L 505.605195 227.771154 
L 515.267532 225.044075 
L 524.92987 221.685256 
L 534.592208 211.802239 
L 544.254545 212.621412 
L 553.916883 212.621412 
L 563.579221 186.467342 
L 573.241558 172.909039 
L 582.903896 205.384998 
L 592.566234 170.481951 
L 602.228571 150.964048 
L 611.890909 155.885845 
L 621.553247 140.367645 
L 631.215584 152.227024 
L 640.877922 152.227024 
L 650.54026 119.338762 
L 660.202597 131.605235 
L 669.864935 100.46184 
L 679.527273 92.145901 
L 689.18961 88.887273 
L 698.851948 88.887273 
L 708.514286 88.887273 
L 718.176623 88.887273 
L 727.838961 88.887273 
L 737.501299 88.887273 
L 747.163636 88.887273 
" clip-path="url(#peae80f1485)" style="fill: none; stroke: #feffb3; stroke-width: 1.5; stroke-linecap: square"/>
   </g>
   <g id="line2d_18">
    <path d="M 148.062506 577 
L 148.098701 484.232727 
L 148.134897 577 
M 167.387181 577 
L 167.423377 484.232727 
L 167.459572 577 
M 196.374194 577 
L 196.41039 484.232727 
L 206.072727 472.228551 
L 215.735065 469.085144 
L 225.397403 450.457921 
L 225.446709 577 
M 244.668892 577 
L 244.722078 440.445913 
L 254.384416 435.435215 
L 264.046753 417.625653 
L 273.709091 423.020214 
L 283.371429 405.030703 
L 293.033766 392.897764 
L 302.696104 412.162799 
L 312.358442 394.630869 
L 322.020779 390.94321 
L 331.683117 362.938114 
L 341.345455 361.371661 
L 351.007792 357.72125 
L 360.67013 341.158585 
L 370.332468 337.179834 
L 379.994805 337.179834 
L 389.657143 324.01584 
L 399.319481 324.01584 
L 408.981818 317.587568 
L 418.644156 309.426016 
L 428.306494 309.215972 
L 437.968831 309.215972 
L 447.631169 276.622861 
L 457.293506 289.826829 
L 466.955844 252.09101 
L 476.618182 252.09101 
L 486.280519 240.557701 
L 495.942857 253.387084 
L 505.605195 234.818281 
L 515.267532 220.925794 
L 524.92987 216.061016 
L 534.592208 202.114975 
L 544.254545 212.621412 
L 553.916883 186.467342 
L 563.579221 188.670465 
L 573.241558 205.384998 
L 582.903896 170.481951 
L 592.566234 169.620902 
L 602.228571 150.964048 
L 611.890909 155.885845 
L 621.553247 152.227024 
L 631.215584 152.227024 
L 640.877922 125.709602 
L 650.54026 119.338762 
L 660.202597 104.580752 
L 669.864935 111.2701 
L 679.527273 92.145901 
L 689.18961 88.887273 
L 698.851948 88.887273 
L 708.514286 88.887273 
L 718.176623 88.887273 
L 727.838961 88.887273 
L 737.501299 88.887273 
L 747.163636 88.887273 
" clip-path="url(#peae80f1485)" style="fill: none; stroke: #bfbbd9; stroke-width: 1.5; stroke-linecap: square"/>
   </g>
   <g id="line2d_19">
    <path d="M 138.436364 484.232727 
L 148.098701 484.232727 
L 157.761039 484.232727 
L 167.423377 484.232727 
L 177.085714 484.232727 
L 177.12191 577 
M 196.374194 577 
L 196.41039 484.232727 
L 206.072727 472.228551 
L 215.735065 461.511352 
L 225.397403 448.2202 
L 225.447576 577 
M 244.668892 577 
L 244.722078 440.445913 
L 254.384416 431.651568 
L 264.046753 417.625653 
L 273.709091 423.020214 
L 283.371429 422.820452 
L 293.033766 392.897764 
L 302.696104 412.162799 
L 312.358442 394.630869 
L 322.020779 390.94321 
L 331.683117 381.254489 
L 341.345455 371.147984 
L 351.007792 357.72125 
L 360.67013 341.158585 
L 370.332468 337.179834 
L 379.994805 337.179834 
L 389.657143 332.116734 
L 399.319481 324.01584 
L 408.981818 308.585485 
L 418.644156 301.279891 
L 428.306494 309.215972 
L 437.968831 309.215972 
L 447.631169 276.622861 
L 457.293506 289.826829 
L 466.955844 260.185257 
L 476.618182 252.09101 
L 486.280519 254.79973 
L 495.942857 234.344229 
L 505.605195 238.360949 
L 515.267532 258.011466 
L 524.92987 231.731726 
L 534.592208 214.952779 
L 544.254545 202.114975 
L 553.916883 186.467342 
L 563.579221 188.670465 
L 573.241558 175.149342 
L 582.903896 170.481951 
L 592.566234 169.620902 
L 602.228571 169.620902 
L 611.890909 150.964048 
L 621.553247 141.615744 
L 631.215584 152.227024 
L 640.877922 125.709602 
L 650.54026 125.709602 
L 660.202597 107.421321 
L 669.864935 115.340709 
L 679.527273 111.2701 
L 689.18961 88.887273 
L 698.851948 88.887273 
L 708.514286 88.887273 
L 718.176623 88.887273 
L 727.838961 88.887273 
L 737.501299 88.887273 
L 747.163636 88.887273 
" clip-path="url(#peae80f1485)" style="fill: none; stroke: #fa8174; stroke-width: 1.5; stroke-linecap: square"/>
   </g>
   <g id="line2d_20">
    <path d="M 167.387181 577 
L 167.423377 484.232727 
L 177.085714 484.232727 
L 186.748052 484.232727 
L 196.41039 484.232727 
L 206.072727 472.228551 
L 215.735065 472.228551 
L 225.397403 452.059809 
L 235.05974 452.059809 
L 244.722078 437.056952 
L 254.384416 433.484992 
L 264.046753 423.728093 
L 273.709091 417.191424 
L 283.371429 435.689335 
L 293.033766 397.589831 
L 302.696104 411.752634 
L 312.358442 390.881302 
L 322.020779 394.718223 
L 331.683117 380.012688 
L 341.345455 375.432958 
L 351.007792 353.158468 
L 360.67013 342.479062 
L 370.332468 336.348111 
L 379.994805 336.348111 
L 389.657143 332.674445 
L 399.319481 332.674445 
L 408.981818 313.358394 
L 418.644156 310.148916 
L 428.306494 297.585537 
L 437.968831 297.585537 
L 447.631169 277.727857 
L 457.293506 286.776385 
L 466.955844 259.954235 
L 476.618182 259.954235 
L 486.280519 249.278945 
L 495.942857 238.420447 
L 505.605195 253.154777 
L 515.267532 231.897395 
L 524.92987 235.575892 
L 534.592208 208.824853 
L 544.254545 208.824853 
L 553.916883 189.18944 
L 563.579221 186.060365 
L 573.241558 176.039755 
L 582.903896 179.476909 
L 592.566234 165.065657 
L 602.228571 165.065657 
L 611.890909 165.065657 
L 621.553247 146.91244 
L 631.215584 146.91244 
L 640.877922 123.273189 
L 650.54026 123.273189 
L 660.202597 106.29788 
L 669.864935 134.673647 
L 679.527273 105.563948 
L 689.18961 88.887273 
L 698.851948 88.887273 
L 708.514286 88.887273 
L 718.176623 88.887273 
L 727.838961 88.887273 
L 737.501299 88.887273 
L 747.163636 88.887273 
" clip-path="url(#peae80f1485)" style="fill: none; stroke: #81b1d2; stroke-width: 1.5; stroke-linecap: square"/>
   </g>
   <g id="patch_3">
    <path d="M 108 504 
L 108 69.12 
" style="fill: none; stroke: #ffffff; stroke-width: 0.8; stroke-linejoin: miter; stroke-linecap: square"/>
   </g>
   <g id="patch_4">
    <path d="M 777.6 504 
L 777.6 69.12 
" style="fill: none; stroke: #ffffff; stroke-width: 0.8; stroke-linejoin: miter; stroke-linecap: square"/>
   </g>
   <g id="patch_5">
    <path d="M 108 504 
L 777.6 504 
" style="fill: none; stroke: #ffffff; stroke-width: 0.8; stroke-linejoin: miter; stroke-linecap: square"/>
   </g>
   <g id="patch_6">
    <path d="M 108 69.12 
L 777.6 69.12 
" style="fill: none; stroke: #ffffff; stroke-width: 0.8; stroke-linejoin: miter; stroke-linecap: square"/>
   </g>
   <g id="text_18">
    <!-- Error in geo's computation of shifted area -->
    <g style="fill: #ffffff" transform="translate(292.7475 46.99515)scale(0.144 -0.144)">
     <defs>
      <path id="DejaVuSans-45" d="M 628 4666 
L 3578 4666 
L 3578 4134 
L 1259 4134 
L 1259 2753 
L 3481 2753 
L 3481 2222 
L 1259 2222 
L 1259 531 
L 3634 531 
L 3634 0 
L 628 0 
L 628 4666 
z
" transform="scale(0.015625)"/>
      <path id="DejaVuSans-27" d="M 1147 4666 
L 1147 2931 
L 616 2931 
L 616 4666 
L 1147 4666 
z
" transform="scale(0.015625)"/>
      <path id="DejaVuSans-6d" d="M 3328 2828 
Q 3544 3216 3844 3400 
Q 4144 3584 4550 3584 
Q 5097 3584 5394 3201 
Q 5691 2819 5691 2113 
L 5691 0 
L 5113 0 
L 5113 2094 
Q 5113 2597 4934 2840 
Q 4756 3084 4391 3084 
Q 3944 3084 3684 2787 
Q 3425 2491 3425 1978 
L 3425 0 
L 2847 0 
L 2847 2094 
Q 2847 2600 2669 2842 
Q 2491 3084 2119 3084 
Q 1678 3084 1418 2786 
Q 1159 2488 1159 1978 
L 1159 0 
L 581 0 
L 581 3500 
L 1159 3500 
L 1159 2956 
Q 1356 3278 1631 3431 
Q 1906 3584 2284 3584 
Q 2666 3584 2933 3390 
Q 3200 3197 3328 2828 
z
" transform="scale(0.015625)"/>
      <path id="DejaVuSans-70" d="M 1159 525 
L 1159 -1331 
L 581 -1331 
L 581 3500 
L 1159 3500 
L 1159 2969 
Q 1341 3281 1617 3432 
Q 1894 3584 2278 3584 
Q 2916 3584 3314 3078 
Q 3713 2572 3713 1747 
Q 3713 922 3314 415 
Q 2916 -91 2278 -91 
Q 1894 -91 1617 61 
Q 1341 213 1159 525 
z
M 3116 1747 
Q 3116 2381 2855 2742 
Q 2594 3103 2138 3103 
Q 1681 3103 1420 2742 
Q 1159 2381 1159 1747 
Q 1159 1113 1420 752 
Q 1681 391 2138 391 
Q 2594 391 2855 752 
Q 3116 1113 3116 1747 
z
" transform="scale(0.015625)"/>
      <path id="DejaVuSans-75" d="M 544 1381 
L 544 3500 
L 1119 3500 
L 1119 1403 
Q 1119 906 1312 657 
Q 1506 409 1894 409 
Q 2359 409 2629 706 
Q 2900 1003 2900 1516 
L 2900 3500 
L 3475 3500 
L 3475 0 
L 2900 0 
L 2900 538 
Q 2691 219 2414 64 
Q 2138 -91 1772 -91 
Q 1169 -91 856 284 
Q 544 659 544 1381 
z
M 1991 3584 
L 1991 3584 
z
" transform="scale(0.015625)"/>
      <path id="DejaVuSans-66" d="M 2375 4863 
L 2375 4384 
L 1825 4384 
Q 1516 4384 1395 4259 
Q 1275 4134 1275 3809 
L 1275 3500 
L 2222 3500 
L 2222 3053 
L 1275 3053 
L 1275 0 
L 697 0 
L 697 3053 
L 147 3053 
L 147 3500 
L 697 3500 
L 697 3744 
Q 697 4328 969 4595 
Q 1241 4863 1831 4863 
L 2375 4863 
z
" transform="scale(0.015625)"/>
      <path id="DejaVuSans-68" d="M 3513 2113 
L 3513 0 
L 2938 0 
L 2938 2094 
Q 2938 2591 2744 2837 
Q 2550 3084 2163 3084 
Q 1697 3084 1428 2787 
Q 1159 2491 1159 1978 
L 1159 0 
L 581 0 
L 581 4863 
L 1159 4863 
L 1159 2956 
Q 1366 3272 1645 3428 
Q 1925 3584 2291 3584 
Q 2894 3584 3203 3211 
Q 3513 2838 3513 2113 
z
" transform="scale(0.015625)"/>
      <path id="DejaVuSans-64" d="M 2906 2969 
L 2906 4863 
L 3481 4863 
L 3481 0 
L 2906 0 
L 2906 525 
Q 2725 213 2448 61 
Q 2172 -91 1784 -91 
Q 1150 -91 751 415 
Q 353 922 353 1747 
Q 353 2572 751 3078 
Q 1150 3584 1784 3584 
Q 2172 3584 2448 3432 
Q 2725 3281 2906 2969 
z
M 947 1747 
Q 947 1113 1208 752 
Q 1469 391 1925 391 
Q 2381 391 2643 752 
Q 2906 1113 2906 1747 
Q 2906 2381 2643 2742 
Q 2381 3103 1925 3103 
Q 1469 3103 1208 2742 
Q 947 2381 947 1747 
z
" transform="scale(0.015625)"/>
     </defs>
     <use xlink:href="#DejaVuSans-45"/>
     <use xlink:href="#DejaVuSans-72" x="63.183594"/>
     <use xlink:href="#DejaVuSans-72" x="102.546875"/>
     <use xlink:href="#DejaVuSans-6f" x="141.410156"/>
     <use xlink:href="#DejaVuSans-72" x="202.591797"/>
     <use xlink:href="#DejaVuSans-20" x="243.705078"/>
     <use xlink:href="#DejaVuSans-69" x="275.492188"/>
     <use xlink:href="#DejaVuSans-6e" x="303.275391"/>
     <use xlink:href="#DejaVuSans-20" x="366.654297"/>
     <use xlink:href="#DejaVuSans-67" x="398.441406"/>
     <use xlink:href="#DejaVuSans-65" x="461.917969"/>
     <use xlink:href="#DejaVuSans-6f" x="523.441406"/>
     <use xlink:href="#DejaVuSans-27" x="584.623047"/>
     <use xlink:href="#DejaVuSans-73" x="612.113281"/>
     <use xlink:href="#DejaVuSans-20" x="664.212891"/>
     <use xlink:href="#DejaVuSans-63" x="696"/>
     <use xlink:href="#DejaVuSans-6f" x="750.980469"/>
     <use xlink:href="#DejaVuSans-6d" x="812.162109"/>
     <use xlink:href="#DejaVuSans-70" x="909.574219"/>
     <use xlink:href="#DejaVuSans-75" x="973.050781"/>
     <use xlink:href="#DejaVuSans-74" x="1036.429688"/>
     <use xlink:href="#DejaVuSans-61" x="1075.638672"/>
     <use xlink:href="#DejaVuSans-74" x="1136.917969"/>
     <use xlink:href="#DejaVuSans-69" x="1176.126953"/>
     <use xlink:href="#DejaVuSans-6f" x="1203.910156"/>
     <use xlink:href="#DejaVuSans-6e" x="1265.091797"/>
     <use xlink:href="#DejaVuSans-20" x="1328.470703"/>
     <use xlink:href="#DejaVuSans-6f" x="1360.257812"/>
     <use xlink:href="#DejaVuSans-66" x="1421.439453"/>
     <use xlink:href="#DejaVuSans-20" x="1456.644531"/>
     <use xlink:href="#DejaVuSans-73" x="1488.431641"/>
     <use xlink:href="#DejaVuSans-68" x="1540.53125"/>
     <use xlink:href="#DejaVuSans-69" x="1603.910156"/>
     <use xlink:href="#DejaVuSans-66" x="1631.693359"/>
     <use xlink:href="#DejaVuSans-74" x="1665.148438"/>
     <use xlink:href="#DejaVuSans-65" x="1704.357422"/>
     <use xlink:href="#DejaVuSans-64" x="1765.880859"/>
     <use xlink:href="#DejaVuSans-20" x="1829.357422"/>
     <use xlink:href="#DejaVuSans-61" x="1861.144531"/>
     <use xlink:href="#DejaVuSans-72" x="1922.423828"/>
     <use xlink:href="#DejaVuSans-65" x="1961.287109"/>
     <use xlink:href="#DejaVuSans-61" x="2022.810547"/>
    </g>
    <!-- Series: angle of translation -->
    <g style="fill: #ffffff" transform="translate(345.738375 63.12)scale(0.144 -0.144)">
     <defs>
      <path id="DejaVuSans-53" d="M 3425 4513 
L 3425 3897 
Q 3066 4069 2747 4153 
Q 2428 4238 2131 4238 
Q 1616 4238 1336 4038 
Q 1056 3838 1056 3469 
Q 1056 3159 1242 3001 
Q 1428 2844 1947 2747 
L 2328 2669 
Q 3034 2534 3370 2195 
Q 3706 1856 3706 1288 
Q 3706 609 3251 259 
Q 2797 -91 1919 -91 
Q 1588 -91 1214 -16 
Q 841 59 441 206 
L 441 856 
Q 825 641 1194 531 
Q 1563 422 1919 422 
Q 2459 422 2753 634 
Q 3047 847 3047 1241 
Q 3047 1584 2836 1778 
Q 2625 1972 2144 2069 
L 1759 2144 
Q 1053 2284 737 2584 
Q 422 2884 422 3419 
Q 422 4038 858 4394 
Q 1294 4750 2059 4750 
Q 2388 4750 2728 4690 
Q 3069 4631 3425 4513 
z
" transform="scale(0.015625)"/>
      <path id="DejaVuSans-3a" d="M 750 794 
L 1409 794 
L 1409 0 
L 750 0 
L 750 794 
z
M 750 3309 
L 1409 3309 
L 1409 2516 
L 750 2516 
L 750 3309 
z
" transform="scale(0.015625)"/>
     </defs>
     <use xlink:href="#DejaVuSans-53"/>
     <use xlink:href="#DejaVuSans-65" x="63.476562"/>
     <use xlink:href="#DejaVuSans-72" x="125"/>
     <use xlink:href="#DejaVuSans-69" x="166.113281"/>
     <use xlink:href="#DejaVuSans-65" x="193.896484"/>
     <use xlink:href="#DejaVuSans-73" x="255.419922"/>
     <use xlink:href="#DejaVuSans-3a" x="307.519531"/>
     <use xlink:href="#DejaVuSans-20" x="341.210938"/>
     <use xlink:href="#DejaVuSans-61" x="372.998047"/>
     <use xlink:href="#DejaVuSans-6e" x="434.277344"/>
     <use xlink:href="#DejaVuSans-67" x="497.65625"/>
     <use xlink:href="#DejaVuSans-6c" x="561.132812"/>
     <use xlink:href="#DejaVuSans-65" x="588.916016"/>
     <use xlink:href="#DejaVuSans-20" x="650.439453"/>
     <use xlink:href="#DejaVuSans-6f" x="682.226562"/>
     <use xlink:href="#DejaVuSans-66" x="743.408203"/>
     <use xlink:href="#DejaVuSans-20" x="778.613281"/>
     <use xlink:href="#DejaVuSans-74" x="810.400391"/>
     <use xlink:href="#DejaVuSans-72" x="849.609375"/>
     <use xlink:href="#DejaVuSans-61" x="890.722656"/>
     <use xlink:href="#DejaVuSans-6e" x="952.001953"/>
     <use xlink:href="#DejaVuSans-73" x="1015.380859"/>
     <use xlink:href="#DejaVuSans-6c" x="1067.480469"/>
     <use xlink:href="#DejaVuSans-61" x="1095.263672"/>
     <use xlink:href="#DejaVuSans-74" x="1156.542969"/>
     <use xlink:href="#DejaVuSans-69" x="1195.751953"/>
     <use xlink:href="#DejaVuSans-6f" x="1223.535156"/>
     <use xlink:href="#DejaVuSans-6e" x="1284.716797"/>
    </g>
   </g>
   <g id="legend_1">
    <g id="patch_7">
     <path d="M 115 150.510625 
L 169.114062 150.510625 
Q 171.114062 150.510625 171.114062 148.510625 
L 171.114062 76.12 
Q 171.114062 74.12 169.114062 74.12 
L 115 74.12 
Q 113 74.12 113 76.12 
L 113 148.510625 
Q 113 150.510625 115 150.510625 
z
" style="opacity: 0.8; stroke: #cccccc; stroke-linejoin: miter"/>
    </g>
    <g id="line2d_21">
     <path d="M 117 82.218437 
L 127 82.218437 
L 137 82.218437 
" style="fill: none; stroke: #8dd3c7; stroke-width: 1.5; stroke-linecap: square"/>
    </g>
    <g id="text_19">
     <!-- 0 -->
     <g style="fill: #ffffff" transform="translate(145 85.718437)scale(0.1 -0.1)">
      <use xlink:href="#DejaVuSans-30"/>
     </g>
    </g>
    <g id="line2d_22">
     <path d="M 117 96.896563 
L 127 96.896563 
L 137 96.896563 
" style="fill: none; stroke: #feffb3; stroke-width: 1.5; stroke-linecap: square"/>
    </g>
    <g id="text_20">
     <!-- π/8 -->
     <g style="fill: #ffffff" transform="translate(145 100.396563)scale(0.1 -0.1)">
      <defs>
       <path id="DejaVuSans-3c0" d="M 231 3500 
L 3584 3500 
L 3584 2925 
L 3144 2925 
L 3144 775 
Q 3144 550 3220 451 
Q 3297 353 3469 353 
Q 3516 353 3584 361 
Q 3653 369 3675 372 
L 3675 -44 
Q 3566 -84 3450 -103 
Q 3334 -122 3219 -122 
Q 2844 -122 2700 83 
Q 2556 288 2556 838 
L 2556 2925 
L 1266 2925 
L 1266 0 
L 678 0 
L 678 2925 
L 231 2925 
L 231 3500 
z
" transform="scale(0.015625)"/>
       <path id="DejaVuSans-2f" d="M 1625 4666 
L 2156 4666 
L 531 -594 
L 0 -594 
L 1625 4666 
z
" transform="scale(0.015625)"/>
      </defs>
      <use xlink:href="#DejaVuSans-3c0"/>
      <use xlink:href="#DejaVuSans-2f" x="60.205078"/>
      <use xlink:href="#DejaVuSans-38" x="93.896484"/>
     </g>
    </g>
    <g id="line2d_23">
     <path d="M 117 111.574687 
L 127 111.574687 
L 137 111.574687 
" style="fill: none; stroke: #bfbbd9; stroke-width: 1.5; stroke-linecap: square"/>
    </g>
    <g id="text_21">
     <!-- π/4 -->
     <g style="fill: #ffffff" transform="translate(145 115.074687)scale(0.1 -0.1)">
      <use xlink:href="#DejaVuSans-3c0"/>
      <use xlink:href="#DejaVuSans-2f" x="60.205078"/>
      <use xlink:href="#DejaVuSans-34" x="93.896484"/>
     </g>
    </g>
    <g id="line2d_24">
     <path d="M 117 126.252813 
L 127 126.252813 
L 137 126.252813 
" style="fill: none; stroke: #fa8174; stroke-width: 1.5; stroke-linecap: square"/>
    </g>
    <g id="text_22">
     <!-- 3π/8 -->
     <g style="fill: #ffffff" transform="translate(145 129.752813)scale(0.1 -0.1)">
      <use xlink:href="#DejaVuSans-33"/>
      <use xlink:href="#DejaVuSans-3c0" x="63.623047"/>
      <use xlink:href="#DejaVuSans-2f" x="123.828125"/>
      <use xlink:href="#DejaVuSans-38" x="157.519531"/>
     </g>
    </g>
    <g id="line2d_25">
     <path d="M 117 140.930938 
L 127 140.930938 
L 137 140.930938 
" style="fill: none; stroke: #81b1d2; stroke-width: 1.5; stroke-linecap: square"/>
    </g>
    <g id="text_23">
     <!-- π/2 -->
     <g style="fill: #ffffff" transform="translate(145 144.430938)scale(0.1 -0.1)">
      <use xlink:href="#DejaVuSans-3c0"/>
      <use xlink:href="#DejaVuSans-2f" x="60.205078"/>
      <use xlink:href="#DejaVuSans-32" x="93.896484"/>
     </g>
    </g>
   </g>
  </g>
 </g>
 <defs>
  <clipPath id="peae80f1485">
   <rect x="108" y="69.12" width="669.6" height="434.88"/>
  </clipPath>
 </defs>
</svg>
