<?xml version="1.0" encoding="utf-8" standalone="no"?>
<!DOCTYPE svg PUBLIC "-//W3C//DTD SVG 1.1//EN"
  "http://www.w3.org/Graphics/SVG/1.1/DTD/svg11.dtd">
<svg xmlns:xlink="http://www.w3.org/1999/xlink" width="864pt" height="576pt" viewBox="0 0 864 576" xmlns="http://www.w3.org/2000/svg" version="1.1">
 <metadata>
  <rdf:RDF xmlns:dc="http://purl.org/dc/elements/1.1/" xmlns:cc="http://creativecommons.org/ns#" xmlns:rdf="http://www.w3.org/1999/02/22-rdf-syntax-ns#">
   <cc:Work>
    <dc:type rdf:resource="http://purl.org/dc/dcmitype/StillImage"/>
    <dc:date>2021-12-23T20:12:48.415858</dc:date>
    <dc:format>image/svg+xml</dc:format>
    <dc:creator>
     <cc:Agent>
      <dc:title>Matplotlib v3.5.0, https://matplotlib.org/</dc:title>
     </cc:Agent>
    </dc:creator>
   </cc:Work>
  </rdf:RDF>
 </metadata>
 <defs>
  <style type="text/css">*{stroke-linejoin: round; stroke-linecap: butt}</style>
 </defs>
 <g id="figure_1">
  <g id="patch_1">
   <path d="M 0 576 
L 864 576 
L 864 0 
L 0 0 
L 0 576 
z
" style="fill: none"/>
  </g>
  <g id="axes_1">
   <g id="patch_2">
    <path d="M 108 504 
L 777.6 504 
L 777.6 69.12 
L 108 69.12 
L 108 504 
z
" style="fill: none"/>
   </g>
   <g id="matplotlib.axis_1">
    <g id="xtick_1">
     <g id="line2d_1">
      <defs>
       <path id="m6e2444ca1e" d="M 0 0 
L 0 3.5 
" style="stroke: #ffffff; stroke-width: 0.8"/>
      </defs>
      <g>
       <use xlink:href="#m6e2444ca1e" x="204.297325" y="504" style="fill: #ffffff; stroke: #ffffff; stroke-width: 0.8"/>
      </g>
     </g>
     <g id="text_1">
      <!-- $\mathdefault{10^{2}}$ -->
      <g style="fill: #ffffff" transform="translate(193.737325 520.118125)scale(0.12 -0.12)">
       <defs>
        <path id="DejaVuSans-31" d="M 794 531 
L 1825 531 
L 1825 4091 
L 703 3866 
L 703 4441 
L 1819 4666 
L 2450 4666 
L 2450 531 
L 3481 531 
L 3481 0 
L 794 0 
L 794 531 
z
" transform="scale(0.015625)"/>
        <path id="DejaVuSans-30" d="M 2034 4250 
Q 1547 4250 1301 3770 
Q 1056 3291 1056 2328 
Q 1056 1369 1301 889 
Q 1547 409 2034 409 
Q 2525 409 2770 889 
Q 3016 1369 3016 2328 
Q 3016 3291 2770 3770 
Q 2525 4250 2034 4250 
z
M 2034 4750 
Q 2819 4750 3233 4129 
Q 3647 3509 3647 2328 
Q 3647 1150 3233 529 
Q 2819 -91 2034 -91 
Q 1250 -91 836 529 
Q 422 1150 422 2328 
Q 422 3509 836 4129 
Q 1250 4750 2034 4750 
z
" transform="scale(0.015625)"/>
        <path id="DejaVuSans-32" d="M 1228 531 
L 3431 531 
L 3431 0 
L 469 0 
L 469 531 
Q 828 903 1448 1529 
Q 2069 2156 2228 2338 
Q 2531 2678 2651 2914 
Q 2772 3150 2772 3378 
Q 2772 3750 2511 3984 
Q 2250 4219 1831 4219 
Q 1534 4219 1204 4116 
Q 875 4013 500 3803 
L 500 4441 
Q 881 4594 1212 4672 
Q 1544 4750 1819 4750 
Q 2544 4750 2975 4387 
Q 3406 4025 3406 3419 
Q 3406 3131 3298 2873 
Q 3191 2616 2906 2266 
Q 2828 2175 2409 1742 
Q 1991 1309 1228 531 
z
" transform="scale(0.015625)"/>
       </defs>
       <use xlink:href="#DejaVuSans-31" transform="translate(0 0.765625)"/>
       <use xlink:href="#DejaVuSans-30" transform="translate(63.623047 0.765625)"/>
       <use xlink:href="#DejaVuSans-32" transform="translate(128.203125 39.046875)scale(0.7)"/>
      </g>
     </g>
    </g>
    <g id="xtick_2">
     <g id="line2d_2">
      <g>
       <use xlink:href="#m6e2444ca1e" x="312.626694" y="504" style="fill: #ffffff; stroke: #ffffff; stroke-width: 0.8"/>
      </g>
     </g>
     <g id="text_2">
      <!-- $\mathdefault{10^{5}}$ -->
      <g style="fill: #ffffff" transform="translate(302.066694 520.118125)scale(0.12 -0.12)">
       <defs>
        <path id="DejaVuSans-35" d="M 691 4666 
L 3169 4666 
L 3169 4134 
L 1269 4134 
L 1269 2991 
Q 1406 3038 1543 3061 
Q 1681 3084 1819 3084 
Q 2600 3084 3056 2656 
Q 3513 2228 3513 1497 
Q 3513 744 3044 326 
Q 2575 -91 1722 -91 
Q 1428 -91 1123 -41 
Q 819 9 494 109 
L 494 744 
Q 775 591 1075 516 
Q 1375 441 1709 441 
Q 2250 441 2565 725 
Q 2881 1009 2881 1497 
Q 2881 1984 2565 2268 
Q 2250 2553 1709 2553 
Q 1456 2553 1204 2497 
Q 953 2441 691 2322 
L 691 4666 
z
" transform="scale(0.015625)"/>
       </defs>
       <use xlink:href="#DejaVuSans-31" transform="translate(0 0.684375)"/>
       <use xlink:href="#DejaVuSans-30" transform="translate(63.623047 0.684375)"/>
       <use xlink:href="#DejaVuSans-35" transform="translate(128.203125 38.965625)scale(0.7)"/>
      </g>
     </g>
    </g>
    <g id="xtick_3">
     <g id="line2d_3">
      <g>
       <use xlink:href="#m6e2444ca1e" x="420.956064" y="504" style="fill: #ffffff; stroke: #ffffff; stroke-width: 0.8"/>
      </g>
     </g>
     <g id="text_3">
      <!-- $\mathdefault{10^{8}}$ -->
      <g style="fill: #ffffff" transform="translate(410.396064 520.118125)scale(0.12 -0.12)">
       <defs>
        <path id="DejaVuSans-38" d="M 2034 2216 
Q 1584 2216 1326 1975 
Q 1069 1734 1069 1313 
Q 1069 891 1326 650 
Q 1584 409 2034 409 
Q 2484 409 2743 651 
Q 3003 894 3003 1313 
Q 3003 1734 2745 1975 
Q 2488 2216 2034 2216 
z
M 1403 2484 
Q 997 2584 770 2862 
Q 544 3141 544 3541 
Q 544 4100 942 4425 
Q 1341 4750 2034 4750 
Q 2731 4750 3128 4425 
Q 3525 4100 3525 3541 
Q 3525 3141 3298 2862 
Q 3072 2584 2669 2484 
Q 3125 2378 3379 2068 
Q 3634 1759 3634 1313 
Q 3634 634 3220 271 
Q 2806 -91 2034 -91 
Q 1263 -91 848 271 
Q 434 634 434 1313 
Q 434 1759 690 2068 
Q 947 2378 1403 2484 
z
M 1172 3481 
Q 1172 3119 1398 2916 
Q 1625 2713 2034 2713 
Q 2441 2713 2670 2916 
Q 2900 3119 2900 3481 
Q 2900 3844 2670 4047 
Q 2441 4250 2034 4250 
Q 1625 4250 1398 4047 
Q 1172 3844 1172 3481 
z
" transform="scale(0.015625)"/>
       </defs>
       <use xlink:href="#DejaVuSans-31" transform="translate(0 0.765625)"/>
       <use xlink:href="#DejaVuSans-30" transform="translate(63.623047 0.765625)"/>
       <use xlink:href="#DejaVuSans-38" transform="translate(128.203125 39.046875)scale(0.7)"/>
      </g>
     </g>
    </g>
    <g id="xtick_4">
     <g id="line2d_4">
      <g>
       <use xlink:href="#m6e2444ca1e" x="529.285433" y="504" style="fill: #ffffff; stroke: #ffffff; stroke-width: 0.8"/>
      </g>
     </g>
     <g id="text_4">
      <!-- $\mathdefault{10^{11}}$ -->
      <g style="fill: #ffffff" transform="translate(516.025433 520.118125)scale(0.12 -0.12)">
       <use xlink:href="#DejaVuSans-31" transform="translate(0 0.684375)"/>
       <use xlink:href="#DejaVuSans-30" transform="translate(63.623047 0.684375)"/>
       <use xlink:href="#DejaVuSans-31" transform="translate(128.203125 38.965625)scale(0.7)"/>
       <use xlink:href="#DejaVuSans-31" transform="translate(172.739258 38.965625)scale(0.7)"/>
      </g>
     </g>
    </g>
    <g id="xtick_5">
     <g id="line2d_5">
      <g>
       <use xlink:href="#m6e2444ca1e" x="637.614803" y="504" style="fill: #ffffff; stroke: #ffffff; stroke-width: 0.8"/>
      </g>
     </g>
     <g id="text_5">
      <!-- $\mathdefault{10^{14}}$ -->
      <g style="fill: #ffffff" transform="translate(624.354803 520.118125)scale(0.12 -0.12)">
       <defs>
        <path id="DejaVuSans-34" d="M 2419 4116 
L 825 1625 
L 2419 1625 
L 2419 4116 
z
M 2253 4666 
L 3047 4666 
L 3047 1625 
L 3713 1625 
L 3713 1100 
L 3047 1100 
L 3047 0 
L 2419 0 
L 2419 1100 
L 313 1100 
L 313 1709 
L 2253 4666 
z
" transform="scale(0.015625)"/>
       </defs>
       <use xlink:href="#DejaVuSans-31" transform="translate(0 0.684375)"/>
       <use xlink:href="#DejaVuSans-30" transform="translate(63.623047 0.684375)"/>
       <use xlink:href="#DejaVuSans-31" transform="translate(128.203125 38.965625)scale(0.7)"/>
       <use xlink:href="#DejaVuSans-34" transform="translate(172.739258 38.965625)scale(0.7)"/>
      </g>
     </g>
    </g>
    <g id="xtick_6">
     <g id="line2d_6">
      <g>
       <use xlink:href="#m6e2444ca1e" x="745.944172" y="504" style="fill: #ffffff; stroke: #ffffff; stroke-width: 0.8"/>
      </g>
     </g>
     <g id="text_6">
      <!-- $\mathdefault{10^{17}}$ -->
      <g style="fill: #ffffff" transform="translate(732.684172 520.118125)scale(0.12 -0.12)">
       <defs>
        <path id="DejaVuSans-37" d="M 525 4666 
L 3525 4666 
L 3525 4397 
L 1831 0 
L 1172 0 
L 2766 4134 
L 525 4134 
L 525 4666 
z
" transform="scale(0.015625)"/>
       </defs>
       <use xlink:href="#DejaVuSans-31" transform="translate(0 0.684375)"/>
       <use xlink:href="#DejaVuSans-30" transform="translate(63.623047 0.684375)"/>
       <use xlink:href="#DejaVuSans-31" transform="translate(128.203125 38.965625)scale(0.7)"/>
       <use xlink:href="#DejaVuSans-37" transform="translate(172.739258 38.965625)scale(0.7)"/>
      </g>
     </g>
    </g>
    <g id="text_7">
     <!-- translation (log scale) -->
     <g style="fill: #ffffff" transform="translate(377.436563 535.731875)scale(0.12 -0.12)">
      <defs>
       <path id="DejaVuSans-74" d="M 1172 4494 
L 1172 3500 
L 2356 3500 
L 2356 3053 
L 1172 3053 
L 1172 1153 
Q 1172 725 1289 603 
Q 1406 481 1766 481 
L 2356 481 
L 2356 0 
L 1766 0 
Q 1100 0 847 248 
Q 594 497 594 1153 
L 594 3053 
L 172 3053 
L 172 3500 
L 594 3500 
L 594 4494 
L 1172 4494 
z
" transform="scale(0.015625)"/>
       <path id="DejaVuSans-72" d="M 2631 2963 
Q 2534 3019 2420 3045 
Q 2306 3072 2169 3072 
Q 1681 3072 1420 2755 
Q 1159 2438 1159 1844 
L 1159 0 
L 581 0 
L 581 3500 
L 1159 3500 
L 1159 2956 
Q 1341 3275 1631 3429 
Q 1922 3584 2338 3584 
Q 2397 3584 2469 3576 
Q 2541 3569 2628 3553 
L 2631 2963 
z
" transform="scale(0.015625)"/>
       <path id="DejaVuSans-61" d="M 2194 1759 
Q 1497 1759 1228 1600 
Q 959 1441 959 1056 
Q 959 750 1161 570 
Q 1363 391 1709 391 
Q 2188 391 2477 730 
Q 2766 1069 2766 1631 
L 2766 1759 
L 2194 1759 
z
M 3341 1997 
L 3341 0 
L 2766 0 
L 2766 531 
Q 2569 213 2275 61 
Q 1981 -91 1556 -91 
Q 1019 -91 701 211 
Q 384 513 384 1019 
Q 384 1609 779 1909 
Q 1175 2209 1959 2209 
L 2766 2209 
L 2766 2266 
Q 2766 2663 2505 2880 
Q 2244 3097 1772 3097 
Q 1472 3097 1187 3025 
Q 903 2953 641 2809 
L 641 3341 
Q 956 3463 1253 3523 
Q 1550 3584 1831 3584 
Q 2591 3584 2966 3190 
Q 3341 2797 3341 1997 
z
" transform="scale(0.015625)"/>
       <path id="DejaVuSans-6e" d="M 3513 2113 
L 3513 0 
L 2938 0 
L 2938 2094 
Q 2938 2591 2744 2837 
Q 2550 3084 2163 3084 
Q 1697 3084 1428 2787 
Q 1159 2491 1159 1978 
L 1159 0 
L 581 0 
L 581 3500 
L 1159 3500 
L 1159 2956 
Q 1366 3272 1645 3428 
Q 1925 3584 2291 3584 
Q 2894 3584 3203 3211 
Q 3513 2838 3513 2113 
z
" transform="scale(0.015625)"/>
       <path id="DejaVuSans-73" d="M 2834 3397 
L 2834 2853 
Q 2591 2978 2328 3040 
Q 2066 3103 1784 3103 
Q 1356 3103 1142 2972 
Q 928 2841 928 2578 
Q 928 2378 1081 2264 
Q 1234 2150 1697 2047 
L 1894 2003 
Q 2506 1872 2764 1633 
Q 3022 1394 3022 966 
Q 3022 478 2636 193 
Q 2250 -91 1575 -91 
Q 1294 -91 989 -36 
Q 684 19 347 128 
L 347 722 
Q 666 556 975 473 
Q 1284 391 1588 391 
Q 1994 391 2212 530 
Q 2431 669 2431 922 
Q 2431 1156 2273 1281 
Q 2116 1406 1581 1522 
L 1381 1569 
Q 847 1681 609 1914 
Q 372 2147 372 2553 
Q 372 3047 722 3315 
Q 1072 3584 1716 3584 
Q 2034 3584 2315 3537 
Q 2597 3491 2834 3397 
z
" transform="scale(0.015625)"/>
       <path id="DejaVuSans-6c" d="M 603 4863 
L 1178 4863 
L 1178 0 
L 603 0 
L 603 4863 
z
" transform="scale(0.015625)"/>
       <path id="DejaVuSans-69" d="M 603 3500 
L 1178 3500 
L 1178 0 
L 603 0 
L 603 3500 
z
M 603 4863 
L 1178 4863 
L 1178 4134 
L 603 4134 
L 603 4863 
z
" transform="scale(0.015625)"/>
       <path id="DejaVuSans-6f" d="M 1959 3097 
Q 1497 3097 1228 2736 
Q 959 2375 959 1747 
Q 959 1119 1226 758 
Q 1494 397 1959 397 
Q 2419 397 2687 759 
Q 2956 1122 2956 1747 
Q 2956 2369 2687 2733 
Q 2419 3097 1959 3097 
z
M 1959 3584 
Q 2709 3584 3137 3096 
Q 3566 2609 3566 1747 
Q 3566 888 3137 398 
Q 2709 -91 1959 -91 
Q 1206 -91 779 398 
Q 353 888 353 1747 
Q 353 2609 779 3096 
Q 1206 3584 1959 3584 
z
" transform="scale(0.015625)"/>
       <path id="DejaVuSans-20" transform="scale(0.015625)"/>
       <path id="DejaVuSans-28" d="M 1984 4856 
Q 1566 4138 1362 3434 
Q 1159 2731 1159 2009 
Q 1159 1288 1364 580 
Q 1569 -128 1984 -844 
L 1484 -844 
Q 1016 -109 783 600 
Q 550 1309 550 2009 
Q 550 2706 781 3412 
Q 1013 4119 1484 4856 
L 1984 4856 
z
" transform="scale(0.015625)"/>
       <path id="DejaVuSans-67" d="M 2906 1791 
Q 2906 2416 2648 2759 
Q 2391 3103 1925 3103 
Q 1463 3103 1205 2759 
Q 947 2416 947 1791 
Q 947 1169 1205 825 
Q 1463 481 1925 481 
Q 2391 481 2648 825 
Q 2906 1169 2906 1791 
z
M 3481 434 
Q 3481 -459 3084 -895 
Q 2688 -1331 1869 -1331 
Q 1566 -1331 1297 -1286 
Q 1028 -1241 775 -1147 
L 775 -588 
Q 1028 -725 1275 -790 
Q 1522 -856 1778 -856 
Q 2344 -856 2625 -561 
Q 2906 -266 2906 331 
L 2906 616 
Q 2728 306 2450 153 
Q 2172 0 1784 0 
Q 1141 0 747 490 
Q 353 981 353 1791 
Q 353 2603 747 3093 
Q 1141 3584 1784 3584 
Q 2172 3584 2450 3431 
Q 2728 3278 2906 2969 
L 2906 3500 
L 3481 3500 
L 3481 434 
z
" transform="scale(0.015625)"/>
       <path id="DejaVuSans-63" d="M 3122 3366 
L 3122 2828 
Q 2878 2963 2633 3030 
Q 2388 3097 2138 3097 
Q 1578 3097 1268 2742 
Q 959 2388 959 1747 
Q 959 1106 1268 751 
Q 1578 397 2138 397 
Q 2388 397 2633 464 
Q 2878 531 3122 666 
L 3122 134 
Q 2881 22 2623 -34 
Q 2366 -91 2075 -91 
Q 1284 -91 818 406 
Q 353 903 353 1747 
Q 353 2603 823 3093 
Q 1294 3584 2113 3584 
Q 2378 3584 2631 3529 
Q 2884 3475 3122 3366 
z
" transform="scale(0.015625)"/>
       <path id="DejaVuSans-65" d="M 3597 1894 
L 3597 1613 
L 953 1613 
Q 991 1019 1311 708 
Q 1631 397 2203 397 
Q 2534 397 2845 478 
Q 3156 559 3463 722 
L 3463 178 
Q 3153 47 2828 -22 
Q 2503 -91 2169 -91 
Q 1331 -91 842 396 
Q 353 884 353 1716 
Q 353 2575 817 3079 
Q 1281 3584 2069 3584 
Q 2775 3584 3186 3129 
Q 3597 2675 3597 1894 
z
M 3022 2063 
Q 3016 2534 2758 2815 
Q 2500 3097 2075 3097 
Q 1594 3097 1305 2825 
Q 1016 2553 972 2059 
L 3022 2063 
z
" transform="scale(0.015625)"/>
       <path id="DejaVuSans-29" d="M 513 4856 
L 1013 4856 
Q 1481 4119 1714 3412 
Q 1947 2706 1947 2009 
Q 1947 1309 1714 600 
Q 1481 -109 1013 -844 
L 513 -844 
Q 928 -128 1133 580 
Q 1338 1288 1338 2009 
Q 1338 2731 1133 3434 
Q 928 4138 513 4856 
z
" transform="scale(0.015625)"/>
      </defs>
      <use xlink:href="#DejaVuSans-74"/>
      <use xlink:href="#DejaVuSans-72" x="39.208984"/>
      <use xlink:href="#DejaVuSans-61" x="80.322266"/>
      <use xlink:href="#DejaVuSans-6e" x="141.601562"/>
      <use xlink:href="#DejaVuSans-73" x="204.980469"/>
      <use xlink:href="#DejaVuSans-6c" x="257.080078"/>
      <use xlink:href="#DejaVuSans-61" x="284.863281"/>
      <use xlink:href="#DejaVuSans-74" x="346.142578"/>
      <use xlink:href="#DejaVuSans-69" x="385.351562"/>
      <use xlink:href="#DejaVuSans-6f" x="413.134766"/>
      <use xlink:href="#DejaVuSans-6e" x="474.316406"/>
      <use xlink:href="#DejaVuSans-20" x="537.695312"/>
      <use xlink:href="#DejaVuSans-28" x="569.482422"/>
      <use xlink:href="#DejaVuSans-6c" x="608.496094"/>
      <use xlink:href="#DejaVuSans-6f" x="636.279297"/>
      <use xlink:href="#DejaVuSans-67" x="697.460938"/>
      <use xlink:href="#DejaVuSans-20" x="760.9375"/>
      <use xlink:href="#DejaVuSans-73" x="792.724609"/>
      <use xlink:href="#DejaVuSans-63" x="844.824219"/>
      <use xlink:href="#DejaVuSans-61" x="899.804688"/>
      <use xlink:href="#DejaVuSans-6c" x="961.083984"/>
      <use xlink:href="#DejaVuSans-65" x="988.867188"/>
      <use xlink:href="#DejaVuSans-29" x="1050.390625"/>
     </g>
    </g>
   </g>
   <g id="matplotlib.axis_2">
    <g id="ytick_1">
     <g id="line2d_7">
      <defs>
       <path id="me7d7169c0e" d="M 0 0 
L -3.5 0 
" style="stroke: #ffffff; stroke-width: 0.8"/>
      </defs>
      <g>
       <use xlink:href="#me7d7169c0e" x="108" y="461.866433" style="fill: #ffffff; stroke: #ffffff; stroke-width: 0.8"/>
      </g>
     </g>
     <g id="text_8">
      <!-- $\mathdefault{10^{-14}}$ -->
      <g style="fill: #ffffff" transform="translate(67.52 466.425495)scale(0.12 -0.12)">
       <defs>
        <path id="DejaVuSans-2212" d="M 678 2272 
L 4684 2272 
L 4684 1741 
L 678 1741 
L 678 2272 
z
" transform="scale(0.015625)"/>
       </defs>
       <use xlink:href="#DejaVuSans-31" transform="translate(0 0.684375)"/>
       <use xlink:href="#DejaVuSans-30" transform="translate(63.623047 0.684375)"/>
       <use xlink:href="#DejaVuSans-2212" transform="translate(128.203125 38.965625)scale(0.7)"/>
       <use xlink:href="#DejaVuSans-31" transform="translate(186.855469 38.965625)scale(0.7)"/>
       <use xlink:href="#DejaVuSans-34" transform="translate(231.391602 38.965625)scale(0.7)"/>
      </g>
     </g>
    </g>
    <g id="ytick_2">
     <g id="line2d_8">
      <g>
       <use xlink:href="#me7d7169c0e" x="108" y="409.654741" style="fill: #ffffff; stroke: #ffffff; stroke-width: 0.8"/>
      </g>
     </g>
     <g id="text_9">
      <!-- $\mathdefault{10^{-10}}$ -->
      <g style="fill: #ffffff" transform="translate(67.52 414.213804)scale(0.12 -0.12)">
       <use xlink:href="#DejaVuSans-31" transform="translate(0 0.765625)"/>
       <use xlink:href="#DejaVuSans-30" transform="translate(63.623047 0.765625)"/>
       <use xlink:href="#DejaVuSans-2212" transform="translate(128.203125 39.046875)scale(0.7)"/>
       <use xlink:href="#DejaVuSans-31" transform="translate(186.855469 39.046875)scale(0.7)"/>
       <use xlink:href="#DejaVuSans-30" transform="translate(231.391602 39.046875)scale(0.7)"/>
      </g>
     </g>
    </g>
    <g id="ytick_3">
     <g id="line2d_9">
      <g>
       <use xlink:href="#me7d7169c0e" x="108" y="357.44305" style="fill: #ffffff; stroke: #ffffff; stroke-width: 0.8"/>
      </g>
     </g>
     <g id="text_10">
      <!-- $\mathdefault{10^{-6}}$ -->
      <g style="fill: #ffffff" transform="translate(72.8 362.002112)scale(0.12 -0.12)">
       <defs>
        <path id="DejaVuSans-36" d="M 2113 2584 
Q 1688 2584 1439 2293 
Q 1191 2003 1191 1497 
Q 1191 994 1439 701 
Q 1688 409 2113 409 
Q 2538 409 2786 701 
Q 3034 994 3034 1497 
Q 3034 2003 2786 2293 
Q 2538 2584 2113 2584 
z
M 3366 4563 
L 3366 3988 
Q 3128 4100 2886 4159 
Q 2644 4219 2406 4219 
Q 1781 4219 1451 3797 
Q 1122 3375 1075 2522 
Q 1259 2794 1537 2939 
Q 1816 3084 2150 3084 
Q 2853 3084 3261 2657 
Q 3669 2231 3669 1497 
Q 3669 778 3244 343 
Q 2819 -91 2113 -91 
Q 1303 -91 875 529 
Q 447 1150 447 2328 
Q 447 3434 972 4092 
Q 1497 4750 2381 4750 
Q 2619 4750 2861 4703 
Q 3103 4656 3366 4563 
z
" transform="scale(0.015625)"/>
       </defs>
       <use xlink:href="#DejaVuSans-31" transform="translate(0 0.765625)"/>
       <use xlink:href="#DejaVuSans-30" transform="translate(63.623047 0.765625)"/>
       <use xlink:href="#DejaVuSans-2212" transform="translate(128.203125 39.046875)scale(0.7)"/>
       <use xlink:href="#DejaVuSans-36" transform="translate(186.855469 39.046875)scale(0.7)"/>
      </g>
     </g>
    </g>
    <g id="ytick_4">
     <g id="line2d_10">
      <g>
       <use xlink:href="#me7d7169c0e" x="108" y="305.231358" style="fill: #ffffff; stroke: #ffffff; stroke-width: 0.8"/>
      </g>
     </g>
     <g id="text_11">
      <!-- $\mathdefault{10^{-2}}$ -->
      <g style="fill: #ffffff" transform="translate(72.8 309.79042)scale(0.12 -0.12)">
       <use xlink:href="#DejaVuSans-31" transform="translate(0 0.765625)"/>
       <use xlink:href="#DejaVuSans-30" transform="translate(63.623047 0.765625)"/>
       <use xlink:href="#DejaVuSans-2212" transform="translate(128.203125 39.046875)scale(0.7)"/>
       <use xlink:href="#DejaVuSans-32" transform="translate(186.855469 39.046875)scale(0.7)"/>
      </g>
     </g>
    </g>
    <g id="ytick_5">
     <g id="line2d_11">
      <g>
       <use xlink:href="#me7d7169c0e" x="108" y="253.019666" style="fill: #ffffff; stroke: #ffffff; stroke-width: 0.8"/>
      </g>
     </g>
     <g id="text_12">
      <!-- $\mathdefault{10^{2}}$ -->
      <g style="fill: #ffffff" transform="translate(79.88 257.578729)scale(0.12 -0.12)">
       <use xlink:href="#DejaVuSans-31" transform="translate(0 0.765625)"/>
       <use xlink:href="#DejaVuSans-30" transform="translate(63.623047 0.765625)"/>
       <use xlink:href="#DejaVuSans-32" transform="translate(128.203125 39.046875)scale(0.7)"/>
      </g>
     </g>
    </g>
    <g id="ytick_6">
     <g id="line2d_12">
      <g>
       <use xlink:href="#me7d7169c0e" x="108" y="200.807975" style="fill: #ffffff; stroke: #ffffff; stroke-width: 0.8"/>
      </g>
     </g>
     <g id="text_13">
      <!-- $\mathdefault{10^{6}}$ -->
      <g style="fill: #ffffff" transform="translate(79.88 205.367037)scale(0.12 -0.12)">
       <use xlink:href="#DejaVuSans-31" transform="translate(0 0.765625)"/>
       <use xlink:href="#DejaVuSans-30" transform="translate(63.623047 0.765625)"/>
       <use xlink:href="#DejaVuSans-36" transform="translate(128.203125 39.046875)scale(0.7)"/>
      </g>
     </g>
    </g>
    <g id="ytick_7">
     <g id="line2d_13">
      <g>
       <use xlink:href="#me7d7169c0e" x="108" y="148.596283" style="fill: #ffffff; stroke: #ffffff; stroke-width: 0.8"/>
      </g>
     </g>
     <g id="text_14">
      <!-- $\mathdefault{10^{10}}$ -->
      <g style="fill: #ffffff" transform="translate(74.48 153.155346)scale(0.12 -0.12)">
       <use xlink:href="#DejaVuSans-31" transform="translate(0 0.765625)"/>
       <use xlink:href="#DejaVuSans-30" transform="translate(63.623047 0.765625)"/>
       <use xlink:href="#DejaVuSans-31" transform="translate(128.203125 39.046875)scale(0.7)"/>
       <use xlink:href="#DejaVuSans-30" transform="translate(172.739258 39.046875)scale(0.7)"/>
      </g>
     </g>
    </g>
    <g id="ytick_8">
     <g id="line2d_14">
      <g>
       <use xlink:href="#me7d7169c0e" x="108" y="96.384591" style="fill: #ffffff; stroke: #ffffff; stroke-width: 0.8"/>
      </g>
     </g>
     <g id="text_15">
      <!-- $\mathdefault{10^{14}}$ -->
      <g style="fill: #ffffff" transform="translate(74.48 100.943654)scale(0.12 -0.12)">
       <use xlink:href="#DejaVuSans-31" transform="translate(0 0.684375)"/>
       <use xlink:href="#DejaVuSans-30" transform="translate(63.623047 0.684375)"/>
       <use xlink:href="#DejaVuSans-31" transform="translate(128.203125 38.965625)scale(0.7)"/>
       <use xlink:href="#DejaVuSans-34" transform="translate(172.739258 38.965625)scale(0.7)"/>
      </g>
     </g>
    </g>
    <g id="text_16">
     <!-- relative error (log scale) -->
     <g style="fill: #ffffff" transform="translate(61.024375 358.722188)rotate(-90)scale(0.12 -0.12)">
      <defs>
       <path id="DejaVuSans-76" d="M 191 3500 
L 800 3500 
L 1894 563 
L 2988 3500 
L 3597 3500 
L 2284 0 
L 1503 0 
L 191 3500 
z
" transform="scale(0.015625)"/>
      </defs>
      <use xlink:href="#DejaVuSans-72"/>
      <use xlink:href="#DejaVuSans-65" x="38.863281"/>
      <use xlink:href="#DejaVuSans-6c" x="100.386719"/>
      <use xlink:href="#DejaVuSans-61" x="128.169922"/>
      <use xlink:href="#DejaVuSans-74" x="189.449219"/>
      <use xlink:href="#DejaVuSans-69" x="228.658203"/>
      <use xlink:href="#DejaVuSans-76" x="256.441406"/>
      <use xlink:href="#DejaVuSans-65" x="315.621094"/>
      <use xlink:href="#DejaVuSans-20" x="377.144531"/>
      <use xlink:href="#DejaVuSans-65" x="408.931641"/>
      <use xlink:href="#DejaVuSans-72" x="470.455078"/>
      <use xlink:href="#DejaVuSans-72" x="509.818359"/>
      <use xlink:href="#DejaVuSans-6f" x="548.681641"/>
      <use xlink:href="#DejaVuSans-72" x="609.863281"/>
      <use xlink:href="#DejaVuSans-20" x="650.976562"/>
      <use xlink:href="#DejaVuSans-28" x="682.763672"/>
      <use xlink:href="#DejaVuSans-6c" x="721.777344"/>
      <use xlink:href="#DejaVuSans-6f" x="749.560547"/>
      <use xlink:href="#DejaVuSans-67" x="810.742188"/>
      <use xlink:href="#DejaVuSans-20" x="874.21875"/>
      <use xlink:href="#DejaVuSans-73" x="906.005859"/>
      <use xlink:href="#DejaVuSans-63" x="958.105469"/>
      <use xlink:href="#DejaVuSans-61" x="1013.085938"/>
      <use xlink:href="#DejaVuSans-6c" x="1074.365234"/>
      <use xlink:href="#DejaVuSans-65" x="1102.148438"/>
      <use xlink:href="#DejaVuSans-29" x="1163.671875"/>
     </g>
    </g>
   </g>
   <g id="line2d_15">
    <path d="M 138.436364 484.232727 
L 149.306494 484.232727 
L 160.176623 484.232727 
L 171.046753 484.232727 
L 171.125241 577 
M 192.708526 577 
L 192.787013 484.232727 
L 203.657143 478.0049 
L 214.527273 478.0049 
L 225.397403 478.0049 
L 236.267532 470.639509 
L 247.137662 478.0049 
L 258.007792 469.692511 
L 258.098479 577 
M 279.646511 577 
L 279.748052 456.727478 
L 290.618182 456.727478 
L 301.488312 467.250483 
L 312.358442 444.829862 
L 323.228571 467.250483 
L 334.098701 467.250483 
L 344.968831 467.250483 
L 355.838961 437.925504 
L 366.709091 437.9885 
L 377.579221 419.269995 
L 388.449351 414.348823 
L 399.319481 424.71918 
L 410.18961 414.348823 
L 421.05974 403.620287 
L 431.92987 395.097136 
L 442.8 410.468702 
L 453.67013 399.987103 
L 464.54026 388.310705 
L 475.41039 388.310705 
L 486.280519 380.442681 
L 497.150649 388.310705 
L 508.020779 372.431395 
L 518.890909 365.852914 
L 529.761039 373.058095 
L 540.631169 365.700851 
L 551.501299 354.756231 
L 562.371429 362.363622 
L 573.241558 361.042571 
L 584.111688 348.014745 
L 594.981818 349.285717 
L 605.851948 335.386744 
L 616.722078 339.826673 
L 627.592208 334.123398 
L 638.462338 335.847918 
L 649.332468 335.847918 
L 660.202597 321.533099 
L 671.072727 313.448847 
L 681.942857 314.977905 
L 692.812987 302.798601 
L 703.683117 302.798601 
L 714.553247 302.077006 
L 725.423377 294.198289 
L 736.293506 297.409251 
L 747.163636 297.409251 
" clip-path="url(#pca0e7222bb)" style="fill: none; stroke: #8dd3c7; stroke-width: 1.5; stroke-linecap: square"/>
   </g>
   <g id="line2d_16">
    <path d="M 149.228006 577 
L 149.306494 484.232727 
L 149.384981 577 
M 181.838396 577 
L 181.916883 484.232727 
L 181.995371 577 
M 203.573427 577 
L 203.657143 478.0049 
L 214.527273 484.232727 
L 225.397403 460.230372 
L 236.267532 455.085601 
L 247.137662 449.61316 
L 258.007792 439.607417 
L 268.877922 424.273738 
L 279.748052 418.694987 
L 290.618182 410.669795 
L 301.488312 402.757828 
L 312.358442 402.759608 
L 323.228571 392.407532 
L 334.098701 380.116559 
L 344.968831 375.113753 
L 355.838961 375.112637 
L 366.709091 354.033326 
L 377.579221 350.921672 
L 388.449351 340.525299 
L 399.319481 346.56871 
L 410.18961 328.93801 
L 421.05974 317.175639 
L 431.92987 323.992188 
L 442.8 301.084891 
L 453.67013 290.737836 
L 464.54026 290.737836 
L 475.41039 279.125512 
L 486.280519 279.125512 
L 497.150649 260.468521 
L 508.020779 256.4347 
L 518.890909 244.556853 
L 529.761039 232.754572 
L 540.631169 232.754576 
L 551.501299 279.125512 
L 562.371429 217.0388 
L 573.241558 279.125512 
L 584.111688 279.125512 
L 594.981818 279.125512 
L 605.851948 279.125512 
L 616.722078 279.125512 
L 627.592208 169.889614 
L 638.462338 158.098924 
L 649.332468 279.125512 
L 660.202597 140.063906 
L 671.072727 134.535434 
L 681.942857 130.542604 
L 692.812987 279.125512 
L 703.683117 114.859279 
L 714.553247 101.128984 
L 725.423377 99.044421 
L 736.293506 88.887273 
L 747.163636 279.125512 
" clip-path="url(#pca0e7222bb)" style="fill: none; stroke: #feffb3; stroke-width: 1.5; stroke-linecap: square"/>
   </g>
   <g id="line2d_17">
    <path d="M 160.098136 577 
L 160.176623 484.232727 
L 171.046753 484.232727 
L 181.916883 484.232727 
L 192.787013 478.0049 
L 203.657143 474.075579 
L 214.527273 459.535362 
L 225.397403 461.117932 
L 236.267532 449.897955 
L 247.137662 437.938369 
L 258.007792 442.670611 
L 268.877922 418.694987 
L 279.748052 424.299668 
L 290.618182 411.810701 
L 301.488312 402.759608 
L 312.358442 395.813111 
L 323.228571 385.075951 
L 334.098701 376.679052 
L 344.968831 375.113969 
L 355.838961 367.712951 
L 366.709091 355.152049 
L 377.579221 346.847583 
L 388.449351 340.525332 
L 399.319481 334.235374 
L 410.18961 334.235374 
L 421.05974 323.992188 
L 431.92987 323.992188 
L 442.8 301.287806 
L 453.67013 301.287807 
L 464.54026 285.827253 
L 475.41039 270.619035 
L 486.280519 262.170089 
L 497.150649 253.966196 
L 508.020779 279.125512 
L 518.890909 244.531432 
L 529.761039 236.688657 
L 540.631169 224.897915 
L 551.501299 217.038967 
L 562.371429 209.180242 
L 573.241558 279.125512 
L 584.111688 197.392453 
L 594.981818 279.125512 
L 605.851948 279.125512 
L 616.722078 173.816955 
L 627.592208 279.125512 
L 638.462338 158.102295 
L 649.332468 279.125512 
L 660.202597 279.125512 
L 671.072727 279.125512 
L 681.942857 122.717921 
L 692.812987 118.7886 
L 703.683117 107.209561 
L 714.553247 97.199662 
L 725.423377 279.125512 
L 736.293506 279.125512 
L 747.163636 279.125512 
" clip-path="url(#pca0e7222bb)" style="fill: none; stroke: #bfbbd9; stroke-width: 1.5; stroke-linecap: square"/>
   </g>
   <g id="line2d_18">
    <path d="M 138.436364 484.232727 
L 149.306494 484.232727 
L 149.384981 577 
M 170.968266 577 
L 171.046753 484.232727 
L 171.125241 577 
M 192.705226 577 
L 192.787013 480.303406 
L 203.657143 472.444763 
L 214.527273 467.847752 
L 225.397403 457.04629 
L 236.267532 453.657265 
L 247.137662 442.878421 
L 258.007792 439.727546 
L 268.877922 434.172378 
L 279.748052 415.956247 
L 290.618182 415.932471 
L 301.488312 411.801935 
L 312.358442 395.18271 
L 323.228571 388.211176 
L 334.098701 385.076579 
L 344.968831 373.433568 
L 355.838961 375.113536 
L 366.709091 354.033369 
L 377.579221 350.921609 
L 388.449351 340.525332 
L 399.319481 335.695411 
L 410.18961 334.235374 
L 421.05974 323.992199 
L 431.92987 310.764419 
L 442.8 301.08489 
L 453.67013 298.229123 
L 464.54026 290.737836 
L 475.41039 273.407177 
L 486.280519 273.967022 
L 497.150649 264.612807 
L 508.020779 256.231306 
L 518.890909 248.448085 
L 529.761039 236.682305 
L 540.631169 232.757742 
L 551.501299 220.968403 
L 562.371429 217.038779 
L 573.241558 205.250913 
L 584.111688 201.321653 
L 594.981818 189.533806 
L 605.851948 279.125512 
L 616.722078 279.125512 
L 627.592208 279.125512 
L 638.462338 155.803789 
L 649.332468 279.125512 
L 660.202597 146.307587 
L 671.072727 138.43309 
L 681.942857 279.125512 
L 692.812987 122.717921 
L 703.683117 279.125512 
L 714.553247 107.209561 
L 725.423377 98.010874 
L 736.293506 279.125512 
L 747.163636 279.125512 
" clip-path="url(#pca0e7222bb)" style="fill: none; stroke: #fa8174; stroke-width: 1.5; stroke-linecap: square"/>
   </g>
   <g id="line2d_19">
    <path d="M 138.436364 484.232727 
L 138.514851 577 
M 181.835096 577 
L 181.916883 480.303406 
L 181.99867 577 
M 203.578655 577 
L 203.657143 484.232727 
L 214.527273 475.109126 
L 225.397403 474.075579 
L 225.484415 577 
M 247.052578 577 
L 247.137662 476.374085 
L 258.007792 463.918431 
L 268.877922 455.219781 
L 279.748052 451.51551 
L 290.618182 444.868 
L 301.488312 449.117805 
L 312.358442 436.135896 
L 323.228571 436.830447 
L 334.098701 442.459417 
L 344.968831 427.440172 
L 355.838961 425.474314 
L 366.709091 427.727275 
L 377.579221 414.896242 
L 388.449351 422.451087 
L 399.319481 410.401336 
L 410.18961 403.135549 
L 421.05974 404.755153 
L 431.92987 400.851796 
L 442.8 401.075557 
L 453.67013 392.360186 
L 464.54026 387.955672 
L 475.41039 379.851426 
L 486.280519 381.112869 
L 497.150649 367.374852 
L 508.020779 369.502009 
L 518.890909 364.251474 
L 529.761039 356.959512 
L 540.631169 358.938233 
L 551.501299 355.999982 
L 562.371429 355.526536 
L 573.241558 342.631126 
L 584.111688 344.051886 
L 594.981818 333.429834 
L 605.851948 338.188519 
L 616.722078 333.834347 
L 627.592208 328.090076 
L 638.462338 330.570596 
L 649.332468 321.075139 
L 660.202597 319.016495 
L 671.072727 323.502056 
L 681.942857 317.412897 
L 692.812987 309.692772 
L 703.683117 300.177793 
L 714.553247 293.227201 
L 725.423377 292.574575 
L 736.293506 309.178312 
L 747.163636 286.934531 
" clip-path="url(#pca0e7222bb)" style="fill: none; stroke: #81b1d2; stroke-width: 1.5; stroke-linecap: square"/>
   </g>
   <g id="patch_3">
    <path d="M 108 504 
L 108 69.12 
" style="fill: none; stroke: #ffffff; stroke-width: 0.8; stroke-linejoin: miter; stroke-linecap: square"/>
   </g>
   <g id="patch_4">
    <path d="M 777.6 504 
L 777.6 69.12 
" style="fill: none; stroke: #ffffff; stroke-width: 0.8; stroke-linejoin: miter; stroke-linecap: square"/>
   </g>
   <g id="patch_5">
    <path d="M 108 504 
L 777.6 504 
" style="fill: none; stroke: #ffffff; stroke-width: 0.8; stroke-linejoin: miter; stroke-linecap: square"/>
   </g>
   <g id="patch_6">
    <path d="M 108 69.12 
L 777.6 69.12 
" style="fill: none; stroke: #ffffff; stroke-width: 0.8; stroke-linejoin: miter; stroke-linecap: square"/>
   </g>
   <g id="text_17">
    <!-- Error in naive computation of area relative to geo -->
    <g style="fill: #ffffff" transform="translate(264.396375 63.12)scale(0.144 -0.144)">
     <defs>
      <path id="DejaVuSans-45" d="M 628 4666 
L 3578 4666 
L 3578 4134 
L 1259 4134 
L 1259 2753 
L 3481 2753 
L 3481 2222 
L 1259 2222 
L 1259 531 
L 3634 531 
L 3634 0 
L 628 0 
L 628 4666 
z
" transform="scale(0.015625)"/>
      <path id="DejaVuSans-6d" d="M 3328 2828 
Q 3544 3216 3844 3400 
Q 4144 3584 4550 3584 
Q 5097 3584 5394 3201 
Q 5691 2819 5691 2113 
L 5691 0 
L 5113 0 
L 5113 2094 
Q 5113 2597 4934 2840 
Q 4756 3084 4391 3084 
Q 3944 3084 3684 2787 
Q 3425 2491 3425 1978 
L 3425 0 
L 2847 0 
L 2847 2094 
Q 2847 2600 2669 2842 
Q 2491 3084 2119 3084 
Q 1678 3084 1418 2786 
Q 1159 2488 1159 1978 
L 1159 0 
L 581 0 
L 581 3500 
L 1159 3500 
L 1159 2956 
Q 1356 3278 1631 3431 
Q 1906 3584 2284 3584 
Q 2666 3584 2933 3390 
Q 3200 3197 3328 2828 
z
" transform="scale(0.015625)"/>
      <path id="DejaVuSans-70" d="M 1159 525 
L 1159 -1331 
L 581 -1331 
L 581 3500 
L 1159 3500 
L 1159 2969 
Q 1341 3281 1617 3432 
Q 1894 3584 2278 3584 
Q 2916 3584 3314 3078 
Q 3713 2572 3713 1747 
Q 3713 922 3314 415 
Q 2916 -91 2278 -91 
Q 1894 -91 1617 61 
Q 1341 213 1159 525 
z
M 3116 1747 
Q 3116 2381 2855 2742 
Q 2594 3103 2138 3103 
Q 1681 3103 1420 2742 
Q 1159 2381 1159 1747 
Q 1159 1113 1420 752 
Q 1681 391 2138 391 
Q 2594 391 2855 752 
Q 3116 1113 3116 1747 
z
" transform="scale(0.015625)"/>
      <path id="DejaVuSans-75" d="M 544 1381 
L 544 3500 
L 1119 3500 
L 1119 1403 
Q 1119 906 1312 657 
Q 1506 409 1894 409 
Q 2359 409 2629 706 
Q 2900 1003 2900 1516 
L 2900 3500 
L 3475 3500 
L 3475 0 
L 2900 0 
L 2900 538 
Q 2691 219 2414 64 
Q 2138 -91 1772 -91 
Q 1169 -91 856 284 
Q 544 659 544 1381 
z
M 1991 3584 
L 1991 3584 
z
" transform="scale(0.015625)"/>
      <path id="DejaVuSans-66" d="M 2375 4863 
L 2375 4384 
L 1825 4384 
Q 1516 4384 1395 4259 
Q 1275 4134 1275 3809 
L 1275 3500 
L 2222 3500 
L 2222 3053 
L 1275 3053 
L 1275 0 
L 697 0 
L 697 3053 
L 147 3053 
L 147 3500 
L 697 3500 
L 697 3744 
Q 697 4328 969 4595 
Q 1241 4863 1831 4863 
L 2375 4863 
z
" transform="scale(0.015625)"/>
     </defs>
     <use xlink:href="#DejaVuSans-45"/>
     <use xlink:href="#DejaVuSans-72" x="63.183594"/>
     <use xlink:href="#DejaVuSans-72" x="102.546875"/>
     <use xlink:href="#DejaVuSans-6f" x="141.410156"/>
     <use xlink:href="#DejaVuSans-72" x="202.591797"/>
     <use xlink:href="#DejaVuSans-20" x="243.705078"/>
     <use xlink:href="#DejaVuSans-69" x="275.492188"/>
     <use xlink:href="#DejaVuSans-6e" x="303.275391"/>
     <use xlink:href="#DejaVuSans-20" x="366.654297"/>
     <use xlink:href="#DejaVuSans-6e" x="398.441406"/>
     <use xlink:href="#DejaVuSans-61" x="461.820312"/>
     <use xlink:href="#DejaVuSans-69" x="523.099609"/>
     <use xlink:href="#DejaVuSans-76" x="550.882812"/>
     <use xlink:href="#DejaVuSans-65" x="610.0625"/>
     <use xlink:href="#DejaVuSans-20" x="671.585938"/>
     <use xlink:href="#DejaVuSans-63" x="703.373047"/>
     <use xlink:href="#DejaVuSans-6f" x="758.353516"/>
     <use xlink:href="#DejaVuSans-6d" x="819.535156"/>
     <use xlink:href="#DejaVuSans-70" x="916.947266"/>
     <use xlink:href="#DejaVuSans-75" x="980.423828"/>
     <use xlink:href="#DejaVuSans-74" x="1043.802734"/>
     <use xlink:href="#DejaVuSans-61" x="1083.011719"/>
     <use xlink:href="#DejaVuSans-74" x="1144.291016"/>
     <use xlink:href="#DejaVuSans-69" x="1183.5"/>
     <use xlink:href="#DejaVuSans-6f" x="1211.283203"/>
     <use xlink:href="#DejaVuSans-6e" x="1272.464844"/>
     <use xlink:href="#DejaVuSans-20" x="1335.84375"/>
     <use xlink:href="#DejaVuSans-6f" x="1367.630859"/>
     <use xlink:href="#DejaVuSans-66" x="1428.8125"/>
     <use xlink:href="#DejaVuSans-20" x="1464.017578"/>
     <use xlink:href="#DejaVuSans-61" x="1495.804688"/>
     <use xlink:href="#DejaVuSans-72" x="1557.083984"/>
     <use xlink:href="#DejaVuSans-65" x="1595.947266"/>
     <use xlink:href="#DejaVuSans-61" x="1657.470703"/>
     <use xlink:href="#DejaVuSans-20" x="1718.75"/>
     <use xlink:href="#DejaVuSans-72" x="1750.537109"/>
     <use xlink:href="#DejaVuSans-65" x="1789.400391"/>
     <use xlink:href="#DejaVuSans-6c" x="1850.923828"/>
     <use xlink:href="#DejaVuSans-61" x="1878.707031"/>
     <use xlink:href="#DejaVuSans-74" x="1939.986328"/>
     <use xlink:href="#DejaVuSans-69" x="1979.195312"/>
     <use xlink:href="#DejaVuSans-76" x="2006.978516"/>
     <use xlink:href="#DejaVuSans-65" x="2066.158203"/>
     <use xlink:href="#DejaVuSans-20" x="2127.681641"/>
     <use xlink:href="#DejaVuSans-74" x="2159.46875"/>
     <use xlink:href="#DejaVuSans-6f" x="2198.677734"/>
     <use xlink:href="#DejaVuSans-20" x="2259.859375"/>
     <use xlink:href="#DejaVuSans-67" x="2291.646484"/>
     <use xlink:href="#DejaVuSans-65" x="2355.123047"/>
     <use xlink:href="#DejaVuSans-6f" x="2416.646484"/>
    </g>
   </g>
   <g id="legend_1">
    <g id="patch_7">
     <path d="M 115 165.18875 
L 217.220313 165.18875 
Q 219.220313 165.18875 219.220313 163.18875 
L 219.220313 76.12 
Q 219.220313 74.12 217.220313 74.12 
L 115 74.12 
Q 113 74.12 113 76.12 
L 113 163.18875 
Q 113 165.18875 115 165.18875 
z
" style="opacity: 0.8; stroke: #cccccc; stroke-linejoin: miter"/>
    </g>
    <g id="text_18">
     <!-- Angle of translation -->
     <g style="fill: #ffffff" transform="translate(117 85.718438)scale(0.1 -0.1)">
      <defs>
       <path id="DejaVuSans-41" d="M 2188 4044 
L 1331 1722 
L 3047 1722 
L 2188 4044 
z
M 1831 4666 
L 2547 4666 
L 4325 0 
L 3669 0 
L 3244 1197 
L 1141 1197 
L 716 0 
L 50 0 
L 1831 4666 
z
" transform="scale(0.015625)"/>
      </defs>
      <use xlink:href="#DejaVuSans-41"/>
      <use xlink:href="#DejaVuSans-6e" x="68.408203"/>
      <use xlink:href="#DejaVuSans-67" x="131.787109"/>
      <use xlink:href="#DejaVuSans-6c" x="195.263672"/>
      <use xlink:href="#DejaVuSans-65" x="223.046875"/>
      <use xlink:href="#DejaVuSans-20" x="284.570312"/>
      <use xlink:href="#DejaVuSans-6f" x="316.357422"/>
      <use xlink:href="#DejaVuSans-66" x="377.539062"/>
      <use xlink:href="#DejaVuSans-20" x="412.744141"/>
      <use xlink:href="#DejaVuSans-74" x="444.53125"/>
      <use xlink:href="#DejaVuSans-72" x="483.740234"/>
      <use xlink:href="#DejaVuSans-61" x="524.853516"/>
      <use xlink:href="#DejaVuSans-6e" x="586.132812"/>
      <use xlink:href="#DejaVuSans-73" x="649.511719"/>
      <use xlink:href="#DejaVuSans-6c" x="701.611328"/>
      <use xlink:href="#DejaVuSans-61" x="729.394531"/>
      <use xlink:href="#DejaVuSans-74" x="790.673828"/>
      <use xlink:href="#DejaVuSans-69" x="829.882812"/>
      <use xlink:href="#DejaVuSans-6f" x="857.666016"/>
      <use xlink:href="#DejaVuSans-6e" x="918.847656"/>
     </g>
    </g>
    <g id="line2d_20">
     <path d="M 141.053125 96.896563 
L 151.053125 96.896563 
L 161.053125 96.896563 
" style="fill: none; stroke: #8dd3c7; stroke-width: 1.5; stroke-linecap: square"/>
    </g>
    <g id="text_19">
     <!-- 0 -->
     <g style="fill: #ffffff" transform="translate(169.053125 100.396563)scale(0.1 -0.1)">
      <use xlink:href="#DejaVuSans-30"/>
     </g>
    </g>
    <g id="line2d_21">
     <path d="M 141.053125 111.574688 
L 151.053125 111.574688 
L 161.053125 111.574688 
" style="fill: none; stroke: #feffb3; stroke-width: 1.5; stroke-linecap: square"/>
    </g>
    <g id="text_20">
     <!-- π/8 -->
     <g style="fill: #ffffff" transform="translate(169.053125 115.074688)scale(0.1 -0.1)">
      <defs>
       <path id="DejaVuSans-3c0" d="M 231 3500 
L 3584 3500 
L 3584 2925 
L 3144 2925 
L 3144 775 
Q 3144 550 3220 451 
Q 3297 353 3469 353 
Q 3516 353 3584 361 
Q 3653 369 3675 372 
L 3675 -44 
Q 3566 -84 3450 -103 
Q 3334 -122 3219 -122 
Q 2844 -122 2700 83 
Q 2556 288 2556 838 
L 2556 2925 
L 1266 2925 
L 1266 0 
L 678 0 
L 678 2925 
L 231 2925 
L 231 3500 
z
" transform="scale(0.015625)"/>
       <path id="DejaVuSans-2f" d="M 1625 4666 
L 2156 4666 
L 531 -594 
L 0 -594 
L 1625 4666 
z
" transform="scale(0.015625)"/>
      </defs>
      <use xlink:href="#DejaVuSans-3c0"/>
      <use xlink:href="#DejaVuSans-2f" x="60.205078"/>
      <use xlink:href="#DejaVuSans-38" x="93.896484"/>
     </g>
    </g>
    <g id="line2d_22">
     <path d="M 141.053125 126.252813 
L 151.053125 126.252813 
L 161.053125 126.252813 
" style="fill: none; stroke: #bfbbd9; stroke-width: 1.5; stroke-linecap: square"/>
    </g>
    <g id="text_21">
     <!-- π/4 -->
     <g style="fill: #ffffff" transform="translate(169.053125 129.752813)scale(0.1 -0.1)">
      <use xlink:href="#DejaVuSans-3c0"/>
      <use xlink:href="#DejaVuSans-2f" x="60.205078"/>
      <use xlink:href="#DejaVuSans-34" x="93.896484"/>
     </g>
    </g>
    <g id="line2d_23">
     <path d="M 141.053125 140.930938 
L 151.053125 140.930938 
L 161.053125 140.930938 
" style="fill: none; stroke: #fa8174; stroke-width: 1.5; stroke-linecap: square"/>
    </g>
    <g id="text_22">
     <!-- 3π/8 -->
     <g style="fill: #ffffff" transform="translate(169.053125 144.430938)scale(0.1 -0.1)">
      <defs>
       <path id="DejaVuSans-33" d="M 2597 2516 
Q 3050 2419 3304 2112 
Q 3559 1806 3559 1356 
Q 3559 666 3084 287 
Q 2609 -91 1734 -91 
Q 1441 -91 1130 -33 
Q 819 25 488 141 
L 488 750 
Q 750 597 1062 519 
Q 1375 441 1716 441 
Q 2309 441 2620 675 
Q 2931 909 2931 1356 
Q 2931 1769 2642 2001 
Q 2353 2234 1838 2234 
L 1294 2234 
L 1294 2753 
L 1863 2753 
Q 2328 2753 2575 2939 
Q 2822 3125 2822 3475 
Q 2822 3834 2567 4026 
Q 2313 4219 1838 4219 
Q 1578 4219 1281 4162 
Q 984 4106 628 3988 
L 628 4550 
Q 988 4650 1302 4700 
Q 1616 4750 1894 4750 
Q 2613 4750 3031 4423 
Q 3450 4097 3450 3541 
Q 3450 3153 3228 2886 
Q 3006 2619 2597 2516 
z
" transform="scale(0.015625)"/>
      </defs>
      <use xlink:href="#DejaVuSans-33"/>
      <use xlink:href="#DejaVuSans-3c0" x="63.623047"/>
      <use xlink:href="#DejaVuSans-2f" x="123.828125"/>
      <use xlink:href="#DejaVuSans-38" x="157.519531"/>
     </g>
    </g>
    <g id="line2d_24">
     <path d="M 141.053125 155.609063 
L 151.053125 155.609063 
L 161.053125 155.609063 
" style="fill: none; stroke: #81b1d2; stroke-width: 1.5; stroke-linecap: square"/>
    </g>
    <g id="text_23">
     <!-- π/2 -->
     <g style="fill: #ffffff" transform="translate(169.053125 159.109063)scale(0.1 -0.1)">
      <use xlink:href="#DejaVuSans-3c0"/>
      <use xlink:href="#DejaVuSans-2f" x="60.205078"/>
      <use xlink:href="#DejaVuSans-32" x="93.896484"/>
     </g>
    </g>
   </g>
  </g>
 </g>
 <defs>
  <clipPath id="pca0e7222bb">
   <rect x="108" y="69.12" width="669.6" height="434.88"/>
  </clipPath>
 </defs>
</svg>
