<?xml version="1.0" encoding="utf-8" standalone="no"?>
<!DOCTYPE svg PUBLIC "-//W3C//DTD SVG 1.1//EN"
  "http://www.w3.org/Graphics/SVG/1.1/DTD/svg11.dtd">
<svg xmlns:xlink="http://www.w3.org/1999/xlink" width="864pt" height="576pt" viewBox="0 0 864 576" xmlns="http://www.w3.org/2000/svg" version="1.1">
 <metadata>
  <rdf:RDF xmlns:dc="http://purl.org/dc/elements/1.1/" xmlns:cc="http://creativecommons.org/ns#" xmlns:rdf="http://www.w3.org/1999/02/22-rdf-syntax-ns#">
   <cc:Work>
    <dc:type rdf:resource="http://purl.org/dc/dcmitype/StillImage"/>
    <dc:date>2022-02-22T04:34:15.770678</dc:date>
    <dc:format>image/svg+xml</dc:format>
    <dc:creator>
     <cc:Agent>
      <dc:title>Matplotlib v3.5.0, https://matplotlib.org/</dc:title>
     </cc:Agent>
    </dc:creator>
   </cc:Work>
  </rdf:RDF>
 </metadata>
 <defs>
  <style type="text/css">*{stroke-linejoin: round; stroke-linecap: butt}</style>
 </defs>
 <g id="figure_1">
  <g id="patch_1">
   <path d="M 0 576 
L 864 576 
L 864 0 
L 0 0 
L 0 576 
z
" style="fill: none"/>
  </g>
  <g id="axes_1">
   <g id="patch_2">
    <path d="M 108 504 
L 777.6 504 
L 777.6 69.12 
L 108 69.12 
L 108 504 
z
" style="fill: none"/>
   </g>
   <g id="matplotlib.axis_1">
    <g id="xtick_1">
     <g id="line2d_1"/>
     <g id="text_1">
      <!-- 0 -->
      <g style="fill: #ffffff" transform="translate(135.099801 516.19625)scale(0.12 -0.12)">
       <defs>
        <path id="LiberationSans-30" d="M 3309 2203 
Q 3309 1100 2920 518 
Q 2531 -63 1772 -63 
Q 1013 -63 631 515 
Q 250 1094 250 2203 
Q 250 3338 620 3903 
Q 991 4469 1791 4469 
Q 2569 4469 2939 3897 
Q 3309 3325 3309 2203 
z
M 2738 2203 
Q 2738 3156 2517 3584 
Q 2297 4013 1791 4013 
Q 1272 4013 1045 3591 
Q 819 3169 819 2203 
Q 819 1266 1048 831 
Q 1278 397 1778 397 
Q 2275 397 2506 840 
Q 2738 1284 2738 2203 
z
" transform="scale(0.015625)"/>
       </defs>
       <use xlink:href="#LiberationSans-30"/>
      </g>
     </g>
    </g>
    <g id="xtick_2">
     <g id="line2d_2"/>
     <g id="text_2">
      <!-- 20 -->
      <g style="fill: #ffffff" transform="translate(213.471597 516.19625)scale(0.12 -0.12)">
       <defs>
        <path id="LiberationSans-32" d="M 322 0 
L 322 397 
Q 481 763 711 1042 
Q 941 1322 1194 1548 
Q 1447 1775 1695 1969 
Q 1944 2163 2144 2356 
Q 2344 2550 2467 2762 
Q 2591 2975 2591 3244 
Q 2591 3606 2378 3806 
Q 2166 4006 1788 4006 
Q 1428 4006 1195 3811 
Q 963 3616 922 3263 
L 347 3316 
Q 409 3844 795 4156 
Q 1181 4469 1788 4469 
Q 2453 4469 2811 4155 
Q 3169 3841 3169 3263 
Q 3169 3006 3051 2753 
Q 2934 2500 2703 2247 
Q 2472 1994 1819 1463 
Q 1459 1169 1246 933 
Q 1034 697 941 478 
L 3238 478 
L 3238 0 
L 322 0 
z
" transform="scale(0.015625)"/>
       </defs>
       <use xlink:href="#LiberationSans-32"/>
       <use xlink:href="#LiberationSans-30" x="55.615234"/>
      </g>
     </g>
    </g>
    <g id="xtick_3">
     <g id="line2d_3"/>
     <g id="text_3">
      <!-- 40 -->
      <g style="fill: #ffffff" transform="translate(295.179956 516.19625)scale(0.12 -0.12)">
       <defs>
        <path id="LiberationSans-34" d="M 2753 997 
L 2753 0 
L 2222 0 
L 2222 997 
L 147 997 
L 147 1434 
L 2163 4403 
L 2753 4403 
L 2753 1441 
L 3372 1441 
L 3372 997 
L 2753 997 
z
M 2222 3769 
Q 2216 3750 2134 3603 
Q 2053 3456 2013 3397 
L 884 1734 
L 716 1503 
L 666 1441 
L 2222 1441 
L 2222 3769 
z
" transform="scale(0.015625)"/>
       </defs>
       <use xlink:href="#LiberationSans-34"/>
       <use xlink:href="#LiberationSans-30" x="55.615234"/>
      </g>
     </g>
    </g>
    <g id="xtick_4">
     <g id="line2d_4"/>
     <g id="text_4">
      <!-- 60 -->
      <g style="fill: #ffffff" transform="translate(376.888315 516.19625)scale(0.12 -0.12)">
       <defs>
        <path id="LiberationSans-36" d="M 3278 1441 
Q 3278 744 2900 340 
Q 2522 -63 1856 -63 
Q 1113 -63 719 490 
Q 325 1044 325 2100 
Q 325 3244 734 3856 
Q 1144 4469 1900 4469 
Q 2897 4469 3156 3572 
L 2619 3475 
Q 2453 4013 1894 4013 
Q 1413 4013 1148 3564 
Q 884 3116 884 2266 
Q 1038 2550 1316 2698 
Q 1594 2847 1953 2847 
Q 2563 2847 2920 2465 
Q 3278 2084 3278 1441 
z
M 2706 1416 
Q 2706 1894 2472 2153 
Q 2238 2413 1819 2413 
Q 1425 2413 1183 2183 
Q 941 1953 941 1550 
Q 941 1041 1192 716 
Q 1444 391 1838 391 
Q 2244 391 2475 664 
Q 2706 938 2706 1416 
z
" transform="scale(0.015625)"/>
       </defs>
       <use xlink:href="#LiberationSans-36"/>
       <use xlink:href="#LiberationSans-30" x="55.615234"/>
      </g>
     </g>
    </g>
    <g id="xtick_5">
     <g id="line2d_5"/>
     <g id="text_5">
      <!-- 80 -->
      <g style="fill: #ffffff" transform="translate(458.596674 516.19625)scale(0.12 -0.12)">
       <defs>
        <path id="LiberationSans-38" d="M 3281 1228 
Q 3281 619 2893 278 
Q 2506 -63 1781 -63 
Q 1075 -63 676 271 
Q 278 606 278 1222 
Q 278 1653 525 1947 
Q 772 2241 1156 2303 
L 1156 2316 
Q 797 2400 589 2681 
Q 381 2963 381 3341 
Q 381 3844 757 4156 
Q 1134 4469 1769 4469 
Q 2419 4469 2795 4162 
Q 3172 3856 3172 3334 
Q 3172 2956 2962 2675 
Q 2753 2394 2391 2322 
L 2391 2309 
Q 2813 2241 3047 1952 
Q 3281 1663 3281 1228 
z
M 2588 3303 
Q 2588 4050 1769 4050 
Q 1372 4050 1164 3862 
Q 956 3675 956 3303 
Q 956 2925 1170 2726 
Q 1384 2528 1775 2528 
Q 2172 2528 2380 2711 
Q 2588 2894 2588 3303 
z
M 2697 1281 
Q 2697 1691 2453 1898 
Q 2209 2106 1769 2106 
Q 1341 2106 1100 1882 
Q 859 1659 859 1269 
Q 859 359 1788 359 
Q 2247 359 2472 579 
Q 2697 800 2697 1281 
z
" transform="scale(0.015625)"/>
       </defs>
       <use xlink:href="#LiberationSans-38"/>
       <use xlink:href="#LiberationSans-30" x="55.615234"/>
      </g>
     </g>
    </g>
    <g id="xtick_6">
     <g id="line2d_6"/>
     <g id="text_6">
      <!-- 100 -->
      <g style="fill: #ffffff" transform="translate(536.96847 516.19625)scale(0.12 -0.12)">
       <defs>
        <path id="LiberationSans-31" d="M 488 0 
L 488 478 
L 1609 478 
L 1609 3866 
L 616 3156 
L 616 3688 
L 1656 4403 
L 2175 4403 
L 2175 478 
L 3247 478 
L 3247 0 
L 488 0 
z
" transform="scale(0.015625)"/>
       </defs>
       <use xlink:href="#LiberationSans-31"/>
       <use xlink:href="#LiberationSans-30" x="55.615234"/>
       <use xlink:href="#LiberationSans-30" x="111.230469"/>
      </g>
     </g>
    </g>
    <g id="xtick_7">
     <g id="line2d_7"/>
     <g id="text_7">
      <!-- 120 -->
      <g style="fill: #ffffff" transform="translate(618.676829 516.19625)scale(0.12 -0.12)">
       <use xlink:href="#LiberationSans-31"/>
       <use xlink:href="#LiberationSans-32" x="55.615234"/>
       <use xlink:href="#LiberationSans-30" x="111.230469"/>
      </g>
     </g>
    </g>
    <g id="xtick_8">
     <g id="line2d_8"/>
     <g id="text_8">
      <!-- 140 -->
      <g style="fill: #ffffff" transform="translate(700.385187 516.19625)scale(0.12 -0.12)">
       <use xlink:href="#LiberationSans-31"/>
       <use xlink:href="#LiberationSans-34" x="55.615234"/>
       <use xlink:href="#LiberationSans-30" x="111.230469"/>
      </g>
     </g>
    </g>
    <g id="text_9">
     <!-- observation -->
     <g style="fill: #ffffff" transform="translate(411.782813 531.3825)scale(0.12 -0.12)">
      <defs>
       <path id="LiberationSans-6f" d="M 3291 1694 
Q 3291 806 2900 371 
Q 2509 -63 1766 -63 
Q 1025 -63 647 389 
Q 269 841 269 1694 
Q 269 3444 1784 3444 
Q 2559 3444 2925 3017 
Q 3291 2591 3291 1694 
z
M 2700 1694 
Q 2700 2394 2492 2711 
Q 2284 3028 1794 3028 
Q 1300 3028 1079 2704 
Q 859 2381 859 1694 
Q 859 1025 1076 689 
Q 1294 353 1759 353 
Q 2266 353 2483 678 
Q 2700 1003 2700 1694 
z
" transform="scale(0.015625)"/>
       <path id="LiberationSans-62" d="M 3291 1706 
Q 3291 -63 2047 -63 
Q 1663 -63 1408 76 
Q 1153 216 994 525 
L 988 525 
Q 988 428 975 229 
Q 963 31 956 0 
L 413 0 
Q 431 169 431 697 
L 431 4638 
L 994 4638 
L 994 3316 
Q 994 3113 981 2838 
L 994 2838 
Q 1150 3163 1408 3303 
Q 1666 3444 2047 3444 
Q 2688 3444 2989 3012 
Q 3291 2581 3291 1706 
z
M 2700 1688 
Q 2700 2397 2512 2703 
Q 2325 3009 1903 3009 
Q 1428 3009 1211 2684 
Q 994 2359 994 1653 
Q 994 988 1206 670 
Q 1419 353 1897 353 
Q 2322 353 2511 667 
Q 2700 981 2700 1688 
z
" transform="scale(0.015625)"/>
       <path id="LiberationSans-73" d="M 2969 934 
Q 2969 456 2608 196 
Q 2247 -63 1597 -63 
Q 966 -63 623 145 
Q 281 353 178 794 
L 675 891 
Q 747 619 972 492 
Q 1197 366 1597 366 
Q 2025 366 2223 497 
Q 2422 628 2422 891 
Q 2422 1091 2284 1216 
Q 2147 1341 1841 1422 
L 1438 1528 
Q 953 1653 748 1773 
Q 544 1894 428 2066 
Q 313 2238 313 2488 
Q 313 2950 642 3192 
Q 972 3434 1603 3434 
Q 2163 3434 2492 3237 
Q 2822 3041 2909 2606 
L 2403 2544 
Q 2356 2769 2151 2889 
Q 1947 3009 1603 3009 
Q 1222 3009 1040 2893 
Q 859 2778 859 2544 
Q 859 2400 934 2306 
Q 1009 2213 1156 2147 
Q 1303 2081 1775 1966 
Q 2222 1853 2419 1758 
Q 2616 1663 2730 1547 
Q 2844 1431 2906 1279 
Q 2969 1128 2969 934 
z
" transform="scale(0.015625)"/>
       <path id="LiberationSans-65" d="M 863 1572 
Q 863 991 1103 675 
Q 1344 359 1806 359 
Q 2172 359 2392 506 
Q 2613 653 2691 878 
L 3184 738 
Q 2881 -63 1806 -63 
Q 1056 -63 664 384 
Q 272 831 272 1713 
Q 272 2550 664 2997 
Q 1056 3444 1784 3444 
Q 3275 3444 3275 1647 
L 3275 1572 
L 863 1572 
z
M 2694 2003 
Q 2647 2538 2422 2783 
Q 2197 3028 1775 3028 
Q 1366 3028 1127 2754 
Q 888 2481 869 2003 
L 2694 2003 
z
" transform="scale(0.015625)"/>
       <path id="LiberationSans-72" d="M 444 0 
L 444 2594 
Q 444 2950 425 3381 
L 956 3381 
Q 981 2806 981 2691 
L 994 2691 
Q 1128 3125 1303 3284 
Q 1478 3444 1797 3444 
Q 1909 3444 2025 3413 
L 2025 2897 
Q 1913 2928 1725 2928 
Q 1375 2928 1190 2626 
Q 1006 2325 1006 1763 
L 1006 0 
L 444 0 
z
" transform="scale(0.015625)"/>
       <path id="LiberationSans-76" d="M 1916 0 
L 1250 0 
L 22 3381 
L 622 3381 
L 1366 1181 
Q 1406 1056 1581 441 
L 1691 806 
L 1813 1175 
L 2581 3381 
L 3178 3381 
L 1916 0 
z
" transform="scale(0.015625)"/>
       <path id="LiberationSans-61" d="M 1294 -63 
Q 784 -63 528 206 
Q 272 475 272 944 
Q 272 1469 617 1750 
Q 963 2031 1731 2050 
L 2491 2063 
L 2491 2247 
Q 2491 2659 2316 2837 
Q 2141 3016 1766 3016 
Q 1388 3016 1216 2887 
Q 1044 2759 1009 2478 
L 422 2531 
Q 566 3444 1778 3444 
Q 2416 3444 2737 3151 
Q 3059 2859 3059 2306 
L 3059 850 
Q 3059 600 3125 473 
Q 3191 347 3375 347 
Q 3456 347 3559 369 
L 3559 19 
Q 3347 -31 3125 -31 
Q 2813 -31 2670 133 
Q 2528 297 2509 647 
L 2491 647 
Q 2275 259 1989 98 
Q 1703 -63 1294 -63 
z
M 1422 359 
Q 1731 359 1972 500 
Q 2213 641 2352 886 
Q 2491 1131 2491 1391 
L 2491 1669 
L 1875 1656 
Q 1478 1650 1273 1575 
Q 1069 1500 959 1344 
Q 850 1188 850 934 
Q 850 659 998 509 
Q 1147 359 1422 359 
z
" transform="scale(0.015625)"/>
       <path id="LiberationSans-74" d="M 1731 25 
Q 1453 -50 1163 -50 
Q 488 -50 488 716 
L 488 2972 
L 97 2972 
L 97 3381 
L 509 3381 
L 675 4138 
L 1050 4138 
L 1050 3381 
L 1675 3381 
L 1675 2972 
L 1050 2972 
L 1050 838 
Q 1050 594 1129 495 
Q 1209 397 1406 397 
Q 1519 397 1731 441 
L 1731 25 
z
" transform="scale(0.015625)"/>
       <path id="LiberationSans-69" d="M 428 4100 
L 428 4638 
L 991 4638 
L 991 4100 
L 428 4100 
z
M 428 0 
L 428 3381 
L 991 3381 
L 991 0 
L 428 0 
z
" transform="scale(0.015625)"/>
       <path id="LiberationSans-6e" d="M 2578 0 
L 2578 2144 
Q 2578 2478 2512 2662 
Q 2447 2847 2303 2928 
Q 2159 3009 1881 3009 
Q 1475 3009 1240 2731 
Q 1006 2453 1006 1959 
L 1006 0 
L 444 0 
L 444 2659 
Q 444 3250 425 3381 
L 956 3381 
Q 959 3366 962 3297 
Q 966 3228 970 3139 
Q 975 3050 981 2803 
L 991 2803 
Q 1184 3153 1439 3298 
Q 1694 3444 2072 3444 
Q 2628 3444 2886 3167 
Q 3144 2891 3144 2253 
L 3144 0 
L 2578 0 
z
" transform="scale(0.015625)"/>
      </defs>
      <use xlink:href="#LiberationSans-6f"/>
      <use xlink:href="#LiberationSans-62" x="55.615234"/>
      <use xlink:href="#LiberationSans-73" x="111.230469"/>
      <use xlink:href="#LiberationSans-65" x="161.230469"/>
      <use xlink:href="#LiberationSans-72" x="216.845703"/>
      <use xlink:href="#LiberationSans-76" x="250.146484"/>
      <use xlink:href="#LiberationSans-61" x="300.146484"/>
      <use xlink:href="#LiberationSans-74" x="355.761719"/>
      <use xlink:href="#LiberationSans-69" x="383.544922"/>
      <use xlink:href="#LiberationSans-6f" x="405.761719"/>
      <use xlink:href="#LiberationSans-6e" x="461.376953"/>
     </g>
    </g>
   </g>
   <g id="matplotlib.axis_2">
    <g id="ytick_1">
     <g id="line2d_9">
      <path d="M 108 419.713325 
L 777.6 419.713325 
" clip-path="url(#p24d72c94be)" style="fill: none; stroke: #ffffff; stroke-width: 0.8; stroke-linecap: round"/>
     </g>
     <g id="line2d_10"/>
     <g id="text_10">
      <!-- 2 -->
      <g style="fill: #ffffff" transform="translate(97.826875 424.06145)scale(0.12 -0.12)">
       <use xlink:href="#LiberationSans-32"/>
      </g>
     </g>
    </g>
    <g id="ytick_2">
     <g id="line2d_11">
      <path d="M 108 331.097169 
L 777.6 331.097169 
" clip-path="url(#p24d72c94be)" style="fill: none; stroke: #ffffff; stroke-width: 0.8; stroke-linecap: round"/>
     </g>
     <g id="line2d_12"/>
     <g id="text_11">
      <!-- 3 -->
      <g style="fill: #ffffff" transform="translate(97.826875 335.445294)scale(0.12 -0.12)">
       <defs>
        <path id="LiberationSans-33" d="M 3278 1216 
Q 3278 606 2890 271 
Q 2503 -63 1784 -63 
Q 1116 -63 717 239 
Q 319 541 244 1131 
L 825 1184 
Q 938 403 1784 403 
Q 2209 403 2451 612 
Q 2694 822 2694 1234 
Q 2694 1594 2417 1795 
Q 2141 1997 1619 1997 
L 1300 1997 
L 1300 2484 
L 1606 2484 
Q 2069 2484 2323 2686 
Q 2578 2888 2578 3244 
Q 2578 3597 2370 3801 
Q 2163 4006 1753 4006 
Q 1381 4006 1151 3815 
Q 922 3625 884 3278 
L 319 3322 
Q 381 3863 767 4166 
Q 1153 4469 1759 4469 
Q 2422 4469 2789 4161 
Q 3156 3853 3156 3303 
Q 3156 2881 2920 2617 
Q 2684 2353 2234 2259 
L 2234 2247 
Q 2728 2194 3003 1916 
Q 3278 1638 3278 1216 
z
" transform="scale(0.015625)"/>
       </defs>
       <use xlink:href="#LiberationSans-33"/>
      </g>
     </g>
    </g>
    <g id="ytick_3">
     <g id="line2d_13">
      <path d="M 108 242.481013 
L 777.6 242.481013 
" clip-path="url(#p24d72c94be)" style="fill: none; stroke: #ffffff; stroke-width: 0.8; stroke-linecap: round"/>
     </g>
     <g id="line2d_14"/>
     <g id="text_12">
      <!-- 4 -->
      <g style="fill: #ffffff" transform="translate(97.826875 246.829138)scale(0.12 -0.12)">
       <use xlink:href="#LiberationSans-34"/>
      </g>
     </g>
    </g>
    <g id="ytick_4">
     <g id="line2d_15">
      <path d="M 108 153.864856 
L 777.6 153.864856 
" clip-path="url(#p24d72c94be)" style="fill: none; stroke: #ffffff; stroke-width: 0.8; stroke-linecap: round"/>
     </g>
     <g id="line2d_16"/>
     <g id="text_13">
      <!-- 5 -->
      <g style="fill: #ffffff" transform="translate(97.826875 158.212981)scale(0.12 -0.12)">
       <defs>
        <path id="LiberationSans-35" d="M 3291 1434 
Q 3291 738 2877 337 
Q 2463 -63 1728 -63 
Q 1113 -63 734 206 
Q 356 475 256 984 
L 825 1050 
Q 1003 397 1741 397 
Q 2194 397 2450 670 
Q 2706 944 2706 1422 
Q 2706 1838 2448 2094 
Q 2191 2350 1753 2350 
Q 1525 2350 1328 2278 
Q 1131 2206 934 2034 
L 384 2034 
L 531 4403 
L 3034 4403 
L 3034 3925 
L 1044 3925 
L 959 2528 
Q 1325 2809 1869 2809 
Q 2519 2809 2905 2428 
Q 3291 2047 3291 1434 
z
" transform="scale(0.015625)"/>
       </defs>
       <use xlink:href="#LiberationSans-35"/>
      </g>
     </g>
    </g>
    <g id="text_14">
     <!-- queries per second -->
     <g style="fill: #ffffff" transform="translate(91.336875 337.588125)rotate(-90)scale(0.12 -0.12)">
      <defs>
       <path id="LiberationSans-71" d="M 1513 -63 
Q 869 -63 569 371 
Q 269 806 269 1675 
Q 269 3444 1513 3444 
Q 1897 3444 2147 3308 
Q 2397 3172 2566 2856 
L 2572 2856 
Q 2572 2950 2584 3179 
Q 2597 3409 2609 3425 
L 3150 3425 
Q 3128 3241 3128 2503 
L 3128 -1328 
L 2566 -1328 
L 2566 44 
L 2578 556 
L 2572 556 
Q 2403 222 2156 79 
Q 1909 -63 1513 -63 
z
M 2566 1731 
Q 2566 2391 2350 2709 
Q 2134 3028 1663 3028 
Q 1234 3028 1046 2709 
Q 859 2391 859 1694 
Q 859 984 1048 678 
Q 1238 372 1656 372 
Q 2134 372 2350 712 
Q 2566 1053 2566 1731 
z
" transform="scale(0.015625)"/>
       <path id="LiberationSans-75" d="M 981 3381 
L 981 1238 
Q 981 903 1047 718 
Q 1113 534 1256 453 
Q 1400 372 1678 372 
Q 2084 372 2318 650 
Q 2553 928 2553 1422 
L 2553 3381 
L 3116 3381 
L 3116 722 
Q 3116 131 3134 0 
L 2603 0 
Q 2600 16 2597 84 
Q 2594 153 2589 242 
Q 2584 331 2578 578 
L 2569 578 
Q 2375 228 2120 82 
Q 1866 -63 1488 -63 
Q 931 -63 673 214 
Q 416 491 416 1128 
L 416 3381 
L 981 3381 
z
" transform="scale(0.015625)"/>
       <path id="LiberationSans-20" transform="scale(0.015625)"/>
       <path id="LiberationSans-70" d="M 3291 1706 
Q 3291 -63 2047 -63 
Q 1266 -63 997 525 
L 981 525 
Q 994 500 994 -6 
L 994 -1328 
L 431 -1328 
L 431 2691 
Q 431 3213 413 3381 
L 956 3381 
Q 959 3369 965 3292 
Q 972 3216 980 3056 
Q 988 2897 988 2838 
L 1000 2838 
Q 1150 3150 1397 3295 
Q 1644 3441 2047 3441 
Q 2672 3441 2981 3022 
Q 3291 2603 3291 1706 
z
M 2700 1694 
Q 2700 2400 2509 2703 
Q 2319 3006 1903 3006 
Q 1569 3006 1380 2865 
Q 1191 2725 1092 2426 
Q 994 2128 994 1650 
Q 994 984 1206 668 
Q 1419 353 1897 353 
Q 2316 353 2508 661 
Q 2700 969 2700 1694 
z
" transform="scale(0.015625)"/>
       <path id="LiberationSans-63" d="M 859 1706 
Q 859 1031 1071 706 
Q 1284 381 1713 381 
Q 2013 381 2214 543 
Q 2416 706 2463 1044 
L 3031 1006 
Q 2966 519 2616 228 
Q 2266 -63 1728 -63 
Q 1019 -63 645 385 
Q 272 834 272 1694 
Q 272 2547 647 2995 
Q 1022 3444 1722 3444 
Q 2241 3444 2583 3175 
Q 2925 2906 3013 2434 
L 2434 2391 
Q 2391 2672 2212 2837 
Q 2034 3003 1706 3003 
Q 1259 3003 1059 2706 
Q 859 2409 859 1706 
z
" transform="scale(0.015625)"/>
       <path id="LiberationSans-64" d="M 2566 544 
Q 2409 219 2151 78 
Q 1894 -63 1513 -63 
Q 872 -63 570 368 
Q 269 800 269 1675 
Q 269 3444 1513 3444 
Q 1897 3444 2153 3303 
Q 2409 3163 2566 2856 
L 2572 2856 
L 2566 3234 
L 2566 4638 
L 3128 4638 
L 3128 697 
Q 3128 169 3147 0 
L 2609 0 
Q 2600 50 2589 231 
Q 2578 413 2578 544 
L 2566 544 
z
M 859 1694 
Q 859 984 1046 678 
Q 1234 372 1656 372 
Q 2134 372 2350 703 
Q 2566 1034 2566 1731 
Q 2566 2403 2350 2715 
Q 2134 3028 1663 3028 
Q 1238 3028 1048 2714 
Q 859 2400 859 1694 
z
" transform="scale(0.015625)"/>
      </defs>
      <use xlink:href="#LiberationSans-71"/>
      <use xlink:href="#LiberationSans-75" x="55.615234"/>
      <use xlink:href="#LiberationSans-65" x="111.230469"/>
      <use xlink:href="#LiberationSans-72" x="166.845703"/>
      <use xlink:href="#LiberationSans-69" x="200.146484"/>
      <use xlink:href="#LiberationSans-65" x="222.363281"/>
      <use xlink:href="#LiberationSans-73" x="277.978516"/>
      <use xlink:href="#LiberationSans-20" x="327.978516"/>
      <use xlink:href="#LiberationSans-70" x="355.761719"/>
      <use xlink:href="#LiberationSans-65" x="411.376953"/>
      <use xlink:href="#LiberationSans-72" x="466.992188"/>
      <use xlink:href="#LiberationSans-20" x="500.292969"/>
      <use xlink:href="#LiberationSans-73" x="528.076172"/>
      <use xlink:href="#LiberationSans-65" x="578.076172"/>
      <use xlink:href="#LiberationSans-63" x="633.691406"/>
      <use xlink:href="#LiberationSans-6f" x="683.691406"/>
      <use xlink:href="#LiberationSans-6e" x="739.306641"/>
      <use xlink:href="#LiberationSans-64" x="794.921875"/>
     </g>
    </g>
   </g>
   <g id="line2d_17">
    <path d="M 138.436364 126.90997 
L 142.521782 90.104349 
L 146.6072 89.840915 
L 150.692617 90.945488 
L 154.778035 90.079577 
L 158.863453 90.499032 
L 162.948871 89.919564 
L 167.034289 123.146043 
L 171.119707 94.339939 
L 175.205125 93.000316 
L 179.290543 89.460591 
L 183.375961 91.809924 
L 191.546797 92.904916 
L 195.632215 91.101917 
L 199.717633 90.606139 
L 203.803051 89.99828 
L 207.888469 97.186044 
L 211.973887 89.445792 
L 216.059304 92.46979 
L 220.144722 91.327312 
L 224.23014 90.453806 
L 228.315558 90.090631 
L 232.400976 90.033673 
L 236.486394 90.673508 
L 240.571812 92.321718 
L 244.65723 89.672935 
L 248.742648 92.229232 
L 252.828066 90.524304 
L 260.998902 90.614546 
L 265.08432 89.351566 
L 269.169738 91.908763 
L 273.255156 88.887273 
L 277.340574 89.406346 
L 281.425991 90.671212 
L 285.511409 92.655352 
L 289.596827 90.657027 
L 293.682245 101.443758 
L 297.767663 90.501813 
L 301.853081 91.102703 
L 305.938499 90.118254 
L 310.023917 94.169738 
L 314.109335 92.030951 
L 318.194753 90.580646 
L 322.280171 92.972578 
L 326.365589 90.15344 
L 330.451007 90.451699 
L 334.536425 89.99745 
L 338.621843 92.392211 
L 342.707261 91.226721 
L 346.792678 91.521943 
L 350.878096 94.168072 
L 354.963514 90.343388 
L 359.048932 91.269431 
L 363.13435 93.939782 
L 367.219768 91.50584 
L 371.305186 91.872572 
L 375.390604 126.141518 
L 379.476022 98.097217 
L 383.56144 91.231093 
L 387.646858 91.367969 
L 391.732276 302.401282 
L 395.817694 388.695117 
L 399.903112 314.989372 
L 403.98853 301.144799 
L 408.073948 388.838746 
L 412.159365 395.318041 
L 416.244783 304.822645 
L 420.330201 302.502615 
L 424.415619 388.528124 
L 428.501037 302.802698 
L 432.586455 301.859406 
L 436.671873 389.164776 
L 440.757291 302.783479 
L 444.842709 302.725071 
L 448.928127 396.094818 
L 453.013545 415.386683 
L 457.098963 312.882252 
L 461.184381 389.108313 
L 465.269799 302.112668 
L 469.355217 388.28288 
L 473.440635 389.083476 
L 477.526052 301.897011 
L 481.61147 388.770211 
L 485.696888 304.294393 
L 489.782306 335.540805 
L 493.867724 304.13544 
L 497.953142 389.41943 
L 502.03856 388.551743 
L 506.123978 304.807315 
L 510.209396 388.732734 
L 514.294814 301.689264 
L 518.380232 302.536285 
L 522.46565 389.153278 
L 526.551068 302.735039 
L 530.636486 308.941027 
L 534.721904 389.436922 
L 538.807322 302.556496 
L 542.892739 390.801809 
L 546.978157 389.543966 
L 551.063575 301.792319 
L 555.148993 306.727175 
L 559.234411 388.838106 
L 563.319829 391.670056 
L 567.405247 300.64745 
L 571.490665 388.598547 
L 575.576083 388.484747 
L 579.661501 302.552415 
L 583.746919 302.111427 
L 587.832337 388.624976 
L 591.917755 389.181858 
L 596.003173 302.185356 
L 600.088591 389.037887 
L 604.174009 390.43719 
L 608.259426 302.160229 
L 612.344844 397.386364 
L 616.430262 388.685046 
L 620.51568 302.941954 
L 624.601098 388.790224 
L 628.686516 388.767211 
L 632.771934 388.59737 
L 636.857352 302.651958 
L 640.94277 389.124419 
L 645.028188 307.489542 
L 649.113606 302.09137 
L 653.199024 390.132712 
L 657.284442 302.233707 
L 661.36986 313.791552 
L 665.455278 301.820735 
L 669.540696 388.828716 
L 673.626113 303.188123 
L 677.711531 389.510736 
L 681.796949 302.808342 
L 685.882367 388.864575 
L 689.967785 302.966102 
L 694.053203 302.442707 
L 698.138621 302.057563 
L 702.224039 303.723879 
L 706.309457 388.254864 
L 710.394875 314.088642 
L 714.480293 303.651218 
L 718.565711 302.27561 
L 722.651129 313.541327 
L 726.736547 389.192194 
L 730.821965 388.652683 
L 734.907383 302.872295 
L 738.9928 388.435217 
L 743.078218 407.701347 
L 747.163636 302.860988 
L 747.163636 302.860988 
" clip-path="url(#p24d72c94be)" style="fill: none"/>
    <defs>
     <path id="m8a694f9a4d" d="M 0 3 
C 0.795609 3 1.55874 2.683901 2.12132 2.12132 
C 2.683901 1.55874 3 0.795609 3 0 
C 3 -0.795609 2.683901 -1.55874 2.12132 -2.12132 
C 1.55874 -2.683901 0.795609 -3 0 -3 
C -0.795609 -3 -1.55874 -2.683901 -2.12132 -2.12132 
C -2.683901 -1.55874 -3 -0.795609 -3 0 
C -3 0.795609 -2.683901 1.55874 -2.12132 2.12132 
C -1.55874 2.683901 -0.795609 3 0 3 
z
" style="stroke: #8dd3c7"/>
    </defs>
    <g clip-path="url(#p24d72c94be)">
     <use xlink:href="#m8a694f9a4d" x="138.436364" y="126.90997" style="fill: #8dd3c7; stroke: #8dd3c7"/>
     <use xlink:href="#m8a694f9a4d" x="142.521782" y="90.104349" style="fill: #8dd3c7; stroke: #8dd3c7"/>
     <use xlink:href="#m8a694f9a4d" x="146.6072" y="89.840915" style="fill: #8dd3c7; stroke: #8dd3c7"/>
     <use xlink:href="#m8a694f9a4d" x="150.692617" y="90.945488" style="fill: #8dd3c7; stroke: #8dd3c7"/>
     <use xlink:href="#m8a694f9a4d" x="154.778035" y="90.079577" style="fill: #8dd3c7; stroke: #8dd3c7"/>
     <use xlink:href="#m8a694f9a4d" x="158.863453" y="90.499032" style="fill: #8dd3c7; stroke: #8dd3c7"/>
     <use xlink:href="#m8a694f9a4d" x="162.948871" y="89.919564" style="fill: #8dd3c7; stroke: #8dd3c7"/>
     <use xlink:href="#m8a694f9a4d" x="167.034289" y="123.146043" style="fill: #8dd3c7; stroke: #8dd3c7"/>
     <use xlink:href="#m8a694f9a4d" x="171.119707" y="94.339939" style="fill: #8dd3c7; stroke: #8dd3c7"/>
     <use xlink:href="#m8a694f9a4d" x="175.205125" y="93.000316" style="fill: #8dd3c7; stroke: #8dd3c7"/>
     <use xlink:href="#m8a694f9a4d" x="179.290543" y="89.460591" style="fill: #8dd3c7; stroke: #8dd3c7"/>
     <use xlink:href="#m8a694f9a4d" x="183.375961" y="91.809924" style="fill: #8dd3c7; stroke: #8dd3c7"/>
     <use xlink:href="#m8a694f9a4d" x="187.461379" y="92.37695" style="fill: #8dd3c7; stroke: #8dd3c7"/>
     <use xlink:href="#m8a694f9a4d" x="191.546797" y="92.904916" style="fill: #8dd3c7; stroke: #8dd3c7"/>
     <use xlink:href="#m8a694f9a4d" x="195.632215" y="91.101917" style="fill: #8dd3c7; stroke: #8dd3c7"/>
     <use xlink:href="#m8a694f9a4d" x="199.717633" y="90.606139" style="fill: #8dd3c7; stroke: #8dd3c7"/>
     <use xlink:href="#m8a694f9a4d" x="203.803051" y="89.99828" style="fill: #8dd3c7; stroke: #8dd3c7"/>
     <use xlink:href="#m8a694f9a4d" x="207.888469" y="97.186044" style="fill: #8dd3c7; stroke: #8dd3c7"/>
     <use xlink:href="#m8a694f9a4d" x="211.973887" y="89.445792" style="fill: #8dd3c7; stroke: #8dd3c7"/>
     <use xlink:href="#m8a694f9a4d" x="216.059304" y="92.46979" style="fill: #8dd3c7; stroke: #8dd3c7"/>
     <use xlink:href="#m8a694f9a4d" x="220.144722" y="91.327312" style="fill: #8dd3c7; stroke: #8dd3c7"/>
     <use xlink:href="#m8a694f9a4d" x="224.23014" y="90.453806" style="fill: #8dd3c7; stroke: #8dd3c7"/>
     <use xlink:href="#m8a694f9a4d" x="228.315558" y="90.090631" style="fill: #8dd3c7; stroke: #8dd3c7"/>
     <use xlink:href="#m8a694f9a4d" x="232.400976" y="90.033673" style="fill: #8dd3c7; stroke: #8dd3c7"/>
     <use xlink:href="#m8a694f9a4d" x="236.486394" y="90.673508" style="fill: #8dd3c7; stroke: #8dd3c7"/>
     <use xlink:href="#m8a694f9a4d" x="240.571812" y="92.321718" style="fill: #8dd3c7; stroke: #8dd3c7"/>
     <use xlink:href="#m8a694f9a4d" x="244.65723" y="89.672935" style="fill: #8dd3c7; stroke: #8dd3c7"/>
     <use xlink:href="#m8a694f9a4d" x="248.742648" y="92.229232" style="fill: #8dd3c7; stroke: #8dd3c7"/>
     <use xlink:href="#m8a694f9a4d" x="252.828066" y="90.524304" style="fill: #8dd3c7; stroke: #8dd3c7"/>
     <use xlink:href="#m8a694f9a4d" x="256.913484" y="90.621229" style="fill: #8dd3c7; stroke: #8dd3c7"/>
     <use xlink:href="#m8a694f9a4d" x="260.998902" y="90.614546" style="fill: #8dd3c7; stroke: #8dd3c7"/>
     <use xlink:href="#m8a694f9a4d" x="265.08432" y="89.351566" style="fill: #8dd3c7; stroke: #8dd3c7"/>
     <use xlink:href="#m8a694f9a4d" x="269.169738" y="91.908763" style="fill: #8dd3c7; stroke: #8dd3c7"/>
     <use xlink:href="#m8a694f9a4d" x="273.255156" y="88.887273" style="fill: #8dd3c7; stroke: #8dd3c7"/>
     <use xlink:href="#m8a694f9a4d" x="277.340574" y="89.406346" style="fill: #8dd3c7; stroke: #8dd3c7"/>
     <use xlink:href="#m8a694f9a4d" x="281.425991" y="90.671212" style="fill: #8dd3c7; stroke: #8dd3c7"/>
     <use xlink:href="#m8a694f9a4d" x="285.511409" y="92.655352" style="fill: #8dd3c7; stroke: #8dd3c7"/>
     <use xlink:href="#m8a694f9a4d" x="289.596827" y="90.657027" style="fill: #8dd3c7; stroke: #8dd3c7"/>
     <use xlink:href="#m8a694f9a4d" x="293.682245" y="101.443758" style="fill: #8dd3c7; stroke: #8dd3c7"/>
     <use xlink:href="#m8a694f9a4d" x="297.767663" y="90.501813" style="fill: #8dd3c7; stroke: #8dd3c7"/>
     <use xlink:href="#m8a694f9a4d" x="301.853081" y="91.102703" style="fill: #8dd3c7; stroke: #8dd3c7"/>
     <use xlink:href="#m8a694f9a4d" x="305.938499" y="90.118254" style="fill: #8dd3c7; stroke: #8dd3c7"/>
     <use xlink:href="#m8a694f9a4d" x="310.023917" y="94.169738" style="fill: #8dd3c7; stroke: #8dd3c7"/>
     <use xlink:href="#m8a694f9a4d" x="314.109335" y="92.030951" style="fill: #8dd3c7; stroke: #8dd3c7"/>
     <use xlink:href="#m8a694f9a4d" x="318.194753" y="90.580646" style="fill: #8dd3c7; stroke: #8dd3c7"/>
     <use xlink:href="#m8a694f9a4d" x="322.280171" y="92.972578" style="fill: #8dd3c7; stroke: #8dd3c7"/>
     <use xlink:href="#m8a694f9a4d" x="326.365589" y="90.15344" style="fill: #8dd3c7; stroke: #8dd3c7"/>
     <use xlink:href="#m8a694f9a4d" x="330.451007" y="90.451699" style="fill: #8dd3c7; stroke: #8dd3c7"/>
     <use xlink:href="#m8a694f9a4d" x="334.536425" y="89.99745" style="fill: #8dd3c7; stroke: #8dd3c7"/>
     <use xlink:href="#m8a694f9a4d" x="338.621843" y="92.392211" style="fill: #8dd3c7; stroke: #8dd3c7"/>
     <use xlink:href="#m8a694f9a4d" x="342.707261" y="91.226721" style="fill: #8dd3c7; stroke: #8dd3c7"/>
     <use xlink:href="#m8a694f9a4d" x="346.792678" y="91.521943" style="fill: #8dd3c7; stroke: #8dd3c7"/>
     <use xlink:href="#m8a694f9a4d" x="350.878096" y="94.168072" style="fill: #8dd3c7; stroke: #8dd3c7"/>
     <use xlink:href="#m8a694f9a4d" x="354.963514" y="90.343388" style="fill: #8dd3c7; stroke: #8dd3c7"/>
     <use xlink:href="#m8a694f9a4d" x="359.048932" y="91.269431" style="fill: #8dd3c7; stroke: #8dd3c7"/>
     <use xlink:href="#m8a694f9a4d" x="363.13435" y="93.939782" style="fill: #8dd3c7; stroke: #8dd3c7"/>
     <use xlink:href="#m8a694f9a4d" x="367.219768" y="91.50584" style="fill: #8dd3c7; stroke: #8dd3c7"/>
     <use xlink:href="#m8a694f9a4d" x="371.305186" y="91.872572" style="fill: #8dd3c7; stroke: #8dd3c7"/>
     <use xlink:href="#m8a694f9a4d" x="375.390604" y="126.141518" style="fill: #8dd3c7; stroke: #8dd3c7"/>
     <use xlink:href="#m8a694f9a4d" x="379.476022" y="98.097217" style="fill: #8dd3c7; stroke: #8dd3c7"/>
     <use xlink:href="#m8a694f9a4d" x="383.56144" y="91.231093" style="fill: #8dd3c7; stroke: #8dd3c7"/>
     <use xlink:href="#m8a694f9a4d" x="387.646858" y="91.367969" style="fill: #8dd3c7; stroke: #8dd3c7"/>
     <use xlink:href="#m8a694f9a4d" x="391.732276" y="302.401282" style="fill: #8dd3c7; stroke: #8dd3c7"/>
     <use xlink:href="#m8a694f9a4d" x="395.817694" y="388.695117" style="fill: #8dd3c7; stroke: #8dd3c7"/>
     <use xlink:href="#m8a694f9a4d" x="399.903112" y="314.989372" style="fill: #8dd3c7; stroke: #8dd3c7"/>
     <use xlink:href="#m8a694f9a4d" x="403.98853" y="301.144799" style="fill: #8dd3c7; stroke: #8dd3c7"/>
     <use xlink:href="#m8a694f9a4d" x="408.073948" y="388.838746" style="fill: #8dd3c7; stroke: #8dd3c7"/>
     <use xlink:href="#m8a694f9a4d" x="412.159365" y="395.318041" style="fill: #8dd3c7; stroke: #8dd3c7"/>
     <use xlink:href="#m8a694f9a4d" x="416.244783" y="304.822645" style="fill: #8dd3c7; stroke: #8dd3c7"/>
     <use xlink:href="#m8a694f9a4d" x="420.330201" y="302.502615" style="fill: #8dd3c7; stroke: #8dd3c7"/>
     <use xlink:href="#m8a694f9a4d" x="424.415619" y="388.528124" style="fill: #8dd3c7; stroke: #8dd3c7"/>
     <use xlink:href="#m8a694f9a4d" x="428.501037" y="302.802698" style="fill: #8dd3c7; stroke: #8dd3c7"/>
     <use xlink:href="#m8a694f9a4d" x="432.586455" y="301.859406" style="fill: #8dd3c7; stroke: #8dd3c7"/>
     <use xlink:href="#m8a694f9a4d" x="436.671873" y="389.164776" style="fill: #8dd3c7; stroke: #8dd3c7"/>
     <use xlink:href="#m8a694f9a4d" x="440.757291" y="302.783479" style="fill: #8dd3c7; stroke: #8dd3c7"/>
     <use xlink:href="#m8a694f9a4d" x="444.842709" y="302.725071" style="fill: #8dd3c7; stroke: #8dd3c7"/>
     <use xlink:href="#m8a694f9a4d" x="448.928127" y="396.094818" style="fill: #8dd3c7; stroke: #8dd3c7"/>
     <use xlink:href="#m8a694f9a4d" x="453.013545" y="415.386683" style="fill: #8dd3c7; stroke: #8dd3c7"/>
     <use xlink:href="#m8a694f9a4d" x="457.098963" y="312.882252" style="fill: #8dd3c7; stroke: #8dd3c7"/>
     <use xlink:href="#m8a694f9a4d" x="461.184381" y="389.108313" style="fill: #8dd3c7; stroke: #8dd3c7"/>
     <use xlink:href="#m8a694f9a4d" x="465.269799" y="302.112668" style="fill: #8dd3c7; stroke: #8dd3c7"/>
     <use xlink:href="#m8a694f9a4d" x="469.355217" y="388.28288" style="fill: #8dd3c7; stroke: #8dd3c7"/>
     <use xlink:href="#m8a694f9a4d" x="473.440635" y="389.083476" style="fill: #8dd3c7; stroke: #8dd3c7"/>
     <use xlink:href="#m8a694f9a4d" x="477.526052" y="301.897011" style="fill: #8dd3c7; stroke: #8dd3c7"/>
     <use xlink:href="#m8a694f9a4d" x="481.61147" y="388.770211" style="fill: #8dd3c7; stroke: #8dd3c7"/>
     <use xlink:href="#m8a694f9a4d" x="485.696888" y="304.294393" style="fill: #8dd3c7; stroke: #8dd3c7"/>
     <use xlink:href="#m8a694f9a4d" x="489.782306" y="335.540805" style="fill: #8dd3c7; stroke: #8dd3c7"/>
     <use xlink:href="#m8a694f9a4d" x="493.867724" y="304.13544" style="fill: #8dd3c7; stroke: #8dd3c7"/>
     <use xlink:href="#m8a694f9a4d" x="497.953142" y="389.41943" style="fill: #8dd3c7; stroke: #8dd3c7"/>
     <use xlink:href="#m8a694f9a4d" x="502.03856" y="388.551743" style="fill: #8dd3c7; stroke: #8dd3c7"/>
     <use xlink:href="#m8a694f9a4d" x="506.123978" y="304.807315" style="fill: #8dd3c7; stroke: #8dd3c7"/>
     <use xlink:href="#m8a694f9a4d" x="510.209396" y="388.732734" style="fill: #8dd3c7; stroke: #8dd3c7"/>
     <use xlink:href="#m8a694f9a4d" x="514.294814" y="301.689264" style="fill: #8dd3c7; stroke: #8dd3c7"/>
     <use xlink:href="#m8a694f9a4d" x="518.380232" y="302.536285" style="fill: #8dd3c7; stroke: #8dd3c7"/>
     <use xlink:href="#m8a694f9a4d" x="522.46565" y="389.153278" style="fill: #8dd3c7; stroke: #8dd3c7"/>
     <use xlink:href="#m8a694f9a4d" x="526.551068" y="302.735039" style="fill: #8dd3c7; stroke: #8dd3c7"/>
     <use xlink:href="#m8a694f9a4d" x="530.636486" y="308.941027" style="fill: #8dd3c7; stroke: #8dd3c7"/>
     <use xlink:href="#m8a694f9a4d" x="534.721904" y="389.436922" style="fill: #8dd3c7; stroke: #8dd3c7"/>
     <use xlink:href="#m8a694f9a4d" x="538.807322" y="302.556496" style="fill: #8dd3c7; stroke: #8dd3c7"/>
     <use xlink:href="#m8a694f9a4d" x="542.892739" y="390.801809" style="fill: #8dd3c7; stroke: #8dd3c7"/>
     <use xlink:href="#m8a694f9a4d" x="546.978157" y="389.543966" style="fill: #8dd3c7; stroke: #8dd3c7"/>
     <use xlink:href="#m8a694f9a4d" x="551.063575" y="301.792319" style="fill: #8dd3c7; stroke: #8dd3c7"/>
     <use xlink:href="#m8a694f9a4d" x="555.148993" y="306.727175" style="fill: #8dd3c7; stroke: #8dd3c7"/>
     <use xlink:href="#m8a694f9a4d" x="559.234411" y="388.838106" style="fill: #8dd3c7; stroke: #8dd3c7"/>
     <use xlink:href="#m8a694f9a4d" x="563.319829" y="391.670056" style="fill: #8dd3c7; stroke: #8dd3c7"/>
     <use xlink:href="#m8a694f9a4d" x="567.405247" y="300.64745" style="fill: #8dd3c7; stroke: #8dd3c7"/>
     <use xlink:href="#m8a694f9a4d" x="571.490665" y="388.598547" style="fill: #8dd3c7; stroke: #8dd3c7"/>
     <use xlink:href="#m8a694f9a4d" x="575.576083" y="388.484747" style="fill: #8dd3c7; stroke: #8dd3c7"/>
     <use xlink:href="#m8a694f9a4d" x="579.661501" y="302.552415" style="fill: #8dd3c7; stroke: #8dd3c7"/>
     <use xlink:href="#m8a694f9a4d" x="583.746919" y="302.111427" style="fill: #8dd3c7; stroke: #8dd3c7"/>
     <use xlink:href="#m8a694f9a4d" x="587.832337" y="388.624976" style="fill: #8dd3c7; stroke: #8dd3c7"/>
     <use xlink:href="#m8a694f9a4d" x="591.917755" y="389.181858" style="fill: #8dd3c7; stroke: #8dd3c7"/>
     <use xlink:href="#m8a694f9a4d" x="596.003173" y="302.185356" style="fill: #8dd3c7; stroke: #8dd3c7"/>
     <use xlink:href="#m8a694f9a4d" x="600.088591" y="389.037887" style="fill: #8dd3c7; stroke: #8dd3c7"/>
     <use xlink:href="#m8a694f9a4d" x="604.174009" y="390.43719" style="fill: #8dd3c7; stroke: #8dd3c7"/>
     <use xlink:href="#m8a694f9a4d" x="608.259426" y="302.160229" style="fill: #8dd3c7; stroke: #8dd3c7"/>
     <use xlink:href="#m8a694f9a4d" x="612.344844" y="397.386364" style="fill: #8dd3c7; stroke: #8dd3c7"/>
     <use xlink:href="#m8a694f9a4d" x="616.430262" y="388.685046" style="fill: #8dd3c7; stroke: #8dd3c7"/>
     <use xlink:href="#m8a694f9a4d" x="620.51568" y="302.941954" style="fill: #8dd3c7; stroke: #8dd3c7"/>
     <use xlink:href="#m8a694f9a4d" x="624.601098" y="388.790224" style="fill: #8dd3c7; stroke: #8dd3c7"/>
     <use xlink:href="#m8a694f9a4d" x="628.686516" y="388.767211" style="fill: #8dd3c7; stroke: #8dd3c7"/>
     <use xlink:href="#m8a694f9a4d" x="632.771934" y="388.59737" style="fill: #8dd3c7; stroke: #8dd3c7"/>
     <use xlink:href="#m8a694f9a4d" x="636.857352" y="302.651958" style="fill: #8dd3c7; stroke: #8dd3c7"/>
     <use xlink:href="#m8a694f9a4d" x="640.94277" y="389.124419" style="fill: #8dd3c7; stroke: #8dd3c7"/>
     <use xlink:href="#m8a694f9a4d" x="645.028188" y="307.489542" style="fill: #8dd3c7; stroke: #8dd3c7"/>
     <use xlink:href="#m8a694f9a4d" x="649.113606" y="302.09137" style="fill: #8dd3c7; stroke: #8dd3c7"/>
     <use xlink:href="#m8a694f9a4d" x="653.199024" y="390.132712" style="fill: #8dd3c7; stroke: #8dd3c7"/>
     <use xlink:href="#m8a694f9a4d" x="657.284442" y="302.233707" style="fill: #8dd3c7; stroke: #8dd3c7"/>
     <use xlink:href="#m8a694f9a4d" x="661.36986" y="313.791552" style="fill: #8dd3c7; stroke: #8dd3c7"/>
     <use xlink:href="#m8a694f9a4d" x="665.455278" y="301.820735" style="fill: #8dd3c7; stroke: #8dd3c7"/>
     <use xlink:href="#m8a694f9a4d" x="669.540696" y="388.828716" style="fill: #8dd3c7; stroke: #8dd3c7"/>
     <use xlink:href="#m8a694f9a4d" x="673.626113" y="303.188123" style="fill: #8dd3c7; stroke: #8dd3c7"/>
     <use xlink:href="#m8a694f9a4d" x="677.711531" y="389.510736" style="fill: #8dd3c7; stroke: #8dd3c7"/>
     <use xlink:href="#m8a694f9a4d" x="681.796949" y="302.808342" style="fill: #8dd3c7; stroke: #8dd3c7"/>
     <use xlink:href="#m8a694f9a4d" x="685.882367" y="388.864575" style="fill: #8dd3c7; stroke: #8dd3c7"/>
     <use xlink:href="#m8a694f9a4d" x="689.967785" y="302.966102" style="fill: #8dd3c7; stroke: #8dd3c7"/>
     <use xlink:href="#m8a694f9a4d" x="694.053203" y="302.442707" style="fill: #8dd3c7; stroke: #8dd3c7"/>
     <use xlink:href="#m8a694f9a4d" x="698.138621" y="302.057563" style="fill: #8dd3c7; stroke: #8dd3c7"/>
     <use xlink:href="#m8a694f9a4d" x="702.224039" y="303.723879" style="fill: #8dd3c7; stroke: #8dd3c7"/>
     <use xlink:href="#m8a694f9a4d" x="706.309457" y="388.254864" style="fill: #8dd3c7; stroke: #8dd3c7"/>
     <use xlink:href="#m8a694f9a4d" x="710.394875" y="314.088642" style="fill: #8dd3c7; stroke: #8dd3c7"/>
     <use xlink:href="#m8a694f9a4d" x="714.480293" y="303.651218" style="fill: #8dd3c7; stroke: #8dd3c7"/>
     <use xlink:href="#m8a694f9a4d" x="718.565711" y="302.27561" style="fill: #8dd3c7; stroke: #8dd3c7"/>
     <use xlink:href="#m8a694f9a4d" x="722.651129" y="313.541327" style="fill: #8dd3c7; stroke: #8dd3c7"/>
     <use xlink:href="#m8a694f9a4d" x="726.736547" y="389.192194" style="fill: #8dd3c7; stroke: #8dd3c7"/>
     <use xlink:href="#m8a694f9a4d" x="730.821965" y="388.652683" style="fill: #8dd3c7; stroke: #8dd3c7"/>
     <use xlink:href="#m8a694f9a4d" x="734.907383" y="302.872295" style="fill: #8dd3c7; stroke: #8dd3c7"/>
     <use xlink:href="#m8a694f9a4d" x="738.9928" y="388.435217" style="fill: #8dd3c7; stroke: #8dd3c7"/>
     <use xlink:href="#m8a694f9a4d" x="743.078218" y="407.701347" style="fill: #8dd3c7; stroke: #8dd3c7"/>
     <use xlink:href="#m8a694f9a4d" x="747.163636" y="302.860988" style="fill: #8dd3c7; stroke: #8dd3c7"/>
    </g>
   </g>
   <g id="line2d_18">
    <path d="M 138.436364 243.616367 
L 142.521782 242.023224 
L 146.6072 241.383965 
L 150.692617 266.970667 
L 154.778035 250.666926 
L 158.863453 239.686352 
L 162.948871 268.808847 
L 167.034289 246.555743 
L 171.119707 243.696179 
L 175.205125 251.71286 
L 179.290543 244.07278 
L 183.375961 241.92083 
L 187.461379 242.321764 
L 191.546797 243.130847 
L 195.632215 242.894236 
L 199.717633 243.52162 
L 203.803051 244.989463 
L 207.888469 239.943614 
L 211.973887 240.399914 
L 216.059304 243.22685 
L 220.144722 244.985296 
L 224.23014 249.860232 
L 228.315558 241.763437 
L 232.400976 238.750052 
L 236.486394 263.733028 
L 240.571812 239.732348 
L 244.65723 241.608874 
L 248.742648 241.510417 
L 252.828066 241.60832 
L 256.913484 268.375481 
L 260.998902 241.179393 
L 269.169738 241.073547 
L 273.255156 238.561978 
L 277.340574 248.007691 
L 281.425991 243.761828 
L 285.511409 269.211369 
L 289.596827 241.267653 
L 293.682245 246.443196 
L 297.767663 242.805787 
L 301.853081 241.426239 
L 305.938499 286.385698 
L 310.023917 240.510038 
L 314.109335 243.336767 
L 318.194753 241.74236 
L 322.280171 240.852412 
L 326.365589 247.597691 
L 330.451007 240.617905 
L 334.536425 242.248917 
L 338.621843 245.945282 
L 342.707261 241.449207 
L 346.792678 240.751533 
L 350.878096 254.700488 
L 354.963514 241.799548 
L 359.048932 242.456639 
L 363.13435 240.511883 
L 367.219768 244.091785 
L 371.305186 242.123578 
L 375.390604 242.892502 
L 379.476022 245.960387 
L 383.56144 243.320075 
L 387.646858 243.51484 
L 391.732276 419.847339 
L 395.817694 422.068963 
L 399.903112 420.743741 
L 403.98853 421.154094 
L 408.073948 434.404719 
L 412.159365 424.380451 
L 416.244783 421.055385 
L 420.330201 426.526076 
L 424.415619 426.778157 
L 428.501037 420.407615 
L 432.586455 421.103021 
L 436.671873 419.562559 
L 440.757291 420.173807 
L 444.842709 420.401617 
L 448.928127 420.438336 
L 453.013545 484.232727 
L 457.098963 420.613965 
L 461.184381 420.199546 
L 469.355217 420.480198 
L 473.440635 419.814466 
L 477.526052 420.07638 
L 481.61147 421.224541 
L 485.696888 419.980559 
L 489.782306 427.030521 
L 493.867724 420.32603 
L 497.953142 420.42921 
L 502.03856 422.938302 
L 506.123978 420.353463 
L 510.209396 421.436859 
L 514.294814 420.409235 
L 518.380232 420.589866 
L 522.46565 420.911369 
L 526.551068 420.450674 
L 530.636486 420.661026 
L 534.721904 469.663871 
L 538.807322 420.055748 
L 542.892739 428.811313 
L 546.978157 420.593359 
L 551.063575 421.805261 
L 555.148993 421.092828 
L 559.234411 425.001873 
L 563.319829 422.788624 
L 567.405247 419.395236 
L 571.490665 420.338809 
L 575.576083 425.408748 
L 579.661501 419.142363 
L 583.746919 455.76197 
L 587.832337 437.513181 
L 591.917755 420.884041 
L 596.003173 421.317584 
L 600.088591 421.388852 
L 604.174009 429.708376 
L 608.259426 420.07837 
L 612.344844 420.990116 
L 616.430262 420.135714 
L 620.51568 419.449719 
L 624.601098 434.215711 
L 628.686516 421.136538 
L 632.771934 420.79982 
L 636.857352 424.856088 
L 640.94277 420.267777 
L 645.028188 428.06433 
L 649.113606 421.848763 
L 653.199024 421.053882 
L 657.284442 467.051912 
L 661.36986 456.138962 
L 665.455278 419.688665 
L 669.540696 420.711801 
L 673.626113 426.708219 
L 677.711531 425.533396 
L 681.796949 426.514139 
L 685.882367 424.931494 
L 689.967785 419.693537 
L 694.053203 434.03641 
L 698.138621 419.726782 
L 702.224039 420.276706 
L 706.309457 358.876714 
L 710.394875 420.874349 
L 714.480293 420.266817 
L 718.565711 420.704971 
L 722.651129 420.325247 
L 726.736547 420.401207 
L 730.821965 426.560858 
L 734.907383 426.458592 
L 738.9928 420.767025 
L 743.078218 426.315652 
L 747.163636 424.320864 
L 747.163636 424.320864 
" clip-path="url(#p24d72c94be)" style="fill: none"/>
    <defs>
     <path id="mdbd9ab782b" d="M 0 -3 
L -3 3 
L 3 3 
z
" style="stroke: #feffb3; stroke-linejoin: miter"/>
    </defs>
    <g clip-path="url(#p24d72c94be)">
     <use xlink:href="#mdbd9ab782b" x="138.436364" y="243.616367" style="fill: #feffb3; stroke: #feffb3; stroke-linejoin: miter"/>
     <use xlink:href="#mdbd9ab782b" x="142.521782" y="242.023224" style="fill: #feffb3; stroke: #feffb3; stroke-linejoin: miter"/>
     <use xlink:href="#mdbd9ab782b" x="146.6072" y="241.383965" style="fill: #feffb3; stroke: #feffb3; stroke-linejoin: miter"/>
     <use xlink:href="#mdbd9ab782b" x="150.692617" y="266.970667" style="fill: #feffb3; stroke: #feffb3; stroke-linejoin: miter"/>
     <use xlink:href="#mdbd9ab782b" x="154.778035" y="250.666926" style="fill: #feffb3; stroke: #feffb3; stroke-linejoin: miter"/>
     <use xlink:href="#mdbd9ab782b" x="158.863453" y="239.686352" style="fill: #feffb3; stroke: #feffb3; stroke-linejoin: miter"/>
     <use xlink:href="#mdbd9ab782b" x="162.948871" y="268.808847" style="fill: #feffb3; stroke: #feffb3; stroke-linejoin: miter"/>
     <use xlink:href="#mdbd9ab782b" x="167.034289" y="246.555743" style="fill: #feffb3; stroke: #feffb3; stroke-linejoin: miter"/>
     <use xlink:href="#mdbd9ab782b" x="171.119707" y="243.696179" style="fill: #feffb3; stroke: #feffb3; stroke-linejoin: miter"/>
     <use xlink:href="#mdbd9ab782b" x="175.205125" y="251.71286" style="fill: #feffb3; stroke: #feffb3; stroke-linejoin: miter"/>
     <use xlink:href="#mdbd9ab782b" x="179.290543" y="244.07278" style="fill: #feffb3; stroke: #feffb3; stroke-linejoin: miter"/>
     <use xlink:href="#mdbd9ab782b" x="183.375961" y="241.92083" style="fill: #feffb3; stroke: #feffb3; stroke-linejoin: miter"/>
     <use xlink:href="#mdbd9ab782b" x="187.461379" y="242.321764" style="fill: #feffb3; stroke: #feffb3; stroke-linejoin: miter"/>
     <use xlink:href="#mdbd9ab782b" x="191.546797" y="243.130847" style="fill: #feffb3; stroke: #feffb3; stroke-linejoin: miter"/>
     <use xlink:href="#mdbd9ab782b" x="195.632215" y="242.894236" style="fill: #feffb3; stroke: #feffb3; stroke-linejoin: miter"/>
     <use xlink:href="#mdbd9ab782b" x="199.717633" y="243.52162" style="fill: #feffb3; stroke: #feffb3; stroke-linejoin: miter"/>
     <use xlink:href="#mdbd9ab782b" x="203.803051" y="244.989463" style="fill: #feffb3; stroke: #feffb3; stroke-linejoin: miter"/>
     <use xlink:href="#mdbd9ab782b" x="207.888469" y="239.943614" style="fill: #feffb3; stroke: #feffb3; stroke-linejoin: miter"/>
     <use xlink:href="#mdbd9ab782b" x="211.973887" y="240.399914" style="fill: #feffb3; stroke: #feffb3; stroke-linejoin: miter"/>
     <use xlink:href="#mdbd9ab782b" x="216.059304" y="243.22685" style="fill: #feffb3; stroke: #feffb3; stroke-linejoin: miter"/>
     <use xlink:href="#mdbd9ab782b" x="220.144722" y="244.985296" style="fill: #feffb3; stroke: #feffb3; stroke-linejoin: miter"/>
     <use xlink:href="#mdbd9ab782b" x="224.23014" y="249.860232" style="fill: #feffb3; stroke: #feffb3; stroke-linejoin: miter"/>
     <use xlink:href="#mdbd9ab782b" x="228.315558" y="241.763437" style="fill: #feffb3; stroke: #feffb3; stroke-linejoin: miter"/>
     <use xlink:href="#mdbd9ab782b" x="232.400976" y="238.750052" style="fill: #feffb3; stroke: #feffb3; stroke-linejoin: miter"/>
     <use xlink:href="#mdbd9ab782b" x="236.486394" y="263.733028" style="fill: #feffb3; stroke: #feffb3; stroke-linejoin: miter"/>
     <use xlink:href="#mdbd9ab782b" x="240.571812" y="239.732348" style="fill: #feffb3; stroke: #feffb3; stroke-linejoin: miter"/>
     <use xlink:href="#mdbd9ab782b" x="244.65723" y="241.608874" style="fill: #feffb3; stroke: #feffb3; stroke-linejoin: miter"/>
     <use xlink:href="#mdbd9ab782b" x="248.742648" y="241.510417" style="fill: #feffb3; stroke: #feffb3; stroke-linejoin: miter"/>
     <use xlink:href="#mdbd9ab782b" x="252.828066" y="241.60832" style="fill: #feffb3; stroke: #feffb3; stroke-linejoin: miter"/>
     <use xlink:href="#mdbd9ab782b" x="256.913484" y="268.375481" style="fill: #feffb3; stroke: #feffb3; stroke-linejoin: miter"/>
     <use xlink:href="#mdbd9ab782b" x="260.998902" y="241.179393" style="fill: #feffb3; stroke: #feffb3; stroke-linejoin: miter"/>
     <use xlink:href="#mdbd9ab782b" x="265.08432" y="241.114871" style="fill: #feffb3; stroke: #feffb3; stroke-linejoin: miter"/>
     <use xlink:href="#mdbd9ab782b" x="269.169738" y="241.073547" style="fill: #feffb3; stroke: #feffb3; stroke-linejoin: miter"/>
     <use xlink:href="#mdbd9ab782b" x="273.255156" y="238.561978" style="fill: #feffb3; stroke: #feffb3; stroke-linejoin: miter"/>
     <use xlink:href="#mdbd9ab782b" x="277.340574" y="248.007691" style="fill: #feffb3; stroke: #feffb3; stroke-linejoin: miter"/>
     <use xlink:href="#mdbd9ab782b" x="281.425991" y="243.761828" style="fill: #feffb3; stroke: #feffb3; stroke-linejoin: miter"/>
     <use xlink:href="#mdbd9ab782b" x="285.511409" y="269.211369" style="fill: #feffb3; stroke: #feffb3; stroke-linejoin: miter"/>
     <use xlink:href="#mdbd9ab782b" x="289.596827" y="241.267653" style="fill: #feffb3; stroke: #feffb3; stroke-linejoin: miter"/>
     <use xlink:href="#mdbd9ab782b" x="293.682245" y="246.443196" style="fill: #feffb3; stroke: #feffb3; stroke-linejoin: miter"/>
     <use xlink:href="#mdbd9ab782b" x="297.767663" y="242.805787" style="fill: #feffb3; stroke: #feffb3; stroke-linejoin: miter"/>
     <use xlink:href="#mdbd9ab782b" x="301.853081" y="241.426239" style="fill: #feffb3; stroke: #feffb3; stroke-linejoin: miter"/>
     <use xlink:href="#mdbd9ab782b" x="305.938499" y="286.385698" style="fill: #feffb3; stroke: #feffb3; stroke-linejoin: miter"/>
     <use xlink:href="#mdbd9ab782b" x="310.023917" y="240.510038" style="fill: #feffb3; stroke: #feffb3; stroke-linejoin: miter"/>
     <use xlink:href="#mdbd9ab782b" x="314.109335" y="243.336767" style="fill: #feffb3; stroke: #feffb3; stroke-linejoin: miter"/>
     <use xlink:href="#mdbd9ab782b" x="318.194753" y="241.74236" style="fill: #feffb3; stroke: #feffb3; stroke-linejoin: miter"/>
     <use xlink:href="#mdbd9ab782b" x="322.280171" y="240.852412" style="fill: #feffb3; stroke: #feffb3; stroke-linejoin: miter"/>
     <use xlink:href="#mdbd9ab782b" x="326.365589" y="247.597691" style="fill: #feffb3; stroke: #feffb3; stroke-linejoin: miter"/>
     <use xlink:href="#mdbd9ab782b" x="330.451007" y="240.617905" style="fill: #feffb3; stroke: #feffb3; stroke-linejoin: miter"/>
     <use xlink:href="#mdbd9ab782b" x="334.536425" y="242.248917" style="fill: #feffb3; stroke: #feffb3; stroke-linejoin: miter"/>
     <use xlink:href="#mdbd9ab782b" x="338.621843" y="245.945282" style="fill: #feffb3; stroke: #feffb3; stroke-linejoin: miter"/>
     <use xlink:href="#mdbd9ab782b" x="342.707261" y="241.449207" style="fill: #feffb3; stroke: #feffb3; stroke-linejoin: miter"/>
     <use xlink:href="#mdbd9ab782b" x="346.792678" y="240.751533" style="fill: #feffb3; stroke: #feffb3; stroke-linejoin: miter"/>
     <use xlink:href="#mdbd9ab782b" x="350.878096" y="254.700488" style="fill: #feffb3; stroke: #feffb3; stroke-linejoin: miter"/>
     <use xlink:href="#mdbd9ab782b" x="354.963514" y="241.799548" style="fill: #feffb3; stroke: #feffb3; stroke-linejoin: miter"/>
     <use xlink:href="#mdbd9ab782b" x="359.048932" y="242.456639" style="fill: #feffb3; stroke: #feffb3; stroke-linejoin: miter"/>
     <use xlink:href="#mdbd9ab782b" x="363.13435" y="240.511883" style="fill: #feffb3; stroke: #feffb3; stroke-linejoin: miter"/>
     <use xlink:href="#mdbd9ab782b" x="367.219768" y="244.091785" style="fill: #feffb3; stroke: #feffb3; stroke-linejoin: miter"/>
     <use xlink:href="#mdbd9ab782b" x="371.305186" y="242.123578" style="fill: #feffb3; stroke: #feffb3; stroke-linejoin: miter"/>
     <use xlink:href="#mdbd9ab782b" x="375.390604" y="242.892502" style="fill: #feffb3; stroke: #feffb3; stroke-linejoin: miter"/>
     <use xlink:href="#mdbd9ab782b" x="379.476022" y="245.960387" style="fill: #feffb3; stroke: #feffb3; stroke-linejoin: miter"/>
     <use xlink:href="#mdbd9ab782b" x="383.56144" y="243.320075" style="fill: #feffb3; stroke: #feffb3; stroke-linejoin: miter"/>
     <use xlink:href="#mdbd9ab782b" x="387.646858" y="243.51484" style="fill: #feffb3; stroke: #feffb3; stroke-linejoin: miter"/>
     <use xlink:href="#mdbd9ab782b" x="391.732276" y="419.847339" style="fill: #feffb3; stroke: #feffb3; stroke-linejoin: miter"/>
     <use xlink:href="#mdbd9ab782b" x="395.817694" y="422.068963" style="fill: #feffb3; stroke: #feffb3; stroke-linejoin: miter"/>
     <use xlink:href="#mdbd9ab782b" x="399.903112" y="420.743741" style="fill: #feffb3; stroke: #feffb3; stroke-linejoin: miter"/>
     <use xlink:href="#mdbd9ab782b" x="403.98853" y="421.154094" style="fill: #feffb3; stroke: #feffb3; stroke-linejoin: miter"/>
     <use xlink:href="#mdbd9ab782b" x="408.073948" y="434.404719" style="fill: #feffb3; stroke: #feffb3; stroke-linejoin: miter"/>
     <use xlink:href="#mdbd9ab782b" x="412.159365" y="424.380451" style="fill: #feffb3; stroke: #feffb3; stroke-linejoin: miter"/>
     <use xlink:href="#mdbd9ab782b" x="416.244783" y="421.055385" style="fill: #feffb3; stroke: #feffb3; stroke-linejoin: miter"/>
     <use xlink:href="#mdbd9ab782b" x="420.330201" y="426.526076" style="fill: #feffb3; stroke: #feffb3; stroke-linejoin: miter"/>
     <use xlink:href="#mdbd9ab782b" x="424.415619" y="426.778157" style="fill: #feffb3; stroke: #feffb3; stroke-linejoin: miter"/>
     <use xlink:href="#mdbd9ab782b" x="428.501037" y="420.407615" style="fill: #feffb3; stroke: #feffb3; stroke-linejoin: miter"/>
     <use xlink:href="#mdbd9ab782b" x="432.586455" y="421.103021" style="fill: #feffb3; stroke: #feffb3; stroke-linejoin: miter"/>
     <use xlink:href="#mdbd9ab782b" x="436.671873" y="419.562559" style="fill: #feffb3; stroke: #feffb3; stroke-linejoin: miter"/>
     <use xlink:href="#mdbd9ab782b" x="440.757291" y="420.173807" style="fill: #feffb3; stroke: #feffb3; stroke-linejoin: miter"/>
     <use xlink:href="#mdbd9ab782b" x="444.842709" y="420.401617" style="fill: #feffb3; stroke: #feffb3; stroke-linejoin: miter"/>
     <use xlink:href="#mdbd9ab782b" x="448.928127" y="420.438336" style="fill: #feffb3; stroke: #feffb3; stroke-linejoin: miter"/>
     <use xlink:href="#mdbd9ab782b" x="453.013545" y="484.232727" style="fill: #feffb3; stroke: #feffb3; stroke-linejoin: miter"/>
     <use xlink:href="#mdbd9ab782b" x="457.098963" y="420.613965" style="fill: #feffb3; stroke: #feffb3; stroke-linejoin: miter"/>
     <use xlink:href="#mdbd9ab782b" x="461.184381" y="420.199546" style="fill: #feffb3; stroke: #feffb3; stroke-linejoin: miter"/>
     <use xlink:href="#mdbd9ab782b" x="465.269799" y="420.2994" style="fill: #feffb3; stroke: #feffb3; stroke-linejoin: miter"/>
     <use xlink:href="#mdbd9ab782b" x="469.355217" y="420.480198" style="fill: #feffb3; stroke: #feffb3; stroke-linejoin: miter"/>
     <use xlink:href="#mdbd9ab782b" x="473.440635" y="419.814466" style="fill: #feffb3; stroke: #feffb3; stroke-linejoin: miter"/>
     <use xlink:href="#mdbd9ab782b" x="477.526052" y="420.07638" style="fill: #feffb3; stroke: #feffb3; stroke-linejoin: miter"/>
     <use xlink:href="#mdbd9ab782b" x="481.61147" y="421.224541" style="fill: #feffb3; stroke: #feffb3; stroke-linejoin: miter"/>
     <use xlink:href="#mdbd9ab782b" x="485.696888" y="419.980559" style="fill: #feffb3; stroke: #feffb3; stroke-linejoin: miter"/>
     <use xlink:href="#mdbd9ab782b" x="489.782306" y="427.030521" style="fill: #feffb3; stroke: #feffb3; stroke-linejoin: miter"/>
     <use xlink:href="#mdbd9ab782b" x="493.867724" y="420.32603" style="fill: #feffb3; stroke: #feffb3; stroke-linejoin: miter"/>
     <use xlink:href="#mdbd9ab782b" x="497.953142" y="420.42921" style="fill: #feffb3; stroke: #feffb3; stroke-linejoin: miter"/>
     <use xlink:href="#mdbd9ab782b" x="502.03856" y="422.938302" style="fill: #feffb3; stroke: #feffb3; stroke-linejoin: miter"/>
     <use xlink:href="#mdbd9ab782b" x="506.123978" y="420.353463" style="fill: #feffb3; stroke: #feffb3; stroke-linejoin: miter"/>
     <use xlink:href="#mdbd9ab782b" x="510.209396" y="421.436859" style="fill: #feffb3; stroke: #feffb3; stroke-linejoin: miter"/>
     <use xlink:href="#mdbd9ab782b" x="514.294814" y="420.409235" style="fill: #feffb3; stroke: #feffb3; stroke-linejoin: miter"/>
     <use xlink:href="#mdbd9ab782b" x="518.380232" y="420.589866" style="fill: #feffb3; stroke: #feffb3; stroke-linejoin: miter"/>
     <use xlink:href="#mdbd9ab782b" x="522.46565" y="420.911369" style="fill: #feffb3; stroke: #feffb3; stroke-linejoin: miter"/>
     <use xlink:href="#mdbd9ab782b" x="526.551068" y="420.450674" style="fill: #feffb3; stroke: #feffb3; stroke-linejoin: miter"/>
     <use xlink:href="#mdbd9ab782b" x="530.636486" y="420.661026" style="fill: #feffb3; stroke: #feffb3; stroke-linejoin: miter"/>
     <use xlink:href="#mdbd9ab782b" x="534.721904" y="469.663871" style="fill: #feffb3; stroke: #feffb3; stroke-linejoin: miter"/>
     <use xlink:href="#mdbd9ab782b" x="538.807322" y="420.055748" style="fill: #feffb3; stroke: #feffb3; stroke-linejoin: miter"/>
     <use xlink:href="#mdbd9ab782b" x="542.892739" y="428.811313" style="fill: #feffb3; stroke: #feffb3; stroke-linejoin: miter"/>
     <use xlink:href="#mdbd9ab782b" x="546.978157" y="420.593359" style="fill: #feffb3; stroke: #feffb3; stroke-linejoin: miter"/>
     <use xlink:href="#mdbd9ab782b" x="551.063575" y="421.805261" style="fill: #feffb3; stroke: #feffb3; stroke-linejoin: miter"/>
     <use xlink:href="#mdbd9ab782b" x="555.148993" y="421.092828" style="fill: #feffb3; stroke: #feffb3; stroke-linejoin: miter"/>
     <use xlink:href="#mdbd9ab782b" x="559.234411" y="425.001873" style="fill: #feffb3; stroke: #feffb3; stroke-linejoin: miter"/>
     <use xlink:href="#mdbd9ab782b" x="563.319829" y="422.788624" style="fill: #feffb3; stroke: #feffb3; stroke-linejoin: miter"/>
     <use xlink:href="#mdbd9ab782b" x="567.405247" y="419.395236" style="fill: #feffb3; stroke: #feffb3; stroke-linejoin: miter"/>
     <use xlink:href="#mdbd9ab782b" x="571.490665" y="420.338809" style="fill: #feffb3; stroke: #feffb3; stroke-linejoin: miter"/>
     <use xlink:href="#mdbd9ab782b" x="575.576083" y="425.408748" style="fill: #feffb3; stroke: #feffb3; stroke-linejoin: miter"/>
     <use xlink:href="#mdbd9ab782b" x="579.661501" y="419.142363" style="fill: #feffb3; stroke: #feffb3; stroke-linejoin: miter"/>
     <use xlink:href="#mdbd9ab782b" x="583.746919" y="455.76197" style="fill: #feffb3; stroke: #feffb3; stroke-linejoin: miter"/>
     <use xlink:href="#mdbd9ab782b" x="587.832337" y="437.513181" style="fill: #feffb3; stroke: #feffb3; stroke-linejoin: miter"/>
     <use xlink:href="#mdbd9ab782b" x="591.917755" y="420.884041" style="fill: #feffb3; stroke: #feffb3; stroke-linejoin: miter"/>
     <use xlink:href="#mdbd9ab782b" x="596.003173" y="421.317584" style="fill: #feffb3; stroke: #feffb3; stroke-linejoin: miter"/>
     <use xlink:href="#mdbd9ab782b" x="600.088591" y="421.388852" style="fill: #feffb3; stroke: #feffb3; stroke-linejoin: miter"/>
     <use xlink:href="#mdbd9ab782b" x="604.174009" y="429.708376" style="fill: #feffb3; stroke: #feffb3; stroke-linejoin: miter"/>
     <use xlink:href="#mdbd9ab782b" x="608.259426" y="420.07837" style="fill: #feffb3; stroke: #feffb3; stroke-linejoin: miter"/>
     <use xlink:href="#mdbd9ab782b" x="612.344844" y="420.990116" style="fill: #feffb3; stroke: #feffb3; stroke-linejoin: miter"/>
     <use xlink:href="#mdbd9ab782b" x="616.430262" y="420.135714" style="fill: #feffb3; stroke: #feffb3; stroke-linejoin: miter"/>
     <use xlink:href="#mdbd9ab782b" x="620.51568" y="419.449719" style="fill: #feffb3; stroke: #feffb3; stroke-linejoin: miter"/>
     <use xlink:href="#mdbd9ab782b" x="624.601098" y="434.215711" style="fill: #feffb3; stroke: #feffb3; stroke-linejoin: miter"/>
     <use xlink:href="#mdbd9ab782b" x="628.686516" y="421.136538" style="fill: #feffb3; stroke: #feffb3; stroke-linejoin: miter"/>
     <use xlink:href="#mdbd9ab782b" x="632.771934" y="420.79982" style="fill: #feffb3; stroke: #feffb3; stroke-linejoin: miter"/>
     <use xlink:href="#mdbd9ab782b" x="636.857352" y="424.856088" style="fill: #feffb3; stroke: #feffb3; stroke-linejoin: miter"/>
     <use xlink:href="#mdbd9ab782b" x="640.94277" y="420.267777" style="fill: #feffb3; stroke: #feffb3; stroke-linejoin: miter"/>
     <use xlink:href="#mdbd9ab782b" x="645.028188" y="428.06433" style="fill: #feffb3; stroke: #feffb3; stroke-linejoin: miter"/>
     <use xlink:href="#mdbd9ab782b" x="649.113606" y="421.848763" style="fill: #feffb3; stroke: #feffb3; stroke-linejoin: miter"/>
     <use xlink:href="#mdbd9ab782b" x="653.199024" y="421.053882" style="fill: #feffb3; stroke: #feffb3; stroke-linejoin: miter"/>
     <use xlink:href="#mdbd9ab782b" x="657.284442" y="467.051912" style="fill: #feffb3; stroke: #feffb3; stroke-linejoin: miter"/>
     <use xlink:href="#mdbd9ab782b" x="661.36986" y="456.138962" style="fill: #feffb3; stroke: #feffb3; stroke-linejoin: miter"/>
     <use xlink:href="#mdbd9ab782b" x="665.455278" y="419.688665" style="fill: #feffb3; stroke: #feffb3; stroke-linejoin: miter"/>
     <use xlink:href="#mdbd9ab782b" x="669.540696" y="420.711801" style="fill: #feffb3; stroke: #feffb3; stroke-linejoin: miter"/>
     <use xlink:href="#mdbd9ab782b" x="673.626113" y="426.708219" style="fill: #feffb3; stroke: #feffb3; stroke-linejoin: miter"/>
     <use xlink:href="#mdbd9ab782b" x="677.711531" y="425.533396" style="fill: #feffb3; stroke: #feffb3; stroke-linejoin: miter"/>
     <use xlink:href="#mdbd9ab782b" x="681.796949" y="426.514139" style="fill: #feffb3; stroke: #feffb3; stroke-linejoin: miter"/>
     <use xlink:href="#mdbd9ab782b" x="685.882367" y="424.931494" style="fill: #feffb3; stroke: #feffb3; stroke-linejoin: miter"/>
     <use xlink:href="#mdbd9ab782b" x="689.967785" y="419.693537" style="fill: #feffb3; stroke: #feffb3; stroke-linejoin: miter"/>
     <use xlink:href="#mdbd9ab782b" x="694.053203" y="434.03641" style="fill: #feffb3; stroke: #feffb3; stroke-linejoin: miter"/>
     <use xlink:href="#mdbd9ab782b" x="698.138621" y="419.726782" style="fill: #feffb3; stroke: #feffb3; stroke-linejoin: miter"/>
     <use xlink:href="#mdbd9ab782b" x="702.224039" y="420.276706" style="fill: #feffb3; stroke: #feffb3; stroke-linejoin: miter"/>
     <use xlink:href="#mdbd9ab782b" x="706.309457" y="358.876714" style="fill: #feffb3; stroke: #feffb3; stroke-linejoin: miter"/>
     <use xlink:href="#mdbd9ab782b" x="710.394875" y="420.874349" style="fill: #feffb3; stroke: #feffb3; stroke-linejoin: miter"/>
     <use xlink:href="#mdbd9ab782b" x="714.480293" y="420.266817" style="fill: #feffb3; stroke: #feffb3; stroke-linejoin: miter"/>
     <use xlink:href="#mdbd9ab782b" x="718.565711" y="420.704971" style="fill: #feffb3; stroke: #feffb3; stroke-linejoin: miter"/>
     <use xlink:href="#mdbd9ab782b" x="722.651129" y="420.325247" style="fill: #feffb3; stroke: #feffb3; stroke-linejoin: miter"/>
     <use xlink:href="#mdbd9ab782b" x="726.736547" y="420.401207" style="fill: #feffb3; stroke: #feffb3; stroke-linejoin: miter"/>
     <use xlink:href="#mdbd9ab782b" x="730.821965" y="426.560858" style="fill: #feffb3; stroke: #feffb3; stroke-linejoin: miter"/>
     <use xlink:href="#mdbd9ab782b" x="734.907383" y="426.458592" style="fill: #feffb3; stroke: #feffb3; stroke-linejoin: miter"/>
     <use xlink:href="#mdbd9ab782b" x="738.9928" y="420.767025" style="fill: #feffb3; stroke: #feffb3; stroke-linejoin: miter"/>
     <use xlink:href="#mdbd9ab782b" x="743.078218" y="426.315652" style="fill: #feffb3; stroke: #feffb3; stroke-linejoin: miter"/>
     <use xlink:href="#mdbd9ab782b" x="747.163636" y="424.320864" style="fill: #feffb3; stroke: #feffb3; stroke-linejoin: miter"/>
    </g>
   </g>
   <g id="patch_3">
    <path d="M 108 504 
L 108 69.12 
" style="fill: none; stroke: #ffffff; stroke-linejoin: miter; stroke-linecap: square"/>
   </g>
   <g id="patch_4">
    <path d="M 777.6 504 
L 777.6 69.12 
" style="fill: none; stroke: #ffffff; stroke-linejoin: miter; stroke-linecap: square"/>
   </g>
   <g id="patch_5">
    <path d="M 108 504 
L 777.6 504 
" style="fill: none; stroke: #ffffff; stroke-linejoin: miter; stroke-linecap: square"/>
   </g>
   <g id="patch_6">
    <path d="M 108 69.12 
L 777.6 69.12 
" style="fill: none; stroke: #ffffff; stroke-linejoin: miter; stroke-linecap: square"/>
   </g>
   <g id="text_15">
    <!-- minimum bounding rectangle QPS (after outlier removal) -->
    <g style="fill: #ffffff" transform="translate(262.73475 63.12)scale(0.144 -0.144)">
     <defs>
      <path id="LiberationSans-6d" d="M 2400 0 
L 2400 2144 
Q 2400 2634 2265 2821 
Q 2131 3009 1781 3009 
Q 1422 3009 1212 2734 
Q 1003 2459 1003 1959 
L 1003 0 
L 444 0 
L 444 2659 
Q 444 3250 425 3381 
L 956 3381 
Q 959 3366 962 3297 
Q 966 3228 970 3139 
Q 975 3050 981 2803 
L 991 2803 
Q 1172 3163 1406 3303 
Q 1641 3444 1978 3444 
Q 2363 3444 2586 3291 
Q 2809 3138 2897 2803 
L 2906 2803 
Q 3081 3144 3329 3294 
Q 3578 3444 3931 3444 
Q 4444 3444 4676 3166 
Q 4909 2888 4909 2253 
L 4909 0 
L 4353 0 
L 4353 2144 
Q 4353 2634 4218 2821 
Q 4084 3009 3734 3009 
Q 3366 3009 3161 2736 
Q 2956 2463 2956 1959 
L 2956 0 
L 2400 0 
z
" transform="scale(0.015625)"/>
      <path id="LiberationSans-67" d="M 1713 -1328 
Q 1159 -1328 831 -1111 
Q 503 -894 409 -494 
L 975 -413 
Q 1031 -647 1223 -773 
Q 1416 -900 1728 -900 
Q 2569 -900 2569 84 
L 2569 628 
L 2563 628 
Q 2403 303 2125 139 
Q 1847 -25 1475 -25 
Q 853 -25 561 387 
Q 269 800 269 1684 
Q 269 2581 583 3007 
Q 897 3434 1538 3434 
Q 1897 3434 2161 3270 
Q 2425 3106 2569 2803 
L 2575 2803 
Q 2575 2897 2587 3128 
Q 2600 3359 2613 3381 
L 3147 3381 
Q 3128 3213 3128 2681 
L 3128 97 
Q 3128 -1328 1713 -1328 
z
M 2569 1691 
Q 2569 2103 2456 2401 
Q 2344 2700 2139 2858 
Q 1934 3016 1675 3016 
Q 1244 3016 1047 2703 
Q 850 2391 850 1691 
Q 850 997 1034 694 
Q 1219 391 1666 391 
Q 1931 391 2137 547 
Q 2344 703 2456 995 
Q 2569 1288 2569 1691 
z
" transform="scale(0.015625)"/>
      <path id="LiberationSans-6c" d="M 431 0 
L 431 4638 
L 994 4638 
L 994 0 
L 431 0 
z
" transform="scale(0.015625)"/>
      <path id="LiberationSans-51" d="M 4672 2222 
Q 4672 1291 4203 691 
Q 3734 91 2900 -19 
Q 3028 -413 3236 -588 
Q 3444 -763 3763 -763 
Q 3934 -763 4122 -722 
L 4122 -1141 
Q 3831 -1209 3566 -1209 
Q 3094 -1209 2789 -942 
Q 2484 -675 2291 -50 
Q 1672 -19 1223 264 
Q 775 547 539 1051 
Q 303 1556 303 2222 
Q 303 3278 881 3873 
Q 1459 4469 2491 4469 
Q 3163 4469 3656 4201 
Q 4150 3934 4411 3425 
Q 4672 2916 4672 2222 
z
M 4063 2222 
Q 4063 3044 3652 3512 
Q 3241 3981 2491 3981 
Q 1734 3981 1321 3518 
Q 909 3056 909 2222 
Q 909 1394 1326 908 
Q 1744 422 2484 422 
Q 3247 422 3655 892 
Q 4063 1363 4063 2222 
z
" transform="scale(0.015625)"/>
      <path id="LiberationSans-50" d="M 3931 3078 
Q 3931 2453 3523 2084 
Q 3116 1716 2416 1716 
L 1122 1716 
L 1122 0 
L 525 0 
L 525 4403 
L 2378 4403 
Q 3119 4403 3525 4056 
Q 3931 3709 3931 3078 
z
M 3331 3072 
Q 3331 3925 2306 3925 
L 1122 3925 
L 1122 2188 
L 2331 2188 
Q 3331 2188 3331 3072 
z
" transform="scale(0.015625)"/>
      <path id="LiberationSans-53" d="M 3975 1216 
Q 3975 606 3498 271 
Q 3022 -63 2156 -63 
Q 547 -63 291 1056 
L 869 1172 
Q 969 775 1294 589 
Q 1619 403 2178 403 
Q 2756 403 3070 601 
Q 3384 800 3384 1184 
Q 3384 1400 3286 1534 
Q 3188 1669 3009 1756 
Q 2831 1844 2584 1903 
Q 2338 1963 2038 2031 
Q 1516 2147 1245 2262 
Q 975 2378 819 2520 
Q 663 2663 580 2853 
Q 497 3044 497 3291 
Q 497 3856 930 4162 
Q 1363 4469 2169 4469 
Q 2919 4469 3316 4239 
Q 3713 4009 3872 3456 
L 3284 3353 
Q 3188 3703 2916 3861 
Q 2644 4019 2163 4019 
Q 1634 4019 1356 3844 
Q 1078 3669 1078 3322 
Q 1078 3119 1186 2986 
Q 1294 2853 1497 2761 
Q 1700 2669 2306 2534 
Q 2509 2488 2711 2439 
Q 2913 2391 3097 2323 
Q 3281 2256 3442 2165 
Q 3603 2075 3722 1944 
Q 3841 1813 3908 1634 
Q 3975 1456 3975 1216 
z
" transform="scale(0.015625)"/>
      <path id="LiberationSans-28" d="M 397 1663 
Q 397 2566 680 3284 
Q 963 4003 1550 4638 
L 2094 4638 
Q 1509 3988 1236 3256 
Q 963 2525 963 1656 
Q 963 791 1233 62 
Q 1503 -666 2094 -1325 
L 1550 -1325 
Q 959 -688 678 32 
Q 397 753 397 1650 
L 397 1663 
z
" transform="scale(0.015625)"/>
      <path id="LiberationSans-66" d="M 1128 2972 
L 1128 0 
L 566 0 
L 566 2972 
L 91 2972 
L 91 3381 
L 566 3381 
L 566 3763 
Q 566 4225 769 4428 
Q 972 4631 1391 4631 
Q 1625 4631 1788 4594 
L 1788 4166 
Q 1647 4191 1538 4191 
Q 1322 4191 1225 4081 
Q 1128 3972 1128 3684 
L 1128 3381 
L 1788 3381 
L 1788 2972 
L 1128 2972 
z
" transform="scale(0.015625)"/>
      <path id="LiberationSans-29" d="M 1734 1650 
Q 1734 747 1451 28 
Q 1169 -691 581 -1325 
L 38 -1325 
Q 625 -669 897 57 
Q 1169 784 1169 1656 
Q 1169 2528 895 3256 
Q 622 3984 38 4638 
L 581 4638 
Q 1172 4000 1453 3279 
Q 1734 2559 1734 1663 
L 1734 1650 
z
" transform="scale(0.015625)"/>
     </defs>
     <use xlink:href="#LiberationSans-6d"/>
     <use xlink:href="#LiberationSans-69" x="83.300781"/>
     <use xlink:href="#LiberationSans-6e" x="105.517578"/>
     <use xlink:href="#LiberationSans-69" x="161.132812"/>
     <use xlink:href="#LiberationSans-6d" x="183.349609"/>
     <use xlink:href="#LiberationSans-75" x="266.650391"/>
     <use xlink:href="#LiberationSans-6d" x="322.265625"/>
     <use xlink:href="#LiberationSans-20" x="405.566406"/>
     <use xlink:href="#LiberationSans-62" x="433.349609"/>
     <use xlink:href="#LiberationSans-6f" x="488.964844"/>
     <use xlink:href="#LiberationSans-75" x="544.580078"/>
     <use xlink:href="#LiberationSans-6e" x="600.195312"/>
     <use xlink:href="#LiberationSans-64" x="655.810547"/>
     <use xlink:href="#LiberationSans-69" x="711.425781"/>
     <use xlink:href="#LiberationSans-6e" x="733.642578"/>
     <use xlink:href="#LiberationSans-67" x="789.257812"/>
     <use xlink:href="#LiberationSans-20" x="844.873047"/>
     <use xlink:href="#LiberationSans-72" x="872.65625"/>
     <use xlink:href="#LiberationSans-65" x="905.957031"/>
     <use xlink:href="#LiberationSans-63" x="961.572266"/>
     <use xlink:href="#LiberationSans-74" x="1011.572266"/>
     <use xlink:href="#LiberationSans-61" x="1039.355469"/>
     <use xlink:href="#LiberationSans-6e" x="1094.970703"/>
     <use xlink:href="#LiberationSans-67" x="1150.585938"/>
     <use xlink:href="#LiberationSans-6c" x="1206.201172"/>
     <use xlink:href="#LiberationSans-65" x="1228.417969"/>
     <use xlink:href="#LiberationSans-20" x="1284.033203"/>
     <use xlink:href="#LiberationSans-51" x="1311.816406"/>
     <use xlink:href="#LiberationSans-50" x="1389.599609"/>
     <use xlink:href="#LiberationSans-53" x="1456.298828"/>
     <use xlink:href="#LiberationSans-20" x="1522.998047"/>
     <use xlink:href="#LiberationSans-28" x="1550.78125"/>
     <use xlink:href="#LiberationSans-61" x="1584.082031"/>
     <use xlink:href="#LiberationSans-66" x="1639.697266"/>
     <use xlink:href="#LiberationSans-74" x="1667.480469"/>
     <use xlink:href="#LiberationSans-65" x="1695.263672"/>
     <use xlink:href="#LiberationSans-72" x="1750.878906"/>
     <use xlink:href="#LiberationSans-20" x="1784.179688"/>
     <use xlink:href="#LiberationSans-6f" x="1811.962891"/>
     <use xlink:href="#LiberationSans-75" x="1867.578125"/>
     <use xlink:href="#LiberationSans-74" x="1923.193359"/>
     <use xlink:href="#LiberationSans-6c" x="1950.976562"/>
     <use xlink:href="#LiberationSans-69" x="1973.193359"/>
     <use xlink:href="#LiberationSans-65" x="1995.410156"/>
     <use xlink:href="#LiberationSans-72" x="2051.025391"/>
     <use xlink:href="#LiberationSans-20" x="2084.326172"/>
     <use xlink:href="#LiberationSans-72" x="2112.109375"/>
     <use xlink:href="#LiberationSans-65" x="2145.410156"/>
     <use xlink:href="#LiberationSans-6d" x="2201.025391"/>
     <use xlink:href="#LiberationSans-6f" x="2284.326172"/>
     <use xlink:href="#LiberationSans-76" x="2339.941406"/>
     <use xlink:href="#LiberationSans-61" x="2389.941406"/>
     <use xlink:href="#LiberationSans-6c" x="2445.556641"/>
     <use xlink:href="#LiberationSans-29" x="2467.773438"/>
    </g>
   </g>
   <g id="legend_1">
    <g id="line2d_19">
     <path d="M 718.917188 81.866875 
L 728.917188 81.866875 
L 738.917188 81.866875 
" style="fill: none"/>
     <g>
      <use xlink:href="#m8a694f9a4d" x="728.917188" y="81.866875" style="fill: #8dd3c7; stroke: #8dd3c7"/>
     </g>
    </g>
    <g id="text_16">
     <!-- geo -->
     <g style="fill: #ffffff" transform="translate(746.917188 85.366875)scale(0.1 -0.1)">
      <use xlink:href="#LiberationSans-67"/>
      <use xlink:href="#LiberationSans-65" x="55.615234"/>
      <use xlink:href="#LiberationSans-6f" x="111.230469"/>
     </g>
    </g>
    <g id="line2d_20">
     <path d="M 718.917188 96.18875 
L 728.917188 96.18875 
L 738.917188 96.18875 
" style="fill: none"/>
     <g>
      <use xlink:href="#mdbd9ab782b" x="728.917188" y="96.18875" style="fill: #feffb3; stroke: #feffb3; stroke-linejoin: miter"/>
     </g>
    </g>
    <g id="text_17">
     <!-- geos -->
     <g style="fill: #ffffff" transform="translate(746.917188 99.68875)scale(0.1 -0.1)">
      <use xlink:href="#LiberationSans-67"/>
      <use xlink:href="#LiberationSans-65" x="55.615234"/>
      <use xlink:href="#LiberationSans-6f" x="111.230469"/>
      <use xlink:href="#LiberationSans-73" x="166.845703"/>
     </g>
    </g>
   </g>
  </g>
 </g>
 <defs>
  <clipPath id="p24d72c94be">
   <rect x="108" y="69.12" width="669.6" height="434.88"/>
  </clipPath>
 </defs>
</svg>
