<?xml version="1.0" encoding="utf-8" standalone="no"?>
<!DOCTYPE svg PUBLIC "-//W3C//DTD SVG 1.1//EN"
  "http://www.w3.org/Graphics/SVG/1.1/DTD/svg11.dtd">
<svg xmlns:xlink="http://www.w3.org/1999/xlink" width="864pt" height="576pt" viewBox="0 0 864 576" xmlns="http://www.w3.org/2000/svg" version="1.1">
 <metadata>
  <rdf:RDF xmlns:dc="http://purl.org/dc/elements/1.1/" xmlns:cc="http://creativecommons.org/ns#" xmlns:rdf="http://www.w3.org/1999/02/22-rdf-syntax-ns#">
   <cc:Work>
    <dc:type rdf:resource="http://purl.org/dc/dcmitype/StillImage"/>
    <dc:date>2022-02-22T04:34:15.424649</dc:date>
    <dc:format>image/svg+xml</dc:format>
    <dc:creator>
     <cc:Agent>
      <dc:title>Matplotlib v3.5.0, https://matplotlib.org/</dc:title>
     </cc:Agent>
    </dc:creator>
   </cc:Work>
  </rdf:RDF>
 </metadata>
 <defs>
  <style type="text/css">*{stroke-linejoin: round; stroke-linecap: butt}</style>
 </defs>
 <g id="figure_1">
  <g id="patch_1">
   <path d="M 0 576 
L 864 576 
L 864 0 
L 0 0 
L 0 576 
z
" style="fill: none"/>
  </g>
  <g id="axes_1">
   <g id="patch_2">
    <path d="M 108 504 
L 777.6 504 
L 777.6 69.12 
L 108 69.12 
L 108 504 
z
" style="fill: none"/>
   </g>
   <g id="matplotlib.axis_1">
    <g id="xtick_1">
     <g id="line2d_1"/>
     <g id="text_1">
      <!-- 0 -->
      <g style="fill: #ffffff" transform="translate(135.099801 516.19625)scale(0.12 -0.12)">
       <defs>
        <path id="LiberationSans-30" d="M 3309 2203 
Q 3309 1100 2920 518 
Q 2531 -63 1772 -63 
Q 1013 -63 631 515 
Q 250 1094 250 2203 
Q 250 3338 620 3903 
Q 991 4469 1791 4469 
Q 2569 4469 2939 3897 
Q 3309 3325 3309 2203 
z
M 2738 2203 
Q 2738 3156 2517 3584 
Q 2297 4013 1791 4013 
Q 1272 4013 1045 3591 
Q 819 3169 819 2203 
Q 819 1266 1048 831 
Q 1278 397 1778 397 
Q 2275 397 2506 840 
Q 2738 1284 2738 2203 
z
" transform="scale(0.015625)"/>
       </defs>
       <use xlink:href="#LiberationSans-30"/>
      </g>
     </g>
    </g>
    <g id="xtick_2">
     <g id="line2d_2"/>
     <g id="text_2">
      <!-- 20 -->
      <g style="fill: #ffffff" transform="translate(213.471597 516.19625)scale(0.12 -0.12)">
       <defs>
        <path id="LiberationSans-32" d="M 322 0 
L 322 397 
Q 481 763 711 1042 
Q 941 1322 1194 1548 
Q 1447 1775 1695 1969 
Q 1944 2163 2144 2356 
Q 2344 2550 2467 2762 
Q 2591 2975 2591 3244 
Q 2591 3606 2378 3806 
Q 2166 4006 1788 4006 
Q 1428 4006 1195 3811 
Q 963 3616 922 3263 
L 347 3316 
Q 409 3844 795 4156 
Q 1181 4469 1788 4469 
Q 2453 4469 2811 4155 
Q 3169 3841 3169 3263 
Q 3169 3006 3051 2753 
Q 2934 2500 2703 2247 
Q 2472 1994 1819 1463 
Q 1459 1169 1246 933 
Q 1034 697 941 478 
L 3238 478 
L 3238 0 
L 322 0 
z
" transform="scale(0.015625)"/>
       </defs>
       <use xlink:href="#LiberationSans-32"/>
       <use xlink:href="#LiberationSans-30" x="55.615234"/>
      </g>
     </g>
    </g>
    <g id="xtick_3">
     <g id="line2d_3"/>
     <g id="text_3">
      <!-- 40 -->
      <g style="fill: #ffffff" transform="translate(295.179956 516.19625)scale(0.12 -0.12)">
       <defs>
        <path id="LiberationSans-34" d="M 2753 997 
L 2753 0 
L 2222 0 
L 2222 997 
L 147 997 
L 147 1434 
L 2163 4403 
L 2753 4403 
L 2753 1441 
L 3372 1441 
L 3372 997 
L 2753 997 
z
M 2222 3769 
Q 2216 3750 2134 3603 
Q 2053 3456 2013 3397 
L 884 1734 
L 716 1503 
L 666 1441 
L 2222 1441 
L 2222 3769 
z
" transform="scale(0.015625)"/>
       </defs>
       <use xlink:href="#LiberationSans-34"/>
       <use xlink:href="#LiberationSans-30" x="55.615234"/>
      </g>
     </g>
    </g>
    <g id="xtick_4">
     <g id="line2d_4"/>
     <g id="text_4">
      <!-- 60 -->
      <g style="fill: #ffffff" transform="translate(376.888315 516.19625)scale(0.12 -0.12)">
       <defs>
        <path id="LiberationSans-36" d="M 3278 1441 
Q 3278 744 2900 340 
Q 2522 -63 1856 -63 
Q 1113 -63 719 490 
Q 325 1044 325 2100 
Q 325 3244 734 3856 
Q 1144 4469 1900 4469 
Q 2897 4469 3156 3572 
L 2619 3475 
Q 2453 4013 1894 4013 
Q 1413 4013 1148 3564 
Q 884 3116 884 2266 
Q 1038 2550 1316 2698 
Q 1594 2847 1953 2847 
Q 2563 2847 2920 2465 
Q 3278 2084 3278 1441 
z
M 2706 1416 
Q 2706 1894 2472 2153 
Q 2238 2413 1819 2413 
Q 1425 2413 1183 2183 
Q 941 1953 941 1550 
Q 941 1041 1192 716 
Q 1444 391 1838 391 
Q 2244 391 2475 664 
Q 2706 938 2706 1416 
z
" transform="scale(0.015625)"/>
       </defs>
       <use xlink:href="#LiberationSans-36"/>
       <use xlink:href="#LiberationSans-30" x="55.615234"/>
      </g>
     </g>
    </g>
    <g id="xtick_5">
     <g id="line2d_5"/>
     <g id="text_5">
      <!-- 80 -->
      <g style="fill: #ffffff" transform="translate(458.596674 516.19625)scale(0.12 -0.12)">
       <defs>
        <path id="LiberationSans-38" d="M 3281 1228 
Q 3281 619 2893 278 
Q 2506 -63 1781 -63 
Q 1075 -63 676 271 
Q 278 606 278 1222 
Q 278 1653 525 1947 
Q 772 2241 1156 2303 
L 1156 2316 
Q 797 2400 589 2681 
Q 381 2963 381 3341 
Q 381 3844 757 4156 
Q 1134 4469 1769 4469 
Q 2419 4469 2795 4162 
Q 3172 3856 3172 3334 
Q 3172 2956 2962 2675 
Q 2753 2394 2391 2322 
L 2391 2309 
Q 2813 2241 3047 1952 
Q 3281 1663 3281 1228 
z
M 2588 3303 
Q 2588 4050 1769 4050 
Q 1372 4050 1164 3862 
Q 956 3675 956 3303 
Q 956 2925 1170 2726 
Q 1384 2528 1775 2528 
Q 2172 2528 2380 2711 
Q 2588 2894 2588 3303 
z
M 2697 1281 
Q 2697 1691 2453 1898 
Q 2209 2106 1769 2106 
Q 1341 2106 1100 1882 
Q 859 1659 859 1269 
Q 859 359 1788 359 
Q 2247 359 2472 579 
Q 2697 800 2697 1281 
z
" transform="scale(0.015625)"/>
       </defs>
       <use xlink:href="#LiberationSans-38"/>
       <use xlink:href="#LiberationSans-30" x="55.615234"/>
      </g>
     </g>
    </g>
    <g id="xtick_6">
     <g id="line2d_6"/>
     <g id="text_6">
      <!-- 100 -->
      <g style="fill: #ffffff" transform="translate(536.96847 516.19625)scale(0.12 -0.12)">
       <defs>
        <path id="LiberationSans-31" d="M 488 0 
L 488 478 
L 1609 478 
L 1609 3866 
L 616 3156 
L 616 3688 
L 1656 4403 
L 2175 4403 
L 2175 478 
L 3247 478 
L 3247 0 
L 488 0 
z
" transform="scale(0.015625)"/>
       </defs>
       <use xlink:href="#LiberationSans-31"/>
       <use xlink:href="#LiberationSans-30" x="55.615234"/>
       <use xlink:href="#LiberationSans-30" x="111.230469"/>
      </g>
     </g>
    </g>
    <g id="xtick_7">
     <g id="line2d_7"/>
     <g id="text_7">
      <!-- 120 -->
      <g style="fill: #ffffff" transform="translate(618.676829 516.19625)scale(0.12 -0.12)">
       <use xlink:href="#LiberationSans-31"/>
       <use xlink:href="#LiberationSans-32" x="55.615234"/>
       <use xlink:href="#LiberationSans-30" x="111.230469"/>
      </g>
     </g>
    </g>
    <g id="xtick_8">
     <g id="line2d_8"/>
     <g id="text_8">
      <!-- 140 -->
      <g style="fill: #ffffff" transform="translate(700.385187 516.19625)scale(0.12 -0.12)">
       <use xlink:href="#LiberationSans-31"/>
       <use xlink:href="#LiberationSans-34" x="55.615234"/>
       <use xlink:href="#LiberationSans-30" x="111.230469"/>
      </g>
     </g>
    </g>
    <g id="text_9">
     <!-- observation -->
     <g style="fill: #ffffff" transform="translate(411.782813 531.3825)scale(0.12 -0.12)">
      <defs>
       <path id="LiberationSans-6f" d="M 3291 1694 
Q 3291 806 2900 371 
Q 2509 -63 1766 -63 
Q 1025 -63 647 389 
Q 269 841 269 1694 
Q 269 3444 1784 3444 
Q 2559 3444 2925 3017 
Q 3291 2591 3291 1694 
z
M 2700 1694 
Q 2700 2394 2492 2711 
Q 2284 3028 1794 3028 
Q 1300 3028 1079 2704 
Q 859 2381 859 1694 
Q 859 1025 1076 689 
Q 1294 353 1759 353 
Q 2266 353 2483 678 
Q 2700 1003 2700 1694 
z
" transform="scale(0.015625)"/>
       <path id="LiberationSans-62" d="M 3291 1706 
Q 3291 -63 2047 -63 
Q 1663 -63 1408 76 
Q 1153 216 994 525 
L 988 525 
Q 988 428 975 229 
Q 963 31 956 0 
L 413 0 
Q 431 169 431 697 
L 431 4638 
L 994 4638 
L 994 3316 
Q 994 3113 981 2838 
L 994 2838 
Q 1150 3163 1408 3303 
Q 1666 3444 2047 3444 
Q 2688 3444 2989 3012 
Q 3291 2581 3291 1706 
z
M 2700 1688 
Q 2700 2397 2512 2703 
Q 2325 3009 1903 3009 
Q 1428 3009 1211 2684 
Q 994 2359 994 1653 
Q 994 988 1206 670 
Q 1419 353 1897 353 
Q 2322 353 2511 667 
Q 2700 981 2700 1688 
z
" transform="scale(0.015625)"/>
       <path id="LiberationSans-73" d="M 2969 934 
Q 2969 456 2608 196 
Q 2247 -63 1597 -63 
Q 966 -63 623 145 
Q 281 353 178 794 
L 675 891 
Q 747 619 972 492 
Q 1197 366 1597 366 
Q 2025 366 2223 497 
Q 2422 628 2422 891 
Q 2422 1091 2284 1216 
Q 2147 1341 1841 1422 
L 1438 1528 
Q 953 1653 748 1773 
Q 544 1894 428 2066 
Q 313 2238 313 2488 
Q 313 2950 642 3192 
Q 972 3434 1603 3434 
Q 2163 3434 2492 3237 
Q 2822 3041 2909 2606 
L 2403 2544 
Q 2356 2769 2151 2889 
Q 1947 3009 1603 3009 
Q 1222 3009 1040 2893 
Q 859 2778 859 2544 
Q 859 2400 934 2306 
Q 1009 2213 1156 2147 
Q 1303 2081 1775 1966 
Q 2222 1853 2419 1758 
Q 2616 1663 2730 1547 
Q 2844 1431 2906 1279 
Q 2969 1128 2969 934 
z
" transform="scale(0.015625)"/>
       <path id="LiberationSans-65" d="M 863 1572 
Q 863 991 1103 675 
Q 1344 359 1806 359 
Q 2172 359 2392 506 
Q 2613 653 2691 878 
L 3184 738 
Q 2881 -63 1806 -63 
Q 1056 -63 664 384 
Q 272 831 272 1713 
Q 272 2550 664 2997 
Q 1056 3444 1784 3444 
Q 3275 3444 3275 1647 
L 3275 1572 
L 863 1572 
z
M 2694 2003 
Q 2647 2538 2422 2783 
Q 2197 3028 1775 3028 
Q 1366 3028 1127 2754 
Q 888 2481 869 2003 
L 2694 2003 
z
" transform="scale(0.015625)"/>
       <path id="LiberationSans-72" d="M 444 0 
L 444 2594 
Q 444 2950 425 3381 
L 956 3381 
Q 981 2806 981 2691 
L 994 2691 
Q 1128 3125 1303 3284 
Q 1478 3444 1797 3444 
Q 1909 3444 2025 3413 
L 2025 2897 
Q 1913 2928 1725 2928 
Q 1375 2928 1190 2626 
Q 1006 2325 1006 1763 
L 1006 0 
L 444 0 
z
" transform="scale(0.015625)"/>
       <path id="LiberationSans-76" d="M 1916 0 
L 1250 0 
L 22 3381 
L 622 3381 
L 1366 1181 
Q 1406 1056 1581 441 
L 1691 806 
L 1813 1175 
L 2581 3381 
L 3178 3381 
L 1916 0 
z
" transform="scale(0.015625)"/>
       <path id="LiberationSans-61" d="M 1294 -63 
Q 784 -63 528 206 
Q 272 475 272 944 
Q 272 1469 617 1750 
Q 963 2031 1731 2050 
L 2491 2063 
L 2491 2247 
Q 2491 2659 2316 2837 
Q 2141 3016 1766 3016 
Q 1388 3016 1216 2887 
Q 1044 2759 1009 2478 
L 422 2531 
Q 566 3444 1778 3444 
Q 2416 3444 2737 3151 
Q 3059 2859 3059 2306 
L 3059 850 
Q 3059 600 3125 473 
Q 3191 347 3375 347 
Q 3456 347 3559 369 
L 3559 19 
Q 3347 -31 3125 -31 
Q 2813 -31 2670 133 
Q 2528 297 2509 647 
L 2491 647 
Q 2275 259 1989 98 
Q 1703 -63 1294 -63 
z
M 1422 359 
Q 1731 359 1972 500 
Q 2213 641 2352 886 
Q 2491 1131 2491 1391 
L 2491 1669 
L 1875 1656 
Q 1478 1650 1273 1575 
Q 1069 1500 959 1344 
Q 850 1188 850 934 
Q 850 659 998 509 
Q 1147 359 1422 359 
z
" transform="scale(0.015625)"/>
       <path id="LiberationSans-74" d="M 1731 25 
Q 1453 -50 1163 -50 
Q 488 -50 488 716 
L 488 2972 
L 97 2972 
L 97 3381 
L 509 3381 
L 675 4138 
L 1050 4138 
L 1050 3381 
L 1675 3381 
L 1675 2972 
L 1050 2972 
L 1050 838 
Q 1050 594 1129 495 
Q 1209 397 1406 397 
Q 1519 397 1731 441 
L 1731 25 
z
" transform="scale(0.015625)"/>
       <path id="LiberationSans-69" d="M 428 4100 
L 428 4638 
L 991 4638 
L 991 4100 
L 428 4100 
z
M 428 0 
L 428 3381 
L 991 3381 
L 991 0 
L 428 0 
z
" transform="scale(0.015625)"/>
       <path id="LiberationSans-6e" d="M 2578 0 
L 2578 2144 
Q 2578 2478 2512 2662 
Q 2447 2847 2303 2928 
Q 2159 3009 1881 3009 
Q 1475 3009 1240 2731 
Q 1006 2453 1006 1959 
L 1006 0 
L 444 0 
L 444 2659 
Q 444 3250 425 3381 
L 956 3381 
Q 959 3366 962 3297 
Q 966 3228 970 3139 
Q 975 3050 981 2803 
L 991 2803 
Q 1184 3153 1439 3298 
Q 1694 3444 2072 3444 
Q 2628 3444 2886 3167 
Q 3144 2891 3144 2253 
L 3144 0 
L 2578 0 
z
" transform="scale(0.015625)"/>
      </defs>
      <use xlink:href="#LiberationSans-6f"/>
      <use xlink:href="#LiberationSans-62" x="55.615234"/>
      <use xlink:href="#LiberationSans-73" x="111.230469"/>
      <use xlink:href="#LiberationSans-65" x="161.230469"/>
      <use xlink:href="#LiberationSans-72" x="216.845703"/>
      <use xlink:href="#LiberationSans-76" x="250.146484"/>
      <use xlink:href="#LiberationSans-61" x="300.146484"/>
      <use xlink:href="#LiberationSans-74" x="355.761719"/>
      <use xlink:href="#LiberationSans-69" x="383.544922"/>
      <use xlink:href="#LiberationSans-6f" x="405.761719"/>
      <use xlink:href="#LiberationSans-6e" x="461.376953"/>
     </g>
    </g>
   </g>
   <g id="matplotlib.axis_2">
    <g id="ytick_1">
     <g id="line2d_9"/>
     <g id="text_10">
      <!-- 1.0 -->
      <g style="fill: #ffffff" transform="translate(87.82 453.54001)scale(0.12 -0.12)">
       <defs>
        <path id="LiberationSans-2e" d="M 584 0 
L 584 684 
L 1194 684 
L 1194 0 
L 584 0 
z
" transform="scale(0.015625)"/>
       </defs>
       <use xlink:href="#LiberationSans-31"/>
       <use xlink:href="#LiberationSans-2e" x="55.615234"/>
       <use xlink:href="#LiberationSans-30" x="83.398438"/>
      </g>
     </g>
    </g>
    <g id="ytick_2">
     <g id="line2d_10"/>
     <g id="text_11">
      <!-- 1.2 -->
      <g style="fill: #ffffff" transform="translate(87.82 396.748579)scale(0.12 -0.12)">
       <use xlink:href="#LiberationSans-31"/>
       <use xlink:href="#LiberationSans-2e" x="55.615234"/>
       <use xlink:href="#LiberationSans-32" x="83.398438"/>
      </g>
     </g>
    </g>
    <g id="ytick_3">
     <g id="line2d_11"/>
     <g id="text_12">
      <!-- 1.4 -->
      <g style="fill: #ffffff" transform="translate(87.82 339.957148)scale(0.12 -0.12)">
       <use xlink:href="#LiberationSans-31"/>
       <use xlink:href="#LiberationSans-2e" x="55.615234"/>
       <use xlink:href="#LiberationSans-34" x="83.398438"/>
      </g>
     </g>
    </g>
    <g id="ytick_4">
     <g id="line2d_12"/>
     <g id="text_13">
      <!-- 1.6 -->
      <g style="fill: #ffffff" transform="translate(87.82 283.165717)scale(0.12 -0.12)">
       <use xlink:href="#LiberationSans-31"/>
       <use xlink:href="#LiberationSans-2e" x="55.615234"/>
       <use xlink:href="#LiberationSans-36" x="83.398438"/>
      </g>
     </g>
    </g>
    <g id="ytick_5">
     <g id="line2d_13"/>
     <g id="text_14">
      <!-- 1.8 -->
      <g style="fill: #ffffff" transform="translate(87.82 226.374286)scale(0.12 -0.12)">
       <use xlink:href="#LiberationSans-31"/>
       <use xlink:href="#LiberationSans-2e" x="55.615234"/>
       <use xlink:href="#LiberationSans-38" x="83.398438"/>
      </g>
     </g>
    </g>
    <g id="ytick_6">
     <g id="line2d_14"/>
     <g id="text_15">
      <!-- 2.0 -->
      <g style="fill: #ffffff" transform="translate(87.82 169.582856)scale(0.12 -0.12)">
       <use xlink:href="#LiberationSans-32"/>
       <use xlink:href="#LiberationSans-2e" x="55.615234"/>
       <use xlink:href="#LiberationSans-30" x="83.398438"/>
      </g>
     </g>
    </g>
    <g id="ytick_7">
     <g id="line2d_15"/>
     <g id="text_16">
      <!-- 2.2 -->
      <g style="fill: #ffffff" transform="translate(87.82 112.791425)scale(0.12 -0.12)">
       <use xlink:href="#LiberationSans-32"/>
       <use xlink:href="#LiberationSans-2e" x="55.615234"/>
       <use xlink:href="#LiberationSans-32" x="83.398438"/>
      </g>
     </g>
    </g>
    <g id="text_17">
     <!-- queries per second ratio -->
     <g style="fill: #ffffff" transform="translate(81.33 350.925938)rotate(-90)scale(0.12 -0.12)">
      <defs>
       <path id="LiberationSans-71" d="M 1513 -63 
Q 869 -63 569 371 
Q 269 806 269 1675 
Q 269 3444 1513 3444 
Q 1897 3444 2147 3308 
Q 2397 3172 2566 2856 
L 2572 2856 
Q 2572 2950 2584 3179 
Q 2597 3409 2609 3425 
L 3150 3425 
Q 3128 3241 3128 2503 
L 3128 -1328 
L 2566 -1328 
L 2566 44 
L 2578 556 
L 2572 556 
Q 2403 222 2156 79 
Q 1909 -63 1513 -63 
z
M 2566 1731 
Q 2566 2391 2350 2709 
Q 2134 3028 1663 3028 
Q 1234 3028 1046 2709 
Q 859 2391 859 1694 
Q 859 984 1048 678 
Q 1238 372 1656 372 
Q 2134 372 2350 712 
Q 2566 1053 2566 1731 
z
" transform="scale(0.015625)"/>
       <path id="LiberationSans-75" d="M 981 3381 
L 981 1238 
Q 981 903 1047 718 
Q 1113 534 1256 453 
Q 1400 372 1678 372 
Q 2084 372 2318 650 
Q 2553 928 2553 1422 
L 2553 3381 
L 3116 3381 
L 3116 722 
Q 3116 131 3134 0 
L 2603 0 
Q 2600 16 2597 84 
Q 2594 153 2589 242 
Q 2584 331 2578 578 
L 2569 578 
Q 2375 228 2120 82 
Q 1866 -63 1488 -63 
Q 931 -63 673 214 
Q 416 491 416 1128 
L 416 3381 
L 981 3381 
z
" transform="scale(0.015625)"/>
       <path id="LiberationSans-20" transform="scale(0.015625)"/>
       <path id="LiberationSans-70" d="M 3291 1706 
Q 3291 -63 2047 -63 
Q 1266 -63 997 525 
L 981 525 
Q 994 500 994 -6 
L 994 -1328 
L 431 -1328 
L 431 2691 
Q 431 3213 413 3381 
L 956 3381 
Q 959 3369 965 3292 
Q 972 3216 980 3056 
Q 988 2897 988 2838 
L 1000 2838 
Q 1150 3150 1397 3295 
Q 1644 3441 2047 3441 
Q 2672 3441 2981 3022 
Q 3291 2603 3291 1706 
z
M 2700 1694 
Q 2700 2400 2509 2703 
Q 2319 3006 1903 3006 
Q 1569 3006 1380 2865 
Q 1191 2725 1092 2426 
Q 994 2128 994 1650 
Q 994 984 1206 668 
Q 1419 353 1897 353 
Q 2316 353 2508 661 
Q 2700 969 2700 1694 
z
" transform="scale(0.015625)"/>
       <path id="LiberationSans-63" d="M 859 1706 
Q 859 1031 1071 706 
Q 1284 381 1713 381 
Q 2013 381 2214 543 
Q 2416 706 2463 1044 
L 3031 1006 
Q 2966 519 2616 228 
Q 2266 -63 1728 -63 
Q 1019 -63 645 385 
Q 272 834 272 1694 
Q 272 2547 647 2995 
Q 1022 3444 1722 3444 
Q 2241 3444 2583 3175 
Q 2925 2906 3013 2434 
L 2434 2391 
Q 2391 2672 2212 2837 
Q 2034 3003 1706 3003 
Q 1259 3003 1059 2706 
Q 859 2409 859 1706 
z
" transform="scale(0.015625)"/>
       <path id="LiberationSans-64" d="M 2566 544 
Q 2409 219 2151 78 
Q 1894 -63 1513 -63 
Q 872 -63 570 368 
Q 269 800 269 1675 
Q 269 3444 1513 3444 
Q 1897 3444 2153 3303 
Q 2409 3163 2566 2856 
L 2572 2856 
L 2566 3234 
L 2566 4638 
L 3128 4638 
L 3128 697 
Q 3128 169 3147 0 
L 2609 0 
Q 2600 50 2589 231 
Q 2578 413 2578 544 
L 2566 544 
z
M 859 1694 
Q 859 984 1046 678 
Q 1234 372 1656 372 
Q 2134 372 2350 703 
Q 2566 1034 2566 1731 
Q 2566 2403 2350 2715 
Q 2134 3028 1663 3028 
Q 1238 3028 1048 2714 
Q 859 2400 859 1694 
z
" transform="scale(0.015625)"/>
      </defs>
      <use xlink:href="#LiberationSans-71"/>
      <use xlink:href="#LiberationSans-75" x="55.615234"/>
      <use xlink:href="#LiberationSans-65" x="111.230469"/>
      <use xlink:href="#LiberationSans-72" x="166.845703"/>
      <use xlink:href="#LiberationSans-69" x="200.146484"/>
      <use xlink:href="#LiberationSans-65" x="222.363281"/>
      <use xlink:href="#LiberationSans-73" x="277.978516"/>
      <use xlink:href="#LiberationSans-20" x="327.978516"/>
      <use xlink:href="#LiberationSans-70" x="355.761719"/>
      <use xlink:href="#LiberationSans-65" x="411.376953"/>
      <use xlink:href="#LiberationSans-72" x="466.992188"/>
      <use xlink:href="#LiberationSans-20" x="500.292969"/>
      <use xlink:href="#LiberationSans-73" x="528.076172"/>
      <use xlink:href="#LiberationSans-65" x="578.076172"/>
      <use xlink:href="#LiberationSans-63" x="633.691406"/>
      <use xlink:href="#LiberationSans-6f" x="683.691406"/>
      <use xlink:href="#LiberationSans-6e" x="739.306641"/>
      <use xlink:href="#LiberationSans-64" x="794.921875"/>
      <use xlink:href="#LiberationSans-20" x="850.537109"/>
      <use xlink:href="#LiberationSans-72" x="878.320312"/>
      <use xlink:href="#LiberationSans-61" x="911.621094"/>
      <use xlink:href="#LiberationSans-74" x="967.236328"/>
      <use xlink:href="#LiberationSans-69" x="995.019531"/>
      <use xlink:href="#LiberationSans-6f" x="1017.236328"/>
     </g>
    </g>
   </g>
   <g id="PolyCollection_1">
    <defs>
     <path id="m8e901432eb" d="M 138.436364 -316.044119 
L 138.436364 -195.956487 
L 142.521782 -195.956487 
L 146.6072 -195.956487 
L 150.692617 -195.956487 
L 154.778035 -195.956487 
L 158.863453 -195.956487 
L 162.948871 -195.956487 
L 167.034289 -195.956487 
L 171.119707 -195.956487 
L 175.205125 -195.956487 
L 179.290543 -195.956487 
L 183.375961 -195.956487 
L 187.461379 -195.956487 
L 191.546797 -195.956487 
L 195.632215 -195.956487 
L 199.717633 -195.956487 
L 203.803051 -195.956487 
L 207.888469 -195.956487 
L 211.973887 -195.956487 
L 216.059304 -195.956487 
L 220.144722 -195.956487 
L 224.23014 -195.956487 
L 228.315558 -195.956487 
L 232.400976 -195.956487 
L 236.486394 -195.956487 
L 240.571812 -195.956487 
L 244.65723 -195.956487 
L 248.742648 -195.956487 
L 252.828066 -195.956487 
L 256.913484 -195.956487 
L 260.998902 -195.956487 
L 265.08432 -195.956487 
L 269.169738 -195.956487 
L 273.255156 -195.956487 
L 277.340574 -195.956487 
L 281.425991 -195.956487 
L 285.511409 -195.956487 
L 289.596827 -195.956487 
L 293.682245 -195.956487 
L 297.767663 -195.956487 
L 301.853081 -195.956487 
L 305.938499 -195.956487 
L 310.023917 -195.956487 
L 314.109335 -195.956487 
L 318.194753 -195.956487 
L 322.280171 -195.956487 
L 326.365589 -195.956487 
L 330.451007 -195.956487 
L 334.536425 -195.956487 
L 338.621843 -195.956487 
L 342.707261 -195.956487 
L 346.792678 -195.956487 
L 350.878096 -195.956487 
L 354.963514 -195.956487 
L 359.048932 -195.956487 
L 363.13435 -195.956487 
L 367.219768 -195.956487 
L 371.305186 -195.956487 
L 375.390604 -195.956487 
L 379.476022 -195.956487 
L 383.56144 -195.956487 
L 387.646858 -195.956487 
L 391.732276 -195.956487 
L 395.817694 -195.956487 
L 399.903112 -195.956487 
L 403.98853 -195.956487 
L 408.073948 -195.956487 
L 412.159365 -195.956487 
L 416.244783 -195.956487 
L 420.330201 -195.956487 
L 424.415619 -195.956487 
L 428.501037 -195.956487 
L 432.586455 -195.956487 
L 436.671873 -195.956487 
L 440.757291 -195.956487 
L 444.842709 -195.956487 
L 448.928127 -195.956487 
L 453.013545 -195.956487 
L 457.098963 -195.956487 
L 461.184381 -195.956487 
L 465.269799 -195.956487 
L 469.355217 -195.956487 
L 473.440635 -195.956487 
L 477.526052 -195.956487 
L 481.61147 -195.956487 
L 485.696888 -195.956487 
L 489.782306 -195.956487 
L 493.867724 -195.956487 
L 497.953142 -195.956487 
L 502.03856 -195.956487 
L 506.123978 -195.956487 
L 510.209396 -195.956487 
L 514.294814 -195.956487 
L 518.380232 -195.956487 
L 522.46565 -195.956487 
L 526.551068 -195.956487 
L 530.636486 -195.956487 
L 534.721904 -195.956487 
L 538.807322 -195.956487 
L 542.892739 -195.956487 
L 546.978157 -195.956487 
L 551.063575 -195.956487 
L 555.148993 -195.956487 
L 559.234411 -195.956487 
L 563.319829 -195.956487 
L 567.405247 -195.956487 
L 571.490665 -195.956487 
L 575.576083 -195.956487 
L 579.661501 -195.956487 
L 583.746919 -195.956487 
L 587.832337 -195.956487 
L 591.917755 -195.956487 
L 596.003173 -195.956487 
L 600.088591 -195.956487 
L 604.174009 -195.956487 
L 608.259426 -195.956487 
L 612.344844 -195.956487 
L 616.430262 -195.956487 
L 620.51568 -195.956487 
L 624.601098 -195.956487 
L 628.686516 -195.956487 
L 632.771934 -195.956487 
L 636.857352 -195.956487 
L 640.94277 -195.956487 
L 645.028188 -195.956487 
L 649.113606 -195.956487 
L 653.199024 -195.956487 
L 657.284442 -195.956487 
L 661.36986 -195.956487 
L 665.455278 -195.956487 
L 669.540696 -195.956487 
L 673.626113 -195.956487 
L 677.711531 -195.956487 
L 681.796949 -195.956487 
L 685.882367 -195.956487 
L 689.967785 -195.956487 
L 694.053203 -195.956487 
L 698.138621 -195.956487 
L 702.224039 -195.956487 
L 706.309457 -195.956487 
L 710.394875 -195.956487 
L 714.480293 -195.956487 
L 718.565711 -195.956487 
L 722.651129 -195.956487 
L 726.736547 -195.956487 
L 730.821965 -195.956487 
L 734.907383 -195.956487 
L 738.9928 -195.956487 
L 743.078218 -195.956487 
L 747.163636 -195.956487 
L 747.163636 -316.044119 
L 747.163636 -316.044119 
L 743.078218 -316.044119 
L 738.9928 -316.044119 
L 734.907383 -316.044119 
L 730.821965 -316.044119 
L 726.736547 -316.044119 
L 722.651129 -316.044119 
L 718.565711 -316.044119 
L 714.480293 -316.044119 
L 710.394875 -316.044119 
L 706.309457 -316.044119 
L 702.224039 -316.044119 
L 698.138621 -316.044119 
L 694.053203 -316.044119 
L 689.967785 -316.044119 
L 685.882367 -316.044119 
L 681.796949 -316.044119 
L 677.711531 -316.044119 
L 673.626113 -316.044119 
L 669.540696 -316.044119 
L 665.455278 -316.044119 
L 661.36986 -316.044119 
L 657.284442 -316.044119 
L 653.199024 -316.044119 
L 649.113606 -316.044119 
L 645.028188 -316.044119 
L 640.94277 -316.044119 
L 636.857352 -316.044119 
L 632.771934 -316.044119 
L 628.686516 -316.044119 
L 624.601098 -316.044119 
L 620.51568 -316.044119 
L 616.430262 -316.044119 
L 612.344844 -316.044119 
L 608.259426 -316.044119 
L 604.174009 -316.044119 
L 600.088591 -316.044119 
L 596.003173 -316.044119 
L 591.917755 -316.044119 
L 587.832337 -316.044119 
L 583.746919 -316.044119 
L 579.661501 -316.044119 
L 575.576083 -316.044119 
L 571.490665 -316.044119 
L 567.405247 -316.044119 
L 563.319829 -316.044119 
L 559.234411 -316.044119 
L 555.148993 -316.044119 
L 551.063575 -316.044119 
L 546.978157 -316.044119 
L 542.892739 -316.044119 
L 538.807322 -316.044119 
L 534.721904 -316.044119 
L 530.636486 -316.044119 
L 526.551068 -316.044119 
L 522.46565 -316.044119 
L 518.380232 -316.044119 
L 514.294814 -316.044119 
L 510.209396 -316.044119 
L 506.123978 -316.044119 
L 502.03856 -316.044119 
L 497.953142 -316.044119 
L 493.867724 -316.044119 
L 489.782306 -316.044119 
L 485.696888 -316.044119 
L 481.61147 -316.044119 
L 477.526052 -316.044119 
L 473.440635 -316.044119 
L 469.355217 -316.044119 
L 465.269799 -316.044119 
L 461.184381 -316.044119 
L 457.098963 -316.044119 
L 453.013545 -316.044119 
L 448.928127 -316.044119 
L 444.842709 -316.044119 
L 440.757291 -316.044119 
L 436.671873 -316.044119 
L 432.586455 -316.044119 
L 428.501037 -316.044119 
L 424.415619 -316.044119 
L 420.330201 -316.044119 
L 416.244783 -316.044119 
L 412.159365 -316.044119 
L 408.073948 -316.044119 
L 403.98853 -316.044119 
L 399.903112 -316.044119 
L 395.817694 -316.044119 
L 391.732276 -316.044119 
L 387.646858 -316.044119 
L 383.56144 -316.044119 
L 379.476022 -316.044119 
L 375.390604 -316.044119 
L 371.305186 -316.044119 
L 367.219768 -316.044119 
L 363.13435 -316.044119 
L 359.048932 -316.044119 
L 354.963514 -316.044119 
L 350.878096 -316.044119 
L 346.792678 -316.044119 
L 342.707261 -316.044119 
L 338.621843 -316.044119 
L 334.536425 -316.044119 
L 330.451007 -316.044119 
L 326.365589 -316.044119 
L 322.280171 -316.044119 
L 318.194753 -316.044119 
L 314.109335 -316.044119 
L 310.023917 -316.044119 
L 305.938499 -316.044119 
L 301.853081 -316.044119 
L 297.767663 -316.044119 
L 293.682245 -316.044119 
L 289.596827 -316.044119 
L 285.511409 -316.044119 
L 281.425991 -316.044119 
L 277.340574 -316.044119 
L 273.255156 -316.044119 
L 269.169738 -316.044119 
L 265.08432 -316.044119 
L 260.998902 -316.044119 
L 256.913484 -316.044119 
L 252.828066 -316.044119 
L 248.742648 -316.044119 
L 244.65723 -316.044119 
L 240.571812 -316.044119 
L 236.486394 -316.044119 
L 232.400976 -316.044119 
L 228.315558 -316.044119 
L 224.23014 -316.044119 
L 220.144722 -316.044119 
L 216.059304 -316.044119 
L 211.973887 -316.044119 
L 207.888469 -316.044119 
L 203.803051 -316.044119 
L 199.717633 -316.044119 
L 195.632215 -316.044119 
L 191.546797 -316.044119 
L 187.461379 -316.044119 
L 183.375961 -316.044119 
L 179.290543 -316.044119 
L 175.205125 -316.044119 
L 171.119707 -316.044119 
L 167.034289 -316.044119 
L 162.948871 -316.044119 
L 158.863453 -316.044119 
L 154.778035 -316.044119 
L 150.692617 -316.044119 
L 146.6072 -316.044119 
L 142.521782 -316.044119 
L 138.436364 -316.044119 
z
" style="stroke: #ffffff; stroke-opacity: 0.2"/>
    </defs>
    <g clip-path="url(#p4d34aad11d)">
     <use xlink:href="#m8e901432eb" x="0" y="576" style="fill: #ffffff; fill-opacity: 0.2; stroke: #ffffff; stroke-opacity: 0.2"/>
    </g>
   </g>
   <g id="line2d_16">
    <path d="M 138.436364 355.399439 
L 142.521782 327.648557 
L 146.6072 328.167217 
L 150.692617 297.714914 
L 154.778035 317.506265 
L 158.863453 330.614682 
L 162.948871 294.387873 
L 167.034289 349.180247 
L 171.119707 329.132895 
L 175.205125 318.649348 
L 179.290543 324.775297 
L 183.375961 329.129667 
L 187.461379 329.126921 
L 191.546797 328.62675 
L 199.717633 326.332535 
L 203.803051 324.145477 
L 207.888469 335.643416 
L 211.973887 328.97027 
L 216.059304 328.16765 
L 220.144722 325.222566 
L 224.23014 318.778464 
L 228.315558 327.934181 
L 232.400976 331.29797 
L 236.486394 301.714007 
L 240.571812 332.011746 
L 244.65723 327.776649 
L 248.742648 329.931164 
L 252.828066 328.457628 
L 256.913484 295.572968 
L 260.998902 329.017567 
L 265.08432 328.082974 
L 269.169738 330.170448 
L 273.255156 330.600531 
L 277.340574 320.125995 
L 281.425991 326.108169 
L 285.511409 296.219342 
L 289.596827 328.951199 
L 293.682245 331.721582 
L 297.767663 327.071195 
L 301.853081 329.126865 
L 305.938499 269.736849 
L 310.023917 332.608763 
L 314.109335 327.689365 
L 318.194753 328.349953 
L 322.280171 331.269011 
L 326.365589 321.217978 
L 330.451007 329.524611 
L 338.621843 324.968384 
L 342.707261 329.199823 
L 346.792678 330.226384 
L 350.878096 315.99985 
L 354.963514 328.09507 
L 359.048932 328.086041 
L 363.13435 332.423492 
L 367.219768 326.399203 
L 371.305186 328.948944 
L 375.390604 355.55544 
L 379.476022 329.566331 
L 383.56144 327.066227 
L 387.646858 326.952417 
L 391.732276 260.880373 
L 395.817694 395.000882 
L 399.903112 278.764039 
L 403.98853 255.340137 
L 408.073948 369.588643 
L 412.159365 401.369498 
L 416.244783 261.545796 
L 420.330201 242.541025 
L 424.415619 385.364352 
L 428.501037 260.027212 
L 432.586455 256.63289 
L 436.671873 400.530715 
L 440.757291 260.622115 
L 444.842709 259.918427 
L 448.928127 410.029107 
L 453.013545 275.74834 
L 457.098963 275.70524 
L 461.184381 399.241258 
L 465.269799 259.207834 
L 469.355217 397.381972 
L 473.440635 399.927353 
L 477.526052 259.459212 
L 481.61147 396.74719 
L 485.696888 263.562524 
L 489.782306 296.296956 
L 493.867724 262.388452 
L 497.953142 399.307299 
L 502.03856 393.077531 
L 506.123978 263.395683 
L 510.209396 396.279602 
L 514.294814 258.231922 
L 518.380232 259.109311 
L 522.46565 397.963581 
L 526.551068 259.802931 
L 530.636486 269.234639 
L 534.721904 270.210901 
L 538.807322 260.573117 
L 542.892739 384.998742 
L 546.978157 399.197082 
L 551.063575 254.613488 
L 555.148993 264.520707 
L 559.234411 389.4691 
L 563.319829 398.454106 
L 567.405247 259.278017 
L 571.490665 398.158329 
L 575.576083 388.068973 
L 583.746919 140.160595 
L 587.832337 362.119555 
L 591.917755 398.061702 
L 596.003173 256.577735 
L 600.088591 396.865293 
L 604.174009 382.512161 
L 608.259426 259.876472 
L 612.344844 411.100132 
L 616.430262 398.682038 
L 620.51568 262.803298 
L 624.601098 369.926243 
L 628.686516 396.910735 
L 632.771934 397.279688 
L 636.857352 247.548397 
L 640.94277 399.138193 
L 645.028188 246.457348 
L 649.113606 254.979574 
L 653.199024 399.273186 
L 657.284442 88.887273 
L 661.36986 162.127618 
L 665.455278 260.373124 
L 669.540696 397.820193 
L 673.626113 243.159538 
L 677.711531 389.517664 
L 681.796949 243.084761 
L 685.882367 389.653409 
L 689.967785 262.195003 
L 694.053203 219.818916 
L 698.138621 260.650904 
L 702.224039 261.858386 
L 706.309457 484.232727 
L 710.394875 276.974337 
L 714.480293 261.767985 
L 718.565711 258.379712 
L 722.651129 277.512625 
L 726.736547 398.99476 
L 730.821965 386.015482 
L 734.907383 243.350949 
L 738.9928 397.080858 
L 743.078218 418.214533 
L 747.163636 249.397846 
L 747.163636 249.397846 
" clip-path="url(#p4d34aad11d)" style="fill: none"/>
    <defs>
     <path id="md923807b4c" d="M 0 3 
C 0.795609 3 1.55874 2.683901 2.12132 2.12132 
C 2.683901 1.55874 3 0.795609 3 0 
C 3 -0.795609 2.683901 -1.55874 2.12132 -2.12132 
C 1.55874 -2.683901 0.795609 -3 0 -3 
C -0.795609 -3 -1.55874 -2.683901 -2.12132 -2.12132 
C -2.683901 -1.55874 -3 -0.795609 -3 0 
C -3 0.795609 -2.683901 1.55874 -2.12132 2.12132 
C -1.55874 2.683901 -0.795609 3 0 3 
z
" style="stroke: #8dd3c7"/>
    </defs>
    <g clip-path="url(#p4d34aad11d)">
     <use xlink:href="#md923807b4c" x="138.436364" y="355.399439" style="fill: #8dd3c7; stroke: #8dd3c7"/>
     <use xlink:href="#md923807b4c" x="142.521782" y="327.648557" style="fill: #8dd3c7; stroke: #8dd3c7"/>
     <use xlink:href="#md923807b4c" x="146.6072" y="328.167217" style="fill: #8dd3c7; stroke: #8dd3c7"/>
     <use xlink:href="#md923807b4c" x="150.692617" y="297.714914" style="fill: #8dd3c7; stroke: #8dd3c7"/>
     <use xlink:href="#md923807b4c" x="154.778035" y="317.506265" style="fill: #8dd3c7; stroke: #8dd3c7"/>
     <use xlink:href="#md923807b4c" x="158.863453" y="330.614682" style="fill: #8dd3c7; stroke: #8dd3c7"/>
     <use xlink:href="#md923807b4c" x="162.948871" y="294.387873" style="fill: #8dd3c7; stroke: #8dd3c7"/>
     <use xlink:href="#md923807b4c" x="167.034289" y="349.180247" style="fill: #8dd3c7; stroke: #8dd3c7"/>
     <use xlink:href="#md923807b4c" x="171.119707" y="329.132895" style="fill: #8dd3c7; stroke: #8dd3c7"/>
     <use xlink:href="#md923807b4c" x="175.205125" y="318.649348" style="fill: #8dd3c7; stroke: #8dd3c7"/>
     <use xlink:href="#md923807b4c" x="179.290543" y="324.775297" style="fill: #8dd3c7; stroke: #8dd3c7"/>
     <use xlink:href="#md923807b4c" x="183.375961" y="329.129667" style="fill: #8dd3c7; stroke: #8dd3c7"/>
     <use xlink:href="#md923807b4c" x="187.461379" y="329.126921" style="fill: #8dd3c7; stroke: #8dd3c7"/>
     <use xlink:href="#md923807b4c" x="191.546797" y="328.62675" style="fill: #8dd3c7; stroke: #8dd3c7"/>
     <use xlink:href="#md923807b4c" x="195.632215" y="327.451045" style="fill: #8dd3c7; stroke: #8dd3c7"/>
     <use xlink:href="#md923807b4c" x="199.717633" y="326.332535" style="fill: #8dd3c7; stroke: #8dd3c7"/>
     <use xlink:href="#md923807b4c" x="203.803051" y="324.145477" style="fill: #8dd3c7; stroke: #8dd3c7"/>
     <use xlink:href="#md923807b4c" x="207.888469" y="335.643416" style="fill: #8dd3c7; stroke: #8dd3c7"/>
     <use xlink:href="#md923807b4c" x="211.973887" y="328.97027" style="fill: #8dd3c7; stroke: #8dd3c7"/>
     <use xlink:href="#md923807b4c" x="216.059304" y="328.16765" style="fill: #8dd3c7; stroke: #8dd3c7"/>
     <use xlink:href="#md923807b4c" x="220.144722" y="325.222566" style="fill: #8dd3c7; stroke: #8dd3c7"/>
     <use xlink:href="#md923807b4c" x="224.23014" y="318.778464" style="fill: #8dd3c7; stroke: #8dd3c7"/>
     <use xlink:href="#md923807b4c" x="228.315558" y="327.934181" style="fill: #8dd3c7; stroke: #8dd3c7"/>
     <use xlink:href="#md923807b4c" x="232.400976" y="331.29797" style="fill: #8dd3c7; stroke: #8dd3c7"/>
     <use xlink:href="#md923807b4c" x="236.486394" y="301.714007" style="fill: #8dd3c7; stroke: #8dd3c7"/>
     <use xlink:href="#md923807b4c" x="240.571812" y="332.011746" style="fill: #8dd3c7; stroke: #8dd3c7"/>
     <use xlink:href="#md923807b4c" x="244.65723" y="327.776649" style="fill: #8dd3c7; stroke: #8dd3c7"/>
     <use xlink:href="#md923807b4c" x="248.742648" y="329.931164" style="fill: #8dd3c7; stroke: #8dd3c7"/>
     <use xlink:href="#md923807b4c" x="252.828066" y="328.457628" style="fill: #8dd3c7; stroke: #8dd3c7"/>
     <use xlink:href="#md923807b4c" x="256.913484" y="295.572968" style="fill: #8dd3c7; stroke: #8dd3c7"/>
     <use xlink:href="#md923807b4c" x="260.998902" y="329.017567" style="fill: #8dd3c7; stroke: #8dd3c7"/>
     <use xlink:href="#md923807b4c" x="265.08432" y="328.082974" style="fill: #8dd3c7; stroke: #8dd3c7"/>
     <use xlink:href="#md923807b4c" x="269.169738" y="330.170448" style="fill: #8dd3c7; stroke: #8dd3c7"/>
     <use xlink:href="#md923807b4c" x="273.255156" y="330.600531" style="fill: #8dd3c7; stroke: #8dd3c7"/>
     <use xlink:href="#md923807b4c" x="277.340574" y="320.125995" style="fill: #8dd3c7; stroke: #8dd3c7"/>
     <use xlink:href="#md923807b4c" x="281.425991" y="326.108169" style="fill: #8dd3c7; stroke: #8dd3c7"/>
     <use xlink:href="#md923807b4c" x="285.511409" y="296.219342" style="fill: #8dd3c7; stroke: #8dd3c7"/>
     <use xlink:href="#md923807b4c" x="289.596827" y="328.951199" style="fill: #8dd3c7; stroke: #8dd3c7"/>
     <use xlink:href="#md923807b4c" x="293.682245" y="331.721582" style="fill: #8dd3c7; stroke: #8dd3c7"/>
     <use xlink:href="#md923807b4c" x="297.767663" y="327.071195" style="fill: #8dd3c7; stroke: #8dd3c7"/>
     <use xlink:href="#md923807b4c" x="301.853081" y="329.126865" style="fill: #8dd3c7; stroke: #8dd3c7"/>
     <use xlink:href="#md923807b4c" x="305.938499" y="269.736849" style="fill: #8dd3c7; stroke: #8dd3c7"/>
     <use xlink:href="#md923807b4c" x="310.023917" y="332.608763" style="fill: #8dd3c7; stroke: #8dd3c7"/>
     <use xlink:href="#md923807b4c" x="314.109335" y="327.689365" style="fill: #8dd3c7; stroke: #8dd3c7"/>
     <use xlink:href="#md923807b4c" x="318.194753" y="328.349953" style="fill: #8dd3c7; stroke: #8dd3c7"/>
     <use xlink:href="#md923807b4c" x="322.280171" y="331.269011" style="fill: #8dd3c7; stroke: #8dd3c7"/>
     <use xlink:href="#md923807b4c" x="326.365589" y="321.217978" style="fill: #8dd3c7; stroke: #8dd3c7"/>
     <use xlink:href="#md923807b4c" x="330.451007" y="329.524611" style="fill: #8dd3c7; stroke: #8dd3c7"/>
     <use xlink:href="#md923807b4c" x="334.536425" y="327.304957" style="fill: #8dd3c7; stroke: #8dd3c7"/>
     <use xlink:href="#md923807b4c" x="338.621843" y="324.968384" style="fill: #8dd3c7; stroke: #8dd3c7"/>
     <use xlink:href="#md923807b4c" x="342.707261" y="329.199823" style="fill: #8dd3c7; stroke: #8dd3c7"/>
     <use xlink:href="#md923807b4c" x="346.792678" y="330.226384" style="fill: #8dd3c7; stroke: #8dd3c7"/>
     <use xlink:href="#md923807b4c" x="350.878096" y="315.99985" style="fill: #8dd3c7; stroke: #8dd3c7"/>
     <use xlink:href="#md923807b4c" x="354.963514" y="328.09507" style="fill: #8dd3c7; stroke: #8dd3c7"/>
     <use xlink:href="#md923807b4c" x="359.048932" y="328.086041" style="fill: #8dd3c7; stroke: #8dd3c7"/>
     <use xlink:href="#md923807b4c" x="363.13435" y="332.423492" style="fill: #8dd3c7; stroke: #8dd3c7"/>
     <use xlink:href="#md923807b4c" x="367.219768" y="326.399203" style="fill: #8dd3c7; stroke: #8dd3c7"/>
     <use xlink:href="#md923807b4c" x="371.305186" y="328.948944" style="fill: #8dd3c7; stroke: #8dd3c7"/>
     <use xlink:href="#md923807b4c" x="375.390604" y="355.55544" style="fill: #8dd3c7; stroke: #8dd3c7"/>
     <use xlink:href="#md923807b4c" x="379.476022" y="329.566331" style="fill: #8dd3c7; stroke: #8dd3c7"/>
     <use xlink:href="#md923807b4c" x="383.56144" y="327.066227" style="fill: #8dd3c7; stroke: #8dd3c7"/>
     <use xlink:href="#md923807b4c" x="387.646858" y="326.952417" style="fill: #8dd3c7; stroke: #8dd3c7"/>
     <use xlink:href="#md923807b4c" x="391.732276" y="260.880373" style="fill: #8dd3c7; stroke: #8dd3c7"/>
     <use xlink:href="#md923807b4c" x="395.817694" y="395.000882" style="fill: #8dd3c7; stroke: #8dd3c7"/>
     <use xlink:href="#md923807b4c" x="399.903112" y="278.764039" style="fill: #8dd3c7; stroke: #8dd3c7"/>
     <use xlink:href="#md923807b4c" x="403.98853" y="255.340137" style="fill: #8dd3c7; stroke: #8dd3c7"/>
     <use xlink:href="#md923807b4c" x="408.073948" y="369.588643" style="fill: #8dd3c7; stroke: #8dd3c7"/>
     <use xlink:href="#md923807b4c" x="412.159365" y="401.369498" style="fill: #8dd3c7; stroke: #8dd3c7"/>
     <use xlink:href="#md923807b4c" x="416.244783" y="261.545796" style="fill: #8dd3c7; stroke: #8dd3c7"/>
     <use xlink:href="#md923807b4c" x="420.330201" y="242.541025" style="fill: #8dd3c7; stroke: #8dd3c7"/>
     <use xlink:href="#md923807b4c" x="424.415619" y="385.364352" style="fill: #8dd3c7; stroke: #8dd3c7"/>
     <use xlink:href="#md923807b4c" x="428.501037" y="260.027212" style="fill: #8dd3c7; stroke: #8dd3c7"/>
     <use xlink:href="#md923807b4c" x="432.586455" y="256.63289" style="fill: #8dd3c7; stroke: #8dd3c7"/>
     <use xlink:href="#md923807b4c" x="436.671873" y="400.530715" style="fill: #8dd3c7; stroke: #8dd3c7"/>
     <use xlink:href="#md923807b4c" x="440.757291" y="260.622115" style="fill: #8dd3c7; stroke: #8dd3c7"/>
     <use xlink:href="#md923807b4c" x="444.842709" y="259.918427" style="fill: #8dd3c7; stroke: #8dd3c7"/>
     <use xlink:href="#md923807b4c" x="448.928127" y="410.029107" style="fill: #8dd3c7; stroke: #8dd3c7"/>
     <use xlink:href="#md923807b4c" x="453.013545" y="275.74834" style="fill: #8dd3c7; stroke: #8dd3c7"/>
     <use xlink:href="#md923807b4c" x="457.098963" y="275.70524" style="fill: #8dd3c7; stroke: #8dd3c7"/>
     <use xlink:href="#md923807b4c" x="461.184381" y="399.241258" style="fill: #8dd3c7; stroke: #8dd3c7"/>
     <use xlink:href="#md923807b4c" x="465.269799" y="259.207834" style="fill: #8dd3c7; stroke: #8dd3c7"/>
     <use xlink:href="#md923807b4c" x="469.355217" y="397.381972" style="fill: #8dd3c7; stroke: #8dd3c7"/>
     <use xlink:href="#md923807b4c" x="473.440635" y="399.927353" style="fill: #8dd3c7; stroke: #8dd3c7"/>
     <use xlink:href="#md923807b4c" x="477.526052" y="259.459212" style="fill: #8dd3c7; stroke: #8dd3c7"/>
     <use xlink:href="#md923807b4c" x="481.61147" y="396.74719" style="fill: #8dd3c7; stroke: #8dd3c7"/>
     <use xlink:href="#md923807b4c" x="485.696888" y="263.562524" style="fill: #8dd3c7; stroke: #8dd3c7"/>
     <use xlink:href="#md923807b4c" x="489.782306" y="296.296956" style="fill: #8dd3c7; stroke: #8dd3c7"/>
     <use xlink:href="#md923807b4c" x="493.867724" y="262.388452" style="fill: #8dd3c7; stroke: #8dd3c7"/>
     <use xlink:href="#md923807b4c" x="497.953142" y="399.307299" style="fill: #8dd3c7; stroke: #8dd3c7"/>
     <use xlink:href="#md923807b4c" x="502.03856" y="393.077531" style="fill: #8dd3c7; stroke: #8dd3c7"/>
     <use xlink:href="#md923807b4c" x="506.123978" y="263.395683" style="fill: #8dd3c7; stroke: #8dd3c7"/>
     <use xlink:href="#md923807b4c" x="510.209396" y="396.279602" style="fill: #8dd3c7; stroke: #8dd3c7"/>
     <use xlink:href="#md923807b4c" x="514.294814" y="258.231922" style="fill: #8dd3c7; stroke: #8dd3c7"/>
     <use xlink:href="#md923807b4c" x="518.380232" y="259.109311" style="fill: #8dd3c7; stroke: #8dd3c7"/>
     <use xlink:href="#md923807b4c" x="522.46565" y="397.963581" style="fill: #8dd3c7; stroke: #8dd3c7"/>
     <use xlink:href="#md923807b4c" x="526.551068" y="259.802931" style="fill: #8dd3c7; stroke: #8dd3c7"/>
     <use xlink:href="#md923807b4c" x="530.636486" y="269.234639" style="fill: #8dd3c7; stroke: #8dd3c7"/>
     <use xlink:href="#md923807b4c" x="534.721904" y="270.210901" style="fill: #8dd3c7; stroke: #8dd3c7"/>
     <use xlink:href="#md923807b4c" x="538.807322" y="260.573117" style="fill: #8dd3c7; stroke: #8dd3c7"/>
     <use xlink:href="#md923807b4c" x="542.892739" y="384.998742" style="fill: #8dd3c7; stroke: #8dd3c7"/>
     <use xlink:href="#md923807b4c" x="546.978157" y="399.197082" style="fill: #8dd3c7; stroke: #8dd3c7"/>
     <use xlink:href="#md923807b4c" x="551.063575" y="254.613488" style="fill: #8dd3c7; stroke: #8dd3c7"/>
     <use xlink:href="#md923807b4c" x="555.148993" y="264.520707" style="fill: #8dd3c7; stroke: #8dd3c7"/>
     <use xlink:href="#md923807b4c" x="559.234411" y="389.4691" style="fill: #8dd3c7; stroke: #8dd3c7"/>
     <use xlink:href="#md923807b4c" x="563.319829" y="398.454106" style="fill: #8dd3c7; stroke: #8dd3c7"/>
     <use xlink:href="#md923807b4c" x="567.405247" y="259.278017" style="fill: #8dd3c7; stroke: #8dd3c7"/>
     <use xlink:href="#md923807b4c" x="571.490665" y="398.158329" style="fill: #8dd3c7; stroke: #8dd3c7"/>
     <use xlink:href="#md923807b4c" x="575.576083" y="388.068973" style="fill: #8dd3c7; stroke: #8dd3c7"/>
     <use xlink:href="#md923807b4c" x="579.661501" y="262.994247" style="fill: #8dd3c7; stroke: #8dd3c7"/>
     <use xlink:href="#md923807b4c" x="583.746919" y="140.160595" style="fill: #8dd3c7; stroke: #8dd3c7"/>
     <use xlink:href="#md923807b4c" x="587.832337" y="362.119555" style="fill: #8dd3c7; stroke: #8dd3c7"/>
     <use xlink:href="#md923807b4c" x="591.917755" y="398.061702" style="fill: #8dd3c7; stroke: #8dd3c7"/>
     <use xlink:href="#md923807b4c" x="596.003173" y="256.577735" style="fill: #8dd3c7; stroke: #8dd3c7"/>
     <use xlink:href="#md923807b4c" x="600.088591" y="396.865293" style="fill: #8dd3c7; stroke: #8dd3c7"/>
     <use xlink:href="#md923807b4c" x="604.174009" y="382.512161" style="fill: #8dd3c7; stroke: #8dd3c7"/>
     <use xlink:href="#md923807b4c" x="608.259426" y="259.876472" style="fill: #8dd3c7; stroke: #8dd3c7"/>
     <use xlink:href="#md923807b4c" x="612.344844" y="411.100132" style="fill: #8dd3c7; stroke: #8dd3c7"/>
     <use xlink:href="#md923807b4c" x="616.430262" y="398.682038" style="fill: #8dd3c7; stroke: #8dd3c7"/>
     <use xlink:href="#md923807b4c" x="620.51568" y="262.803298" style="fill: #8dd3c7; stroke: #8dd3c7"/>
     <use xlink:href="#md923807b4c" x="624.601098" y="369.926243" style="fill: #8dd3c7; stroke: #8dd3c7"/>
     <use xlink:href="#md923807b4c" x="628.686516" y="396.910735" style="fill: #8dd3c7; stroke: #8dd3c7"/>
     <use xlink:href="#md923807b4c" x="632.771934" y="397.279688" style="fill: #8dd3c7; stroke: #8dd3c7"/>
     <use xlink:href="#md923807b4c" x="636.857352" y="247.548397" style="fill: #8dd3c7; stroke: #8dd3c7"/>
     <use xlink:href="#md923807b4c" x="640.94277" y="399.138193" style="fill: #8dd3c7; stroke: #8dd3c7"/>
     <use xlink:href="#md923807b4c" x="645.028188" y="246.457348" style="fill: #8dd3c7; stroke: #8dd3c7"/>
     <use xlink:href="#md923807b4c" x="649.113606" y="254.979574" style="fill: #8dd3c7; stroke: #8dd3c7"/>
     <use xlink:href="#md923807b4c" x="653.199024" y="399.273186" style="fill: #8dd3c7; stroke: #8dd3c7"/>
     <use xlink:href="#md923807b4c" x="657.284442" y="88.887273" style="fill: #8dd3c7; stroke: #8dd3c7"/>
     <use xlink:href="#md923807b4c" x="661.36986" y="162.127618" style="fill: #8dd3c7; stroke: #8dd3c7"/>
     <use xlink:href="#md923807b4c" x="665.455278" y="260.373124" style="fill: #8dd3c7; stroke: #8dd3c7"/>
     <use xlink:href="#md923807b4c" x="669.540696" y="397.820193" style="fill: #8dd3c7; stroke: #8dd3c7"/>
     <use xlink:href="#md923807b4c" x="673.626113" y="243.159538" style="fill: #8dd3c7; stroke: #8dd3c7"/>
     <use xlink:href="#md923807b4c" x="677.711531" y="389.517664" style="fill: #8dd3c7; stroke: #8dd3c7"/>
     <use xlink:href="#md923807b4c" x="681.796949" y="243.084761" style="fill: #8dd3c7; stroke: #8dd3c7"/>
     <use xlink:href="#md923807b4c" x="685.882367" y="389.653409" style="fill: #8dd3c7; stroke: #8dd3c7"/>
     <use xlink:href="#md923807b4c" x="689.967785" y="262.195003" style="fill: #8dd3c7; stroke: #8dd3c7"/>
     <use xlink:href="#md923807b4c" x="694.053203" y="219.818916" style="fill: #8dd3c7; stroke: #8dd3c7"/>
     <use xlink:href="#md923807b4c" x="698.138621" y="260.650904" style="fill: #8dd3c7; stroke: #8dd3c7"/>
     <use xlink:href="#md923807b4c" x="702.224039" y="261.858386" style="fill: #8dd3c7; stroke: #8dd3c7"/>
     <use xlink:href="#md923807b4c" x="706.309457" y="484.232727" style="fill: #8dd3c7; stroke: #8dd3c7"/>
     <use xlink:href="#md923807b4c" x="710.394875" y="276.974337" style="fill: #8dd3c7; stroke: #8dd3c7"/>
     <use xlink:href="#md923807b4c" x="714.480293" y="261.767985" style="fill: #8dd3c7; stroke: #8dd3c7"/>
     <use xlink:href="#md923807b4c" x="718.565711" y="258.379712" style="fill: #8dd3c7; stroke: #8dd3c7"/>
     <use xlink:href="#md923807b4c" x="722.651129" y="277.512625" style="fill: #8dd3c7; stroke: #8dd3c7"/>
     <use xlink:href="#md923807b4c" x="726.736547" y="398.99476" style="fill: #8dd3c7; stroke: #8dd3c7"/>
     <use xlink:href="#md923807b4c" x="730.821965" y="386.015482" style="fill: #8dd3c7; stroke: #8dd3c7"/>
     <use xlink:href="#md923807b4c" x="734.907383" y="243.350949" style="fill: #8dd3c7; stroke: #8dd3c7"/>
     <use xlink:href="#md923807b4c" x="738.9928" y="397.080858" style="fill: #8dd3c7; stroke: #8dd3c7"/>
     <use xlink:href="#md923807b4c" x="743.078218" y="418.214533" style="fill: #8dd3c7; stroke: #8dd3c7"/>
     <use xlink:href="#md923807b4c" x="747.163636" y="249.397846" style="fill: #8dd3c7; stroke: #8dd3c7"/>
    </g>
   </g>
   <g id="line2d_17">
    <path d="M 138.436364 319.999697 
L 747.163636 319.999697 
L 747.163636 319.999697 
" clip-path="url(#p4d34aad11d)" style="fill: none; stroke: #feffb3; stroke-linecap: round"/>
   </g>
   <g id="patch_3">
    <path d="M 108 504 
L 108 69.12 
" style="fill: none; stroke: #ffffff; stroke-linejoin: miter; stroke-linecap: square"/>
   </g>
   <g id="patch_4">
    <path d="M 777.6 504 
L 777.6 69.12 
" style="fill: none; stroke: #ffffff; stroke-linejoin: miter; stroke-linecap: square"/>
   </g>
   <g id="patch_5">
    <path d="M 108 504 
L 777.6 504 
" style="fill: none; stroke: #ffffff; stroke-linejoin: miter; stroke-linecap: square"/>
   </g>
   <g id="patch_6">
    <path d="M 108 69.12 
L 777.6 69.12 
" style="fill: none; stroke: #ffffff; stroke-linejoin: miter; stroke-linecap: square"/>
   </g>
   <g id="text_18">
    <!-- minimum bounding rectangle QPS ratio -->
    <g style="fill: #ffffff" transform="translate(317.145375 63.12)scale(0.144 -0.144)">
     <defs>
      <path id="LiberationSans-6d" d="M 2400 0 
L 2400 2144 
Q 2400 2634 2265 2821 
Q 2131 3009 1781 3009 
Q 1422 3009 1212 2734 
Q 1003 2459 1003 1959 
L 1003 0 
L 444 0 
L 444 2659 
Q 444 3250 425 3381 
L 956 3381 
Q 959 3366 962 3297 
Q 966 3228 970 3139 
Q 975 3050 981 2803 
L 991 2803 
Q 1172 3163 1406 3303 
Q 1641 3444 1978 3444 
Q 2363 3444 2586 3291 
Q 2809 3138 2897 2803 
L 2906 2803 
Q 3081 3144 3329 3294 
Q 3578 3444 3931 3444 
Q 4444 3444 4676 3166 
Q 4909 2888 4909 2253 
L 4909 0 
L 4353 0 
L 4353 2144 
Q 4353 2634 4218 2821 
Q 4084 3009 3734 3009 
Q 3366 3009 3161 2736 
Q 2956 2463 2956 1959 
L 2956 0 
L 2400 0 
z
" transform="scale(0.015625)"/>
      <path id="LiberationSans-67" d="M 1713 -1328 
Q 1159 -1328 831 -1111 
Q 503 -894 409 -494 
L 975 -413 
Q 1031 -647 1223 -773 
Q 1416 -900 1728 -900 
Q 2569 -900 2569 84 
L 2569 628 
L 2563 628 
Q 2403 303 2125 139 
Q 1847 -25 1475 -25 
Q 853 -25 561 387 
Q 269 800 269 1684 
Q 269 2581 583 3007 
Q 897 3434 1538 3434 
Q 1897 3434 2161 3270 
Q 2425 3106 2569 2803 
L 2575 2803 
Q 2575 2897 2587 3128 
Q 2600 3359 2613 3381 
L 3147 3381 
Q 3128 3213 3128 2681 
L 3128 97 
Q 3128 -1328 1713 -1328 
z
M 2569 1691 
Q 2569 2103 2456 2401 
Q 2344 2700 2139 2858 
Q 1934 3016 1675 3016 
Q 1244 3016 1047 2703 
Q 850 2391 850 1691 
Q 850 997 1034 694 
Q 1219 391 1666 391 
Q 1931 391 2137 547 
Q 2344 703 2456 995 
Q 2569 1288 2569 1691 
z
" transform="scale(0.015625)"/>
      <path id="LiberationSans-6c" d="M 431 0 
L 431 4638 
L 994 4638 
L 994 0 
L 431 0 
z
" transform="scale(0.015625)"/>
      <path id="LiberationSans-51" d="M 4672 2222 
Q 4672 1291 4203 691 
Q 3734 91 2900 -19 
Q 3028 -413 3236 -588 
Q 3444 -763 3763 -763 
Q 3934 -763 4122 -722 
L 4122 -1141 
Q 3831 -1209 3566 -1209 
Q 3094 -1209 2789 -942 
Q 2484 -675 2291 -50 
Q 1672 -19 1223 264 
Q 775 547 539 1051 
Q 303 1556 303 2222 
Q 303 3278 881 3873 
Q 1459 4469 2491 4469 
Q 3163 4469 3656 4201 
Q 4150 3934 4411 3425 
Q 4672 2916 4672 2222 
z
M 4063 2222 
Q 4063 3044 3652 3512 
Q 3241 3981 2491 3981 
Q 1734 3981 1321 3518 
Q 909 3056 909 2222 
Q 909 1394 1326 908 
Q 1744 422 2484 422 
Q 3247 422 3655 892 
Q 4063 1363 4063 2222 
z
" transform="scale(0.015625)"/>
      <path id="LiberationSans-50" d="M 3931 3078 
Q 3931 2453 3523 2084 
Q 3116 1716 2416 1716 
L 1122 1716 
L 1122 0 
L 525 0 
L 525 4403 
L 2378 4403 
Q 3119 4403 3525 4056 
Q 3931 3709 3931 3078 
z
M 3331 3072 
Q 3331 3925 2306 3925 
L 1122 3925 
L 1122 2188 
L 2331 2188 
Q 3331 2188 3331 3072 
z
" transform="scale(0.015625)"/>
      <path id="LiberationSans-53" d="M 3975 1216 
Q 3975 606 3498 271 
Q 3022 -63 2156 -63 
Q 547 -63 291 1056 
L 869 1172 
Q 969 775 1294 589 
Q 1619 403 2178 403 
Q 2756 403 3070 601 
Q 3384 800 3384 1184 
Q 3384 1400 3286 1534 
Q 3188 1669 3009 1756 
Q 2831 1844 2584 1903 
Q 2338 1963 2038 2031 
Q 1516 2147 1245 2262 
Q 975 2378 819 2520 
Q 663 2663 580 2853 
Q 497 3044 497 3291 
Q 497 3856 930 4162 
Q 1363 4469 2169 4469 
Q 2919 4469 3316 4239 
Q 3713 4009 3872 3456 
L 3284 3353 
Q 3188 3703 2916 3861 
Q 2644 4019 2163 4019 
Q 1634 4019 1356 3844 
Q 1078 3669 1078 3322 
Q 1078 3119 1186 2986 
Q 1294 2853 1497 2761 
Q 1700 2669 2306 2534 
Q 2509 2488 2711 2439 
Q 2913 2391 3097 2323 
Q 3281 2256 3442 2165 
Q 3603 2075 3722 1944 
Q 3841 1813 3908 1634 
Q 3975 1456 3975 1216 
z
" transform="scale(0.015625)"/>
     </defs>
     <use xlink:href="#LiberationSans-6d"/>
     <use xlink:href="#LiberationSans-69" x="83.300781"/>
     <use xlink:href="#LiberationSans-6e" x="105.517578"/>
     <use xlink:href="#LiberationSans-69" x="161.132812"/>
     <use xlink:href="#LiberationSans-6d" x="183.349609"/>
     <use xlink:href="#LiberationSans-75" x="266.650391"/>
     <use xlink:href="#LiberationSans-6d" x="322.265625"/>
     <use xlink:href="#LiberationSans-20" x="405.566406"/>
     <use xlink:href="#LiberationSans-62" x="433.349609"/>
     <use xlink:href="#LiberationSans-6f" x="488.964844"/>
     <use xlink:href="#LiberationSans-75" x="544.580078"/>
     <use xlink:href="#LiberationSans-6e" x="600.195312"/>
     <use xlink:href="#LiberationSans-64" x="655.810547"/>
     <use xlink:href="#LiberationSans-69" x="711.425781"/>
     <use xlink:href="#LiberationSans-6e" x="733.642578"/>
     <use xlink:href="#LiberationSans-67" x="789.257812"/>
     <use xlink:href="#LiberationSans-20" x="844.873047"/>
     <use xlink:href="#LiberationSans-72" x="872.65625"/>
     <use xlink:href="#LiberationSans-65" x="905.957031"/>
     <use xlink:href="#LiberationSans-63" x="961.572266"/>
     <use xlink:href="#LiberationSans-74" x="1011.572266"/>
     <use xlink:href="#LiberationSans-61" x="1039.355469"/>
     <use xlink:href="#LiberationSans-6e" x="1094.970703"/>
     <use xlink:href="#LiberationSans-67" x="1150.585938"/>
     <use xlink:href="#LiberationSans-6c" x="1206.201172"/>
     <use xlink:href="#LiberationSans-65" x="1228.417969"/>
     <use xlink:href="#LiberationSans-20" x="1284.033203"/>
     <use xlink:href="#LiberationSans-51" x="1311.816406"/>
     <use xlink:href="#LiberationSans-50" x="1389.599609"/>
     <use xlink:href="#LiberationSans-53" x="1456.298828"/>
     <use xlink:href="#LiberationSans-20" x="1522.998047"/>
     <use xlink:href="#LiberationSans-72" x="1550.78125"/>
     <use xlink:href="#LiberationSans-61" x="1584.082031"/>
     <use xlink:href="#LiberationSans-74" x="1639.697266"/>
     <use xlink:href="#LiberationSans-69" x="1667.480469"/>
     <use xlink:href="#LiberationSans-6f" x="1689.697266"/>
    </g>
   </g>
   <g id="legend_1">
    <g id="line2d_18">
     <path d="M 117 81.866875 
L 127 81.866875 
L 137 81.866875 
" style="fill: none"/>
     <g>
      <use xlink:href="#md923807b4c" x="127" y="81.866875" style="fill: #8dd3c7; stroke: #8dd3c7"/>
     </g>
    </g>
    <g id="text_19">
     <!-- observed geo/geos QPS -->
     <g style="fill: #ffffff" transform="translate(145 85.366875)scale(0.1 -0.1)">
      <defs>
       <path id="LiberationSans-2f" d="M 0 -63 
L 1284 4638 
L 1778 4638 
L 506 -63 
L 0 -63 
z
" transform="scale(0.015625)"/>
      </defs>
      <use xlink:href="#LiberationSans-6f"/>
      <use xlink:href="#LiberationSans-62" x="55.615234"/>
      <use xlink:href="#LiberationSans-73" x="111.230469"/>
      <use xlink:href="#LiberationSans-65" x="161.230469"/>
      <use xlink:href="#LiberationSans-72" x="216.845703"/>
      <use xlink:href="#LiberationSans-76" x="250.146484"/>
      <use xlink:href="#LiberationSans-65" x="300.146484"/>
      <use xlink:href="#LiberationSans-64" x="355.761719"/>
      <use xlink:href="#LiberationSans-20" x="411.376953"/>
      <use xlink:href="#LiberationSans-67" x="439.160156"/>
      <use xlink:href="#LiberationSans-65" x="494.775391"/>
      <use xlink:href="#LiberationSans-6f" x="550.390625"/>
      <use xlink:href="#LiberationSans-2f" x="606.005859"/>
      <use xlink:href="#LiberationSans-67" x="633.789062"/>
      <use xlink:href="#LiberationSans-65" x="689.404297"/>
      <use xlink:href="#LiberationSans-6f" x="745.019531"/>
      <use xlink:href="#LiberationSans-73" x="800.634766"/>
      <use xlink:href="#LiberationSans-20" x="850.634766"/>
      <use xlink:href="#LiberationSans-51" x="878.417969"/>
      <use xlink:href="#LiberationSans-50" x="956.201172"/>
      <use xlink:href="#LiberationSans-53" x="1022.900391"/>
     </g>
    </g>
    <g id="line2d_19">
     <path d="M 117 96.18875 
L 127 96.18875 
L 137 96.18875 
" style="fill: none; stroke: #feffb3; stroke-linecap: round"/>
    </g>
    <g id="text_20">
     <!-- mean geo/geos QPS -->
     <g style="fill: #ffffff" transform="translate(145 99.68875)scale(0.1 -0.1)">
      <use xlink:href="#LiberationSans-6d"/>
      <use xlink:href="#LiberationSans-65" x="83.300781"/>
      <use xlink:href="#LiberationSans-61" x="138.916016"/>
      <use xlink:href="#LiberationSans-6e" x="194.53125"/>
      <use xlink:href="#LiberationSans-20" x="250.146484"/>
      <use xlink:href="#LiberationSans-67" x="277.929688"/>
      <use xlink:href="#LiberationSans-65" x="333.544922"/>
      <use xlink:href="#LiberationSans-6f" x="389.160156"/>
      <use xlink:href="#LiberationSans-2f" x="444.775391"/>
      <use xlink:href="#LiberationSans-67" x="472.558594"/>
      <use xlink:href="#LiberationSans-65" x="528.173828"/>
      <use xlink:href="#LiberationSans-6f" x="583.789062"/>
      <use xlink:href="#LiberationSans-73" x="639.404297"/>
      <use xlink:href="#LiberationSans-20" x="689.404297"/>
      <use xlink:href="#LiberationSans-51" x="717.1875"/>
      <use xlink:href="#LiberationSans-50" x="794.970703"/>
      <use xlink:href="#LiberationSans-53" x="861.669922"/>
     </g>
    </g>
   </g>
  </g>
 </g>
 <defs>
  <clipPath id="p4d34aad11d">
   <rect x="108" y="69.12" width="669.6" height="434.88"/>
  </clipPath>
 </defs>
</svg>
