<?xml version="1.0" standalone="no"?>
<!DOCTYPE svg PUBLIC "-//W3C//DTD SVG 1.1//EN" "http://www.w3.org/Graphics/SVG/1.1/DTD/svg11.dtd">
<svg version="1.1" width="1200" height="326" onload="init(evt)" viewBox="0 0 1200 326" xmlns="http://www.w3.org/2000/svg" xmlns:xlink="http://www.w3.org/1999/xlink">
<!-- Flame graph stack visualization. See https://github.com/brendangregg/FlameGraph for latest version, and http://www.brendangregg.com/flamegraphs.html for examples. -->
<!-- NOTES:  -->
<defs>
	<linearGradient id="background" y1="0" y2="1" x1="0" x2="0" >
		<stop stop-color="#eeeeee" offset="5%" />
		<stop stop-color="#eeeeb0" offset="95%" />
	</linearGradient>
</defs>
<style type="text/css">
	text { font-family:Verdana; font-size:12px; fill:rgb(0,0,0); }
	#search, #ignorecase { opacity:0.1; cursor:pointer; }
	#search:hover, #search.show, #ignorecase:hover, #ignorecase.show { opacity:1; }
	#subtitle { text-anchor:middle; font-color:rgb(160,160,160); }
	#title { text-anchor:middle; font-size:17px}
	#unzoom { cursor:pointer; }
	#frames > *:hover { stroke:black; stroke-width:0.5; cursor:pointer; }
	.hide { display:none; }
	.parent { opacity:0.5; }
</style>
<script type="text/ecmascript">
<![CDATA[
	"use strict";
	var details, searchbtn, unzoombtn, matchedtxt, svg, searching, currentSearchTerm, ignorecase, ignorecaseBtn;
	function init(evt) {
		details = document.getElementById("details").firstChild;
		searchbtn = document.getElementById("search");
		ignorecaseBtn = document.getElementById("ignorecase");
		unzoombtn = document.getElementById("unzoom");
		matchedtxt = document.getElementById("matched");
		svg = document.getElementsByTagName("svg")[0];
		searching = 0;
		currentSearchTerm = null;

		// use GET parameters to restore a flamegraphs state.
		var params = get_params();
		if (params.x && params.y)
			zoom(find_group(document.querySelector('[x="' + params.x + '"][y="' + params.y + '"]')));
                if (params.s) search(params.s);
	}

	// event listeners
	window.addEventListener("click", function(e) {
		var target = find_group(e.target);
		if (target) {
			if (target.nodeName == "a") {
				if (e.ctrlKey === false) return;
				e.preventDefault();
			}
			if (target.classList.contains("parent")) unzoom();
			zoom(target);
			if (!document.querySelector('.parent')) {
				clearzoom();
				return;
			}

			// set parameters for zoom state
			var el = target.querySelector("rect");
			if (el && el.attributes && el.attributes.y && el.attributes._orig_x) {
				var params = get_params()
				params.x = el.attributes._orig_x.value;
				params.y = el.attributes.y.value;
				history.replaceState(null, null, parse_params(params));
			}
		}
		else if (e.target.id == "unzoom") clearzoom();
		else if (e.target.id == "search") search_prompt();
		else if (e.target.id == "ignorecase") toggle_ignorecase();
	}, false)

	// mouse-over for info
	// show
	window.addEventListener("mouseover", function(e) {
		var target = find_group(e.target);
		if (target) details.nodeValue = "Function: " + g_to_text(target);
	}, false)

	// clear
	window.addEventListener("mouseout", function(e) {
		var target = find_group(e.target);
		if (target) details.nodeValue = ' ';
	}, false)

	// ctrl-F for search
	// ctrl-I to toggle case-sensitive search
	window.addEventListener("keydown",function (e) {
		if (e.keyCode === 114 || (e.ctrlKey && e.keyCode === 70)) {
			e.preventDefault();
			search_prompt();
		}
		else if (e.ctrlKey && e.keyCode === 73) {
			e.preventDefault();
			toggle_ignorecase();
		}
	}, false)

	// functions
	function get_params() {
		var params = {};
		var paramsarr = window.location.search.substr(1).split('&');
		for (var i = 0; i < paramsarr.length; ++i) {
			var tmp = paramsarr[i].split("=");
			if (!tmp[0] || !tmp[1]) continue;
			params[tmp[0]]  = decodeURIComponent(tmp[1]);
		}
		return params;
	}
	function parse_params(params) {
		var uri = "?";
		for (var key in params) {
			uri += key + '=' + encodeURIComponent(params[key]) + '&';
		}
		if (uri.slice(-1) == "&")
			uri = uri.substring(0, uri.length - 1);
		if (uri == '?')
			uri = window.location.href.split('?')[0];
		return uri;
	}
	function find_child(node, selector) {
		var children = node.querySelectorAll(selector);
		if (children.length) return children[0];
	}
	function find_group(node) {
		var parent = node.parentElement;
		if (!parent) return;
		if (parent.id == "frames") return node;
		return find_group(parent);
	}
	function orig_save(e, attr, val) {
		if (e.attributes["_orig_" + attr] != undefined) return;
		if (e.attributes[attr] == undefined) return;
		if (val == undefined) val = e.attributes[attr].value;
		e.setAttribute("_orig_" + attr, val);
	}
	function orig_load(e, attr) {
		if (e.attributes["_orig_"+attr] == undefined) return;
		e.attributes[attr].value = e.attributes["_orig_" + attr].value;
		e.removeAttribute("_orig_"+attr);
	}
	function g_to_text(e) {
		var text = find_child(e, "title").firstChild.nodeValue;
		return (text)
	}
	function g_to_func(e) {
		var func = g_to_text(e);
		// if there's any manipulation we want to do to the function
		// name before it's searched, do it here before returning.
		return (func);
	}
	function update_text(e) {
		var r = find_child(e, "rect");
		var t = find_child(e, "text");
		var w = parseFloat(r.attributes.width.value) -3;
		var txt = find_child(e, "title").textContent.replace(/\([^(]*\)$/,"");
		t.attributes.x.value = parseFloat(r.attributes.x.value) + 3;

		// Smaller than this size won't fit anything
		if (w < 2 * 12 * 0.59) {
			t.textContent = "";
			return;
		}

		t.textContent = txt;
		// Fit in full text width
		if (/^ *$/.test(txt) || t.getSubStringLength(0, txt.length) < w)
			return;

		for (var x = txt.length - 2; x > 0; x--) {
			if (t.getSubStringLength(0, x + 2) <= w) {
				t.textContent = txt.substring(0, x) + "..";
				return;
			}
		}
		t.textContent = "";
	}

	// zoom
	function zoom_reset(e) {
		if (e.attributes != undefined) {
			orig_load(e, "x");
			orig_load(e, "width");
		}
		if (e.childNodes == undefined) return;
		for (var i = 0, c = e.childNodes; i < c.length; i++) {
			zoom_reset(c[i]);
		}
	}
	function zoom_child(e, x, ratio) {
		if (e.attributes != undefined) {
			if (e.attributes.x != undefined) {
				orig_save(e, "x");
				e.attributes.x.value = (parseFloat(e.attributes.x.value) - x - 10) * ratio + 10;
				if (e.tagName == "text")
					e.attributes.x.value = find_child(e.parentNode, "rect[x]").attributes.x.value + 3;
			}
			if (e.attributes.width != undefined) {
				orig_save(e, "width");
				e.attributes.width.value = parseFloat(e.attributes.width.value) * ratio;
			}
		}

		if (e.childNodes == undefined) return;
		for (var i = 0, c = e.childNodes; i < c.length; i++) {
			zoom_child(c[i], x - 10, ratio);
		}
	}
	function zoom_parent(e) {
		if (e.attributes) {
			if (e.attributes.x != undefined) {
				orig_save(e, "x");
				e.attributes.x.value = 10;
			}
			if (e.attributes.width != undefined) {
				orig_save(e, "width");
				e.attributes.width.value = parseInt(svg.width.baseVal.value) - (10 * 2);
			}
		}
		if (e.childNodes == undefined) return;
		for (var i = 0, c = e.childNodes; i < c.length; i++) {
			zoom_parent(c[i]);
		}
	}
	function zoom(node) {
		var attr = find_child(node, "rect").attributes;
		var width = parseFloat(attr.width.value);
		var xmin = parseFloat(attr.x.value);
		var xmax = parseFloat(xmin + width);
		var ymin = parseFloat(attr.y.value);
		var ratio = (svg.width.baseVal.value - 2 * 10) / width;

		// XXX: Workaround for JavaScript float issues (fix me)
		var fudge = 0.0001;

		unzoombtn.classList.remove("hide");

		var el = document.getElementById("frames").children;
		for (var i = 0; i < el.length; i++) {
			var e = el[i];
			var a = find_child(e, "rect").attributes;
			var ex = parseFloat(a.x.value);
			var ew = parseFloat(a.width.value);
			var upstack;
			// Is it an ancestor
			if (0 == 0) {
				upstack = parseFloat(a.y.value) > ymin;
			} else {
				upstack = parseFloat(a.y.value) < ymin;
			}
			if (upstack) {
				// Direct ancestor
				if (ex <= xmin && (ex+ew+fudge) >= xmax) {
					e.classList.add("parent");
					zoom_parent(e);
					update_text(e);
				}
				// not in current path
				else
					e.classList.add("hide");
			}
			// Children maybe
			else {
				// no common path
				if (ex < xmin || ex + fudge >= xmax) {
					e.classList.add("hide");
				}
				else {
					zoom_child(e, xmin, ratio);
					update_text(e);
				}
			}
		}
		search();
	}
	function unzoom() {
		unzoombtn.classList.add("hide");
		var el = document.getElementById("frames").children;
		for(var i = 0; i < el.length; i++) {
			el[i].classList.remove("parent");
			el[i].classList.remove("hide");
			zoom_reset(el[i]);
			update_text(el[i]);
		}
		search();
	}
	function clearzoom() {
		unzoom();

		// remove zoom state
		var params = get_params();
		if (params.x) delete params.x;
		if (params.y) delete params.y;
		history.replaceState(null, null, parse_params(params));
	}

	// search
	function toggle_ignorecase() {
		ignorecase = !ignorecase;
		if (ignorecase) {
			ignorecaseBtn.classList.add("show");
		} else {
			ignorecaseBtn.classList.remove("show");
		}
		reset_search();
		search();
	}
	function reset_search() {
		var el = document.querySelectorAll("#frames rect");
		for (var i = 0; i < el.length; i++) {
			orig_load(el[i], "fill")
		}
		var params = get_params();
		delete params.s;
		history.replaceState(null, null, parse_params(params));
	}
	function search_prompt() {
		if (!searching) {
			var term = prompt("Enter a search term (regexp " +
			    "allowed, eg: ^ext4_)"
			    + (ignorecase ? ", ignoring case" : "")
			    + "\nPress Ctrl-i to toggle case sensitivity", "");
			if (term != null) search(term);
		} else {
			reset_search();
			searching = 0;
			currentSearchTerm = null;
			searchbtn.classList.remove("show");
			searchbtn.firstChild.nodeValue = "Search"
			matchedtxt.classList.add("hide");
			matchedtxt.firstChild.nodeValue = ""
		}
	}
	function search(term) {
		if (term) currentSearchTerm = term;

		var re = new RegExp(currentSearchTerm, ignorecase ? 'i' : '');
		var el = document.getElementById("frames").children;
		var matches = new Object();
		var maxwidth = 0;
		for (var i = 0; i < el.length; i++) {
			var e = el[i];
			var func = g_to_func(e);
			var rect = find_child(e, "rect");
			if (func == null || rect == null)
				continue;

			// Save max width. Only works as we have a root frame
			var w = parseFloat(rect.attributes.width.value);
			if (w > maxwidth)
				maxwidth = w;

			if (func.match(re)) {
				// highlight
				var x = parseFloat(rect.attributes.x.value);
				orig_save(rect, "fill");
				rect.attributes.fill.value = "rgb(230,0,230)";

				// remember matches
				if (matches[x] == undefined) {
					matches[x] = w;
				} else {
					if (w > matches[x]) {
						// overwrite with parent
						matches[x] = w;
					}
				}
				searching = 1;
			}
		}
		if (!searching)
			return;
		var params = get_params();
		params.s = currentSearchTerm;
		history.replaceState(null, null, parse_params(params));

		searchbtn.classList.add("show");
		searchbtn.firstChild.nodeValue = "Reset Search";

		// calculate percent matched, excluding vertical overlap
		var count = 0;
		var lastx = -1;
		var lastw = 0;
		var keys = Array();
		for (k in matches) {
			if (matches.hasOwnProperty(k))
				keys.push(k);
		}
		// sort the matched frames by their x location
		// ascending, then width descending
		keys.sort(function(a, b){
			return a - b;
		});
		// Step through frames saving only the biggest bottom-up frames
		// thanks to the sort order. This relies on the tree property
		// where children are always smaller than their parents.
		var fudge = 0.0001;	// JavaScript floating point
		for (var k in keys) {
			var x = parseFloat(keys[k]);
			var w = matches[keys[k]];
			if (x >= lastx + lastw - fudge) {
				count += w;
				lastx = x;
				lastw = w;
			}
		}
		// display matched percent
		matchedtxt.classList.remove("hide");
		var pct = 100 * count / maxwidth;
		if (pct != 100) pct = pct.toFixed(1)
		matchedtxt.firstChild.nodeValue = "Matched: " + pct + "%";
	}
]]>
</script>
<rect x="0.0" y="0" width="1200.0" height="326.0" fill="url(#background)"  />
<text id="title" x="600.00" y="24" >Flame Graph</text>
<text id="details" x="10.00" y="309" > </text>
<text id="unzoom" x="10.00" y="24" class="hide">Reset Zoom</text>
<text id="search" x="1090.00" y="24" >Search</text>
<text id="ignorecase" x="1174.00" y="24" >ic</text>
<text id="matched" x="1090.00" y="309" > </text>
<g id="frames">
<g >
<title>operator new (14 samples, 0.03%)</title><rect x="98.7" y="229" width="0.4" height="15.0" fill="rgb(229,169,19)" rx="2" ry="2" />
<text  x="101.69" y="239.5" ></text>
</g>
<g >
<title>cfree (87 samples, 0.22%)</title><rect x="88.1" y="197" width="2.5" height="15.0" fill="rgb(215,134,5)" rx="2" ry="2" />
<text  x="91.07" y="207.5" ></text>
</g>
<g >
<title>geos::geom::FixedSizeCoordinateSequence&lt;5ul&gt;::getAt (23 samples, 0.06%)</title><rect x="41.0" y="229" width="0.7" height="15.0" fill="rgb(214,158,54)" rx="2" ry="2" />
<text  x="44.00" y="239.5" ></text>
</g>
<g >
<title>serde_json::value::Value::as_f64 (5 samples, 0.01%)</title><rect x="1188.7" y="245" width="0.1" height="15.0" fill="rgb(220,36,21)" rx="2" ry="2" />
<text  x="1191.68" y="255.5" ></text>
</g>
<g >
<title>__netif_receive_skb_one_core (4 samples, 0.01%)</title><rect x="1179.3" y="85" width="0.1" height="15.0" fill="rgb(220,8,32)" rx="2" ry="2" />
<text  x="1182.27" y="95.5" ></text>
</g>
<g >
<title>serde_json::de::Deserializer&lt;R&gt;::parse_any_number (6 samples, 0.01%)</title><rect x="99.3" y="229" width="0.1" height="15.0" fill="rgb(236,88,36)" rx="2" ry="2" />
<text  x="102.27" y="239.5" ></text>
</g>
<g >
<title>tlb_flush_mmu_free (4 samples, 0.01%)</title><rect x="113.7" y="101" width="0.1" height="15.0" fill="rgb(234,4,17)" rx="2" ry="2" />
<text  x="116.67" y="111.5" ></text>
</g>
<g >
<title>copy_page_to_iter (11 samples, 0.03%)</title><rect x="99.7" y="133" width="0.3" height="15.0" fill="rgb(253,20,0)" rx="2" ry="2" />
<text  x="102.68" y="143.5" ></text>
</g>
<g >
<title>serde_json::value::de::&lt;impl serde::de::Deserialize for serde_json::value::Value&gt;::deserialize (40 samples, 0.10%)</title><rect x="1188.8" y="245" width="1.2" height="15.0" fill="rgb(217,178,4)" rx="2" ry="2" />
<text  x="1191.83" y="255.5" ></text>
</g>
<g >
<title>geos::geom::Polygon::Polygon (8 samples, 0.02%)</title><rect x="87.8" y="181" width="0.3" height="15.0" fill="rgb(235,10,9)" rx="2" ry="2" />
<text  x="90.84" y="191.5" ></text>
</g>
<g >
<title>__handle_mm_fault (19 samples, 0.05%)</title><rect x="28.3" y="181" width="0.6" height="15.0" fill="rgb(210,52,50)" rx="2" ry="2" />
<text  x="31.33" y="191.5" ></text>
</g>
<g >
<title>do_exit (4 samples, 0.01%)</title><rect x="113.7" y="181" width="0.1" height="15.0" fill="rgb(246,145,17)" rx="2" ry="2" />
<text  x="116.67" y="191.5" ></text>
</g>
<g >
<title>do_IRQ (7 samples, 0.02%)</title><rect x="1179.2" y="213" width="0.2" height="15.0" fill="rgb(248,204,0)" rx="2" ry="2" />
<text  x="1182.24" y="223.5" ></text>
</g>
<g >
<title>geos::geometry::Geometry::new_from_raw (40 samples, 0.10%)</title><rect x="1180.2" y="245" width="1.2" height="15.0" fill="rgb(240,110,11)" rx="2" ry="2" />
<text  x="1183.23" y="255.5" ></text>
</g>
<g >
<title>benchmark_mbr (40,235 samples, 100.00%)</title><rect x="10.0" y="261" width="1180.0" height="15.0" fill="rgb(219,171,11)" rx="2" ry="2" />
<text  x="13.00" y="271.5" >benchmark_mbr</text>
</g>
<g >
<title>__alloc_pages_nodemask (16 samples, 0.04%)</title><rect x="28.4" y="149" width="0.4" height="15.0" fill="rgb(226,215,6)" rx="2" ry="2" />
<text  x="31.36" y="159.5" ></text>
</g>
<g >
<title>net_rx_action (6 samples, 0.01%)</title><rect x="1179.3" y="165" width="0.1" height="15.0" fill="rgb(251,192,45)" rx="2" ry="2" />
<text  x="1182.27" y="175.5" ></text>
</g>
<g >
<title>operator delete (10 samples, 0.02%)</title><rect x="1186.8" y="245" width="0.3" height="15.0" fill="rgb(221,125,22)" rx="2" ry="2" />
<text  x="1189.83" y="255.5" ></text>
</g>
<g >
<title>irq_exit (8 samples, 0.02%)</title><rect x="1179.0" y="197" width="0.2" height="15.0" fill="rgb(222,64,6)" rx="2" ry="2" />
<text  x="1182.00" y="207.5" ></text>
</g>
<g >
<title>GEOSEnvelope_r (95 samples, 0.24%)</title><rect x="66.7" y="181" width="2.7" height="15.0" fill="rgb(241,40,12)" rx="2" ry="2" />
<text  x="69.66" y="191.5" ></text>
</g>
<g >
<title>[unknown] (386 samples, 0.96%)</title><rect x="29.6" y="229" width="11.3" height="15.0" fill="rgb(211,229,35)" rx="2" ry="2" />
<text  x="32.62" y="239.5" ></text>
</g>
<g >
<title>geos::geom::GeometryFactory::dropRef (14 samples, 0.03%)</title><rect x="93.1" y="197" width="0.4" height="15.0" fill="rgb(219,63,18)" rx="2" ry="2" />
<text  x="96.09" y="207.5" ></text>
</g>
<g >
<title>operator new (22 samples, 0.05%)</title><rect x="35.0" y="165" width="0.7" height="15.0" fill="rgb(240,205,29)" rx="2" ry="2" />
<text  x="38.05" y="175.5" ></text>
</g>
<g >
<title>operator new (15 samples, 0.04%)</title><rect x="38.8" y="181" width="0.5" height="15.0" fill="rgb(238,66,14)" rx="2" ry="2" />
<text  x="41.83" y="191.5" ></text>
</g>
<g >
<title>[unknown] (106 samples, 0.26%)</title><rect x="80.8" y="197" width="3.1" height="15.0" fill="rgb(246,39,53)" rx="2" ry="2" />
<text  x="83.83" y="207.5" ></text>
</g>
<g >
<title>do_group_exit (4 samples, 0.01%)</title><rect x="113.7" y="197" width="0.1" height="15.0" fill="rgb(252,192,8)" rx="2" ry="2" />
<text  x="116.67" y="207.5" ></text>
</g>
<g >
<title>GEOSGeom_destroy_r (25 samples, 0.06%)</title><rect x="18.2" y="245" width="0.8" height="15.0" fill="rgb(240,129,1)" rx="2" ry="2" />
<text  x="21.24" y="255.5" ></text>
</g>
<g >
<title>[unknown] (341 samples, 0.85%)</title><rect x="29.6" y="213" width="10.0" height="15.0" fill="rgb(205,188,30)" rx="2" ry="2" />
<text  x="32.62" y="223.5" ></text>
</g>
<g >
<title>geos::geom::LineString::~LineString (41 samples, 0.10%)</title><rect x="93.6" y="197" width="1.2" height="15.0" fill="rgb(231,94,54)" rx="2" ry="2" />
<text  x="96.61" y="207.5" ></text>
</g>
<g >
<title>[libc-2.28.so] (71 samples, 0.18%)</title><rect x="84.5" y="197" width="2.1" height="15.0" fill="rgb(249,50,43)" rx="2" ry="2" />
<text  x="87.49" y="207.5" ></text>
</g>
<g >
<title>__do_page_fault (23 samples, 0.06%)</title><rect x="28.2" y="213" width="0.7" height="15.0" fill="rgb(243,227,40)" rx="2" ry="2" />
<text  x="31.21" y="223.5" ></text>
</g>
<g >
<title>release_pages (4 samples, 0.01%)</title><rect x="113.7" y="85" width="0.1" height="15.0" fill="rgb(216,176,54)" rx="2" ry="2" />
<text  x="116.67" y="95.5" ></text>
</g>
<g >
<title>geos::geom::Polygon::~Polygon (48 samples, 0.12%)</title><rect x="94.9" y="197" width="1.4" height="15.0" fill="rgb(230,161,48)" rx="2" ry="2" />
<text  x="97.87" y="207.5" ></text>
</g>
<g >
<title>malloc (53 samples, 0.13%)</title><rect x="97.0" y="229" width="1.5" height="15.0" fill="rgb(234,199,43)" rx="2" ry="2" />
<text  x="99.96" y="239.5" ></text>
</g>
<g >
<title>alloc_pages_vma (16 samples, 0.04%)</title><rect x="28.4" y="165" width="0.4" height="15.0" fill="rgb(217,188,29)" rx="2" ry="2" />
<text  x="31.36" y="175.5" ></text>
</g>
<g >
<title>geojson::util::json_to_position (5 samples, 0.01%)</title><rect x="1179.7" y="245" width="0.2" height="15.0" fill="rgb(241,92,43)" rx="2" ry="2" />
<text  x="1182.74" y="255.5" ></text>
</g>
<g >
<title>geos::geom::LineString::LineString (23 samples, 0.06%)</title><rect x="59.1" y="181" width="0.7" height="15.0" fill="rgb(222,176,6)" rx="2" ry="2" />
<text  x="62.09" y="191.5" ></text>
</g>
<g >
<title>handle_mm_fault (11 samples, 0.03%)</title><rect x="29.3" y="181" width="0.3" height="15.0" fill="rgb(236,133,32)" rx="2" ry="2" />
<text  x="32.30" y="191.5" ></text>
</g>
<g >
<title>free@plt (4 samples, 0.01%)</title><rect x="113.8" y="245" width="0.1" height="15.0" fill="rgb(250,180,40)" rx="2" ry="2" />
<text  x="116.79" y="255.5" ></text>
</g>
<g >
<title>page_fault (23 samples, 0.06%)</title><rect x="28.2" y="229" width="0.7" height="15.0" fill="rgb(248,76,19)" rx="2" ry="2" />
<text  x="31.21" y="239.5" ></text>
</g>
<g >
<title>geos::geom::GeometryFactory::addRef (10 samples, 0.02%)</title><rect x="58.5" y="181" width="0.3" height="15.0" fill="rgb(252,36,35)" rx="2" ry="2" />
<text  x="61.54" y="191.5" ></text>
</g>
<g >
<title>entry_SYSCALL_64_after_hwframe (4 samples, 0.01%)</title><rect x="113.7" y="245" width="0.1" height="15.0" fill="rgb(230,210,16)" rx="2" ry="2" />
<text  x="116.67" y="255.5" ></text>
</g>
<g >
<title>geos::geom::Geometry::~Geometry (19 samples, 0.05%)</title><rect x="39.6" y="213" width="0.6" height="15.0" fill="rgb(250,74,36)" rx="2" ry="2" />
<text  x="42.62" y="223.5" ></text>
</g>
<g >
<title>geos::geom::Polygon::~Polygon (12 samples, 0.03%)</title><rect x="1179.9" y="245" width="0.3" height="15.0" fill="rgb(252,112,6)" rx="2" ry="2" />
<text  x="1182.88" y="255.5" ></text>
</g>
<g >
<title>unmap_vmas (4 samples, 0.01%)</title><rect x="113.7" y="133" width="0.1" height="15.0" fill="rgb(234,150,23)" rx="2" ry="2" />
<text  x="116.67" y="143.5" ></text>
</g>
<g >
<title>copyout (11 samples, 0.03%)</title><rect x="99.7" y="117" width="0.3" height="15.0" fill="rgb(246,208,53)" rx="2" ry="2" />
<text  x="102.68" y="127.5" ></text>
</g>
<g >
<title>all (40,235 samples, 100%)</title><rect x="10.0" y="277" width="1180.0" height="15.0" fill="rgb(237,3,22)" rx="2" ry="2" />
<text  x="13.00" y="287.5" ></text>
</g>
<g >
<title>geos::geom::GeometryFactory::dropRef (11 samples, 0.03%)</title><rect x="40.2" y="213" width="0.3" height="15.0" fill="rgb(228,35,39)" rx="2" ry="2" />
<text  x="43.18" y="223.5" ></text>
</g>
<g >
<title>geos::geom::GeometryFactory::addRef@plt (6 samples, 0.01%)</title><rect x="82.6" y="181" width="0.2" height="15.0" fill="rgb(212,36,37)" rx="2" ry="2" />
<text  x="85.59" y="191.5" ></text>
</g>
<g >
<title>geo_types::private_utils::get_bounding_rect (36,340 samples, 90.32%)</title><rect x="113.9" y="245" width="1065.8" height="15.0" fill="rgb(253,121,8)" rx="2" ry="2" />
<text  x="116.91" y="255.5" >geo_types::private_utils::get_bounding_rect</text>
</g>
<g >
<title>[unknown] (107 samples, 0.27%)</title><rect x="66.7" y="197" width="3.1" height="15.0" fill="rgb(220,82,42)" rx="2" ry="2" />
<text  x="69.66" y="207.5" ></text>
</g>
<g >
<title>GEOSEnvelope_r (20 samples, 0.05%)</title><rect x="17.7" y="245" width="0.5" height="15.0" fill="rgb(241,143,17)" rx="2" ry="2" />
<text  x="20.65" y="255.5" ></text>
</g>
<g >
<title>geos::geom::FixedSizeCoordinateSequence&lt;5ul&gt;::~FixedSizeCoordinateSequence (99 samples, 0.25%)</title><rect x="56.9" y="229" width="2.9" height="15.0" fill="rgb(238,120,30)" rx="2" ry="2" />
<text  x="59.87" y="239.5" ></text>
</g>
<g >
<title>get_page_from_freelist (10 samples, 0.02%)</title><rect x="29.3" y="117" width="0.3" height="15.0" fill="rgb(252,58,49)" rx="2" ry="2" />
<text  x="32.33" y="127.5" ></text>
</g>
<g >
<title>malloc@plt (6 samples, 0.01%)</title><rect x="98.5" y="229" width="0.2" height="15.0" fill="rgb(213,229,45)" rx="2" ry="2" />
<text  x="101.51" y="239.5" ></text>
</g>
<g >
<title>apic_timer_interrupt (8 samples, 0.02%)</title><rect x="1179.0" y="229" width="0.2" height="15.0" fill="rgb(212,128,13)" rx="2" ry="2" />
<text  x="1182.00" y="239.5" ></text>
</g>
<g >
<title>benchmark_mbr::geos_mbr (342 samples, 0.85%)</title><rect x="101.9" y="245" width="10.0" height="15.0" fill="rgb(222,202,32)" rx="2" ry="2" />
<text  x="104.88" y="255.5" ></text>
</g>
<g >
<title>__alloc_pages_nodemask (10 samples, 0.02%)</title><rect x="29.3" y="133" width="0.3" height="15.0" fill="rgb(248,217,23)" rx="2" ry="2" />
<text  x="32.33" y="143.5" ></text>
</g>
<g >
<title>[unknown] (99 samples, 0.25%)</title><rect x="56.9" y="213" width="2.9" height="15.0" fill="rgb(205,209,22)" rx="2" ry="2" />
<text  x="59.87" y="223.5" ></text>
</g>
<g >
<title>virtnet_poll (6 samples, 0.01%)</title><rect x="1179.3" y="149" width="0.1" height="15.0" fill="rgb(238,81,19)" rx="2" ry="2" />
<text  x="1182.27" y="159.5" ></text>
</g>
<g >
<title>__libc_read (11 samples, 0.03%)</title><rect x="99.7" y="245" width="0.3" height="15.0" fill="rgb(232,162,54)" rx="2" ry="2" />
<text  x="102.68" y="255.5" ></text>
</g>
<g >
<title>&lt;geos::geometry::Geometry as core::ops::drop::Drop&gt;::drop (54 samples, 0.13%)</title><rect x="10.0" y="245" width="1.6" height="15.0" fill="rgb(205,209,43)" rx="2" ry="2" />
<text  x="13.00" y="255.5" ></text>
</g>
<g >
<title>[unknown] (219 samples, 0.54%)</title><rect x="29.6" y="181" width="6.4" height="15.0" fill="rgb(225,201,26)" rx="2" ry="2" />
<text  x="32.62" y="191.5" ></text>
</g>
<g >
<title>operator new@plt (12 samples, 0.03%)</title><rect x="39.3" y="181" width="0.3" height="15.0" fill="rgb(224,28,19)" rx="2" ry="2" />
<text  x="42.27" y="191.5" ></text>
</g>
<g >
<title>vfs_read (11 samples, 0.03%)</title><rect x="99.7" y="181" width="0.3" height="15.0" fill="rgb(208,160,43)" rx="2" ry="2" />
<text  x="102.68" y="191.5" ></text>
</g>
<g >
<title>geos::geom::LinearRing::LinearRing (40 samples, 0.10%)</title><rect x="75.6" y="229" width="1.1" height="15.0" fill="rgb(220,202,43)" rx="2" ry="2" />
<text  x="78.58" y="239.5" ></text>
</g>
<g >
<title>geos::geom::Polygon::~Polygon (425 samples, 1.06%)</title><rect x="84.5" y="229" width="12.5" height="15.0" fill="rgb(219,53,49)" rx="2" ry="2" />
<text  x="87.49" y="239.5" ></text>
</g>
<g >
<title>malloc@plt (12 samples, 0.03%)</title><rect x="34.7" y="165" width="0.3" height="15.0" fill="rgb(251,162,48)" rx="2" ry="2" />
<text  x="37.69" y="175.5" ></text>
</g>
<g >
<title>generic_file_read_iter (11 samples, 0.03%)</title><rect x="99.7" y="149" width="0.3" height="15.0" fill="rgb(246,83,7)" rx="2" ry="2" />
<text  x="102.68" y="159.5" ></text>
</g>
<g >
<title>mmput (4 samples, 0.01%)</title><rect x="113.7" y="165" width="0.1" height="15.0" fill="rgb(237,216,7)" rx="2" ry="2" />
<text  x="116.67" y="175.5" ></text>
</g>
<g >
<title>geos::geom::LinearRing::validateConstruction@plt (9 samples, 0.02%)</title><rect x="80.6" y="229" width="0.2" height="15.0" fill="rgb(211,10,52)" rx="2" ry="2" />
<text  x="83.56" y="239.5" ></text>
</g>
<g >
<title>geos::geom::GeometryFactory::createLinearRing@plt (6 samples, 0.01%)</title><rect x="61.2" y="229" width="0.2" height="15.0" fill="rgb(243,86,46)" rx="2" ry="2" />
<text  x="64.18" y="239.5" ></text>
</g>
<g >
<title>geos::geom::Geometry::~Geometry (58 samples, 0.14%)</title><rect x="91.4" y="197" width="1.7" height="15.0" fill="rgb(216,74,18)" rx="2" ry="2" />
<text  x="94.38" y="207.5" ></text>
</g>
<g >
<title>napi_gro_receive (4 samples, 0.01%)</title><rect x="1179.3" y="117" width="0.1" height="15.0" fill="rgb(238,31,38)" rx="2" ry="2" />
<text  x="1182.27" y="127.5" ></text>
</g>
<g >
<title>operator delete@plt (11 samples, 0.03%)</title><rect x="96.6" y="197" width="0.4" height="15.0" fill="rgb(217,161,10)" rx="2" ry="2" />
<text  x="99.63" y="207.5" ></text>
</g>
<g >
<title>serde_json::value::de::&lt;impl serde::de::Deserialize for serde_json::value::Value&gt;::deserialize (4 samples, 0.01%)</title><rect x="99.5" y="229" width="0.2" height="15.0" fill="rgb(244,164,33)" rx="2" ry="2" />
<text  x="102.54" y="239.5" ></text>
</g>
<g >
<title>geos::geom::Geometry::getEnvelope (22 samples, 0.05%)</title><rect x="86.6" y="181" width="0.6" height="15.0" fill="rgb(209,65,12)" rx="2" ry="2" />
<text  x="89.57" y="191.5" ></text>
</g>
<g >
<title>exit_to_usermode_loop (8 samples, 0.02%)</title><rect x="1179.4" y="197" width="0.3" height="15.0" fill="rgb(238,222,11)" rx="2" ry="2" />
<text  x="1182.44" y="207.5" ></text>
</g>
<g >
<title>__handle_mm_fault (5 samples, 0.01%)</title><rect x="99.9" y="37" width="0.1" height="15.0" fill="rgb(254,117,18)" rx="2" ry="2" />
<text  x="102.86" y="47.5" ></text>
</g>
<g >
<title>geos::geom::Polygon::Polygon (19 samples, 0.05%)</title><rect x="83.9" y="229" width="0.6" height="15.0" fill="rgb(216,90,29)" rx="2" ry="2" />
<text  x="86.94" y="239.5" ></text>
</g>
<g >
<title>page_fault (16 samples, 0.04%)</title><rect x="29.2" y="213" width="0.4" height="15.0" fill="rgb(208,16,23)" rx="2" ry="2" />
<text  x="32.15" y="223.5" ></text>
</g>
<g >
<title>ksys_read (11 samples, 0.03%)</title><rect x="99.7" y="197" width="0.3" height="15.0" fill="rgb(215,216,22)" rx="2" ry="2" />
<text  x="102.68" y="207.5" ></text>
</g>
<g >
<title>entry_SYSCALL_64_after_hwframe (11 samples, 0.03%)</title><rect x="99.7" y="229" width="0.3" height="15.0" fill="rgb(235,185,10)" rx="2" ry="2" />
<text  x="102.68" y="239.5" ></text>
</g>
<g >
<title>get_page_from_freelist (16 samples, 0.04%)</title><rect x="28.4" y="133" width="0.4" height="15.0" fill="rgb(221,143,24)" rx="2" ry="2" />
<text  x="31.36" y="143.5" ></text>
</g>
<g >
<title>__x64_sys_exit_group (4 samples, 0.01%)</title><rect x="113.7" y="213" width="0.1" height="15.0" fill="rgb(221,20,19)" rx="2" ry="2" />
<text  x="116.67" y="223.5" ></text>
</g>
<g >
<title>geos::geom::LineString::isClosed (132 samples, 0.33%)</title><rect x="70.5" y="229" width="3.9" height="15.0" fill="rgb(246,80,12)" rx="2" ry="2" />
<text  x="73.53" y="239.5" ></text>
</g>
<g >
<title>[unknown] (99 samples, 0.25%)</title><rect x="56.9" y="197" width="2.9" height="15.0" fill="rgb(236,163,54)" rx="2" ry="2" />
<text  x="59.87" y="207.5" ></text>
</g>
<g >
<title>geos::geom::Geometry::setSRID (5 samples, 0.01%)</title><rect x="69.7" y="181" width="0.1" height="15.0" fill="rgb(212,173,14)" rx="2" ry="2" />
<text  x="72.65" y="191.5" ></text>
</g>
<g >
<title>geos::geom::FixedSizeCoordinateSequence&lt;5ul&gt;::isEmpty (18 samples, 0.04%)</title><rect x="43.3" y="229" width="0.5" height="15.0" fill="rgb(208,111,3)" rx="2" ry="2" />
<text  x="46.32" y="239.5" ></text>
</g>
<g >
<title>geos::geom::Geometry::getEnvelope (23 samples, 0.06%)</title><rect x="29.6" y="165" width="0.7" height="15.0" fill="rgb(218,175,29)" rx="2" ry="2" />
<text  x="32.62" y="175.5" ></text>
</g>
<g >
<title>geos::geom::GeometryFactory::toGeometry (156 samples, 0.39%)</title><rect x="62.1" y="229" width="4.6" height="15.0" fill="rgb(245,190,54)" rx="2" ry="2" />
<text  x="65.09" y="239.5" ></text>
</g>
<g >
<title>alloc_pages_vma (10 samples, 0.02%)</title><rect x="29.3" y="149" width="0.3" height="15.0" fill="rgb(235,205,42)" rx="2" ry="2" />
<text  x="32.33" y="159.5" ></text>
</g>
<g >
<title>__do_page_fault (16 samples, 0.04%)</title><rect x="29.2" y="197" width="0.4" height="15.0" fill="rgb(216,202,49)" rx="2" ry="2" />
<text  x="32.15" y="207.5" ></text>
</g>
<g >
<title>geos::geom::Polygon::Polygon (36 samples, 0.09%)</title><rect x="82.9" y="181" width="1.0" height="15.0" fill="rgb(243,49,31)" rx="2" ry="2" />
<text  x="85.88" y="191.5" ></text>
</g>
<g >
<title>[unknown] (107 samples, 0.27%)</title><rect x="66.7" y="213" width="3.1" height="15.0" fill="rgb(229,55,2)" rx="2" ry="2" />
<text  x="69.66" y="223.5" ></text>
</g>
<g >
<title>serde_json::de::Deserializer&lt;R&gt;::parse_any_number (6 samples, 0.01%)</title><rect x="1187.4" y="245" width="0.2" height="15.0" fill="rgb(213,190,46)" rx="2" ry="2" />
<text  x="1190.39" y="255.5" ></text>
</g>
<g >
<title>operator delete@plt (9 samples, 0.02%)</title><rect x="1187.1" y="245" width="0.3" height="15.0" fill="rgb(207,12,17)" rx="2" ry="2" />
<text  x="1190.13" y="255.5" ></text>
</g>
<g >
<title>__softirqentry_text_start (8 samples, 0.02%)</title><rect x="1179.0" y="181" width="0.2" height="15.0" fill="rgb(220,181,25)" rx="2" ry="2" />
<text  x="1182.00" y="191.5" ></text>
</g>
<g >
<title>receive_buf (5 samples, 0.01%)</title><rect x="1179.3" y="133" width="0.1" height="15.0" fill="rgb(249,33,22)" rx="2" ry="2" />
<text  x="1182.27" y="143.5" ></text>
</g>
<g >
<title>do_syscall_64 (4 samples, 0.01%)</title><rect x="113.7" y="229" width="0.1" height="15.0" fill="rgb(236,190,19)" rx="2" ry="2" />
<text  x="116.67" y="239.5" ></text>
</g>
<g >
<title>geos::geom::Polygon::~Polygon (8 samples, 0.02%)</title><rect x="40.7" y="213" width="0.2" height="15.0" fill="rgb(243,114,37)" rx="2" ry="2" />
<text  x="43.71" y="223.5" ></text>
</g>
<g >
<title>clear_page_erms (8 samples, 0.02%)</title><rect x="29.4" y="101" width="0.2" height="15.0" fill="rgb(233,184,28)" rx="2" ry="2" />
<text  x="32.39" y="111.5" ></text>
</g>
<g >
<title>geos::geom::Polygon::Polygon@plt (7 samples, 0.02%)</title><rect x="36.7" y="181" width="0.2" height="15.0" fill="rgb(247,216,4)" rx="2" ry="2" />
<text  x="39.72" y="191.5" ></text>
</g>
<g >
<title>handle_mm_fault (5 samples, 0.01%)</title><rect x="99.9" y="53" width="0.1" height="15.0" fill="rgb(242,44,12)" rx="2" ry="2" />
<text  x="102.86" y="63.5" ></text>
</g>
<g >
<title>core::ptr::drop_in_place&lt;serde_json::value::Value&gt; (6 samples, 0.01%)</title><rect x="113.4" y="245" width="0.2" height="15.0" fill="rgb(222,204,39)" rx="2" ry="2" />
<text  x="116.44" y="255.5" ></text>
</g>
<g >
<title>geos::geom::LineString::isClosed@plt (8 samples, 0.02%)</title><rect x="74.4" y="229" width="0.2" height="15.0" fill="rgb(250,102,34)" rx="2" ry="2" />
<text  x="77.40" y="239.5" ></text>
</g>
<g >
<title>[libc-2.28.so] (337 samples, 0.84%)</title><rect x="19.0" y="245" width="9.9" height="15.0" fill="rgb(237,138,16)" rx="2" ry="2" />
<text  x="22.00" y="255.5" ></text>
</g>
<g >
<title>geos::geom::GeometryFactory::createPolygon (25 samples, 0.06%)</title><rect x="61.4" y="229" width="0.7" height="15.0" fill="rgb(246,1,28)" rx="2" ry="2" />
<text  x="64.35" y="239.5" ></text>
</g>
<g >
<title>operator delete (12 samples, 0.03%)</title><rect x="96.3" y="197" width="0.3" height="15.0" fill="rgb(237,118,18)" rx="2" ry="2" />
<text  x="99.28" y="207.5" ></text>
</g>
<g >
<title>geos::geom::GeometryFactory::addRef@plt (9 samples, 0.02%)</title><rect x="58.8" y="181" width="0.3" height="15.0" fill="rgb(227,216,35)" rx="2" ry="2" />
<text  x="61.83" y="191.5" ></text>
</g>
<g >
<title>do_syscall_64 (11 samples, 0.03%)</title><rect x="99.7" y="213" width="0.3" height="15.0" fill="rgb(253,96,44)" rx="2" ry="2" />
<text  x="102.68" y="223.5" ></text>
</g>
<g >
<title>cfree (48 samples, 0.12%)</title><rect x="111.9" y="245" width="1.5" height="15.0" fill="rgb(223,29,13)" rx="2" ry="2" />
<text  x="114.94" y="255.5" ></text>
</g>
<g >
<title>exit_mmap (4 samples, 0.01%)</title><rect x="113.7" y="149" width="0.1" height="15.0" fill="rgb(236,7,25)" rx="2" ry="2" />
<text  x="116.67" y="159.5" ></text>
</g>
<g >
<title>geos::geom::Geometry::Geometry (51 samples, 0.13%)</title><rect x="80.8" y="181" width="1.5" height="15.0" fill="rgb(224,213,31)" rx="2" ry="2" />
<text  x="83.83" y="191.5" ></text>
</g>
<g >
<title>ret_from_intr (7 samples, 0.02%)</title><rect x="1179.2" y="229" width="0.2" height="15.0" fill="rgb(207,212,2)" rx="2" ry="2" />
<text  x="1182.24" y="239.5" ></text>
</g>
<g >
<title>copy_user_enhanced_fast_string (11 samples, 0.03%)</title><rect x="99.7" y="101" width="0.3" height="15.0" fill="rgb(219,197,37)" rx="2" ry="2" />
<text  x="102.68" y="111.5" ></text>
</g>
<g >
<title>handle_mm_fault (19 samples, 0.05%)</title><rect x="28.3" y="197" width="0.6" height="15.0" fill="rgb(248,135,27)" rx="2" ry="2" />
<text  x="31.33" y="207.5" ></text>
</g>
<g >
<title>geos::geom::GeometryFactory::createPolygon (13 samples, 0.03%)</title><rect x="36.0" y="181" width="0.4" height="15.0" fill="rgb(219,167,26)" rx="2" ry="2" />
<text  x="39.04" y="191.5" ></text>
</g>
<g >
<title>irq_exit (7 samples, 0.02%)</title><rect x="1179.2" y="197" width="0.2" height="15.0" fill="rgb(245,19,17)" rx="2" ry="2" />
<text  x="1182.24" y="207.5" ></text>
</g>
<g >
<title>geos::geom::GeometryFactory::~GeometryFactory (107 samples, 0.27%)</title><rect x="66.7" y="229" width="3.1" height="15.0" fill="rgb(226,177,53)" rx="2" ry="2" />
<text  x="69.66" y="239.5" ></text>
</g>
<g >
<title>__do_page_fault (6 samples, 0.01%)</title><rect x="99.8" y="69" width="0.2" height="15.0" fill="rgb(209,174,38)" rx="2" ry="2" />
<text  x="102.83" y="79.5" ></text>
</g>
<g >
<title>geos::geom::FixedSizeCoordinateSequence&lt;5ul&gt;::~FixedSizeCoordinateSequence (7 samples, 0.02%)</title><rect x="91.2" y="197" width="0.2" height="15.0" fill="rgb(224,11,7)" rx="2" ry="2" />
<text  x="94.18" y="207.5" ></text>
</g>
<g >
<title>unmap_page_range (4 samples, 0.01%)</title><rect x="113.7" y="117" width="0.1" height="15.0" fill="rgb(207,101,20)" rx="2" ry="2" />
<text  x="116.67" y="127.5" ></text>
</g>
<g >
<title>page_fault (6 samples, 0.01%)</title><rect x="99.8" y="85" width="0.2" height="15.0" fill="rgb(228,221,37)" rx="2" ry="2" />
<text  x="102.83" y="95.5" ></text>
</g>
<g >
<title>geos::geom::GeometryFactory::createPolygon (5 samples, 0.01%)</title><rect x="87.2" y="181" width="0.2" height="15.0" fill="rgb(246,35,10)" rx="2" ry="2" />
<text  x="90.22" y="191.5" ></text>
</g>
<g >
<title>operator new@plt (6 samples, 0.01%)</title><rect x="99.1" y="229" width="0.2" height="15.0" fill="rgb(215,15,36)" rx="2" ry="2" />
<text  x="102.10" y="239.5" ></text>
</g>
<g >
<title>geos::geom::LineString::LineString (23 samples, 0.06%)</title><rect x="69.8" y="229" width="0.7" height="15.0" fill="rgb(254,103,38)" rx="2" ry="2" />
<text  x="72.80" y="239.5" ></text>
</g>
<g >
<title>malloc (180 samples, 0.45%)</title><rect x="1181.5" y="245" width="5.3" height="15.0" fill="rgb(228,71,2)" rx="2" ry="2" />
<text  x="1184.52" y="255.5" ></text>
</g>
<g >
<title>[libc-2.28.so] (22 samples, 0.05%)</title><rect x="29.0" y="229" width="0.6" height="15.0" fill="rgb(226,93,48)" rx="2" ry="2" />
<text  x="31.98" y="239.5" ></text>
</g>
<g >
<title>smp_apic_timer_interrupt (8 samples, 0.02%)</title><rect x="1179.0" y="213" width="0.2" height="15.0" fill="rgb(226,120,44)" rx="2" ry="2" />
<text  x="1182.00" y="223.5" ></text>
</g>
<g >
<title>geos::geom::LinearRing::~LinearRing (106 samples, 0.26%)</title><rect x="80.8" y="229" width="3.1" height="15.0" fill="rgb(247,204,19)" rx="2" ry="2" />
<text  x="83.83" y="239.5" ></text>
</g>
<g >
<title>geos::geom::GeometryFactory::dropRef@plt (7 samples, 0.02%)</title><rect x="40.5" y="213" width="0.2" height="15.0" fill="rgb(252,79,35)" rx="2" ry="2" />
<text  x="43.50" y="223.5" ></text>
</g>
<g >
<title>[unknown] (2,414 samples, 6.00%)</title><rect x="28.9" y="245" width="70.8" height="15.0" fill="rgb(223,122,24)" rx="2" ry="2" />
<text  x="31.89" y="255.5" >[unknown]</text>
</g>
<g >
<title>geos::geom::GeometryFactory::createLinearRing (4 samples, 0.01%)</title><rect x="82.8" y="181" width="0.1" height="15.0" fill="rgb(236,29,13)" rx="2" ry="2" />
<text  x="85.76" y="191.5" ></text>
</g>
<g >
<title>serde_json::de::Deserializer&lt;R&gt;::parse_decimal (35 samples, 0.09%)</title><rect x="1187.6" y="245" width="1.0" height="15.0" fill="rgb(235,54,34)" rx="2" ry="2" />
<text  x="1190.57" y="255.5" ></text>
</g>
<g >
<title>geos::geom::GeometryFactory::createLinearRing (48 samples, 0.12%)</title><rect x="59.8" y="229" width="1.4" height="15.0" fill="rgb(238,187,47)" rx="2" ry="2" />
<text  x="62.77" y="239.5" ></text>
</g>
<g >
<title>geos::geom::LinearRing::validateConstruction (130 samples, 0.32%)</title><rect x="76.7" y="229" width="3.9" height="15.0" fill="rgb(215,96,42)" rx="2" ry="2" />
<text  x="79.75" y="239.5" ></text>
</g>
<g >
<title>[unknown] (425 samples, 1.06%)</title><rect x="84.5" y="213" width="12.5" height="15.0" fill="rgb(254,73,49)" rx="2" ry="2" />
<text  x="87.49" y="223.5" ></text>
</g>
<g >
<title>geos::geom::Geometry::getEnvelope (7 samples, 0.02%)</title><rect x="69.4" y="181" width="0.3" height="15.0" fill="rgb(241,83,26)" rx="2" ry="2" />
<text  x="72.45" y="191.5" ></text>
</g>
<g >
<title>free@plt (19 samples, 0.05%)</title><rect x="90.6" y="197" width="0.6" height="15.0" fill="rgb(208,12,0)" rx="2" ry="2" />
<text  x="93.62" y="207.5" ></text>
</g>
<g >
<title>geos::geom::LineString::validateConstruction (32 samples, 0.08%)</title><rect x="74.6" y="229" width="1.0" height="15.0" fill="rgb(216,39,48)" rx="2" ry="2" />
<text  x="77.64" y="239.5" ></text>
</g>
<g >
<title>geos::geom::FixedSizeCoordinateSequence&lt;5ul&gt;::setAt (444 samples, 1.10%)</title><rect x="43.8" y="229" width="13.1" height="15.0" fill="rgb(223,107,42)" rx="2" ry="2" />
<text  x="46.84" y="239.5" ></text>
</g>
<g >
<title>prepare_exit_to_usermode (8 samples, 0.02%)</title><rect x="1179.4" y="213" width="0.3" height="15.0" fill="rgb(224,117,41)" rx="2" ry="2" />
<text  x="1182.44" y="223.5" ></text>
</g>
<g >
<title>geos::geom::GeometryFactory::dropRef@plt (4 samples, 0.01%)</title><rect x="93.5" y="197" width="0.1" height="15.0" fill="rgb(250,203,17)" rx="2" ry="2" />
<text  x="96.50" y="207.5" ></text>
</g>
<g >
<title>malloc (32 samples, 0.08%)</title><rect x="33.8" y="165" width="0.9" height="15.0" fill="rgb(246,216,48)" rx="2" ry="2" />
<text  x="36.76" y="175.5" ></text>
</g>
<g >
<title>geos::geom::Geometry::Geometry (57 samples, 0.14%)</title><rect x="56.9" y="181" width="1.6" height="15.0" fill="rgb(240,174,53)" rx="2" ry="2" />
<text  x="59.87" y="191.5" ></text>
</g>
<g >
<title>__handle_mm_fault (11 samples, 0.03%)</title><rect x="29.3" y="165" width="0.3" height="15.0" fill="rgb(206,168,33)" rx="2" ry="2" />
<text  x="32.30" y="175.5" ></text>
</g>
<g >
<title>benchmark_mbr::geo_mbr (58 samples, 0.14%)</title><rect x="100.2" y="245" width="1.7" height="15.0" fill="rgb(250,173,51)" rx="2" ry="2" />
<text  x="103.18" y="255.5" ></text>
</g>
<g >
<title>new_sync_read (11 samples, 0.03%)</title><rect x="99.7" y="165" width="0.3" height="15.0" fill="rgb(231,73,53)" rx="2" ry="2" />
<text  x="102.68" y="175.5" ></text>
</g>
<g >
<title>operator new@plt (12 samples, 0.03%)</title><rect x="35.7" y="165" width="0.3" height="15.0" fill="rgb(238,82,4)" rx="2" ry="2" />
<text  x="38.69" y="175.5" ></text>
</g>
<g >
<title>clear_page_erms (12 samples, 0.03%)</title><rect x="28.5" y="117" width="0.3" height="15.0" fill="rgb(234,180,28)" rx="2" ry="2" />
<text  x="31.48" y="127.5" ></text>
</g>
<g >
<title>malloc (53 samples, 0.13%)</title><rect x="36.9" y="181" width="1.6" height="15.0" fill="rgb(218,62,51)" rx="2" ry="2" />
<text  x="39.92" y="191.5" ></text>
</g>
<g >
<title>geos::geom::GeometryFactory::toGeometry (108 samples, 0.27%)</title><rect x="30.3" y="165" width="3.2" height="15.0" fill="rgb(225,167,12)" rx="2" ry="2" />
<text  x="33.29" y="175.5" ></text>
</g>
<g >
<title>geos::geom::FixedSizeCoordinateSequence&lt;5ul&gt;::getSize (56 samples, 0.14%)</title><rect x="41.7" y="229" width="1.6" height="15.0" fill="rgb(222,137,49)" rx="2" ry="2" />
<text  x="44.67" y="239.5" ></text>
</g>
<g >
<title>malloc@plt (12 samples, 0.03%)</title><rect x="38.5" y="181" width="0.3" height="15.0" fill="rgb(242,96,3)" rx="2" ry="2" />
<text  x="41.48" y="191.5" ></text>
</g>
<g >
<title>geos::geom::Polygon::Polygon (10 samples, 0.02%)</title><rect x="36.4" y="181" width="0.3" height="15.0" fill="rgb(210,123,25)" rx="2" ry="2" />
<text  x="39.42" y="191.5" ></text>
</g>
<g >
<title>swapgs_restore_regs_and_return_to_usermode (8 samples, 0.02%)</title><rect x="1179.4" y="229" width="0.3" height="15.0" fill="rgb(221,120,31)" rx="2" ry="2" />
<text  x="1182.44" y="239.5" ></text>
</g>
<g >
<title>geos::geom::GeometryFactory::toGeometry (16 samples, 0.04%)</title><rect x="87.4" y="181" width="0.4" height="15.0" fill="rgb(253,124,2)" rx="2" ry="2" />
<text  x="90.37" y="191.5" ></text>
</g>
<g >
<title>[unknown] (341 samples, 0.85%)</title><rect x="29.6" y="197" width="10.0" height="15.0" fill="rgb(237,158,22)" rx="2" ry="2" />
<text  x="32.62" y="207.5" ></text>
</g>
<g >
<title>geos::geom::GeometryFactory::addRef (9 samples, 0.02%)</title><rect x="82.3" y="181" width="0.3" height="15.0" fill="rgb(210,160,48)" rx="2" ry="2" />
<text  x="85.32" y="191.5" ></text>
</g>
<g >
<title>geos::geom::GeometryFactory::toGeometry@plt (10 samples, 0.02%)</title><rect x="33.5" y="165" width="0.3" height="15.0" fill="rgb(221,120,32)" rx="2" ry="2" />
<text  x="36.46" y="175.5" ></text>
</g>
<g >
<title>[unknown] (51 samples, 0.13%)</title><rect x="86.6" y="197" width="1.5" height="15.0" fill="rgb(231,184,15)" rx="2" ry="2" />
<text  x="89.57" y="207.5" ></text>
</g>
<g >
<title>[unknown] (106 samples, 0.26%)</title><rect x="80.8" y="213" width="3.1" height="15.0" fill="rgb(213,49,38)" rx="2" ry="2" />
<text  x="83.83" y="223.5" ></text>
</g>
<g >
<title>&lt;geos::geometry::Geometry as geos::geometry::Geom&gt;::envelope (206 samples, 0.51%)</title><rect x="11.6" y="245" width="6.0" height="15.0" fill="rgb(237,125,21)" rx="2" ry="2" />
<text  x="14.58" y="255.5" ></text>
</g>
<g >
<title>netif_receive_skb_internal (4 samples, 0.01%)</title><rect x="1179.3" y="101" width="0.1" height="15.0" fill="rgb(205,87,36)" rx="2" ry="2" />
<text  x="1182.27" y="111.5" ></text>
</g>
<g >
<title>__softirqentry_text_start (7 samples, 0.02%)</title><rect x="1179.2" y="181" width="0.2" height="15.0" fill="rgb(218,159,44)" rx="2" ry="2" />
<text  x="1182.24" y="191.5" ></text>
</g>
</g>
</svg>
