<?xml version="1.0" encoding="utf-8" standalone="no"?>
<!DOCTYPE svg PUBLIC "-//W3C//DTD SVG 1.1//EN"
  "http://www.w3.org/Graphics/SVG/1.1/DTD/svg11.dtd">
<svg xmlns:xlink="http://www.w3.org/1999/xlink" width="864pt" height="576pt" viewBox="0 0 864 576" xmlns="http://www.w3.org/2000/svg" version="1.1">
 <metadata>
  <rdf:RDF xmlns:dc="http://purl.org/dc/elements/1.1/" xmlns:cc="http://creativecommons.org/ns#" xmlns:rdf="http://www.w3.org/1999/02/22-rdf-syntax-ns#">
   <cc:Work>
    <dc:type rdf:resource="http://purl.org/dc/dcmitype/StillImage"/>
    <dc:date>2022-02-22T04:33:57.616350</dc:date>
    <dc:format>image/svg+xml</dc:format>
    <dc:creator>
     <cc:Agent>
      <dc:title>Matplotlib v3.5.0, https://matplotlib.org/</dc:title>
     </cc:Agent>
    </dc:creator>
   </cc:Work>
  </rdf:RDF>
 </metadata>
 <defs>
  <style type="text/css">*{stroke-linejoin: round; stroke-linecap: butt}</style>
 </defs>
 <g id="figure_1">
  <g id="patch_1">
   <path d="M 0 576 
L 864 576 
L 864 0 
L 0 0 
L 0 576 
z
" style="fill: none"/>
  </g>
  <g id="axes_1">
   <g id="patch_2">
    <path d="M 108 504 
L 777.6 504 
L 777.6 69.12 
L 108 69.12 
L 108 504 
z
" style="fill: none"/>
   </g>
   <g id="matplotlib.axis_1">
    <g id="xtick_1">
     <g id="line2d_1"/>
     <g id="text_1">
      <!-- 0 -->
      <g style="fill: #ffffff" transform="translate(135.099801 516.19625)scale(0.12 -0.12)">
       <defs>
        <path id="LiberationSans-30" d="M 3309 2203 
Q 3309 1100 2920 518 
Q 2531 -63 1772 -63 
Q 1013 -63 631 515 
Q 250 1094 250 2203 
Q 250 3338 620 3903 
Q 991 4469 1791 4469 
Q 2569 4469 2939 3897 
Q 3309 3325 3309 2203 
z
M 2738 2203 
Q 2738 3156 2517 3584 
Q 2297 4013 1791 4013 
Q 1272 4013 1045 3591 
Q 819 3169 819 2203 
Q 819 1266 1048 831 
Q 1278 397 1778 397 
Q 2275 397 2506 840 
Q 2738 1284 2738 2203 
z
" transform="scale(0.015625)"/>
       </defs>
       <use xlink:href="#LiberationSans-30"/>
      </g>
     </g>
    </g>
    <g id="xtick_2">
     <g id="line2d_2"/>
     <g id="text_2">
      <!-- 20 -->
      <g style="fill: #ffffff" transform="translate(257.274017 516.19625)scale(0.12 -0.12)">
       <defs>
        <path id="LiberationSans-32" d="M 322 0 
L 322 397 
Q 481 763 711 1042 
Q 941 1322 1194 1548 
Q 1447 1775 1695 1969 
Q 1944 2163 2144 2356 
Q 2344 2550 2467 2762 
Q 2591 2975 2591 3244 
Q 2591 3606 2378 3806 
Q 2166 4006 1788 4006 
Q 1428 4006 1195 3811 
Q 963 3616 922 3263 
L 347 3316 
Q 409 3844 795 4156 
Q 1181 4469 1788 4469 
Q 2453 4469 2811 4155 
Q 3169 3841 3169 3263 
Q 3169 3006 3051 2753 
Q 2934 2500 2703 2247 
Q 2472 1994 1819 1463 
Q 1459 1169 1246 933 
Q 1034 697 941 478 
L 3238 478 
L 3238 0 
L 322 0 
z
" transform="scale(0.015625)"/>
       </defs>
       <use xlink:href="#LiberationSans-32"/>
       <use xlink:href="#LiberationSans-30" x="55.615234"/>
      </g>
     </g>
    </g>
    <g id="xtick_3">
     <g id="line2d_3"/>
     <g id="text_3">
      <!-- 40 -->
      <g style="fill: #ffffff" transform="translate(382.784794 516.19625)scale(0.12 -0.12)">
       <defs>
        <path id="LiberationSans-34" d="M 2753 997 
L 2753 0 
L 2222 0 
L 2222 997 
L 147 997 
L 147 1434 
L 2163 4403 
L 2753 4403 
L 2753 1441 
L 3372 1441 
L 3372 997 
L 2753 997 
z
M 2222 3769 
Q 2216 3750 2134 3603 
Q 2053 3456 2013 3397 
L 884 1734 
L 716 1503 
L 666 1441 
L 2222 1441 
L 2222 3769 
z
" transform="scale(0.015625)"/>
       </defs>
       <use xlink:href="#LiberationSans-34"/>
       <use xlink:href="#LiberationSans-30" x="55.615234"/>
      </g>
     </g>
    </g>
    <g id="xtick_4">
     <g id="line2d_4"/>
     <g id="text_4">
      <!-- 60 -->
      <g style="fill: #ffffff" transform="translate(508.295572 516.19625)scale(0.12 -0.12)">
       <defs>
        <path id="LiberationSans-36" d="M 3278 1441 
Q 3278 744 2900 340 
Q 2522 -63 1856 -63 
Q 1113 -63 719 490 
Q 325 1044 325 2100 
Q 325 3244 734 3856 
Q 1144 4469 1900 4469 
Q 2897 4469 3156 3572 
L 2619 3475 
Q 2453 4013 1894 4013 
Q 1413 4013 1148 3564 
Q 884 3116 884 2266 
Q 1038 2550 1316 2698 
Q 1594 2847 1953 2847 
Q 2563 2847 2920 2465 
Q 3278 2084 3278 1441 
z
M 2706 1416 
Q 2706 1894 2472 2153 
Q 2238 2413 1819 2413 
Q 1425 2413 1183 2183 
Q 941 1953 941 1550 
Q 941 1041 1192 716 
Q 1444 391 1838 391 
Q 2244 391 2475 664 
Q 2706 938 2706 1416 
z
" transform="scale(0.015625)"/>
       </defs>
       <use xlink:href="#LiberationSans-36"/>
       <use xlink:href="#LiberationSans-30" x="55.615234"/>
      </g>
     </g>
    </g>
    <g id="xtick_5">
     <g id="line2d_5"/>
     <g id="text_5">
      <!-- 80 -->
      <g style="fill: #ffffff" transform="translate(633.80635 516.19625)scale(0.12 -0.12)">
       <defs>
        <path id="LiberationSans-38" d="M 3281 1228 
Q 3281 619 2893 278 
Q 2506 -63 1781 -63 
Q 1075 -63 676 271 
Q 278 606 278 1222 
Q 278 1653 525 1947 
Q 772 2241 1156 2303 
L 1156 2316 
Q 797 2400 589 2681 
Q 381 2963 381 3341 
Q 381 3844 757 4156 
Q 1134 4469 1769 4469 
Q 2419 4469 2795 4162 
Q 3172 3856 3172 3334 
Q 3172 2956 2962 2675 
Q 2753 2394 2391 2322 
L 2391 2309 
Q 2813 2241 3047 1952 
Q 3281 1663 3281 1228 
z
M 2588 3303 
Q 2588 4050 1769 4050 
Q 1372 4050 1164 3862 
Q 956 3675 956 3303 
Q 956 2925 1170 2726 
Q 1384 2528 1775 2528 
Q 2172 2528 2380 2711 
Q 2588 2894 2588 3303 
z
M 2697 1281 
Q 2697 1691 2453 1898 
Q 2209 2106 1769 2106 
Q 1341 2106 1100 1882 
Q 859 1659 859 1269 
Q 859 359 1788 359 
Q 2247 359 2472 579 
Q 2697 800 2697 1281 
z
" transform="scale(0.015625)"/>
       </defs>
       <use xlink:href="#LiberationSans-38"/>
       <use xlink:href="#LiberationSans-30" x="55.615234"/>
      </g>
     </g>
    </g>
    <g id="xtick_6">
     <g id="line2d_6"/>
     <g id="text_6">
      <!-- 100 -->
      <g style="fill: #ffffff" transform="translate(755.980566 516.19625)scale(0.12 -0.12)">
       <defs>
        <path id="LiberationSans-31" d="M 488 0 
L 488 478 
L 1609 478 
L 1609 3866 
L 616 3156 
L 616 3688 
L 1656 4403 
L 2175 4403 
L 2175 478 
L 3247 478 
L 3247 0 
L 488 0 
z
" transform="scale(0.015625)"/>
       </defs>
       <use xlink:href="#LiberationSans-31"/>
       <use xlink:href="#LiberationSans-30" x="55.615234"/>
       <use xlink:href="#LiberationSans-30" x="111.230469"/>
      </g>
     </g>
    </g>
    <g id="text_7">
     <!-- observation -->
     <g style="fill: #ffffff" transform="translate(411.782813 531.3825)scale(0.12 -0.12)">
      <defs>
       <path id="LiberationSans-6f" d="M 3291 1694 
Q 3291 806 2900 371 
Q 2509 -63 1766 -63 
Q 1025 -63 647 389 
Q 269 841 269 1694 
Q 269 3444 1784 3444 
Q 2559 3444 2925 3017 
Q 3291 2591 3291 1694 
z
M 2700 1694 
Q 2700 2394 2492 2711 
Q 2284 3028 1794 3028 
Q 1300 3028 1079 2704 
Q 859 2381 859 1694 
Q 859 1025 1076 689 
Q 1294 353 1759 353 
Q 2266 353 2483 678 
Q 2700 1003 2700 1694 
z
" transform="scale(0.015625)"/>
       <path id="LiberationSans-62" d="M 3291 1706 
Q 3291 -63 2047 -63 
Q 1663 -63 1408 76 
Q 1153 216 994 525 
L 988 525 
Q 988 428 975 229 
Q 963 31 956 0 
L 413 0 
Q 431 169 431 697 
L 431 4638 
L 994 4638 
L 994 3316 
Q 994 3113 981 2838 
L 994 2838 
Q 1150 3163 1408 3303 
Q 1666 3444 2047 3444 
Q 2688 3444 2989 3012 
Q 3291 2581 3291 1706 
z
M 2700 1688 
Q 2700 2397 2512 2703 
Q 2325 3009 1903 3009 
Q 1428 3009 1211 2684 
Q 994 2359 994 1653 
Q 994 988 1206 670 
Q 1419 353 1897 353 
Q 2322 353 2511 667 
Q 2700 981 2700 1688 
z
" transform="scale(0.015625)"/>
       <path id="LiberationSans-73" d="M 2969 934 
Q 2969 456 2608 196 
Q 2247 -63 1597 -63 
Q 966 -63 623 145 
Q 281 353 178 794 
L 675 891 
Q 747 619 972 492 
Q 1197 366 1597 366 
Q 2025 366 2223 497 
Q 2422 628 2422 891 
Q 2422 1091 2284 1216 
Q 2147 1341 1841 1422 
L 1438 1528 
Q 953 1653 748 1773 
Q 544 1894 428 2066 
Q 313 2238 313 2488 
Q 313 2950 642 3192 
Q 972 3434 1603 3434 
Q 2163 3434 2492 3237 
Q 2822 3041 2909 2606 
L 2403 2544 
Q 2356 2769 2151 2889 
Q 1947 3009 1603 3009 
Q 1222 3009 1040 2893 
Q 859 2778 859 2544 
Q 859 2400 934 2306 
Q 1009 2213 1156 2147 
Q 1303 2081 1775 1966 
Q 2222 1853 2419 1758 
Q 2616 1663 2730 1547 
Q 2844 1431 2906 1279 
Q 2969 1128 2969 934 
z
" transform="scale(0.015625)"/>
       <path id="LiberationSans-65" d="M 863 1572 
Q 863 991 1103 675 
Q 1344 359 1806 359 
Q 2172 359 2392 506 
Q 2613 653 2691 878 
L 3184 738 
Q 2881 -63 1806 -63 
Q 1056 -63 664 384 
Q 272 831 272 1713 
Q 272 2550 664 2997 
Q 1056 3444 1784 3444 
Q 3275 3444 3275 1647 
L 3275 1572 
L 863 1572 
z
M 2694 2003 
Q 2647 2538 2422 2783 
Q 2197 3028 1775 3028 
Q 1366 3028 1127 2754 
Q 888 2481 869 2003 
L 2694 2003 
z
" transform="scale(0.015625)"/>
       <path id="LiberationSans-72" d="M 444 0 
L 444 2594 
Q 444 2950 425 3381 
L 956 3381 
Q 981 2806 981 2691 
L 994 2691 
Q 1128 3125 1303 3284 
Q 1478 3444 1797 3444 
Q 1909 3444 2025 3413 
L 2025 2897 
Q 1913 2928 1725 2928 
Q 1375 2928 1190 2626 
Q 1006 2325 1006 1763 
L 1006 0 
L 444 0 
z
" transform="scale(0.015625)"/>
       <path id="LiberationSans-76" d="M 1916 0 
L 1250 0 
L 22 3381 
L 622 3381 
L 1366 1181 
Q 1406 1056 1581 441 
L 1691 806 
L 1813 1175 
L 2581 3381 
L 3178 3381 
L 1916 0 
z
" transform="scale(0.015625)"/>
       <path id="LiberationSans-61" d="M 1294 -63 
Q 784 -63 528 206 
Q 272 475 272 944 
Q 272 1469 617 1750 
Q 963 2031 1731 2050 
L 2491 2063 
L 2491 2247 
Q 2491 2659 2316 2837 
Q 2141 3016 1766 3016 
Q 1388 3016 1216 2887 
Q 1044 2759 1009 2478 
L 422 2531 
Q 566 3444 1778 3444 
Q 2416 3444 2737 3151 
Q 3059 2859 3059 2306 
L 3059 850 
Q 3059 600 3125 473 
Q 3191 347 3375 347 
Q 3456 347 3559 369 
L 3559 19 
Q 3347 -31 3125 -31 
Q 2813 -31 2670 133 
Q 2528 297 2509 647 
L 2491 647 
Q 2275 259 1989 98 
Q 1703 -63 1294 -63 
z
M 1422 359 
Q 1731 359 1972 500 
Q 2213 641 2352 886 
Q 2491 1131 2491 1391 
L 2491 1669 
L 1875 1656 
Q 1478 1650 1273 1575 
Q 1069 1500 959 1344 
Q 850 1188 850 934 
Q 850 659 998 509 
Q 1147 359 1422 359 
z
" transform="scale(0.015625)"/>
       <path id="LiberationSans-74" d="M 1731 25 
Q 1453 -50 1163 -50 
Q 488 -50 488 716 
L 488 2972 
L 97 2972 
L 97 3381 
L 509 3381 
L 675 4138 
L 1050 4138 
L 1050 3381 
L 1675 3381 
L 1675 2972 
L 1050 2972 
L 1050 838 
Q 1050 594 1129 495 
Q 1209 397 1406 397 
Q 1519 397 1731 441 
L 1731 25 
z
" transform="scale(0.015625)"/>
       <path id="LiberationSans-69" d="M 428 4100 
L 428 4638 
L 991 4638 
L 991 4100 
L 428 4100 
z
M 428 0 
L 428 3381 
L 991 3381 
L 991 0 
L 428 0 
z
" transform="scale(0.015625)"/>
       <path id="LiberationSans-6e" d="M 2578 0 
L 2578 2144 
Q 2578 2478 2512 2662 
Q 2447 2847 2303 2928 
Q 2159 3009 1881 3009 
Q 1475 3009 1240 2731 
Q 1006 2453 1006 1959 
L 1006 0 
L 444 0 
L 444 2659 
Q 444 3250 425 3381 
L 956 3381 
Q 959 3366 962 3297 
Q 966 3228 970 3139 
Q 975 3050 981 2803 
L 991 2803 
Q 1184 3153 1439 3298 
Q 1694 3444 2072 3444 
Q 2628 3444 2886 3167 
Q 3144 2891 3144 2253 
L 3144 0 
L 2578 0 
z
" transform="scale(0.015625)"/>
      </defs>
      <use xlink:href="#LiberationSans-6f"/>
      <use xlink:href="#LiberationSans-62" x="55.615234"/>
      <use xlink:href="#LiberationSans-73" x="111.230469"/>
      <use xlink:href="#LiberationSans-65" x="161.230469"/>
      <use xlink:href="#LiberationSans-72" x="216.845703"/>
      <use xlink:href="#LiberationSans-76" x="250.146484"/>
      <use xlink:href="#LiberationSans-61" x="300.146484"/>
      <use xlink:href="#LiberationSans-74" x="355.761719"/>
      <use xlink:href="#LiberationSans-69" x="383.544922"/>
      <use xlink:href="#LiberationSans-6f" x="405.761719"/>
      <use xlink:href="#LiberationSans-6e" x="461.376953"/>
     </g>
    </g>
   </g>
   <g id="matplotlib.axis_2">
    <g id="ytick_1">
     <g id="line2d_7"/>
     <g id="text_8">
      <!-- 7.9 -->
      <g style="fill: #ffffff" transform="translate(87.82 449.376403)scale(0.12 -0.12)">
       <defs>
        <path id="LiberationSans-37" d="M 3238 3947 
Q 2563 2916 2284 2331 
Q 2006 1747 1867 1178 
Q 1728 609 1728 0 
L 1141 0 
Q 1141 844 1498 1776 
Q 1856 2709 2694 3925 
L 328 3925 
L 328 4403 
L 3238 4403 
L 3238 3947 
z
" transform="scale(0.015625)"/>
        <path id="LiberationSans-2e" d="M 584 0 
L 584 684 
L 1194 684 
L 1194 0 
L 584 0 
z
" transform="scale(0.015625)"/>
        <path id="LiberationSans-39" d="M 3256 2291 
Q 3256 1156 2842 546 
Q 2428 -63 1663 -63 
Q 1147 -63 836 154 
Q 525 372 391 856 
L 928 941 
Q 1097 391 1672 391 
Q 2156 391 2422 841 
Q 2688 1291 2700 2125 
Q 2575 1844 2272 1673 
Q 1969 1503 1606 1503 
Q 1013 1503 656 1909 
Q 300 2316 300 2988 
Q 300 3678 687 4073 
Q 1075 4469 1766 4469 
Q 2500 4469 2878 3925 
Q 3256 3381 3256 2291 
z
M 2644 2834 
Q 2644 3366 2400 3689 
Q 2156 4013 1747 4013 
Q 1341 4013 1106 3736 
Q 872 3459 872 2988 
Q 872 2506 1106 2226 
Q 1341 1947 1741 1947 
Q 1984 1947 2193 2058 
Q 2403 2169 2523 2372 
Q 2644 2575 2644 2834 
z
" transform="scale(0.015625)"/>
       </defs>
       <use xlink:href="#LiberationSans-37"/>
       <use xlink:href="#LiberationSans-2e" x="55.615234"/>
       <use xlink:href="#LiberationSans-39" x="83.398438"/>
      </g>
     </g>
    </g>
    <g id="ytick_2">
     <g id="line2d_8"/>
     <g id="text_9">
      <!-- 8.0 -->
      <g style="fill: #ffffff" transform="translate(87.82 380.173543)scale(0.12 -0.12)">
       <use xlink:href="#LiberationSans-38"/>
       <use xlink:href="#LiberationSans-2e" x="55.615234"/>
       <use xlink:href="#LiberationSans-30" x="83.398438"/>
      </g>
     </g>
    </g>
    <g id="ytick_3">
     <g id="line2d_9"/>
     <g id="text_10">
      <!-- 8.1 -->
      <g style="fill: #ffffff" transform="translate(87.82 310.970682)scale(0.12 -0.12)">
       <use xlink:href="#LiberationSans-38"/>
       <use xlink:href="#LiberationSans-2e" x="55.615234"/>
       <use xlink:href="#LiberationSans-31" x="83.398438"/>
      </g>
     </g>
    </g>
    <g id="ytick_4">
     <g id="line2d_10"/>
     <g id="text_11">
      <!-- 8.2 -->
      <g style="fill: #ffffff" transform="translate(87.82 241.767822)scale(0.12 -0.12)">
       <use xlink:href="#LiberationSans-38"/>
       <use xlink:href="#LiberationSans-2e" x="55.615234"/>
       <use xlink:href="#LiberationSans-32" x="83.398438"/>
      </g>
     </g>
    </g>
    <g id="ytick_5">
     <g id="line2d_11"/>
     <g id="text_12">
      <!-- 8.3 -->
      <g style="fill: #ffffff" transform="translate(87.82 172.564962)scale(0.12 -0.12)">
       <defs>
        <path id="LiberationSans-33" d="M 3278 1216 
Q 3278 606 2890 271 
Q 2503 -63 1784 -63 
Q 1116 -63 717 239 
Q 319 541 244 1131 
L 825 1184 
Q 938 403 1784 403 
Q 2209 403 2451 612 
Q 2694 822 2694 1234 
Q 2694 1594 2417 1795 
Q 2141 1997 1619 1997 
L 1300 1997 
L 1300 2484 
L 1606 2484 
Q 2069 2484 2323 2686 
Q 2578 2888 2578 3244 
Q 2578 3597 2370 3801 
Q 2163 4006 1753 4006 
Q 1381 4006 1151 3815 
Q 922 3625 884 3278 
L 319 3322 
Q 381 3863 767 4166 
Q 1153 4469 1759 4469 
Q 2422 4469 2789 4161 
Q 3156 3853 3156 3303 
Q 3156 2881 2920 2617 
Q 2684 2353 2234 2259 
L 2234 2247 
Q 2728 2194 3003 1916 
Q 3278 1638 3278 1216 
z
" transform="scale(0.015625)"/>
       </defs>
       <use xlink:href="#LiberationSans-38"/>
       <use xlink:href="#LiberationSans-2e" x="55.615234"/>
       <use xlink:href="#LiberationSans-33" x="83.398438"/>
      </g>
     </g>
    </g>
    <g id="ytick_6">
     <g id="line2d_12"/>
     <g id="text_13">
      <!-- 8.4 -->
      <g style="fill: #ffffff" transform="translate(87.82 103.362102)scale(0.12 -0.12)">
       <use xlink:href="#LiberationSans-38"/>
       <use xlink:href="#LiberationSans-2e" x="55.615234"/>
       <use xlink:href="#LiberationSans-34" x="83.398438"/>
      </g>
     </g>
    </g>
    <g id="text_14">
     <!-- queries per second ratio -->
     <g style="fill: #ffffff" transform="translate(81.33 350.925938)rotate(-90)scale(0.12 -0.12)">
      <defs>
       <path id="LiberationSans-71" d="M 1513 -63 
Q 869 -63 569 371 
Q 269 806 269 1675 
Q 269 3444 1513 3444 
Q 1897 3444 2147 3308 
Q 2397 3172 2566 2856 
L 2572 2856 
Q 2572 2950 2584 3179 
Q 2597 3409 2609 3425 
L 3150 3425 
Q 3128 3241 3128 2503 
L 3128 -1328 
L 2566 -1328 
L 2566 44 
L 2578 556 
L 2572 556 
Q 2403 222 2156 79 
Q 1909 -63 1513 -63 
z
M 2566 1731 
Q 2566 2391 2350 2709 
Q 2134 3028 1663 3028 
Q 1234 3028 1046 2709 
Q 859 2391 859 1694 
Q 859 984 1048 678 
Q 1238 372 1656 372 
Q 2134 372 2350 712 
Q 2566 1053 2566 1731 
z
" transform="scale(0.015625)"/>
       <path id="LiberationSans-75" d="M 981 3381 
L 981 1238 
Q 981 903 1047 718 
Q 1113 534 1256 453 
Q 1400 372 1678 372 
Q 2084 372 2318 650 
Q 2553 928 2553 1422 
L 2553 3381 
L 3116 3381 
L 3116 722 
Q 3116 131 3134 0 
L 2603 0 
Q 2600 16 2597 84 
Q 2594 153 2589 242 
Q 2584 331 2578 578 
L 2569 578 
Q 2375 228 2120 82 
Q 1866 -63 1488 -63 
Q 931 -63 673 214 
Q 416 491 416 1128 
L 416 3381 
L 981 3381 
z
" transform="scale(0.015625)"/>
       <path id="LiberationSans-20" transform="scale(0.015625)"/>
       <path id="LiberationSans-70" d="M 3291 1706 
Q 3291 -63 2047 -63 
Q 1266 -63 997 525 
L 981 525 
Q 994 500 994 -6 
L 994 -1328 
L 431 -1328 
L 431 2691 
Q 431 3213 413 3381 
L 956 3381 
Q 959 3369 965 3292 
Q 972 3216 980 3056 
Q 988 2897 988 2838 
L 1000 2838 
Q 1150 3150 1397 3295 
Q 1644 3441 2047 3441 
Q 2672 3441 2981 3022 
Q 3291 2603 3291 1706 
z
M 2700 1694 
Q 2700 2400 2509 2703 
Q 2319 3006 1903 3006 
Q 1569 3006 1380 2865 
Q 1191 2725 1092 2426 
Q 994 2128 994 1650 
Q 994 984 1206 668 
Q 1419 353 1897 353 
Q 2316 353 2508 661 
Q 2700 969 2700 1694 
z
" transform="scale(0.015625)"/>
       <path id="LiberationSans-63" d="M 859 1706 
Q 859 1031 1071 706 
Q 1284 381 1713 381 
Q 2013 381 2214 543 
Q 2416 706 2463 1044 
L 3031 1006 
Q 2966 519 2616 228 
Q 2266 -63 1728 -63 
Q 1019 -63 645 385 
Q 272 834 272 1694 
Q 272 2547 647 2995 
Q 1022 3444 1722 3444 
Q 2241 3444 2583 3175 
Q 2925 2906 3013 2434 
L 2434 2391 
Q 2391 2672 2212 2837 
Q 2034 3003 1706 3003 
Q 1259 3003 1059 2706 
Q 859 2409 859 1706 
z
" transform="scale(0.015625)"/>
       <path id="LiberationSans-64" d="M 2566 544 
Q 2409 219 2151 78 
Q 1894 -63 1513 -63 
Q 872 -63 570 368 
Q 269 800 269 1675 
Q 269 3444 1513 3444 
Q 1897 3444 2153 3303 
Q 2409 3163 2566 2856 
L 2572 2856 
L 2566 3234 
L 2566 4638 
L 3128 4638 
L 3128 697 
Q 3128 169 3147 0 
L 2609 0 
Q 2600 50 2589 231 
Q 2578 413 2578 544 
L 2566 544 
z
M 859 1694 
Q 859 984 1046 678 
Q 1234 372 1656 372 
Q 2134 372 2350 703 
Q 2566 1034 2566 1731 
Q 2566 2403 2350 2715 
Q 2134 3028 1663 3028 
Q 1238 3028 1048 2714 
Q 859 2400 859 1694 
z
" transform="scale(0.015625)"/>
      </defs>
      <use xlink:href="#LiberationSans-71"/>
      <use xlink:href="#LiberationSans-75" x="55.615234"/>
      <use xlink:href="#LiberationSans-65" x="111.230469"/>
      <use xlink:href="#LiberationSans-72" x="166.845703"/>
      <use xlink:href="#LiberationSans-69" x="200.146484"/>
      <use xlink:href="#LiberationSans-65" x="222.363281"/>
      <use xlink:href="#LiberationSans-73" x="277.978516"/>
      <use xlink:href="#LiberationSans-20" x="327.978516"/>
      <use xlink:href="#LiberationSans-70" x="355.761719"/>
      <use xlink:href="#LiberationSans-65" x="411.376953"/>
      <use xlink:href="#LiberationSans-72" x="466.992188"/>
      <use xlink:href="#LiberationSans-20" x="500.292969"/>
      <use xlink:href="#LiberationSans-73" x="528.076172"/>
      <use xlink:href="#LiberationSans-65" x="578.076172"/>
      <use xlink:href="#LiberationSans-63" x="633.691406"/>
      <use xlink:href="#LiberationSans-6f" x="683.691406"/>
      <use xlink:href="#LiberationSans-6e" x="739.306641"/>
      <use xlink:href="#LiberationSans-64" x="794.921875"/>
      <use xlink:href="#LiberationSans-20" x="850.537109"/>
      <use xlink:href="#LiberationSans-72" x="878.320312"/>
      <use xlink:href="#LiberationSans-61" x="911.621094"/>
      <use xlink:href="#LiberationSans-74" x="967.236328"/>
      <use xlink:href="#LiberationSans-69" x="995.019531"/>
      <use xlink:href="#LiberationSans-6f" x="1017.236328"/>
     </g>
    </g>
   </g>
   <g id="PolyCollection_1">
    <defs>
     <path id="mbc5602270c" d="M 138.436364 -365.10081 
L 138.436364 -220.9472 
L 144.711903 -220.9472 
L 150.987441 -220.9472 
L 157.26298 -220.9472 
L 163.538519 -220.9472 
L 169.814058 -220.9472 
L 176.089597 -220.9472 
L 182.365136 -220.9472 
L 188.640675 -220.9472 
L 194.916214 -220.9472 
L 201.191753 -220.9472 
L 207.467291 -220.9472 
L 213.74283 -220.9472 
L 220.018369 -220.9472 
L 226.293908 -220.9472 
L 232.569447 -220.9472 
L 238.844986 -220.9472 
L 245.120525 -220.9472 
L 251.396064 -220.9472 
L 257.671603 -220.9472 
L 263.947142 -220.9472 
L 270.22268 -220.9472 
L 276.498219 -220.9472 
L 282.773758 -220.9472 
L 289.049297 -220.9472 
L 295.324836 -220.9472 
L 301.600375 -220.9472 
L 307.875914 -220.9472 
L 314.151453 -220.9472 
L 320.426992 -220.9472 
L 326.70253 -220.9472 
L 332.978069 -220.9472 
L 339.253608 -220.9472 
L 345.529147 -220.9472 
L 351.804686 -220.9472 
L 358.080225 -220.9472 
L 364.355764 -220.9472 
L 370.631303 -220.9472 
L 376.906842 -220.9472 
L 383.182381 -220.9472 
L 389.457919 -220.9472 
L 395.733458 -220.9472 
L 402.008997 -220.9472 
L 408.284536 -220.9472 
L 414.560075 -220.9472 
L 420.835614 -220.9472 
L 427.111153 -220.9472 
L 433.386692 -220.9472 
L 439.662231 -220.9472 
L 445.937769 -220.9472 
L 452.213308 -220.9472 
L 458.488847 -220.9472 
L 464.764386 -220.9472 
L 471.039925 -220.9472 
L 477.315464 -220.9472 
L 483.591003 -220.9472 
L 489.866542 -220.9472 
L 496.142081 -220.9472 
L 502.417619 -220.9472 
L 508.693158 -220.9472 
L 514.968697 -220.9472 
L 521.244236 -220.9472 
L 527.519775 -220.9472 
L 533.795314 -220.9472 
L 540.070853 -220.9472 
L 546.346392 -220.9472 
L 552.621931 -220.9472 
L 558.89747 -220.9472 
L 565.173008 -220.9472 
L 571.448547 -220.9472 
L 577.724086 -220.9472 
L 583.999625 -220.9472 
L 590.275164 -220.9472 
L 596.550703 -220.9472 
L 602.826242 -220.9472 
L 609.101781 -220.9472 
L 615.37732 -220.9472 
L 621.652858 -220.9472 
L 627.928397 -220.9472 
L 634.203936 -220.9472 
L 640.479475 -220.9472 
L 646.755014 -220.9472 
L 653.030553 -220.9472 
L 659.306092 -220.9472 
L 665.581631 -220.9472 
L 671.85717 -220.9472 
L 678.132709 -220.9472 
L 684.408247 -220.9472 
L 690.683786 -220.9472 
L 696.959325 -220.9472 
L 703.234864 -220.9472 
L 709.510403 -220.9472 
L 715.785942 -220.9472 
L 722.061481 -220.9472 
L 728.33702 -220.9472 
L 734.612559 -220.9472 
L 740.888097 -220.9472 
L 747.163636 -220.9472 
L 747.163636 -365.10081 
L 747.163636 -365.10081 
L 740.888097 -365.10081 
L 734.612559 -365.10081 
L 728.33702 -365.10081 
L 722.061481 -365.10081 
L 715.785942 -365.10081 
L 709.510403 -365.10081 
L 703.234864 -365.10081 
L 696.959325 -365.10081 
L 690.683786 -365.10081 
L 684.408247 -365.10081 
L 678.132709 -365.10081 
L 671.85717 -365.10081 
L 665.581631 -365.10081 
L 659.306092 -365.10081 
L 653.030553 -365.10081 
L 646.755014 -365.10081 
L 640.479475 -365.10081 
L 634.203936 -365.10081 
L 627.928397 -365.10081 
L 621.652858 -365.10081 
L 615.37732 -365.10081 
L 609.101781 -365.10081 
L 602.826242 -365.10081 
L 596.550703 -365.10081 
L 590.275164 -365.10081 
L 583.999625 -365.10081 
L 577.724086 -365.10081 
L 571.448547 -365.10081 
L 565.173008 -365.10081 
L 558.89747 -365.10081 
L 552.621931 -365.10081 
L 546.346392 -365.10081 
L 540.070853 -365.10081 
L 533.795314 -365.10081 
L 527.519775 -365.10081 
L 521.244236 -365.10081 
L 514.968697 -365.10081 
L 508.693158 -365.10081 
L 502.417619 -365.10081 
L 496.142081 -365.10081 
L 489.866542 -365.10081 
L 483.591003 -365.10081 
L 477.315464 -365.10081 
L 471.039925 -365.10081 
L 464.764386 -365.10081 
L 458.488847 -365.10081 
L 452.213308 -365.10081 
L 445.937769 -365.10081 
L 439.662231 -365.10081 
L 433.386692 -365.10081 
L 427.111153 -365.10081 
L 420.835614 -365.10081 
L 414.560075 -365.10081 
L 408.284536 -365.10081 
L 402.008997 -365.10081 
L 395.733458 -365.10081 
L 389.457919 -365.10081 
L 383.182381 -365.10081 
L 376.906842 -365.10081 
L 370.631303 -365.10081 
L 364.355764 -365.10081 
L 358.080225 -365.10081 
L 351.804686 -365.10081 
L 345.529147 -365.10081 
L 339.253608 -365.10081 
L 332.978069 -365.10081 
L 326.70253 -365.10081 
L 320.426992 -365.10081 
L 314.151453 -365.10081 
L 307.875914 -365.10081 
L 301.600375 -365.10081 
L 295.324836 -365.10081 
L 289.049297 -365.10081 
L 282.773758 -365.10081 
L 276.498219 -365.10081 
L 270.22268 -365.10081 
L 263.947142 -365.10081 
L 257.671603 -365.10081 
L 251.396064 -365.10081 
L 245.120525 -365.10081 
L 238.844986 -365.10081 
L 232.569447 -365.10081 
L 226.293908 -365.10081 
L 220.018369 -365.10081 
L 213.74283 -365.10081 
L 207.467291 -365.10081 
L 201.191753 -365.10081 
L 194.916214 -365.10081 
L 188.640675 -365.10081 
L 182.365136 -365.10081 
L 176.089597 -365.10081 
L 169.814058 -365.10081 
L 163.538519 -365.10081 
L 157.26298 -365.10081 
L 150.987441 -365.10081 
L 144.711903 -365.10081 
L 138.436364 -365.10081 
z
" style="stroke: #ffffff; stroke-opacity: 0.2"/>
    </defs>
    <g clip-path="url(#pab4d0bdad5)">
     <use xlink:href="#mbc5602270c" x="0" y="576" style="fill: #ffffff; fill-opacity: 0.2; stroke: #ffffff; stroke-opacity: 0.2"/>
    </g>
   </g>
   <g id="line2d_13">
    <path d="M 138.436364 328.594041 
L 144.711903 100.594224 
L 150.987441 119.147815 
L 157.26298 141.876338 
L 163.538519 112.371164 
L 169.814058 140.583176 
L 176.089597 156.310417 
L 182.365136 97.224241 
L 188.640675 88.887273 
L 194.916214 102.041994 
L 201.191753 129.158896 
L 207.467291 120.097404 
L 213.74283 288.998503 
L 220.018369 285.159076 
L 226.293908 319.708439 
L 232.569447 306.806014 
L 238.844986 309.280987 
L 245.120525 335.729827 
L 251.396064 208.436903 
L 257.671603 311.122629 
L 263.947142 316.0058 
L 270.22268 338.132325 
L 276.498219 172.767988 
L 282.773758 288.627855 
L 289.049297 287.596876 
L 295.324836 328.515561 
L 301.600375 277.093984 
L 307.875914 352.762627 
L 314.151453 251.016683 
L 320.426992 350.29717 
L 326.70253 257.948862 
L 332.978069 293.970821 
L 339.253608 298.75132 
L 345.529147 346.095382 
L 351.804686 258.195844 
L 358.080225 315.031269 
L 364.355764 285.554368 
L 370.631303 342.093964 
L 376.906842 278.59695 
L 383.182381 318.985275 
L 389.457919 241.763578 
L 395.733458 313.421649 
L 402.008997 369.91391 
L 408.284536 397.587217 
L 414.560075 309.600703 
L 420.835614 259.135345 
L 427.111153 293.693599 
L 433.386692 289.693721 
L 439.662231 295.859423 
L 445.937769 294.045904 
L 452.213308 277.151501 
L 458.488847 370.176014 
L 464.764386 303.859847 
L 471.039925 379.269958 
L 477.315464 194.675376 
L 483.591003 310.88739 
L 489.866542 287.688515 
L 496.142081 306.562605 
L 502.417619 307.20501 
L 508.693158 283.35529 
L 514.968697 285.317212 
L 521.244236 304.809162 
L 527.519775 327.083371 
L 533.795314 407.162172 
L 540.070853 267.377859 
L 546.346392 285.279084 
L 552.621931 283.168571 
L 558.89747 356.531888 
L 565.173008 328.140043 
L 571.448547 314.648424 
L 577.724086 331.723994 
L 583.999625 274.547892 
L 590.275164 285.039048 
L 596.550703 296.74298 
L 602.826242 292.349504 
L 609.101781 331.841902 
L 615.37732 326.089138 
L 621.652858 279.169332 
L 627.928397 306.047778 
L 634.203936 328.175504 
L 640.479475 314.913725 
L 646.755014 329.315767 
L 653.030553 294.585812 
L 659.306092 300.918422 
L 665.581631 311.778497 
L 671.85717 217.067467 
L 678.132709 284.886792 
L 684.408247 281.266358 
L 690.683786 318.536085 
L 696.959325 311.097119 
L 703.234864 319.546379 
L 709.510403 229.346024 
L 715.785942 317.826829 
L 722.061481 329.296879 
L 728.33702 311.413388 
L 734.612559 266.465442 
L 740.888097 252.192122 
L 747.163636 484.232727 
" clip-path="url(#pab4d0bdad5)" style="fill: none"/>
    <defs>
     <path id="mad4347bee6" d="M 0 3 
C 0.795609 3 1.55874 2.683901 2.12132 2.12132 
C 2.683901 1.55874 3 0.795609 3 0 
C 3 -0.795609 2.683901 -1.55874 2.12132 -2.12132 
C 1.55874 -2.683901 0.795609 -3 0 -3 
C -0.795609 -3 -1.55874 -2.683901 -2.12132 -2.12132 
C -2.683901 -1.55874 -3 -0.795609 -3 0 
C -3 0.795609 -2.683901 1.55874 -2.12132 2.12132 
C -1.55874 2.683901 -0.795609 3 0 3 
z
" style="stroke: #8dd3c7"/>
    </defs>
    <g clip-path="url(#pab4d0bdad5)">
     <use xlink:href="#mad4347bee6" x="138.436364" y="328.594041" style="fill: #8dd3c7; stroke: #8dd3c7"/>
     <use xlink:href="#mad4347bee6" x="144.711903" y="100.594224" style="fill: #8dd3c7; stroke: #8dd3c7"/>
     <use xlink:href="#mad4347bee6" x="150.987441" y="119.147815" style="fill: #8dd3c7; stroke: #8dd3c7"/>
     <use xlink:href="#mad4347bee6" x="157.26298" y="141.876338" style="fill: #8dd3c7; stroke: #8dd3c7"/>
     <use xlink:href="#mad4347bee6" x="163.538519" y="112.371164" style="fill: #8dd3c7; stroke: #8dd3c7"/>
     <use xlink:href="#mad4347bee6" x="169.814058" y="140.583176" style="fill: #8dd3c7; stroke: #8dd3c7"/>
     <use xlink:href="#mad4347bee6" x="176.089597" y="156.310417" style="fill: #8dd3c7; stroke: #8dd3c7"/>
     <use xlink:href="#mad4347bee6" x="182.365136" y="97.224241" style="fill: #8dd3c7; stroke: #8dd3c7"/>
     <use xlink:href="#mad4347bee6" x="188.640675" y="88.887273" style="fill: #8dd3c7; stroke: #8dd3c7"/>
     <use xlink:href="#mad4347bee6" x="194.916214" y="102.041994" style="fill: #8dd3c7; stroke: #8dd3c7"/>
     <use xlink:href="#mad4347bee6" x="201.191753" y="129.158896" style="fill: #8dd3c7; stroke: #8dd3c7"/>
     <use xlink:href="#mad4347bee6" x="207.467291" y="120.097404" style="fill: #8dd3c7; stroke: #8dd3c7"/>
     <use xlink:href="#mad4347bee6" x="213.74283" y="288.998503" style="fill: #8dd3c7; stroke: #8dd3c7"/>
     <use xlink:href="#mad4347bee6" x="220.018369" y="285.159076" style="fill: #8dd3c7; stroke: #8dd3c7"/>
     <use xlink:href="#mad4347bee6" x="226.293908" y="319.708439" style="fill: #8dd3c7; stroke: #8dd3c7"/>
     <use xlink:href="#mad4347bee6" x="232.569447" y="306.806014" style="fill: #8dd3c7; stroke: #8dd3c7"/>
     <use xlink:href="#mad4347bee6" x="238.844986" y="309.280987" style="fill: #8dd3c7; stroke: #8dd3c7"/>
     <use xlink:href="#mad4347bee6" x="245.120525" y="335.729827" style="fill: #8dd3c7; stroke: #8dd3c7"/>
     <use xlink:href="#mad4347bee6" x="251.396064" y="208.436903" style="fill: #8dd3c7; stroke: #8dd3c7"/>
     <use xlink:href="#mad4347bee6" x="257.671603" y="311.122629" style="fill: #8dd3c7; stroke: #8dd3c7"/>
     <use xlink:href="#mad4347bee6" x="263.947142" y="316.0058" style="fill: #8dd3c7; stroke: #8dd3c7"/>
     <use xlink:href="#mad4347bee6" x="270.22268" y="338.132325" style="fill: #8dd3c7; stroke: #8dd3c7"/>
     <use xlink:href="#mad4347bee6" x="276.498219" y="172.767988" style="fill: #8dd3c7; stroke: #8dd3c7"/>
     <use xlink:href="#mad4347bee6" x="282.773758" y="288.627855" style="fill: #8dd3c7; stroke: #8dd3c7"/>
     <use xlink:href="#mad4347bee6" x="289.049297" y="287.596876" style="fill: #8dd3c7; stroke: #8dd3c7"/>
     <use xlink:href="#mad4347bee6" x="295.324836" y="328.515561" style="fill: #8dd3c7; stroke: #8dd3c7"/>
     <use xlink:href="#mad4347bee6" x="301.600375" y="277.093984" style="fill: #8dd3c7; stroke: #8dd3c7"/>
     <use xlink:href="#mad4347bee6" x="307.875914" y="352.762627" style="fill: #8dd3c7; stroke: #8dd3c7"/>
     <use xlink:href="#mad4347bee6" x="314.151453" y="251.016683" style="fill: #8dd3c7; stroke: #8dd3c7"/>
     <use xlink:href="#mad4347bee6" x="320.426992" y="350.29717" style="fill: #8dd3c7; stroke: #8dd3c7"/>
     <use xlink:href="#mad4347bee6" x="326.70253" y="257.948862" style="fill: #8dd3c7; stroke: #8dd3c7"/>
     <use xlink:href="#mad4347bee6" x="332.978069" y="293.970821" style="fill: #8dd3c7; stroke: #8dd3c7"/>
     <use xlink:href="#mad4347bee6" x="339.253608" y="298.75132" style="fill: #8dd3c7; stroke: #8dd3c7"/>
     <use xlink:href="#mad4347bee6" x="345.529147" y="346.095382" style="fill: #8dd3c7; stroke: #8dd3c7"/>
     <use xlink:href="#mad4347bee6" x="351.804686" y="258.195844" style="fill: #8dd3c7; stroke: #8dd3c7"/>
     <use xlink:href="#mad4347bee6" x="358.080225" y="315.031269" style="fill: #8dd3c7; stroke: #8dd3c7"/>
     <use xlink:href="#mad4347bee6" x="364.355764" y="285.554368" style="fill: #8dd3c7; stroke: #8dd3c7"/>
     <use xlink:href="#mad4347bee6" x="370.631303" y="342.093964" style="fill: #8dd3c7; stroke: #8dd3c7"/>
     <use xlink:href="#mad4347bee6" x="376.906842" y="278.59695" style="fill: #8dd3c7; stroke: #8dd3c7"/>
     <use xlink:href="#mad4347bee6" x="383.182381" y="318.985275" style="fill: #8dd3c7; stroke: #8dd3c7"/>
     <use xlink:href="#mad4347bee6" x="389.457919" y="241.763578" style="fill: #8dd3c7; stroke: #8dd3c7"/>
     <use xlink:href="#mad4347bee6" x="395.733458" y="313.421649" style="fill: #8dd3c7; stroke: #8dd3c7"/>
     <use xlink:href="#mad4347bee6" x="402.008997" y="369.91391" style="fill: #8dd3c7; stroke: #8dd3c7"/>
     <use xlink:href="#mad4347bee6" x="408.284536" y="397.587217" style="fill: #8dd3c7; stroke: #8dd3c7"/>
     <use xlink:href="#mad4347bee6" x="414.560075" y="309.600703" style="fill: #8dd3c7; stroke: #8dd3c7"/>
     <use xlink:href="#mad4347bee6" x="420.835614" y="259.135345" style="fill: #8dd3c7; stroke: #8dd3c7"/>
     <use xlink:href="#mad4347bee6" x="427.111153" y="293.693599" style="fill: #8dd3c7; stroke: #8dd3c7"/>
     <use xlink:href="#mad4347bee6" x="433.386692" y="289.693721" style="fill: #8dd3c7; stroke: #8dd3c7"/>
     <use xlink:href="#mad4347bee6" x="439.662231" y="295.859423" style="fill: #8dd3c7; stroke: #8dd3c7"/>
     <use xlink:href="#mad4347bee6" x="445.937769" y="294.045904" style="fill: #8dd3c7; stroke: #8dd3c7"/>
     <use xlink:href="#mad4347bee6" x="452.213308" y="277.151501" style="fill: #8dd3c7; stroke: #8dd3c7"/>
     <use xlink:href="#mad4347bee6" x="458.488847" y="370.176014" style="fill: #8dd3c7; stroke: #8dd3c7"/>
     <use xlink:href="#mad4347bee6" x="464.764386" y="303.859847" style="fill: #8dd3c7; stroke: #8dd3c7"/>
     <use xlink:href="#mad4347bee6" x="471.039925" y="379.269958" style="fill: #8dd3c7; stroke: #8dd3c7"/>
     <use xlink:href="#mad4347bee6" x="477.315464" y="194.675376" style="fill: #8dd3c7; stroke: #8dd3c7"/>
     <use xlink:href="#mad4347bee6" x="483.591003" y="310.88739" style="fill: #8dd3c7; stroke: #8dd3c7"/>
     <use xlink:href="#mad4347bee6" x="489.866542" y="287.688515" style="fill: #8dd3c7; stroke: #8dd3c7"/>
     <use xlink:href="#mad4347bee6" x="496.142081" y="306.562605" style="fill: #8dd3c7; stroke: #8dd3c7"/>
     <use xlink:href="#mad4347bee6" x="502.417619" y="307.20501" style="fill: #8dd3c7; stroke: #8dd3c7"/>
     <use xlink:href="#mad4347bee6" x="508.693158" y="283.35529" style="fill: #8dd3c7; stroke: #8dd3c7"/>
     <use xlink:href="#mad4347bee6" x="514.968697" y="285.317212" style="fill: #8dd3c7; stroke: #8dd3c7"/>
     <use xlink:href="#mad4347bee6" x="521.244236" y="304.809162" style="fill: #8dd3c7; stroke: #8dd3c7"/>
     <use xlink:href="#mad4347bee6" x="527.519775" y="327.083371" style="fill: #8dd3c7; stroke: #8dd3c7"/>
     <use xlink:href="#mad4347bee6" x="533.795314" y="407.162172" style="fill: #8dd3c7; stroke: #8dd3c7"/>
     <use xlink:href="#mad4347bee6" x="540.070853" y="267.377859" style="fill: #8dd3c7; stroke: #8dd3c7"/>
     <use xlink:href="#mad4347bee6" x="546.346392" y="285.279084" style="fill: #8dd3c7; stroke: #8dd3c7"/>
     <use xlink:href="#mad4347bee6" x="552.621931" y="283.168571" style="fill: #8dd3c7; stroke: #8dd3c7"/>
     <use xlink:href="#mad4347bee6" x="558.89747" y="356.531888" style="fill: #8dd3c7; stroke: #8dd3c7"/>
     <use xlink:href="#mad4347bee6" x="565.173008" y="328.140043" style="fill: #8dd3c7; stroke: #8dd3c7"/>
     <use xlink:href="#mad4347bee6" x="571.448547" y="314.648424" style="fill: #8dd3c7; stroke: #8dd3c7"/>
     <use xlink:href="#mad4347bee6" x="577.724086" y="331.723994" style="fill: #8dd3c7; stroke: #8dd3c7"/>
     <use xlink:href="#mad4347bee6" x="583.999625" y="274.547892" style="fill: #8dd3c7; stroke: #8dd3c7"/>
     <use xlink:href="#mad4347bee6" x="590.275164" y="285.039048" style="fill: #8dd3c7; stroke: #8dd3c7"/>
     <use xlink:href="#mad4347bee6" x="596.550703" y="296.74298" style="fill: #8dd3c7; stroke: #8dd3c7"/>
     <use xlink:href="#mad4347bee6" x="602.826242" y="292.349504" style="fill: #8dd3c7; stroke: #8dd3c7"/>
     <use xlink:href="#mad4347bee6" x="609.101781" y="331.841902" style="fill: #8dd3c7; stroke: #8dd3c7"/>
     <use xlink:href="#mad4347bee6" x="615.37732" y="326.089138" style="fill: #8dd3c7; stroke: #8dd3c7"/>
     <use xlink:href="#mad4347bee6" x="621.652858" y="279.169332" style="fill: #8dd3c7; stroke: #8dd3c7"/>
     <use xlink:href="#mad4347bee6" x="627.928397" y="306.047778" style="fill: #8dd3c7; stroke: #8dd3c7"/>
     <use xlink:href="#mad4347bee6" x="634.203936" y="328.175504" style="fill: #8dd3c7; stroke: #8dd3c7"/>
     <use xlink:href="#mad4347bee6" x="640.479475" y="314.913725" style="fill: #8dd3c7; stroke: #8dd3c7"/>
     <use xlink:href="#mad4347bee6" x="646.755014" y="329.315767" style="fill: #8dd3c7; stroke: #8dd3c7"/>
     <use xlink:href="#mad4347bee6" x="653.030553" y="294.585812" style="fill: #8dd3c7; stroke: #8dd3c7"/>
     <use xlink:href="#mad4347bee6" x="659.306092" y="300.918422" style="fill: #8dd3c7; stroke: #8dd3c7"/>
     <use xlink:href="#mad4347bee6" x="665.581631" y="311.778497" style="fill: #8dd3c7; stroke: #8dd3c7"/>
     <use xlink:href="#mad4347bee6" x="671.85717" y="217.067467" style="fill: #8dd3c7; stroke: #8dd3c7"/>
     <use xlink:href="#mad4347bee6" x="678.132709" y="284.886792" style="fill: #8dd3c7; stroke: #8dd3c7"/>
     <use xlink:href="#mad4347bee6" x="684.408247" y="281.266358" style="fill: #8dd3c7; stroke: #8dd3c7"/>
     <use xlink:href="#mad4347bee6" x="690.683786" y="318.536085" style="fill: #8dd3c7; stroke: #8dd3c7"/>
     <use xlink:href="#mad4347bee6" x="696.959325" y="311.097119" style="fill: #8dd3c7; stroke: #8dd3c7"/>
     <use xlink:href="#mad4347bee6" x="703.234864" y="319.546379" style="fill: #8dd3c7; stroke: #8dd3c7"/>
     <use xlink:href="#mad4347bee6" x="709.510403" y="229.346024" style="fill: #8dd3c7; stroke: #8dd3c7"/>
     <use xlink:href="#mad4347bee6" x="715.785942" y="317.826829" style="fill: #8dd3c7; stroke: #8dd3c7"/>
     <use xlink:href="#mad4347bee6" x="722.061481" y="329.296879" style="fill: #8dd3c7; stroke: #8dd3c7"/>
     <use xlink:href="#mad4347bee6" x="728.33702" y="311.413388" style="fill: #8dd3c7; stroke: #8dd3c7"/>
     <use xlink:href="#mad4347bee6" x="734.612559" y="266.465442" style="fill: #8dd3c7; stroke: #8dd3c7"/>
     <use xlink:href="#mad4347bee6" x="740.888097" y="252.192122" style="fill: #8dd3c7; stroke: #8dd3c7"/>
     <use xlink:href="#mad4347bee6" x="747.163636" y="484.232727" style="fill: #8dd3c7; stroke: #8dd3c7"/>
    </g>
   </g>
   <g id="line2d_14">
    <path d="M 138.436364 282.975995 
L 144.711903 282.975995 
L 150.987441 282.975995 
L 157.26298 282.975995 
L 163.538519 282.975995 
L 169.814058 282.975995 
L 176.089597 282.975995 
L 182.365136 282.975995 
L 188.640675 282.975995 
L 194.916214 282.975995 
L 201.191753 282.975995 
L 207.467291 282.975995 
L 213.74283 282.975995 
L 220.018369 282.975995 
L 226.293908 282.975995 
L 232.569447 282.975995 
L 238.844986 282.975995 
L 245.120525 282.975995 
L 251.396064 282.975995 
L 257.671603 282.975995 
L 263.947142 282.975995 
L 270.22268 282.975995 
L 276.498219 282.975995 
L 282.773758 282.975995 
L 289.049297 282.975995 
L 295.324836 282.975995 
L 301.600375 282.975995 
L 307.875914 282.975995 
L 314.151453 282.975995 
L 320.426992 282.975995 
L 326.70253 282.975995 
L 332.978069 282.975995 
L 339.253608 282.975995 
L 345.529147 282.975995 
L 351.804686 282.975995 
L 358.080225 282.975995 
L 364.355764 282.975995 
L 370.631303 282.975995 
L 376.906842 282.975995 
L 383.182381 282.975995 
L 389.457919 282.975995 
L 395.733458 282.975995 
L 402.008997 282.975995 
L 408.284536 282.975995 
L 414.560075 282.975995 
L 420.835614 282.975995 
L 427.111153 282.975995 
L 433.386692 282.975995 
L 439.662231 282.975995 
L 445.937769 282.975995 
L 452.213308 282.975995 
L 458.488847 282.975995 
L 464.764386 282.975995 
L 471.039925 282.975995 
L 477.315464 282.975995 
L 483.591003 282.975995 
L 489.866542 282.975995 
L 496.142081 282.975995 
L 502.417619 282.975995 
L 508.693158 282.975995 
L 514.968697 282.975995 
L 521.244236 282.975995 
L 527.519775 282.975995 
L 533.795314 282.975995 
L 540.070853 282.975995 
L 546.346392 282.975995 
L 552.621931 282.975995 
L 558.89747 282.975995 
L 565.173008 282.975995 
L 571.448547 282.975995 
L 577.724086 282.975995 
L 583.999625 282.975995 
L 590.275164 282.975995 
L 596.550703 282.975995 
L 602.826242 282.975995 
L 609.101781 282.975995 
L 615.37732 282.975995 
L 621.652858 282.975995 
L 627.928397 282.975995 
L 634.203936 282.975995 
L 640.479475 282.975995 
L 646.755014 282.975995 
L 653.030553 282.975995 
L 659.306092 282.975995 
L 665.581631 282.975995 
L 671.85717 282.975995 
L 678.132709 282.975995 
L 684.408247 282.975995 
L 690.683786 282.975995 
L 696.959325 282.975995 
L 703.234864 282.975995 
L 709.510403 282.975995 
L 715.785942 282.975995 
L 722.061481 282.975995 
L 728.33702 282.975995 
L 734.612559 282.975995 
L 740.888097 282.975995 
L 747.163636 282.975995 
" clip-path="url(#pab4d0bdad5)" style="fill: none; stroke: #feffb3; stroke-linecap: round"/>
   </g>
   <g id="patch_3">
    <path d="M 108 504 
L 108 69.12 
" style="fill: none; stroke: #ffffff; stroke-linejoin: miter; stroke-linecap: square"/>
   </g>
   <g id="patch_4">
    <path d="M 777.6 504 
L 777.6 69.12 
" style="fill: none; stroke: #ffffff; stroke-linejoin: miter; stroke-linecap: square"/>
   </g>
   <g id="patch_5">
    <path d="M 108 504 
L 777.6 504 
" style="fill: none; stroke: #ffffff; stroke-linejoin: miter; stroke-linecap: square"/>
   </g>
   <g id="patch_6">
    <path d="M 108 69.12 
L 777.6 69.12 
" style="fill: none; stroke: #ffffff; stroke-linejoin: miter; stroke-linecap: square"/>
   </g>
   <g id="text_15">
    <!-- area QPS ratio -->
    <g style="fill: #ffffff" transform="translate(395.179875 63.12)scale(0.144 -0.144)">
     <defs>
      <path id="LiberationSans-51" d="M 4672 2222 
Q 4672 1291 4203 691 
Q 3734 91 2900 -19 
Q 3028 -413 3236 -588 
Q 3444 -763 3763 -763 
Q 3934 -763 4122 -722 
L 4122 -1141 
Q 3831 -1209 3566 -1209 
Q 3094 -1209 2789 -942 
Q 2484 -675 2291 -50 
Q 1672 -19 1223 264 
Q 775 547 539 1051 
Q 303 1556 303 2222 
Q 303 3278 881 3873 
Q 1459 4469 2491 4469 
Q 3163 4469 3656 4201 
Q 4150 3934 4411 3425 
Q 4672 2916 4672 2222 
z
M 4063 2222 
Q 4063 3044 3652 3512 
Q 3241 3981 2491 3981 
Q 1734 3981 1321 3518 
Q 909 3056 909 2222 
Q 909 1394 1326 908 
Q 1744 422 2484 422 
Q 3247 422 3655 892 
Q 4063 1363 4063 2222 
z
" transform="scale(0.015625)"/>
      <path id="LiberationSans-50" d="M 3931 3078 
Q 3931 2453 3523 2084 
Q 3116 1716 2416 1716 
L 1122 1716 
L 1122 0 
L 525 0 
L 525 4403 
L 2378 4403 
Q 3119 4403 3525 4056 
Q 3931 3709 3931 3078 
z
M 3331 3072 
Q 3331 3925 2306 3925 
L 1122 3925 
L 1122 2188 
L 2331 2188 
Q 3331 2188 3331 3072 
z
" transform="scale(0.015625)"/>
      <path id="LiberationSans-53" d="M 3975 1216 
Q 3975 606 3498 271 
Q 3022 -63 2156 -63 
Q 547 -63 291 1056 
L 869 1172 
Q 969 775 1294 589 
Q 1619 403 2178 403 
Q 2756 403 3070 601 
Q 3384 800 3384 1184 
Q 3384 1400 3286 1534 
Q 3188 1669 3009 1756 
Q 2831 1844 2584 1903 
Q 2338 1963 2038 2031 
Q 1516 2147 1245 2262 
Q 975 2378 819 2520 
Q 663 2663 580 2853 
Q 497 3044 497 3291 
Q 497 3856 930 4162 
Q 1363 4469 2169 4469 
Q 2919 4469 3316 4239 
Q 3713 4009 3872 3456 
L 3284 3353 
Q 3188 3703 2916 3861 
Q 2644 4019 2163 4019 
Q 1634 4019 1356 3844 
Q 1078 3669 1078 3322 
Q 1078 3119 1186 2986 
Q 1294 2853 1497 2761 
Q 1700 2669 2306 2534 
Q 2509 2488 2711 2439 
Q 2913 2391 3097 2323 
Q 3281 2256 3442 2165 
Q 3603 2075 3722 1944 
Q 3841 1813 3908 1634 
Q 3975 1456 3975 1216 
z
" transform="scale(0.015625)"/>
     </defs>
     <use xlink:href="#LiberationSans-61"/>
     <use xlink:href="#LiberationSans-72" x="55.615234"/>
     <use xlink:href="#LiberationSans-65" x="88.916016"/>
     <use xlink:href="#LiberationSans-61" x="144.53125"/>
     <use xlink:href="#LiberationSans-20" x="200.146484"/>
     <use xlink:href="#LiberationSans-51" x="227.929688"/>
     <use xlink:href="#LiberationSans-50" x="305.712891"/>
     <use xlink:href="#LiberationSans-53" x="372.412109"/>
     <use xlink:href="#LiberationSans-20" x="439.111328"/>
     <use xlink:href="#LiberationSans-72" x="466.894531"/>
     <use xlink:href="#LiberationSans-61" x="500.195312"/>
     <use xlink:href="#LiberationSans-74" x="555.810547"/>
     <use xlink:href="#LiberationSans-69" x="583.59375"/>
     <use xlink:href="#LiberationSans-6f" x="605.810547"/>
    </g>
   </g>
   <g id="legend_1">
    <g id="line2d_15">
     <path d="M 631.646875 81.866875 
L 641.646875 81.866875 
L 651.646875 81.866875 
" style="fill: none"/>
     <g>
      <use xlink:href="#mad4347bee6" x="641.646875" y="81.866875" style="fill: #8dd3c7; stroke: #8dd3c7"/>
     </g>
    </g>
    <g id="text_16">
     <!-- observed geo/geos QPS -->
     <g style="fill: #ffffff" transform="translate(659.646875 85.366875)scale(0.1 -0.1)">
      <defs>
       <path id="LiberationSans-67" d="M 1713 -1328 
Q 1159 -1328 831 -1111 
Q 503 -894 409 -494 
L 975 -413 
Q 1031 -647 1223 -773 
Q 1416 -900 1728 -900 
Q 2569 -900 2569 84 
L 2569 628 
L 2563 628 
Q 2403 303 2125 139 
Q 1847 -25 1475 -25 
Q 853 -25 561 387 
Q 269 800 269 1684 
Q 269 2581 583 3007 
Q 897 3434 1538 3434 
Q 1897 3434 2161 3270 
Q 2425 3106 2569 2803 
L 2575 2803 
Q 2575 2897 2587 3128 
Q 2600 3359 2613 3381 
L 3147 3381 
Q 3128 3213 3128 2681 
L 3128 97 
Q 3128 -1328 1713 -1328 
z
M 2569 1691 
Q 2569 2103 2456 2401 
Q 2344 2700 2139 2858 
Q 1934 3016 1675 3016 
Q 1244 3016 1047 2703 
Q 850 2391 850 1691 
Q 850 997 1034 694 
Q 1219 391 1666 391 
Q 1931 391 2137 547 
Q 2344 703 2456 995 
Q 2569 1288 2569 1691 
z
" transform="scale(0.015625)"/>
       <path id="LiberationSans-2f" d="M 0 -63 
L 1284 4638 
L 1778 4638 
L 506 -63 
L 0 -63 
z
" transform="scale(0.015625)"/>
      </defs>
      <use xlink:href="#LiberationSans-6f"/>
      <use xlink:href="#LiberationSans-62" x="55.615234"/>
      <use xlink:href="#LiberationSans-73" x="111.230469"/>
      <use xlink:href="#LiberationSans-65" x="161.230469"/>
      <use xlink:href="#LiberationSans-72" x="216.845703"/>
      <use xlink:href="#LiberationSans-76" x="250.146484"/>
      <use xlink:href="#LiberationSans-65" x="300.146484"/>
      <use xlink:href="#LiberationSans-64" x="355.761719"/>
      <use xlink:href="#LiberationSans-20" x="411.376953"/>
      <use xlink:href="#LiberationSans-67" x="439.160156"/>
      <use xlink:href="#LiberationSans-65" x="494.775391"/>
      <use xlink:href="#LiberationSans-6f" x="550.390625"/>
      <use xlink:href="#LiberationSans-2f" x="606.005859"/>
      <use xlink:href="#LiberationSans-67" x="633.789062"/>
      <use xlink:href="#LiberationSans-65" x="689.404297"/>
      <use xlink:href="#LiberationSans-6f" x="745.019531"/>
      <use xlink:href="#LiberationSans-73" x="800.634766"/>
      <use xlink:href="#LiberationSans-20" x="850.634766"/>
      <use xlink:href="#LiberationSans-51" x="878.417969"/>
      <use xlink:href="#LiberationSans-50" x="956.201172"/>
      <use xlink:href="#LiberationSans-53" x="1022.900391"/>
     </g>
    </g>
    <g id="line2d_16">
     <path d="M 631.646875 96.18875 
L 641.646875 96.18875 
L 651.646875 96.18875 
" style="fill: none; stroke: #feffb3; stroke-linecap: round"/>
    </g>
    <g id="text_17">
     <!-- mean geo/geos QPS -->
     <g style="fill: #ffffff" transform="translate(659.646875 99.68875)scale(0.1 -0.1)">
      <defs>
       <path id="LiberationSans-6d" d="M 2400 0 
L 2400 2144 
Q 2400 2634 2265 2821 
Q 2131 3009 1781 3009 
Q 1422 3009 1212 2734 
Q 1003 2459 1003 1959 
L 1003 0 
L 444 0 
L 444 2659 
Q 444 3250 425 3381 
L 956 3381 
Q 959 3366 962 3297 
Q 966 3228 970 3139 
Q 975 3050 981 2803 
L 991 2803 
Q 1172 3163 1406 3303 
Q 1641 3444 1978 3444 
Q 2363 3444 2586 3291 
Q 2809 3138 2897 2803 
L 2906 2803 
Q 3081 3144 3329 3294 
Q 3578 3444 3931 3444 
Q 4444 3444 4676 3166 
Q 4909 2888 4909 2253 
L 4909 0 
L 4353 0 
L 4353 2144 
Q 4353 2634 4218 2821 
Q 4084 3009 3734 3009 
Q 3366 3009 3161 2736 
Q 2956 2463 2956 1959 
L 2956 0 
L 2400 0 
z
" transform="scale(0.015625)"/>
      </defs>
      <use xlink:href="#LiberationSans-6d"/>
      <use xlink:href="#LiberationSans-65" x="83.300781"/>
      <use xlink:href="#LiberationSans-61" x="138.916016"/>
      <use xlink:href="#LiberationSans-6e" x="194.53125"/>
      <use xlink:href="#LiberationSans-20" x="250.146484"/>
      <use xlink:href="#LiberationSans-67" x="277.929688"/>
      <use xlink:href="#LiberationSans-65" x="333.544922"/>
      <use xlink:href="#LiberationSans-6f" x="389.160156"/>
      <use xlink:href="#LiberationSans-2f" x="444.775391"/>
      <use xlink:href="#LiberationSans-67" x="472.558594"/>
      <use xlink:href="#LiberationSans-65" x="528.173828"/>
      <use xlink:href="#LiberationSans-6f" x="583.789062"/>
      <use xlink:href="#LiberationSans-73" x="639.404297"/>
      <use xlink:href="#LiberationSans-20" x="689.404297"/>
      <use xlink:href="#LiberationSans-51" x="717.1875"/>
      <use xlink:href="#LiberationSans-50" x="794.970703"/>
      <use xlink:href="#LiberationSans-53" x="861.669922"/>
     </g>
    </g>
   </g>
  </g>
 </g>
 <defs>
  <clipPath id="pab4d0bdad5">
   <rect x="108" y="69.12" width="669.6" height="434.88"/>
  </clipPath>
 </defs>
</svg>
